%TF.GenerationSoftware,KiCad,Pcbnew,(6.0.6-0)*%
%TF.CreationDate,2023-03-25T13:57:32+01:00*%
%TF.ProjectId,bubblebutbot,62756262-6c65-4627-9574-626f742e6b69,rev?*%
%TF.SameCoordinates,Original*%
%TF.FileFunction,Soldermask,Top*%
%TF.FilePolarity,Negative*%
%FSLAX46Y46*%
G04 Gerber Fmt 4.6, Leading zero omitted, Abs format (unit mm)*
G04 Created by KiCad (PCBNEW (6.0.6-0)) date 2023-03-25 13:57:32*
%MOMM*%
%LPD*%
G01*
G04 APERTURE LIST*
G04 Aperture macros list*
%AMRoundRect*
0 Rectangle with rounded corners*
0 $1 Rounding radius*
0 $2 $3 $4 $5 $6 $7 $8 $9 X,Y pos of 4 corners*
0 Add a 4 corners polygon primitive as box body*
4,1,4,$2,$3,$4,$5,$6,$7,$8,$9,$2,$3,0*
0 Add four circle primitives for the rounded corners*
1,1,$1+$1,$2,$3*
1,1,$1+$1,$4,$5*
1,1,$1+$1,$6,$7*
1,1,$1+$1,$8,$9*
0 Add four rect primitives between the rounded corners*
20,1,$1+$1,$2,$3,$4,$5,0*
20,1,$1+$1,$4,$5,$6,$7,0*
20,1,$1+$1,$6,$7,$8,$9,0*
20,1,$1+$1,$8,$9,$2,$3,0*%
G04 Aperture macros list end*
%ADD10C,3.000000*%
%ADD11R,3.000000X3.000000*%
%ADD12RoundRect,0.237500X0.237500X-0.250000X0.237500X0.250000X-0.237500X0.250000X-0.237500X-0.250000X0*%
%ADD13RoundRect,0.237500X0.250000X0.237500X-0.250000X0.237500X-0.250000X-0.237500X0.250000X-0.237500X0*%
%ADD14O,1.700000X1.700000*%
%ADD15R,1.700000X1.700000*%
%ADD16RoundRect,0.237500X0.237500X-0.287500X0.237500X0.287500X-0.237500X0.287500X-0.237500X-0.287500X0*%
%ADD17C,5.500000*%
%ADD18RoundRect,0.250000X-0.350000X-0.450000X0.350000X-0.450000X0.350000X0.450000X-0.350000X0.450000X0*%
%ADD19RoundRect,0.150000X-0.512500X-0.150000X0.512500X-0.150000X0.512500X0.150000X-0.512500X0.150000X0*%
%ADD20R,3.500000X1.800000*%
%ADD21RoundRect,0.150000X-0.587500X-0.150000X0.587500X-0.150000X0.587500X0.150000X-0.587500X0.150000X0*%
%ADD22RoundRect,0.237500X-0.300000X-0.237500X0.300000X-0.237500X0.300000X0.237500X-0.300000X0.237500X0*%
%ADD23R,2.000000X2.000000*%
%ADD24O,2.000000X1.600000*%
%ADD25RoundRect,0.237500X-0.237500X0.300000X-0.237500X-0.300000X0.237500X-0.300000X0.237500X0.300000X0*%
%ADD26R,1.800000X3.500000*%
G04 APERTURE END LIST*
D10*
%TO.C,J6*%
X157000000Y-87210000D03*
D11*
X157000000Y-92290000D03*
%TD*%
D12*
%TO.C,R4*%
X156917500Y-115837500D03*
X156917500Y-117662500D03*
%TD*%
D13*
%TO.C,R3*%
X158750000Y-119500000D03*
X156925000Y-119500000D03*
%TD*%
D14*
%TO.C,J4*%
X177200000Y-104500000D03*
X174660000Y-104500000D03*
X172120000Y-104500000D03*
X169580000Y-104500000D03*
X167040000Y-104500000D03*
D15*
X164500000Y-104500000D03*
%TD*%
D12*
%TO.C,R2*%
X167010000Y-81507500D03*
X167010000Y-83332500D03*
%TD*%
D16*
%TO.C,D3*%
X165010000Y-81500000D03*
X165010000Y-83250000D03*
%TD*%
D17*
%TO.C,H2*%
X159300000Y-139700000D03*
%TD*%
%TO.C,H1*%
X170180800Y-96887500D03*
%TD*%
D11*
%TO.C,J5*%
X157000000Y-103540000D03*
D10*
X157000000Y-98460000D03*
%TD*%
D18*
%TO.C,R1*%
X161250000Y-126780000D03*
X159250000Y-126780000D03*
%TD*%
D19*
%TO.C,U3*%
X159312500Y-128850000D03*
X159312500Y-129800000D03*
X159312500Y-130750000D03*
X161587500Y-130750000D03*
X161587500Y-128850000D03*
%TD*%
D11*
%TO.C,J1*%
X171210000Y-80000000D03*
D10*
X176290000Y-80000000D03*
%TD*%
D11*
%TO.C,J2*%
X155710000Y-80000000D03*
D10*
X160790000Y-80000000D03*
%TD*%
D14*
%TO.C,J3*%
X164500000Y-89275000D03*
X167040000Y-89275000D03*
X169580000Y-89275000D03*
X172120000Y-89275000D03*
X174660000Y-89275000D03*
D15*
X177200000Y-89275000D03*
%TD*%
D20*
%TO.C,D1*%
X160400000Y-122894420D03*
X165400000Y-122894420D03*
%TD*%
D21*
%TO.C,Q1*%
X170762500Y-128850000D03*
X170762500Y-130750000D03*
X172637500Y-129800000D03*
%TD*%
D22*
%TO.C,C1*%
X163337500Y-127000000D03*
X165062500Y-127000000D03*
%TD*%
D23*
%TO.C,U1*%
X154520000Y-117000000D03*
D24*
X154520000Y-119540000D03*
X154520000Y-122080000D03*
X154520000Y-124620000D03*
X154520000Y-127160000D03*
X154520000Y-129700000D03*
X154520000Y-132240000D03*
X154520000Y-134780000D03*
X177380000Y-134780000D03*
X177380000Y-132240000D03*
X177380000Y-129700000D03*
X177380000Y-127160000D03*
X177380000Y-124620000D03*
X177380000Y-122080000D03*
X177380000Y-119540000D03*
X177380000Y-117000000D03*
%TD*%
D25*
%TO.C,C4*%
X168325000Y-130787500D03*
X168325000Y-132512500D03*
%TD*%
D26*
%TO.C,D2*%
X171500000Y-120700000D03*
X171500000Y-125700000D03*
%TD*%
D25*
%TO.C,C3*%
X166140000Y-130787500D03*
X166140000Y-132512500D03*
%TD*%
%TO.C,C2*%
X163955000Y-130787500D03*
X163955000Y-132512500D03*
%TD*%
M02*
