%TF.GenerationSoftware,KiCad,Pcbnew,(6.0.6-0)*%
%TF.CreationDate,2023-03-25T13:57:32+01:00*%
%TF.ProjectId,bubblebutbot,62756262-6c65-4627-9574-626f742e6b69,rev?*%
%TF.SameCoordinates,Original*%
%TF.FileFunction,Copper,L2,Bot*%
%TF.FilePolarity,Positive*%
%FSLAX46Y46*%
G04 Gerber Fmt 4.6, Leading zero omitted, Abs format (unit mm)*
G04 Created by KiCad (PCBNEW (6.0.6-0)) date 2023-03-25 13:57:32*
%MOMM*%
%LPD*%
G01*
G04 APERTURE LIST*
%TA.AperFunction,ComponentPad*%
%ADD10C,3.000000*%
%TD*%
%TA.AperFunction,ComponentPad*%
%ADD11R,3.000000X3.000000*%
%TD*%
%TA.AperFunction,ComponentPad*%
%ADD12O,1.700000X1.700000*%
%TD*%
%TA.AperFunction,ComponentPad*%
%ADD13R,1.700000X1.700000*%
%TD*%
%TA.AperFunction,ComponentPad*%
%ADD14C,5.500000*%
%TD*%
%TA.AperFunction,ComponentPad*%
%ADD15R,2.000000X2.000000*%
%TD*%
%TA.AperFunction,ComponentPad*%
%ADD16O,2.000000X1.600000*%
%TD*%
%TA.AperFunction,ViaPad*%
%ADD17C,0.800000*%
%TD*%
%TA.AperFunction,Conductor*%
%ADD18C,0.350000*%
%TD*%
%TA.AperFunction,Conductor*%
%ADD19C,0.250000*%
%TD*%
G04 APERTURE END LIST*
D10*
%TO.P,J6,2,Pin_2*%
%TO.N,SPLY*%
X157000000Y-87210000D03*
D11*
%TO.P,J6,1,Pin_1*%
%TO.N,SERVO_PWM*%
X157000000Y-92290000D03*
%TD*%
D12*
%TO.P,J4,6,Pin_6*%
%TO.N,IN4*%
X177200000Y-104500000D03*
%TO.P,J4,5,Pin_5*%
%TO.N,IN3*%
X174660000Y-104500000D03*
%TO.P,J4,4,Pin_4*%
%TO.N,GND*%
X172120000Y-104500000D03*
%TO.P,J4,3,Pin_3*%
%TO.N,SPLY*%
X169580000Y-104500000D03*
%TO.P,J4,2,Pin_2*%
%TO.N,IN2*%
X167040000Y-104500000D03*
D13*
%TO.P,J4,1,Pin_1*%
%TO.N,IN1*%
X164500000Y-104500000D03*
%TD*%
D14*
%TO.P,H2,1*%
%TO.N,N/C*%
X159300000Y-139700000D03*
%TD*%
%TO.P,H1,1*%
%TO.N,N/C*%
X170180800Y-96887500D03*
%TD*%
D11*
%TO.P,J5,1,Pin_1*%
%TO.N,GND*%
X157000000Y-103540000D03*
D10*
%TO.P,J5,2,Pin_2*%
%TO.N,Net-(D1-Pad2)*%
X157000000Y-98460000D03*
%TD*%
D11*
%TO.P,J1,1,Pin_1*%
%TO.N,Net-(J1-Pad1)*%
X171210000Y-80000000D03*
D10*
%TO.P,J1,2,Pin_2*%
%TO.N,Net-(J1-Pad2)*%
X176290000Y-80000000D03*
%TD*%
D11*
%TO.P,J2,1,Pin_1*%
%TO.N,Net-(J2-Pad1)*%
X155710000Y-80000000D03*
D10*
%TO.P,J2,2,Pin_2*%
%TO.N,Net-(J2-Pad2)*%
X160790000Y-80000000D03*
%TD*%
D12*
%TO.P,J3,6,Pin_6*%
%TO.N,unconnected-(J3-Pad6)*%
X164500000Y-89275000D03*
%TO.P,J3,5,Pin_5*%
%TO.N,Net-(J2-Pad1)*%
X167040000Y-89275000D03*
%TO.P,J3,4,Pin_4*%
%TO.N,Net-(J2-Pad2)*%
X169580000Y-89275000D03*
%TO.P,J3,3,Pin_3*%
%TO.N,Net-(J1-Pad1)*%
X172120000Y-89275000D03*
%TO.P,J3,2,Pin_2*%
%TO.N,Net-(J1-Pad2)*%
X174660000Y-89275000D03*
D13*
%TO.P,J3,1,Pin_1*%
%TO.N,unconnected-(J3-Pad1)*%
X177200000Y-89275000D03*
%TD*%
D15*
%TO.P,U1,1,~{RST}*%
%TO.N,unconnected-(U1-Pad1)*%
X154520000Y-117000000D03*
D16*
%TO.P,U1,2,A0*%
%TO.N,BATTERY_LVL*%
X154520000Y-119540000D03*
%TO.P,U1,3,D0*%
%TO.N,unconnected-(U1-Pad3)*%
X154520000Y-122080000D03*
%TO.P,U1,4,SCK/D5*%
%TO.N,IN3*%
X154520000Y-124620000D03*
%TO.P,U1,5,MISO/D6*%
%TO.N,SERVO_PWM*%
X154520000Y-127160000D03*
%TO.P,U1,6,MOSI/D7*%
%TO.N,Net-(U1-Pad6)*%
X154520000Y-129700000D03*
%TO.P,U1,7,CS/D8*%
%TO.N,unconnected-(U1-Pad7)*%
X154520000Y-132240000D03*
%TO.P,U1,8,3V3*%
%TO.N,unconnected-(U1-Pad8)*%
X154520000Y-134780000D03*
%TO.P,U1,9,5V*%
%TO.N,WEMOS_USB_POWER*%
X177380000Y-134780000D03*
%TO.P,U1,10,GND*%
%TO.N,GND*%
X177380000Y-132240000D03*
%TO.P,U1,11,D4*%
%TO.N,IN4*%
X177380000Y-129700000D03*
%TO.P,U1,12,D3*%
%TO.N,unconnected-(U1-Pad12)*%
X177380000Y-127160000D03*
%TO.P,U1,13,SDA/D2*%
%TO.N,IN2*%
X177380000Y-124620000D03*
%TO.P,U1,14,SCL/D1*%
%TO.N,IN1*%
X177380000Y-122080000D03*
%TO.P,U1,15,RX*%
%TO.N,unconnected-(U1-Pad15)*%
X177380000Y-119540000D03*
%TO.P,U1,16,TX*%
%TO.N,unconnected-(U1-Pad16)*%
X177380000Y-117000000D03*
%TD*%
D17*
%TO.N,IN3*%
X162750000Y-117750000D03*
X168250000Y-112250000D03*
%TO.N,WEMOS_USB_POWER*%
X169250000Y-128750000D03*
%TD*%
D18*
%TO.N,Net-(J2-Pad2)*%
X169580000Y-89275000D02*
X169580000Y-89025000D01*
X169580000Y-89025000D02*
X164099128Y-83544128D01*
X164099128Y-83544128D02*
X161794128Y-83544128D01*
X161794128Y-83544128D02*
X160790000Y-82540000D01*
X160790000Y-82540000D02*
X160790000Y-80000000D01*
%TO.N,Net-(J2-Pad1)*%
X156734128Y-84094128D02*
X155710000Y-83070000D01*
X155710000Y-83070000D02*
X155710000Y-80000000D01*
D19*
%TO.N,IN1*%
X177380000Y-122080000D02*
X175476396Y-122080000D01*
X175476396Y-122080000D02*
X163775000Y-110378604D01*
X163775000Y-110378604D02*
X163775000Y-105225000D01*
X163775000Y-105225000D02*
X164500000Y-104500000D01*
D18*
%TO.N,Net-(J1-Pad2)*%
X174660000Y-89025000D02*
X174660000Y-83630000D01*
X174660000Y-83630000D02*
X176290000Y-82000000D01*
X176290000Y-82000000D02*
X176290000Y-80000000D01*
%TO.N,Net-(J1-Pad1)*%
X172120000Y-82910000D02*
X171210000Y-82000000D01*
X171210000Y-82000000D02*
X171210000Y-80000000D01*
D19*
%TO.N,IN3*%
X174660000Y-105840000D02*
X168250000Y-112250000D01*
X174660000Y-104500000D02*
X174660000Y-105840000D01*
X162750000Y-117750000D02*
X155880000Y-124620000D01*
X155880000Y-124620000D02*
X154520000Y-124620000D01*
%TO.N,IN2*%
X177380000Y-124620000D02*
X163325000Y-110565000D01*
X163325000Y-110565000D02*
X163325000Y-103325000D01*
X163325000Y-103325000D02*
X163400000Y-103250000D01*
X163400000Y-103250000D02*
X165790000Y-103250000D01*
X165790000Y-103250000D02*
X167040000Y-104500000D01*
%TO.N,IN4*%
X177380000Y-129700000D02*
X178705000Y-128375000D01*
X178705000Y-128375000D02*
X178705000Y-106005000D01*
X178705000Y-106005000D02*
X177200000Y-104500000D01*
D18*
%TO.N,Net-(J2-Pad1)*%
X156734128Y-84094128D02*
X163871310Y-84094128D01*
X163871310Y-84094128D02*
X167040000Y-87262818D01*
X167040000Y-87262818D02*
X167040000Y-89025000D01*
%TO.N,Net-(J1-Pad1)*%
X172120000Y-89025000D02*
X172120000Y-82910000D01*
%TO.N,WEMOS_USB_POWER*%
X175280000Y-134780000D02*
X177380000Y-134780000D01*
X169250000Y-128750000D02*
X175280000Y-134780000D01*
%TD*%
%TA.AperFunction,Conductor*%
%TO.N,GND*%
G36*
X177980242Y-74202466D02*
G01*
X177985811Y-74202476D01*
X177999641Y-74205656D01*
X178013481Y-74202524D01*
X178027670Y-74202549D01*
X178027669Y-74203161D01*
X178035608Y-74202500D01*
X178185047Y-74210892D01*
X178306384Y-74217706D01*
X178320416Y-74219287D01*
X178615972Y-74269504D01*
X178629743Y-74272647D01*
X178917820Y-74355641D01*
X178931151Y-74360306D01*
X179208125Y-74475032D01*
X179220848Y-74481159D01*
X179332841Y-74543056D01*
X179483228Y-74626172D01*
X179495192Y-74633689D01*
X179739691Y-74807170D01*
X179750738Y-74815980D01*
X179974269Y-75015740D01*
X179984260Y-75025731D01*
X180184020Y-75249262D01*
X180192830Y-75260309D01*
X180366311Y-75504808D01*
X180373828Y-75516772D01*
X180518839Y-75779148D01*
X180524970Y-75791879D01*
X180639692Y-76068843D01*
X180644359Y-76082180D01*
X180727353Y-76370257D01*
X180730496Y-76384028D01*
X180778235Y-76664998D01*
X180780712Y-76679579D01*
X180782294Y-76693620D01*
X180797469Y-76963825D01*
X180796803Y-76971621D01*
X180797549Y-76971622D01*
X180797524Y-76985813D01*
X180794344Y-76999641D01*
X180797475Y-77013480D01*
X180797467Y-77018311D01*
X180799500Y-77036504D01*
X180799500Y-140462920D01*
X180797534Y-140480242D01*
X180797524Y-140485811D01*
X180794344Y-140499641D01*
X180797476Y-140513481D01*
X180797451Y-140527670D01*
X180796839Y-140527669D01*
X180797500Y-140535608D01*
X180782294Y-140806380D01*
X180780713Y-140820416D01*
X180762040Y-140930318D01*
X180730497Y-141115968D01*
X180727353Y-141129743D01*
X180644359Y-141417820D01*
X180639694Y-141431151D01*
X180626857Y-141462143D01*
X180524970Y-141708121D01*
X180518839Y-141720852D01*
X180373828Y-141983228D01*
X180366311Y-141995192D01*
X180192830Y-142239691D01*
X180184020Y-142250738D01*
X179984260Y-142474269D01*
X179974269Y-142484260D01*
X179750738Y-142684020D01*
X179739691Y-142692830D01*
X179495192Y-142866311D01*
X179483228Y-142873828D01*
X179468987Y-142881699D01*
X179220848Y-143018841D01*
X179208125Y-143024968D01*
X178931151Y-143139694D01*
X178917820Y-143144359D01*
X178629743Y-143227353D01*
X178615972Y-143230496D01*
X178320416Y-143280713D01*
X178306384Y-143282294D01*
X178036172Y-143297469D01*
X178028379Y-143296803D01*
X178028378Y-143297549D01*
X178014187Y-143297524D01*
X178000359Y-143294344D01*
X177986520Y-143297475D01*
X177981689Y-143297467D01*
X177963496Y-143299500D01*
X154037080Y-143299500D01*
X154019758Y-143297534D01*
X154014189Y-143297524D01*
X154000359Y-143294344D01*
X153986519Y-143297476D01*
X153972330Y-143297451D01*
X153972331Y-143296839D01*
X153964392Y-143297500D01*
X153814953Y-143289108D01*
X153693616Y-143282294D01*
X153679584Y-143280713D01*
X153384028Y-143230496D01*
X153370257Y-143227353D01*
X153082180Y-143144359D01*
X153068849Y-143139694D01*
X152791875Y-143024968D01*
X152779152Y-143018841D01*
X152531013Y-142881699D01*
X152516772Y-142873828D01*
X152504808Y-142866311D01*
X152260309Y-142692830D01*
X152249262Y-142684020D01*
X152025731Y-142484260D01*
X152015740Y-142474269D01*
X151815980Y-142250738D01*
X151807170Y-142239691D01*
X151633689Y-141995192D01*
X151626172Y-141983228D01*
X151481161Y-141720852D01*
X151475030Y-141708121D01*
X151373143Y-141462143D01*
X151360306Y-141431151D01*
X151355641Y-141417820D01*
X151272647Y-141129743D01*
X151269503Y-141115968D01*
X151237960Y-140930318D01*
X151219287Y-140820416D01*
X151217706Y-140806380D01*
X151202548Y-140536456D01*
X151204382Y-140514897D01*
X151203227Y-140514764D01*
X151204043Y-140507674D01*
X151205655Y-140500718D01*
X151205656Y-140500000D01*
X151203654Y-140491225D01*
X151200500Y-140463210D01*
X151200500Y-139607166D01*
X156345958Y-139607166D01*
X156354865Y-139947310D01*
X156402809Y-140284176D01*
X156489152Y-140613300D01*
X156612753Y-140930318D01*
X156771971Y-141231029D01*
X156774021Y-141234012D01*
X156774023Y-141234015D01*
X156962640Y-141508455D01*
X156962646Y-141508462D01*
X156964697Y-141511447D01*
X157188376Y-141767855D01*
X157440044Y-141996855D01*
X157716364Y-142195411D01*
X158013674Y-142360892D01*
X158328035Y-142491104D01*
X158331529Y-142492099D01*
X158331531Y-142492100D01*
X158651777Y-142583325D01*
X158651782Y-142583326D01*
X158655278Y-142584322D01*
X158848204Y-142615915D01*
X158987485Y-142638723D01*
X158987492Y-142638724D01*
X158991066Y-142639309D01*
X159161008Y-142647324D01*
X159327322Y-142655167D01*
X159327323Y-142655167D01*
X159330949Y-142655338D01*
X159340272Y-142654702D01*
X159666791Y-142632443D01*
X159666799Y-142632442D01*
X159670422Y-142632195D01*
X159673998Y-142631532D01*
X159674000Y-142631532D01*
X160001421Y-142570848D01*
X160001425Y-142570847D01*
X160004986Y-142570187D01*
X160330205Y-142470137D01*
X160641769Y-142333370D01*
X160935549Y-142161699D01*
X160938458Y-142159515D01*
X161204743Y-141959582D01*
X161204747Y-141959579D01*
X161207650Y-141957399D01*
X161454467Y-141723179D01*
X161672727Y-141462143D01*
X161822579Y-141234015D01*
X161857551Y-141180776D01*
X161857556Y-141180767D01*
X161859538Y-141177750D01*
X161985685Y-140926936D01*
X162010797Y-140877007D01*
X162010800Y-140876999D01*
X162012424Y-140873771D01*
X162013669Y-140870369D01*
X162128110Y-140557645D01*
X162128113Y-140557635D01*
X162129358Y-140554233D01*
X162130203Y-140550711D01*
X162130206Y-140550703D01*
X162207943Y-140226903D01*
X162207944Y-140226899D01*
X162208790Y-140223374D01*
X162241763Y-139950901D01*
X162249332Y-139888356D01*
X162249333Y-139888349D01*
X162249668Y-139885577D01*
X162255500Y-139700000D01*
X162250147Y-139607166D01*
X162236122Y-139363923D01*
X162236121Y-139363918D01*
X162235913Y-139360303D01*
X162177412Y-139025109D01*
X162151793Y-138938618D01*
X162081805Y-138702345D01*
X162080773Y-138698860D01*
X162043728Y-138612008D01*
X161948699Y-138389218D01*
X161947276Y-138385881D01*
X161778691Y-138090319D01*
X161577252Y-137816093D01*
X161345629Y-137566838D01*
X161342875Y-137564486D01*
X161342871Y-137564482D01*
X161247831Y-137483310D01*
X161086893Y-137345856D01*
X161083890Y-137343838D01*
X161083882Y-137343832D01*
X160908072Y-137225694D01*
X160804472Y-137156077D01*
X160502110Y-137000016D01*
X160183815Y-136879743D01*
X159853805Y-136796850D01*
X159711627Y-136778132D01*
X159520059Y-136752911D01*
X159520051Y-136752910D01*
X159516455Y-136752437D01*
X159374428Y-136750206D01*
X159179879Y-136747149D01*
X159179875Y-136747149D01*
X159176237Y-136747092D01*
X159172623Y-136747453D01*
X159172617Y-136747453D01*
X158935277Y-136771143D01*
X158837658Y-136780887D01*
X158505207Y-136853373D01*
X158501780Y-136854546D01*
X158501774Y-136854548D01*
X158186718Y-136962416D01*
X158183292Y-136963589D01*
X157876177Y-137110076D01*
X157587934Y-137290890D01*
X157585098Y-137293162D01*
X157585091Y-137293167D01*
X157430760Y-137416809D01*
X157322384Y-137503635D01*
X157083047Y-137745493D01*
X157080811Y-137748345D01*
X157080809Y-137748347D01*
X156875331Y-138010403D01*
X156873094Y-138013256D01*
X156695308Y-138303376D01*
X156693783Y-138306661D01*
X156693781Y-138306665D01*
X156584394Y-138542320D01*
X156552046Y-138612008D01*
X156445206Y-138935060D01*
X156376206Y-139268252D01*
X156345958Y-139607166D01*
X151200500Y-139607166D01*
X151200500Y-134829126D01*
X153315541Y-134829126D01*
X153345935Y-135030097D01*
X153416119Y-135220852D01*
X153419479Y-135226272D01*
X153419480Y-135226273D01*
X153519863Y-135388176D01*
X153519866Y-135388180D01*
X153523226Y-135393599D01*
X153662881Y-135541280D01*
X153829379Y-135657863D01*
X154015919Y-135738586D01*
X154061947Y-135748202D01*
X154210144Y-135779162D01*
X154210149Y-135779163D01*
X154214880Y-135780151D01*
X154219762Y-135780407D01*
X154219871Y-135780413D01*
X154219887Y-135780413D01*
X154221539Y-135780500D01*
X154770800Y-135780500D01*
X154818793Y-135775625D01*
X154915868Y-135765765D01*
X154915870Y-135765765D01*
X154922216Y-135765120D01*
X155116172Y-135704338D01*
X155293944Y-135605797D01*
X155448271Y-135473523D01*
X155572848Y-135312919D01*
X155650542Y-135155023D01*
X155659769Y-135136272D01*
X155662587Y-135130545D01*
X155664846Y-135121872D01*
X155712212Y-134940034D01*
X155712212Y-134940031D01*
X155713822Y-134933852D01*
X155724459Y-134730874D01*
X155694065Y-134529903D01*
X155623881Y-134339148D01*
X155620520Y-134333727D01*
X155520137Y-134171824D01*
X155520134Y-134171820D01*
X155516774Y-134166401D01*
X155377119Y-134018720D01*
X155210621Y-133902137D01*
X155024081Y-133821414D01*
X154978053Y-133811798D01*
X154829856Y-133780838D01*
X154829851Y-133780837D01*
X154825120Y-133779849D01*
X154820238Y-133779593D01*
X154820129Y-133779587D01*
X154820113Y-133779587D01*
X154818461Y-133779500D01*
X154269200Y-133779500D01*
X154221207Y-133784375D01*
X154124132Y-133794235D01*
X154124130Y-133794235D01*
X154117784Y-133794880D01*
X153923828Y-133855662D01*
X153746056Y-133954203D01*
X153591729Y-134086477D01*
X153467152Y-134247081D01*
X153377413Y-134429455D01*
X153375804Y-134435633D01*
X153375803Y-134435635D01*
X153349603Y-134536220D01*
X153326178Y-134626148D01*
X153315541Y-134829126D01*
X151200500Y-134829126D01*
X151200500Y-132289126D01*
X153315541Y-132289126D01*
X153345935Y-132490097D01*
X153416119Y-132680852D01*
X153419479Y-132686272D01*
X153419480Y-132686273D01*
X153519863Y-132848176D01*
X153519866Y-132848180D01*
X153523226Y-132853599D01*
X153662881Y-133001280D01*
X153829379Y-133117863D01*
X154015919Y-133198586D01*
X154061947Y-133208202D01*
X154210144Y-133239162D01*
X154210149Y-133239163D01*
X154214880Y-133240151D01*
X154219762Y-133240407D01*
X154219871Y-133240413D01*
X154219887Y-133240413D01*
X154221539Y-133240500D01*
X154770800Y-133240500D01*
X154818793Y-133235625D01*
X154915868Y-133225765D01*
X154915870Y-133225765D01*
X154922216Y-133225120D01*
X155116172Y-133164338D01*
X155293944Y-133065797D01*
X155448271Y-132933523D01*
X155572848Y-132772919D01*
X155662587Y-132590545D01*
X155688752Y-132490097D01*
X155712212Y-132400034D01*
X155712212Y-132400031D01*
X155713822Y-132393852D01*
X155724459Y-132190874D01*
X155694065Y-131989903D01*
X155623881Y-131799148D01*
X155570345Y-131712802D01*
X155520137Y-131631824D01*
X155520134Y-131631820D01*
X155516774Y-131626401D01*
X155377119Y-131478720D01*
X155210621Y-131362137D01*
X155024081Y-131281414D01*
X154978053Y-131271798D01*
X154829856Y-131240838D01*
X154829851Y-131240837D01*
X154825120Y-131239849D01*
X154820238Y-131239593D01*
X154820129Y-131239587D01*
X154820113Y-131239587D01*
X154818461Y-131239500D01*
X154269200Y-131239500D01*
X154221207Y-131244375D01*
X154124132Y-131254235D01*
X154124130Y-131254235D01*
X154117784Y-131254880D01*
X153923828Y-131315662D01*
X153746056Y-131414203D01*
X153591729Y-131546477D01*
X153467152Y-131707081D01*
X153377413Y-131889455D01*
X153375804Y-131895633D01*
X153375803Y-131895635D01*
X153349603Y-131996220D01*
X153326178Y-132086148D01*
X153315541Y-132289126D01*
X151200500Y-132289126D01*
X151200500Y-129749126D01*
X153315541Y-129749126D01*
X153345935Y-129950097D01*
X153416119Y-130140852D01*
X153419479Y-130146272D01*
X153419480Y-130146273D01*
X153519863Y-130308176D01*
X153519866Y-130308180D01*
X153523226Y-130313599D01*
X153662881Y-130461280D01*
X153829379Y-130577863D01*
X154015919Y-130658586D01*
X154061947Y-130668202D01*
X154210144Y-130699162D01*
X154210149Y-130699163D01*
X154214880Y-130700151D01*
X154219762Y-130700407D01*
X154219871Y-130700413D01*
X154219887Y-130700413D01*
X154221539Y-130700500D01*
X154770800Y-130700500D01*
X154818793Y-130695625D01*
X154915868Y-130685765D01*
X154915870Y-130685765D01*
X154922216Y-130685120D01*
X155116172Y-130624338D01*
X155293944Y-130525797D01*
X155448271Y-130393523D01*
X155572848Y-130232919D01*
X155662587Y-130050545D01*
X155688752Y-129950097D01*
X155712212Y-129860034D01*
X155712212Y-129860031D01*
X155713822Y-129853852D01*
X155724459Y-129650874D01*
X155694065Y-129449903D01*
X155623881Y-129259148D01*
X155576857Y-129183305D01*
X155520137Y-129091824D01*
X155520134Y-129091820D01*
X155516774Y-129086401D01*
X155377119Y-128938720D01*
X155210621Y-128822137D01*
X155043922Y-128750000D01*
X168644318Y-128750000D01*
X168664956Y-128906762D01*
X168725464Y-129052841D01*
X168821718Y-129178282D01*
X168947159Y-129274536D01*
X169093238Y-129335044D01*
X169250000Y-129355682D01*
X169258188Y-129354604D01*
X169266446Y-129354604D01*
X169266446Y-129356995D01*
X169324495Y-129366043D01*
X169359898Y-129390935D01*
X172251706Y-132282744D01*
X174976654Y-135007692D01*
X174991367Y-135025909D01*
X174992778Y-135027460D01*
X174998428Y-135036210D01*
X175006608Y-135042658D01*
X175006610Y-135042661D01*
X175024461Y-135056734D01*
X175028835Y-135060621D01*
X175028901Y-135060543D01*
X175032860Y-135063898D01*
X175036538Y-135067576D01*
X175040762Y-135070595D01*
X175040771Y-135070602D01*
X175052074Y-135078679D01*
X175056820Y-135082243D01*
X175096600Y-135113603D01*
X175105148Y-135116605D01*
X175112519Y-135121872D01*
X175122492Y-135124855D01*
X175122495Y-135124856D01*
X175161083Y-135136396D01*
X175166730Y-135138231D01*
X175207064Y-135152395D01*
X175207065Y-135152395D01*
X175214548Y-135155023D01*
X175220055Y-135155500D01*
X175222762Y-135155500D01*
X175225332Y-135155611D01*
X175225494Y-135155659D01*
X175225488Y-135155804D01*
X175226108Y-135155843D01*
X175232287Y-135157691D01*
X175285581Y-135155597D01*
X175290527Y-135155500D01*
X176166229Y-135155500D01*
X176234350Y-135175502D01*
X176275180Y-135221434D01*
X176276119Y-135220852D01*
X176279484Y-135226279D01*
X176379863Y-135388176D01*
X176379866Y-135388180D01*
X176383226Y-135393599D01*
X176522881Y-135541280D01*
X176689379Y-135657863D01*
X176875919Y-135738586D01*
X176921947Y-135748202D01*
X177070144Y-135779162D01*
X177070149Y-135779163D01*
X177074880Y-135780151D01*
X177079762Y-135780407D01*
X177079871Y-135780413D01*
X177079887Y-135780413D01*
X177081539Y-135780500D01*
X177630800Y-135780500D01*
X177678793Y-135775625D01*
X177775868Y-135765765D01*
X177775870Y-135765765D01*
X177782216Y-135765120D01*
X177976172Y-135704338D01*
X178153944Y-135605797D01*
X178308271Y-135473523D01*
X178432848Y-135312919D01*
X178510542Y-135155023D01*
X178519769Y-135136272D01*
X178522587Y-135130545D01*
X178524846Y-135121872D01*
X178572212Y-134940034D01*
X178572212Y-134940031D01*
X178573822Y-134933852D01*
X178584459Y-134730874D01*
X178554065Y-134529903D01*
X178483881Y-134339148D01*
X178480520Y-134333727D01*
X178380137Y-134171824D01*
X178380134Y-134171820D01*
X178376774Y-134166401D01*
X178237119Y-134018720D01*
X178070621Y-133902137D01*
X177884081Y-133821414D01*
X177838053Y-133811798D01*
X177689856Y-133780838D01*
X177689851Y-133780837D01*
X177685120Y-133779849D01*
X177680238Y-133779593D01*
X177680129Y-133779587D01*
X177680113Y-133779587D01*
X177678461Y-133779500D01*
X177129200Y-133779500D01*
X177081207Y-133784375D01*
X176984132Y-133794235D01*
X176984130Y-133794235D01*
X176977784Y-133794880D01*
X176783828Y-133855662D01*
X176606056Y-133954203D01*
X176451729Y-134086477D01*
X176447822Y-134091514D01*
X176447820Y-134091516D01*
X176331064Y-134242037D01*
X176331062Y-134242040D01*
X176327152Y-134247081D01*
X176324334Y-134252807D01*
X176324332Y-134252811D01*
X176284318Y-134334130D01*
X176236295Y-134386421D01*
X176171264Y-134404500D01*
X175487727Y-134404500D01*
X175419606Y-134384498D01*
X175398632Y-134367595D01*
X169890935Y-128859898D01*
X169856909Y-128797586D01*
X169855613Y-128766446D01*
X169854604Y-128766446D01*
X169854604Y-128758188D01*
X169855682Y-128750000D01*
X169835044Y-128593238D01*
X169774536Y-128447159D01*
X169678282Y-128321718D01*
X169552841Y-128225464D01*
X169406762Y-128164956D01*
X169250000Y-128144318D01*
X169093238Y-128164956D01*
X168947159Y-128225464D01*
X168821718Y-128321718D01*
X168725464Y-128447159D01*
X168664956Y-128593238D01*
X168644318Y-128750000D01*
X155043922Y-128750000D01*
X155024081Y-128741414D01*
X154951543Y-128726260D01*
X154829856Y-128700838D01*
X154829851Y-128700837D01*
X154825120Y-128699849D01*
X154820238Y-128699593D01*
X154820129Y-128699587D01*
X154820113Y-128699587D01*
X154818461Y-128699500D01*
X154269200Y-128699500D01*
X154256018Y-128700839D01*
X154124132Y-128714235D01*
X154124130Y-128714235D01*
X154117784Y-128714880D01*
X153923828Y-128775662D01*
X153746056Y-128874203D01*
X153591729Y-129006477D01*
X153467152Y-129167081D01*
X153377413Y-129349455D01*
X153375804Y-129355633D01*
X153375803Y-129355635D01*
X153349603Y-129456220D01*
X153326178Y-129546148D01*
X153315541Y-129749126D01*
X151200500Y-129749126D01*
X151200500Y-127209126D01*
X153315541Y-127209126D01*
X153345935Y-127410097D01*
X153416119Y-127600852D01*
X153419479Y-127606272D01*
X153419480Y-127606273D01*
X153519863Y-127768176D01*
X153519866Y-127768180D01*
X153523226Y-127773599D01*
X153662881Y-127921280D01*
X153829379Y-128037863D01*
X154015919Y-128118586D01*
X154061947Y-128128202D01*
X154210144Y-128159162D01*
X154210149Y-128159163D01*
X154214880Y-128160151D01*
X154219762Y-128160407D01*
X154219871Y-128160413D01*
X154219887Y-128160413D01*
X154221539Y-128160500D01*
X154770800Y-128160500D01*
X154818793Y-128155625D01*
X154915868Y-128145765D01*
X154915870Y-128145765D01*
X154922216Y-128145120D01*
X155116172Y-128084338D01*
X155293944Y-127985797D01*
X155448271Y-127853523D01*
X155572848Y-127692919D01*
X155662587Y-127510545D01*
X155688752Y-127410097D01*
X155712212Y-127320034D01*
X155712212Y-127320031D01*
X155713822Y-127313852D01*
X155724459Y-127110874D01*
X155694065Y-126909903D01*
X155623881Y-126719148D01*
X155570345Y-126632802D01*
X155520137Y-126551824D01*
X155520134Y-126551820D01*
X155516774Y-126546401D01*
X155377119Y-126398720D01*
X155210621Y-126282137D01*
X155024081Y-126201414D01*
X154978053Y-126191798D01*
X154829856Y-126160838D01*
X154829851Y-126160837D01*
X154825120Y-126159849D01*
X154820238Y-126159593D01*
X154820129Y-126159587D01*
X154820113Y-126159587D01*
X154818461Y-126159500D01*
X154269200Y-126159500D01*
X154221207Y-126164375D01*
X154124132Y-126174235D01*
X154124130Y-126174235D01*
X154117784Y-126174880D01*
X153923828Y-126235662D01*
X153746056Y-126334203D01*
X153591729Y-126466477D01*
X153467152Y-126627081D01*
X153377413Y-126809455D01*
X153375804Y-126815633D01*
X153375803Y-126815635D01*
X153349603Y-126916220D01*
X153326178Y-127006148D01*
X153315541Y-127209126D01*
X151200500Y-127209126D01*
X151200500Y-124669126D01*
X153315541Y-124669126D01*
X153345935Y-124870097D01*
X153416119Y-125060852D01*
X153419479Y-125066272D01*
X153419480Y-125066273D01*
X153519863Y-125228176D01*
X153519866Y-125228180D01*
X153523226Y-125233599D01*
X153662881Y-125381280D01*
X153829379Y-125497863D01*
X154015919Y-125578586D01*
X154061947Y-125588202D01*
X154210144Y-125619162D01*
X154210149Y-125619163D01*
X154214880Y-125620151D01*
X154219762Y-125620407D01*
X154219871Y-125620413D01*
X154219887Y-125620413D01*
X154221539Y-125620500D01*
X154770800Y-125620500D01*
X154818793Y-125615625D01*
X154915868Y-125605765D01*
X154915870Y-125605765D01*
X154922216Y-125605120D01*
X155116172Y-125544338D01*
X155293944Y-125445797D01*
X155448271Y-125313523D01*
X155572848Y-125152919D01*
X155621098Y-125054863D01*
X155640284Y-125015871D01*
X155688307Y-124963580D01*
X155753339Y-124945500D01*
X155860290Y-124945500D01*
X155871272Y-124945980D01*
X155897820Y-124948303D01*
X155897822Y-124948303D01*
X155908807Y-124949264D01*
X155945215Y-124939508D01*
X155955942Y-124937130D01*
X155959301Y-124936538D01*
X155993045Y-124930588D01*
X156002590Y-124925077D01*
X156005866Y-124923885D01*
X156009034Y-124922408D01*
X156019684Y-124919554D01*
X156050544Y-124897945D01*
X156059815Y-124892039D01*
X156082906Y-124878707D01*
X156092455Y-124873194D01*
X156116685Y-124844317D01*
X156124111Y-124836215D01*
X162577618Y-118382709D01*
X162639930Y-118348683D01*
X162683158Y-118346882D01*
X162750000Y-118355682D01*
X162758188Y-118354604D01*
X162898574Y-118336122D01*
X162906762Y-118335044D01*
X163052841Y-118274536D01*
X163178282Y-118178282D01*
X163274536Y-118052841D01*
X163335044Y-117906762D01*
X163343983Y-117838867D01*
X163354604Y-117758188D01*
X163354604Y-117758187D01*
X163355682Y-117750000D01*
X163335044Y-117593238D01*
X163274536Y-117447159D01*
X163178282Y-117321718D01*
X163052841Y-117225464D01*
X162906762Y-117164956D01*
X162750000Y-117144318D01*
X162593238Y-117164956D01*
X162447159Y-117225464D01*
X162321718Y-117321718D01*
X162225464Y-117447159D01*
X162164956Y-117593238D01*
X162144318Y-117750000D01*
X162152316Y-117810747D01*
X162153118Y-117816840D01*
X162142179Y-117886989D01*
X162117291Y-117922382D01*
X158958836Y-121080838D01*
X155825886Y-124213788D01*
X155763574Y-124247814D01*
X155692759Y-124242749D01*
X155635923Y-124200202D01*
X155625114Y-124182500D01*
X155623881Y-124179148D01*
X155620516Y-124173720D01*
X155520137Y-124011824D01*
X155520134Y-124011820D01*
X155516774Y-124006401D01*
X155377119Y-123858720D01*
X155210621Y-123742137D01*
X155024081Y-123661414D01*
X154978053Y-123651798D01*
X154829856Y-123620838D01*
X154829851Y-123620837D01*
X154825120Y-123619849D01*
X154820238Y-123619593D01*
X154820129Y-123619587D01*
X154820113Y-123619587D01*
X154818461Y-123619500D01*
X154269200Y-123619500D01*
X154221207Y-123624375D01*
X154124132Y-123634235D01*
X154124130Y-123634235D01*
X154117784Y-123634880D01*
X153923828Y-123695662D01*
X153746056Y-123794203D01*
X153591729Y-123926477D01*
X153467152Y-124087081D01*
X153377413Y-124269455D01*
X153326178Y-124466148D01*
X153315541Y-124669126D01*
X151200500Y-124669126D01*
X151200500Y-122129126D01*
X153315541Y-122129126D01*
X153345935Y-122330097D01*
X153416119Y-122520852D01*
X153419479Y-122526272D01*
X153419480Y-122526273D01*
X153519863Y-122688176D01*
X153519866Y-122688180D01*
X153523226Y-122693599D01*
X153662881Y-122841280D01*
X153829379Y-122957863D01*
X154015919Y-123038586D01*
X154061947Y-123048202D01*
X154210144Y-123079162D01*
X154210149Y-123079163D01*
X154214880Y-123080151D01*
X154219762Y-123080407D01*
X154219871Y-123080413D01*
X154219887Y-123080413D01*
X154221539Y-123080500D01*
X154770800Y-123080500D01*
X154818793Y-123075625D01*
X154915868Y-123065765D01*
X154915870Y-123065765D01*
X154922216Y-123065120D01*
X155116172Y-123004338D01*
X155293944Y-122905797D01*
X155448271Y-122773523D01*
X155572848Y-122612919D01*
X155662587Y-122430545D01*
X155688752Y-122330097D01*
X155712212Y-122240034D01*
X155712212Y-122240031D01*
X155713822Y-122233852D01*
X155724459Y-122030874D01*
X155694065Y-121829903D01*
X155623881Y-121639148D01*
X155620520Y-121633727D01*
X155520137Y-121471824D01*
X155520134Y-121471820D01*
X155516774Y-121466401D01*
X155377119Y-121318720D01*
X155210621Y-121202137D01*
X155024081Y-121121414D01*
X154978053Y-121111798D01*
X154829856Y-121080838D01*
X154829851Y-121080837D01*
X154825120Y-121079849D01*
X154820238Y-121079593D01*
X154820129Y-121079587D01*
X154820113Y-121079587D01*
X154818461Y-121079500D01*
X154269200Y-121079500D01*
X154221207Y-121084375D01*
X154124132Y-121094235D01*
X154124130Y-121094235D01*
X154117784Y-121094880D01*
X153923828Y-121155662D01*
X153746056Y-121254203D01*
X153591729Y-121386477D01*
X153467152Y-121547081D01*
X153377413Y-121729455D01*
X153375804Y-121735633D01*
X153375803Y-121735635D01*
X153349603Y-121836220D01*
X153326178Y-121926148D01*
X153315541Y-122129126D01*
X151200500Y-122129126D01*
X151200500Y-119589126D01*
X153315541Y-119589126D01*
X153345935Y-119790097D01*
X153416119Y-119980852D01*
X153419479Y-119986272D01*
X153419480Y-119986273D01*
X153519863Y-120148176D01*
X153519866Y-120148180D01*
X153523226Y-120153599D01*
X153662881Y-120301280D01*
X153829379Y-120417863D01*
X154015919Y-120498586D01*
X154061947Y-120508202D01*
X154210144Y-120539162D01*
X154210149Y-120539163D01*
X154214880Y-120540151D01*
X154219762Y-120540407D01*
X154219871Y-120540413D01*
X154219887Y-120540413D01*
X154221539Y-120540500D01*
X154770800Y-120540500D01*
X154818793Y-120535625D01*
X154915868Y-120525765D01*
X154915870Y-120525765D01*
X154922216Y-120525120D01*
X155116172Y-120464338D01*
X155293944Y-120365797D01*
X155448271Y-120233523D01*
X155572848Y-120072919D01*
X155662587Y-119890545D01*
X155688752Y-119790097D01*
X155712212Y-119700034D01*
X155712212Y-119700031D01*
X155713822Y-119693852D01*
X155724459Y-119490874D01*
X155694065Y-119289903D01*
X155623881Y-119099148D01*
X155570345Y-119012802D01*
X155520137Y-118931824D01*
X155520134Y-118931820D01*
X155516774Y-118926401D01*
X155377119Y-118778720D01*
X155210621Y-118662137D01*
X155024081Y-118581414D01*
X154978053Y-118571798D01*
X154829856Y-118540838D01*
X154829851Y-118540837D01*
X154825120Y-118539849D01*
X154820238Y-118539593D01*
X154820129Y-118539587D01*
X154820113Y-118539587D01*
X154818461Y-118539500D01*
X154269200Y-118539500D01*
X154221207Y-118544375D01*
X154124132Y-118554235D01*
X154124130Y-118554235D01*
X154117784Y-118554880D01*
X153923828Y-118615662D01*
X153746056Y-118714203D01*
X153591729Y-118846477D01*
X153467152Y-119007081D01*
X153377413Y-119189455D01*
X153375804Y-119195633D01*
X153375803Y-119195635D01*
X153349603Y-119296220D01*
X153326178Y-119386148D01*
X153315541Y-119589126D01*
X151200500Y-119589126D01*
X151200500Y-118019748D01*
X153319500Y-118019748D01*
X153320707Y-118025816D01*
X153327386Y-118059392D01*
X153331133Y-118078231D01*
X153375448Y-118144552D01*
X153441769Y-118188867D01*
X153453938Y-118191288D01*
X153453939Y-118191288D01*
X153494184Y-118199293D01*
X153500252Y-118200500D01*
X155539748Y-118200500D01*
X155545816Y-118199293D01*
X155586061Y-118191288D01*
X155586062Y-118191288D01*
X155598231Y-118188867D01*
X155664552Y-118144552D01*
X155708867Y-118078231D01*
X155712615Y-118059392D01*
X155719293Y-118025816D01*
X155720500Y-118019748D01*
X155720500Y-115980252D01*
X155708867Y-115921769D01*
X155664552Y-115855448D01*
X155598231Y-115811133D01*
X155586062Y-115808712D01*
X155586061Y-115808712D01*
X155545816Y-115800707D01*
X155539748Y-115799500D01*
X153500252Y-115799500D01*
X153494184Y-115800707D01*
X153453939Y-115808712D01*
X153453938Y-115808712D01*
X153441769Y-115811133D01*
X153375448Y-115855448D01*
X153331133Y-115921769D01*
X153319500Y-115980252D01*
X153319500Y-118019748D01*
X151200500Y-118019748D01*
X151200500Y-110593807D01*
X162995736Y-110593807D01*
X162998590Y-110604456D01*
X163005491Y-110630210D01*
X163007870Y-110640942D01*
X163014412Y-110678045D01*
X163019923Y-110687590D01*
X163021115Y-110690866D01*
X163022592Y-110694034D01*
X163025446Y-110704684D01*
X163031770Y-110713715D01*
X163047055Y-110735544D01*
X163052961Y-110744815D01*
X163066293Y-110767906D01*
X163071806Y-110777455D01*
X163080251Y-110784541D01*
X163100682Y-110801685D01*
X163108785Y-110809111D01*
X176283022Y-123983348D01*
X176317048Y-124045660D01*
X176311983Y-124116475D01*
X176306981Y-124128073D01*
X176240234Y-124263720D01*
X176240231Y-124263728D01*
X176237413Y-124269455D01*
X176186178Y-124466148D01*
X176175541Y-124669126D01*
X176205935Y-124870097D01*
X176276119Y-125060852D01*
X176279479Y-125066272D01*
X176279480Y-125066273D01*
X176379863Y-125228176D01*
X176379866Y-125228180D01*
X176383226Y-125233599D01*
X176522881Y-125381280D01*
X176689379Y-125497863D01*
X176875919Y-125578586D01*
X176921947Y-125588202D01*
X177070144Y-125619162D01*
X177070149Y-125619163D01*
X177074880Y-125620151D01*
X177079762Y-125620407D01*
X177079871Y-125620413D01*
X177079887Y-125620413D01*
X177081539Y-125620500D01*
X177630800Y-125620500D01*
X177678793Y-125615625D01*
X177775868Y-125605765D01*
X177775870Y-125605765D01*
X177782216Y-125605120D01*
X177976172Y-125544338D01*
X178153944Y-125445797D01*
X178171504Y-125430746D01*
X178236241Y-125401603D01*
X178306459Y-125412085D01*
X178359864Y-125458867D01*
X178379500Y-125526415D01*
X178379500Y-126256372D01*
X178359498Y-126324493D01*
X178305842Y-126370986D01*
X178235568Y-126381090D01*
X178181230Y-126359585D01*
X178075856Y-126285802D01*
X178075851Y-126285799D01*
X178070621Y-126282137D01*
X177884081Y-126201414D01*
X177838053Y-126191798D01*
X177689856Y-126160838D01*
X177689851Y-126160837D01*
X177685120Y-126159849D01*
X177680238Y-126159593D01*
X177680129Y-126159587D01*
X177680113Y-126159587D01*
X177678461Y-126159500D01*
X177129200Y-126159500D01*
X177081207Y-126164375D01*
X176984132Y-126174235D01*
X176984130Y-126174235D01*
X176977784Y-126174880D01*
X176783828Y-126235662D01*
X176606056Y-126334203D01*
X176451729Y-126466477D01*
X176327152Y-126627081D01*
X176237413Y-126809455D01*
X176235804Y-126815633D01*
X176235803Y-126815635D01*
X176209603Y-126916220D01*
X176186178Y-127006148D01*
X176175541Y-127209126D01*
X176205935Y-127410097D01*
X176276119Y-127600852D01*
X176279479Y-127606272D01*
X176279480Y-127606273D01*
X176379863Y-127768176D01*
X176379866Y-127768180D01*
X176383226Y-127773599D01*
X176522881Y-127921280D01*
X176689379Y-128037863D01*
X176875919Y-128118586D01*
X176921947Y-128128202D01*
X177070144Y-128159162D01*
X177070149Y-128159163D01*
X177074880Y-128160151D01*
X177079762Y-128160407D01*
X177079871Y-128160413D01*
X177079887Y-128160413D01*
X177081539Y-128160500D01*
X177630800Y-128160500D01*
X177678793Y-128155625D01*
X177775868Y-128145765D01*
X177775870Y-128145765D01*
X177782216Y-128145120D01*
X177976172Y-128084338D01*
X178153944Y-127985797D01*
X178171504Y-127970746D01*
X178236241Y-127941603D01*
X178306459Y-127952085D01*
X178359864Y-127998867D01*
X178379500Y-128066415D01*
X178379500Y-128187984D01*
X178359498Y-128256105D01*
X178342595Y-128277079D01*
X177927440Y-128692234D01*
X177865128Y-128726260D01*
X177812579Y-128726476D01*
X177748359Y-128713060D01*
X177685120Y-128699849D01*
X177680238Y-128699593D01*
X177680129Y-128699587D01*
X177680113Y-128699587D01*
X177678461Y-128699500D01*
X177129200Y-128699500D01*
X177116018Y-128700839D01*
X176984132Y-128714235D01*
X176984130Y-128714235D01*
X176977784Y-128714880D01*
X176783828Y-128775662D01*
X176606056Y-128874203D01*
X176451729Y-129006477D01*
X176327152Y-129167081D01*
X176237413Y-129349455D01*
X176235804Y-129355633D01*
X176235803Y-129355635D01*
X176209603Y-129456220D01*
X176186178Y-129546148D01*
X176175541Y-129749126D01*
X176205935Y-129950097D01*
X176276119Y-130140852D01*
X176279479Y-130146272D01*
X176279480Y-130146273D01*
X176379863Y-130308176D01*
X176379866Y-130308180D01*
X176383226Y-130313599D01*
X176522881Y-130461280D01*
X176689379Y-130577863D01*
X176875919Y-130658586D01*
X176921947Y-130668202D01*
X177070144Y-130699162D01*
X177070149Y-130699163D01*
X177074880Y-130700151D01*
X177079762Y-130700407D01*
X177079871Y-130700413D01*
X177079887Y-130700413D01*
X177081539Y-130700500D01*
X177630800Y-130700500D01*
X177678793Y-130695625D01*
X177775868Y-130685765D01*
X177775870Y-130685765D01*
X177782216Y-130685120D01*
X177976172Y-130624338D01*
X178153944Y-130525797D01*
X178308271Y-130393523D01*
X178432848Y-130232919D01*
X178522587Y-130050545D01*
X178548752Y-129950097D01*
X178572212Y-129860034D01*
X178572212Y-129860031D01*
X178573822Y-129853852D01*
X178584459Y-129650874D01*
X178554065Y-129449903D01*
X178483881Y-129259148D01*
X178458926Y-129218899D01*
X178440030Y-129150463D01*
X178461132Y-129082675D01*
X178476918Y-129063408D01*
X178921215Y-128619111D01*
X178929319Y-128611684D01*
X178949749Y-128594541D01*
X178958194Y-128587455D01*
X178963707Y-128577906D01*
X178977039Y-128554815D01*
X178982945Y-128545544D01*
X178998230Y-128523715D01*
X179004554Y-128514684D01*
X179007408Y-128504034D01*
X179008885Y-128500866D01*
X179010077Y-128497590D01*
X179015588Y-128488045D01*
X179022130Y-128450942D01*
X179024509Y-128440210D01*
X179031410Y-128414456D01*
X179034264Y-128403807D01*
X179030980Y-128366272D01*
X179030500Y-128355290D01*
X179030500Y-106024698D01*
X179030980Y-106013716D01*
X179033302Y-105987180D01*
X179033302Y-105987178D01*
X179034263Y-105976193D01*
X179024512Y-105939803D01*
X179022132Y-105929069D01*
X179017502Y-105902812D01*
X179015588Y-105891955D01*
X179010076Y-105882407D01*
X179008883Y-105879130D01*
X179007406Y-105875962D01*
X179004553Y-105865316D01*
X178982942Y-105834452D01*
X178977038Y-105825184D01*
X178958194Y-105792545D01*
X178929330Y-105768325D01*
X178921227Y-105760900D01*
X178576388Y-105416061D01*
X178200715Y-105040389D01*
X178166690Y-104978076D01*
X178170252Y-104911521D01*
X178227404Y-104739715D01*
X178229351Y-104733863D01*
X178255171Y-104529474D01*
X178255583Y-104500000D01*
X178235480Y-104294970D01*
X178175935Y-104097749D01*
X178079218Y-103915849D01*
X177964357Y-103775016D01*
X177952906Y-103760975D01*
X177952903Y-103760972D01*
X177949011Y-103756200D01*
X177889412Y-103706895D01*
X177795025Y-103628811D01*
X177795021Y-103628809D01*
X177790275Y-103624882D01*
X177609055Y-103526897D01*
X177412254Y-103465977D01*
X177406129Y-103465333D01*
X177406128Y-103465333D01*
X177213498Y-103445087D01*
X177213496Y-103445087D01*
X177207369Y-103444443D01*
X177120529Y-103452346D01*
X177008342Y-103462555D01*
X177008339Y-103462556D01*
X177002203Y-103463114D01*
X176804572Y-103521280D01*
X176799107Y-103524137D01*
X176793828Y-103526897D01*
X176622002Y-103616726D01*
X176617201Y-103620586D01*
X176617198Y-103620588D01*
X176543563Y-103679792D01*
X176461447Y-103745815D01*
X176329024Y-103903630D01*
X176326056Y-103909028D01*
X176326053Y-103909033D01*
X176232743Y-104078765D01*
X176229776Y-104084162D01*
X176167484Y-104280532D01*
X176166798Y-104286649D01*
X176166797Y-104286653D01*
X176145207Y-104479137D01*
X176144520Y-104485262D01*
X176161759Y-104690553D01*
X176218544Y-104888586D01*
X176221359Y-104894063D01*
X176221360Y-104894066D01*
X176264535Y-104978076D01*
X176312712Y-105071818D01*
X176440677Y-105233270D01*
X176597564Y-105366791D01*
X176777398Y-105467297D01*
X176852346Y-105491649D01*
X176967471Y-105529056D01*
X176967475Y-105529057D01*
X176973329Y-105530959D01*
X177177894Y-105555351D01*
X177184029Y-105554879D01*
X177184031Y-105554879D01*
X177256625Y-105549293D01*
X177383300Y-105539546D01*
X177389230Y-105537890D01*
X177389232Y-105537890D01*
X177544451Y-105494552D01*
X177581725Y-105484145D01*
X177594717Y-105477582D01*
X177664540Y-105464720D01*
X177730231Y-105491649D01*
X177740625Y-105500951D01*
X178041762Y-105802089D01*
X178342596Y-106102923D01*
X178376621Y-106165235D01*
X178379500Y-106192018D01*
X178379500Y-116096372D01*
X178359498Y-116164493D01*
X178305842Y-116210986D01*
X178235568Y-116221090D01*
X178181230Y-116199585D01*
X178075856Y-116125802D01*
X178075852Y-116125800D01*
X178070621Y-116122137D01*
X177884081Y-116041414D01*
X177838053Y-116031798D01*
X177689856Y-116000838D01*
X177689851Y-116000837D01*
X177685120Y-115999849D01*
X177680238Y-115999593D01*
X177680129Y-115999587D01*
X177680113Y-115999587D01*
X177678461Y-115999500D01*
X177129200Y-115999500D01*
X177081207Y-116004375D01*
X176984132Y-116014235D01*
X176984130Y-116014235D01*
X176977784Y-116014880D01*
X176783828Y-116075662D01*
X176606056Y-116174203D01*
X176451729Y-116306477D01*
X176327152Y-116467081D01*
X176237413Y-116649455D01*
X176186178Y-116846148D01*
X176175541Y-117049126D01*
X176205935Y-117250097D01*
X176276119Y-117440852D01*
X176279479Y-117446272D01*
X176279480Y-117446273D01*
X176379863Y-117608176D01*
X176379866Y-117608180D01*
X176383226Y-117613599D01*
X176522881Y-117761280D01*
X176689379Y-117877863D01*
X176875919Y-117958586D01*
X176921947Y-117968202D01*
X177070144Y-117999162D01*
X177070149Y-117999163D01*
X177074880Y-118000151D01*
X177079762Y-118000407D01*
X177079871Y-118000413D01*
X177079887Y-118000413D01*
X177081539Y-118000500D01*
X177630800Y-118000500D01*
X177678793Y-117995625D01*
X177775868Y-117985765D01*
X177775870Y-117985765D01*
X177782216Y-117985120D01*
X177976172Y-117924338D01*
X178153944Y-117825797D01*
X178171504Y-117810746D01*
X178236241Y-117781603D01*
X178306459Y-117792085D01*
X178359864Y-117838867D01*
X178379500Y-117906415D01*
X178379500Y-118636372D01*
X178359498Y-118704493D01*
X178305842Y-118750986D01*
X178235568Y-118761090D01*
X178181230Y-118739585D01*
X178075856Y-118665802D01*
X178075851Y-118665799D01*
X178070621Y-118662137D01*
X177884081Y-118581414D01*
X177838053Y-118571798D01*
X177689856Y-118540838D01*
X177689851Y-118540837D01*
X177685120Y-118539849D01*
X177680238Y-118539593D01*
X177680129Y-118539587D01*
X177680113Y-118539587D01*
X177678461Y-118539500D01*
X177129200Y-118539500D01*
X177081207Y-118544375D01*
X176984132Y-118554235D01*
X176984130Y-118554235D01*
X176977784Y-118554880D01*
X176783828Y-118615662D01*
X176606056Y-118714203D01*
X176451729Y-118846477D01*
X176327152Y-119007081D01*
X176237413Y-119189455D01*
X176235804Y-119195633D01*
X176235803Y-119195635D01*
X176209603Y-119296220D01*
X176186178Y-119386148D01*
X176175541Y-119589126D01*
X176205935Y-119790097D01*
X176276119Y-119980852D01*
X176279479Y-119986272D01*
X176279480Y-119986273D01*
X176379863Y-120148176D01*
X176379866Y-120148180D01*
X176383226Y-120153599D01*
X176522881Y-120301280D01*
X176689379Y-120417863D01*
X176875919Y-120498586D01*
X176921947Y-120508202D01*
X177070144Y-120539162D01*
X177070149Y-120539163D01*
X177074880Y-120540151D01*
X177079762Y-120540407D01*
X177079871Y-120540413D01*
X177079887Y-120540413D01*
X177081539Y-120540500D01*
X177630800Y-120540500D01*
X177678793Y-120535625D01*
X177775868Y-120525765D01*
X177775870Y-120525765D01*
X177782216Y-120525120D01*
X177976172Y-120464338D01*
X178153944Y-120365797D01*
X178171504Y-120350746D01*
X178236241Y-120321603D01*
X178306459Y-120332085D01*
X178359864Y-120378867D01*
X178379500Y-120446415D01*
X178379500Y-121176372D01*
X178359498Y-121244493D01*
X178305842Y-121290986D01*
X178235568Y-121301090D01*
X178181230Y-121279585D01*
X178075856Y-121205802D01*
X178075851Y-121205799D01*
X178070621Y-121202137D01*
X177884081Y-121121414D01*
X177838053Y-121111798D01*
X177689856Y-121080838D01*
X177689851Y-121080837D01*
X177685120Y-121079849D01*
X177680238Y-121079593D01*
X177680129Y-121079587D01*
X177680113Y-121079587D01*
X177678461Y-121079500D01*
X177129200Y-121079500D01*
X177081207Y-121084375D01*
X176984132Y-121094235D01*
X176984130Y-121094235D01*
X176977784Y-121094880D01*
X176783828Y-121155662D01*
X176606056Y-121254203D01*
X176451729Y-121386477D01*
X176327152Y-121547081D01*
X176324337Y-121552802D01*
X176324335Y-121552805D01*
X176259716Y-121684129D01*
X176211693Y-121736420D01*
X176146661Y-121754500D01*
X175663412Y-121754500D01*
X175595291Y-121734498D01*
X175574317Y-121717595D01*
X166106722Y-112250000D01*
X167644318Y-112250000D01*
X167664956Y-112406762D01*
X167725464Y-112552841D01*
X167821718Y-112678282D01*
X167947159Y-112774536D01*
X168093238Y-112835044D01*
X168250000Y-112855682D01*
X168258188Y-112854604D01*
X168398574Y-112836122D01*
X168406762Y-112835044D01*
X168552841Y-112774536D01*
X168678282Y-112678282D01*
X168774536Y-112552841D01*
X168835044Y-112406762D01*
X168855682Y-112250000D01*
X168846882Y-112183157D01*
X168857821Y-112113010D01*
X168882709Y-112077617D01*
X174876215Y-106084111D01*
X174884319Y-106076684D01*
X174904749Y-106059541D01*
X174913194Y-106052455D01*
X174918707Y-106042906D01*
X174932039Y-106019815D01*
X174937945Y-106010544D01*
X174953230Y-105988715D01*
X174959554Y-105979684D01*
X174962408Y-105969034D01*
X174963885Y-105965866D01*
X174965077Y-105962590D01*
X174970588Y-105953045D01*
X174977130Y-105915942D01*
X174979509Y-105905210D01*
X174986410Y-105879456D01*
X174989264Y-105868807D01*
X174985980Y-105831272D01*
X174985500Y-105820290D01*
X174985500Y-105590062D01*
X175005502Y-105521941D01*
X175054690Y-105477596D01*
X175220113Y-105394035D01*
X175220116Y-105394033D01*
X175225610Y-105391258D01*
X175387951Y-105264424D01*
X175522564Y-105108472D01*
X175543387Y-105071818D01*
X175621276Y-104934707D01*
X175624323Y-104929344D01*
X175689351Y-104733863D01*
X175715171Y-104529474D01*
X175715583Y-104500000D01*
X175695480Y-104294970D01*
X175635935Y-104097749D01*
X175539218Y-103915849D01*
X175424357Y-103775016D01*
X175412906Y-103760975D01*
X175412903Y-103760972D01*
X175409011Y-103756200D01*
X175349412Y-103706895D01*
X175255025Y-103628811D01*
X175255021Y-103628809D01*
X175250275Y-103624882D01*
X175069055Y-103526897D01*
X174872254Y-103465977D01*
X174866129Y-103465333D01*
X174866128Y-103465333D01*
X174673498Y-103445087D01*
X174673496Y-103445087D01*
X174667369Y-103444443D01*
X174580529Y-103452346D01*
X174468342Y-103462555D01*
X174468339Y-103462556D01*
X174462203Y-103463114D01*
X174264572Y-103521280D01*
X174259107Y-103524137D01*
X174253828Y-103526897D01*
X174082002Y-103616726D01*
X174077201Y-103620586D01*
X174077198Y-103620588D01*
X174003563Y-103679792D01*
X173921447Y-103745815D01*
X173789024Y-103903630D01*
X173786056Y-103909028D01*
X173786053Y-103909033D01*
X173692743Y-104078765D01*
X173689776Y-104084162D01*
X173627484Y-104280532D01*
X173626798Y-104286649D01*
X173626797Y-104286653D01*
X173605207Y-104479137D01*
X173604520Y-104485262D01*
X173621759Y-104690553D01*
X173678544Y-104888586D01*
X173681359Y-104894063D01*
X173681360Y-104894066D01*
X173724535Y-104978076D01*
X173772712Y-105071818D01*
X173900677Y-105233270D01*
X174057564Y-105366791D01*
X174237398Y-105467297D01*
X174243255Y-105469200D01*
X174247441Y-105470560D01*
X174306045Y-105510636D01*
X174333679Y-105576034D01*
X174334500Y-105590392D01*
X174334500Y-105652984D01*
X174314498Y-105721105D01*
X174297595Y-105742079D01*
X168422383Y-111617291D01*
X168360071Y-111651317D01*
X168316843Y-111653118D01*
X168250000Y-111644318D01*
X168093238Y-111664956D01*
X167947159Y-111725464D01*
X167821718Y-111821718D01*
X167725464Y-111947159D01*
X167664956Y-112093238D01*
X167644318Y-112250000D01*
X166106722Y-112250000D01*
X164137405Y-110280683D01*
X164103379Y-110218371D01*
X164100500Y-110191588D01*
X164100500Y-105676500D01*
X164120502Y-105608379D01*
X164174158Y-105561886D01*
X164226500Y-105550500D01*
X165369748Y-105550500D01*
X165375816Y-105549293D01*
X165416061Y-105541288D01*
X165416062Y-105541288D01*
X165428231Y-105538867D01*
X165494552Y-105494552D01*
X165538867Y-105428231D01*
X165545670Y-105394033D01*
X165549293Y-105375816D01*
X165550500Y-105369748D01*
X165550500Y-103775016D01*
X165570502Y-103706895D01*
X165624158Y-103660402D01*
X165694432Y-103650298D01*
X165759012Y-103679792D01*
X165765595Y-103685921D01*
X166038257Y-103958583D01*
X166072283Y-104020895D01*
X166069264Y-104085776D01*
X166007484Y-104280532D01*
X166006798Y-104286649D01*
X166006797Y-104286653D01*
X165985207Y-104479137D01*
X165984520Y-104485262D01*
X166001759Y-104690553D01*
X166058544Y-104888586D01*
X166061359Y-104894063D01*
X166061360Y-104894066D01*
X166104535Y-104978076D01*
X166152712Y-105071818D01*
X166280677Y-105233270D01*
X166437564Y-105366791D01*
X166617398Y-105467297D01*
X166692346Y-105491649D01*
X166807471Y-105529056D01*
X166807475Y-105529057D01*
X166813329Y-105530959D01*
X167017894Y-105555351D01*
X167024029Y-105554879D01*
X167024031Y-105554879D01*
X167096625Y-105549293D01*
X167223300Y-105539546D01*
X167229230Y-105537890D01*
X167229232Y-105537890D01*
X167384451Y-105494552D01*
X167421725Y-105484145D01*
X167427214Y-105481372D01*
X167427220Y-105481370D01*
X167600116Y-105394033D01*
X167605610Y-105391258D01*
X167767951Y-105264424D01*
X167902564Y-105108472D01*
X167923387Y-105071818D01*
X168001276Y-104934707D01*
X168004323Y-104929344D01*
X168069351Y-104733863D01*
X168095171Y-104529474D01*
X168095583Y-104500000D01*
X168094138Y-104485262D01*
X168524520Y-104485262D01*
X168541759Y-104690553D01*
X168598544Y-104888586D01*
X168601359Y-104894063D01*
X168601360Y-104894066D01*
X168644535Y-104978076D01*
X168692712Y-105071818D01*
X168820677Y-105233270D01*
X168977564Y-105366791D01*
X169157398Y-105467297D01*
X169232346Y-105491649D01*
X169347471Y-105529056D01*
X169347475Y-105529057D01*
X169353329Y-105530959D01*
X169557894Y-105555351D01*
X169564029Y-105554879D01*
X169564031Y-105554879D01*
X169636625Y-105549293D01*
X169763300Y-105539546D01*
X169769230Y-105537890D01*
X169769232Y-105537890D01*
X169924451Y-105494552D01*
X169961725Y-105484145D01*
X169967214Y-105481372D01*
X169967220Y-105481370D01*
X170140116Y-105394033D01*
X170145610Y-105391258D01*
X170307951Y-105264424D01*
X170442564Y-105108472D01*
X170463387Y-105071818D01*
X170541276Y-104934707D01*
X170544323Y-104929344D01*
X170609351Y-104733863D01*
X170635171Y-104529474D01*
X170635583Y-104500000D01*
X170615480Y-104294970D01*
X170555935Y-104097749D01*
X170459218Y-103915849D01*
X170344357Y-103775016D01*
X170332906Y-103760975D01*
X170332903Y-103760972D01*
X170329011Y-103756200D01*
X170269412Y-103706895D01*
X170175025Y-103628811D01*
X170175021Y-103628809D01*
X170170275Y-103624882D01*
X169989055Y-103526897D01*
X169792254Y-103465977D01*
X169786129Y-103465333D01*
X169786128Y-103465333D01*
X169593498Y-103445087D01*
X169593496Y-103445087D01*
X169587369Y-103444443D01*
X169500529Y-103452346D01*
X169388342Y-103462555D01*
X169388339Y-103462556D01*
X169382203Y-103463114D01*
X169184572Y-103521280D01*
X169179107Y-103524137D01*
X169173828Y-103526897D01*
X169002002Y-103616726D01*
X168997201Y-103620586D01*
X168997198Y-103620588D01*
X168923563Y-103679792D01*
X168841447Y-103745815D01*
X168709024Y-103903630D01*
X168706056Y-103909028D01*
X168706053Y-103909033D01*
X168612743Y-104078765D01*
X168609776Y-104084162D01*
X168547484Y-104280532D01*
X168546798Y-104286649D01*
X168546797Y-104286653D01*
X168525207Y-104479137D01*
X168524520Y-104485262D01*
X168094138Y-104485262D01*
X168075480Y-104294970D01*
X168015935Y-104097749D01*
X167919218Y-103915849D01*
X167804357Y-103775016D01*
X167792906Y-103760975D01*
X167792903Y-103760972D01*
X167789011Y-103756200D01*
X167729412Y-103706895D01*
X167635025Y-103628811D01*
X167635021Y-103628809D01*
X167630275Y-103624882D01*
X167449055Y-103526897D01*
X167252254Y-103465977D01*
X167246129Y-103465333D01*
X167246128Y-103465333D01*
X167053498Y-103445087D01*
X167053496Y-103445087D01*
X167047369Y-103444443D01*
X166960529Y-103452346D01*
X166848342Y-103462555D01*
X166848339Y-103462556D01*
X166842203Y-103463114D01*
X166644572Y-103521280D01*
X166639108Y-103524137D01*
X166634781Y-103525885D01*
X166564128Y-103532860D01*
X166498482Y-103498156D01*
X166034111Y-103033785D01*
X166026684Y-103025681D01*
X166009541Y-103005251D01*
X166009542Y-103005251D01*
X166002455Y-102996806D01*
X165992906Y-102991293D01*
X165969815Y-102977961D01*
X165960544Y-102972055D01*
X165938715Y-102956770D01*
X165929684Y-102950446D01*
X165919034Y-102947592D01*
X165915866Y-102946115D01*
X165912590Y-102944923D01*
X165903045Y-102939412D01*
X165869301Y-102933462D01*
X165865942Y-102932870D01*
X165855215Y-102930492D01*
X165818807Y-102920736D01*
X165807822Y-102921697D01*
X165807820Y-102921697D01*
X165781272Y-102924020D01*
X165770290Y-102924500D01*
X163419710Y-102924500D01*
X163408728Y-102924020D01*
X163382180Y-102921697D01*
X163382178Y-102921697D01*
X163371193Y-102920736D01*
X163334785Y-102930492D01*
X163324058Y-102932870D01*
X163320699Y-102933462D01*
X163286955Y-102939412D01*
X163277410Y-102944923D01*
X163274134Y-102946115D01*
X163270966Y-102947592D01*
X163260316Y-102950446D01*
X163251285Y-102956770D01*
X163229456Y-102972055D01*
X163220185Y-102977961D01*
X163197094Y-102991293D01*
X163187545Y-102996806D01*
X163180459Y-103005251D01*
X163163315Y-103025682D01*
X163155889Y-103033785D01*
X163108785Y-103080889D01*
X163100681Y-103088316D01*
X163071806Y-103112545D01*
X163066293Y-103122094D01*
X163052961Y-103145185D01*
X163047055Y-103154456D01*
X163025446Y-103185316D01*
X163022592Y-103195966D01*
X163021115Y-103199134D01*
X163019923Y-103202410D01*
X163014412Y-103211955D01*
X163008462Y-103245699D01*
X163007870Y-103249058D01*
X163005492Y-103259785D01*
X162995736Y-103296193D01*
X162996697Y-103307178D01*
X162996697Y-103307180D01*
X162999020Y-103333728D01*
X162999500Y-103344710D01*
X162999500Y-110545290D01*
X162999020Y-110556272D01*
X162995736Y-110593807D01*
X151200500Y-110593807D01*
X151200500Y-98415361D01*
X155295316Y-98415361D01*
X155295540Y-98420027D01*
X155295540Y-98420033D01*
X155297309Y-98456851D01*
X155307443Y-98667820D01*
X155313635Y-98698947D01*
X155355751Y-98910679D01*
X155356752Y-98915713D01*
X155358331Y-98920111D01*
X155358333Y-98920118D01*
X155438140Y-99142398D01*
X155442160Y-99153595D01*
X155561792Y-99376240D01*
X155564587Y-99379984D01*
X155564589Y-99379986D01*
X155710226Y-99575018D01*
X155710231Y-99575024D01*
X155713018Y-99578756D01*
X155716327Y-99582036D01*
X155716332Y-99582042D01*
X155889200Y-99753408D01*
X155892517Y-99756696D01*
X155896279Y-99759454D01*
X155896282Y-99759457D01*
X156009663Y-99842591D01*
X156096346Y-99906149D01*
X156100481Y-99908325D01*
X156100485Y-99908327D01*
X156217952Y-99970129D01*
X156320026Y-100023833D01*
X156558644Y-100107162D01*
X156563237Y-100108034D01*
X156802369Y-100153435D01*
X156802372Y-100153435D01*
X156806958Y-100154306D01*
X156927081Y-100159026D01*
X157054845Y-100164046D01*
X157054850Y-100164046D01*
X157059513Y-100164229D01*
X157137657Y-100155671D01*
X157306107Y-100137223D01*
X157306112Y-100137222D01*
X157310760Y-100136713D01*
X157428861Y-100105620D01*
X157550658Y-100073554D01*
X157550661Y-100073553D01*
X157555181Y-100072363D01*
X157787405Y-99972591D01*
X157894774Y-99906149D01*
X157998358Y-99842050D01*
X157998362Y-99842047D01*
X158002331Y-99839591D01*
X158099080Y-99757687D01*
X158191672Y-99679302D01*
X158191673Y-99679301D01*
X158195238Y-99676283D01*
X158277886Y-99582042D01*
X158358806Y-99489771D01*
X158358810Y-99489766D01*
X158361888Y-99486256D01*
X158364418Y-99482323D01*
X158496094Y-99277610D01*
X158496096Y-99277607D01*
X158498619Y-99273684D01*
X158602428Y-99043236D01*
X158671034Y-98799976D01*
X158687263Y-98672409D01*
X158702533Y-98552378D01*
X158702533Y-98552372D01*
X158702931Y-98549247D01*
X158705268Y-98460000D01*
X158686537Y-98207945D01*
X158630756Y-97961428D01*
X158569607Y-97804183D01*
X158540843Y-97730216D01*
X158540842Y-97730214D01*
X158539150Y-97725863D01*
X158413731Y-97506426D01*
X158257255Y-97307938D01*
X158073160Y-97134758D01*
X157865489Y-96990691D01*
X157861296Y-96988623D01*
X157642993Y-96880968D01*
X157642990Y-96880967D01*
X157638805Y-96878903D01*
X157594379Y-96864682D01*
X157542403Y-96848045D01*
X157398087Y-96801849D01*
X157393480Y-96801099D01*
X157393477Y-96801098D01*
X157353983Y-96794666D01*
X167226758Y-96794666D01*
X167226853Y-96798296D01*
X167226853Y-96798297D01*
X167235570Y-97131185D01*
X167235665Y-97134810D01*
X167283609Y-97471676D01*
X167369952Y-97800800D01*
X167493553Y-98117818D01*
X167652771Y-98418529D01*
X167654821Y-98421512D01*
X167654823Y-98421515D01*
X167843440Y-98695955D01*
X167843446Y-98695962D01*
X167845497Y-98698947D01*
X168069176Y-98955355D01*
X168320844Y-99184355D01*
X168597164Y-99382911D01*
X168894474Y-99548392D01*
X169208835Y-99678604D01*
X169212329Y-99679599D01*
X169212331Y-99679600D01*
X169532577Y-99770825D01*
X169532582Y-99770826D01*
X169536078Y-99771822D01*
X169729004Y-99803415D01*
X169868285Y-99826223D01*
X169868292Y-99826224D01*
X169871866Y-99826809D01*
X170041808Y-99834824D01*
X170208122Y-99842667D01*
X170208123Y-99842667D01*
X170211749Y-99842838D01*
X170259378Y-99839591D01*
X170547591Y-99819943D01*
X170547599Y-99819942D01*
X170551222Y-99819695D01*
X170554798Y-99819032D01*
X170554800Y-99819032D01*
X170882221Y-99758348D01*
X170882225Y-99758347D01*
X170885786Y-99757687D01*
X171211005Y-99657637D01*
X171522569Y-99520870D01*
X171816349Y-99349199D01*
X171819258Y-99347015D01*
X172085543Y-99147082D01*
X172085547Y-99147079D01*
X172088450Y-99144899D01*
X172335267Y-98910679D01*
X172553527Y-98649643D01*
X172621549Y-98546090D01*
X172738351Y-98368276D01*
X172738356Y-98368267D01*
X172740338Y-98365250D01*
X172839273Y-98168541D01*
X172891597Y-98064507D01*
X172891600Y-98064499D01*
X172893224Y-98061271D01*
X172943661Y-97923446D01*
X173008910Y-97745145D01*
X173008913Y-97745135D01*
X173010158Y-97741733D01*
X173011003Y-97738211D01*
X173011006Y-97738203D01*
X173088743Y-97414403D01*
X173088744Y-97414399D01*
X173089590Y-97410874D01*
X173122616Y-97137964D01*
X173130132Y-97075856D01*
X173130133Y-97075849D01*
X173130468Y-97073077D01*
X173136300Y-96887500D01*
X173136139Y-96884704D01*
X173116922Y-96551423D01*
X173116921Y-96551418D01*
X173116713Y-96547803D01*
X173058212Y-96212609D01*
X173032593Y-96126118D01*
X172962605Y-95889845D01*
X172961573Y-95886360D01*
X172924528Y-95799508D01*
X172829499Y-95576718D01*
X172828076Y-95573381D01*
X172659491Y-95277819D01*
X172458052Y-95003593D01*
X172226429Y-94754338D01*
X172223675Y-94751986D01*
X172223671Y-94751982D01*
X172128631Y-94670810D01*
X171967693Y-94533356D01*
X171964690Y-94531338D01*
X171964682Y-94531332D01*
X171788872Y-94413194D01*
X171685272Y-94343577D01*
X171382910Y-94187516D01*
X171064615Y-94067243D01*
X170734605Y-93984350D01*
X170592427Y-93965632D01*
X170400859Y-93940411D01*
X170400851Y-93940410D01*
X170397255Y-93939937D01*
X170255228Y-93937706D01*
X170060679Y-93934649D01*
X170060675Y-93934649D01*
X170057037Y-93934592D01*
X170053423Y-93934953D01*
X170053417Y-93934953D01*
X169816077Y-93958643D01*
X169718458Y-93968387D01*
X169386007Y-94040873D01*
X169382580Y-94042046D01*
X169382574Y-94042048D01*
X169067518Y-94149916D01*
X169064092Y-94151089D01*
X168756977Y-94297576D01*
X168468734Y-94478390D01*
X168465898Y-94480662D01*
X168465891Y-94480667D01*
X168311560Y-94604309D01*
X168203184Y-94691135D01*
X167963847Y-94932993D01*
X167961611Y-94935845D01*
X167961609Y-94935847D01*
X167756131Y-95197903D01*
X167753894Y-95200756D01*
X167576108Y-95490876D01*
X167574583Y-95494161D01*
X167574581Y-95494165D01*
X167465194Y-95729820D01*
X167432846Y-95799508D01*
X167326006Y-96122560D01*
X167257006Y-96455752D01*
X167226758Y-96794666D01*
X157353983Y-96794666D01*
X157153235Y-96761972D01*
X157153236Y-96761972D01*
X157148624Y-96761221D01*
X157026026Y-96759616D01*
X156900573Y-96757974D01*
X156900570Y-96757974D01*
X156895896Y-96757913D01*
X156645455Y-96791996D01*
X156640965Y-96793305D01*
X156640959Y-96793306D01*
X156537851Y-96823360D01*
X156402803Y-96862723D01*
X156398556Y-96864681D01*
X156398553Y-96864682D01*
X156363226Y-96880968D01*
X156173270Y-96968539D01*
X156169361Y-96971102D01*
X155965812Y-97104554D01*
X155965807Y-97104558D01*
X155961899Y-97107120D01*
X155773333Y-97275421D01*
X155611715Y-97469746D01*
X155480595Y-97685825D01*
X155478786Y-97690139D01*
X155478785Y-97690141D01*
X155433855Y-97797288D01*
X155382854Y-97918911D01*
X155320639Y-98163883D01*
X155295316Y-98415361D01*
X151200500Y-98415361D01*
X151200500Y-93809748D01*
X155299500Y-93809748D01*
X155311133Y-93868231D01*
X155355448Y-93934552D01*
X155421769Y-93978867D01*
X155433938Y-93981288D01*
X155433939Y-93981288D01*
X155474184Y-93989293D01*
X155480252Y-93990500D01*
X158519748Y-93990500D01*
X158525816Y-93989293D01*
X158566061Y-93981288D01*
X158566062Y-93981288D01*
X158578231Y-93978867D01*
X158644552Y-93934552D01*
X158688867Y-93868231D01*
X158700500Y-93809748D01*
X158700500Y-90770252D01*
X158688867Y-90711769D01*
X158644552Y-90645448D01*
X158578231Y-90601133D01*
X158566062Y-90598712D01*
X158566061Y-90598712D01*
X158525816Y-90590707D01*
X158519748Y-90589500D01*
X155480252Y-90589500D01*
X155474184Y-90590707D01*
X155433939Y-90598712D01*
X155433938Y-90598712D01*
X155421769Y-90601133D01*
X155355448Y-90645448D01*
X155311133Y-90711769D01*
X155299500Y-90770252D01*
X155299500Y-93809748D01*
X151200500Y-93809748D01*
X151200500Y-89260262D01*
X163444520Y-89260262D01*
X163461759Y-89465553D01*
X163518544Y-89663586D01*
X163521359Y-89669063D01*
X163521360Y-89669066D01*
X163542247Y-89709707D01*
X163612712Y-89846818D01*
X163740677Y-90008270D01*
X163897564Y-90141791D01*
X164077398Y-90242297D01*
X164161280Y-90269552D01*
X164267471Y-90304056D01*
X164267475Y-90304057D01*
X164273329Y-90305959D01*
X164477894Y-90330351D01*
X164484029Y-90329879D01*
X164484031Y-90329879D01*
X164556625Y-90324293D01*
X164683300Y-90314546D01*
X164689230Y-90312890D01*
X164689232Y-90312890D01*
X164875797Y-90260800D01*
X164875796Y-90260800D01*
X164881725Y-90259145D01*
X164887214Y-90256372D01*
X164887220Y-90256370D01*
X165060116Y-90169033D01*
X165065610Y-90166258D01*
X165227951Y-90039424D01*
X165362564Y-89883472D01*
X165383387Y-89846818D01*
X165461276Y-89709707D01*
X165464323Y-89704344D01*
X165529351Y-89508863D01*
X165555171Y-89304474D01*
X165555583Y-89275000D01*
X165535480Y-89069970D01*
X165475935Y-88872749D01*
X165379218Y-88690849D01*
X165294172Y-88586573D01*
X165252906Y-88535975D01*
X165252903Y-88535972D01*
X165249011Y-88531200D01*
X165231786Y-88516950D01*
X165095025Y-88403811D01*
X165095021Y-88403809D01*
X165090275Y-88399882D01*
X164909055Y-88301897D01*
X164712254Y-88240977D01*
X164706129Y-88240333D01*
X164706128Y-88240333D01*
X164513498Y-88220087D01*
X164513496Y-88220087D01*
X164507369Y-88219443D01*
X164420529Y-88227346D01*
X164308342Y-88237555D01*
X164308339Y-88237556D01*
X164302203Y-88238114D01*
X164104572Y-88296280D01*
X163922002Y-88391726D01*
X163917201Y-88395586D01*
X163917198Y-88395588D01*
X163766254Y-88516950D01*
X163761447Y-88520815D01*
X163629024Y-88678630D01*
X163626056Y-88684028D01*
X163626053Y-88684033D01*
X163532747Y-88853757D01*
X163529776Y-88859162D01*
X163467484Y-89055532D01*
X163466798Y-89061649D01*
X163466797Y-89061653D01*
X163445207Y-89254137D01*
X163444520Y-89260262D01*
X151200500Y-89260262D01*
X151200500Y-87165361D01*
X155295316Y-87165361D01*
X155307443Y-87417820D01*
X155356752Y-87665713D01*
X155358331Y-87670111D01*
X155358333Y-87670118D01*
X155440577Y-87899186D01*
X155442160Y-87903595D01*
X155561792Y-88126240D01*
X155564587Y-88129984D01*
X155564589Y-88129986D01*
X155710226Y-88325018D01*
X155710231Y-88325024D01*
X155713018Y-88328756D01*
X155716327Y-88332036D01*
X155716332Y-88332042D01*
X155889200Y-88503408D01*
X155892517Y-88506696D01*
X155896279Y-88509454D01*
X155896282Y-88509457D01*
X156092575Y-88653384D01*
X156096346Y-88656149D01*
X156100481Y-88658325D01*
X156100485Y-88658327D01*
X156172641Y-88696290D01*
X156320026Y-88773833D01*
X156453709Y-88820517D01*
X156548894Y-88853757D01*
X156558644Y-88857162D01*
X156563237Y-88858034D01*
X156802369Y-88903435D01*
X156802372Y-88903435D01*
X156806958Y-88904306D01*
X156927081Y-88909026D01*
X157054845Y-88914046D01*
X157054850Y-88914046D01*
X157059513Y-88914229D01*
X157137657Y-88905671D01*
X157306107Y-88887223D01*
X157306112Y-88887222D01*
X157310760Y-88886713D01*
X157393100Y-88865035D01*
X157550658Y-88823554D01*
X157550661Y-88823553D01*
X157555181Y-88822363D01*
X157787405Y-88722591D01*
X157894774Y-88656149D01*
X157998358Y-88592050D01*
X157998362Y-88592047D01*
X158002331Y-88589591D01*
X158075946Y-88527271D01*
X158191672Y-88429302D01*
X158191673Y-88429301D01*
X158195238Y-88426283D01*
X158228049Y-88388869D01*
X158358806Y-88239771D01*
X158358810Y-88239766D01*
X158361888Y-88236256D01*
X158364418Y-88232323D01*
X158496094Y-88027610D01*
X158496096Y-88027607D01*
X158498619Y-88023684D01*
X158602428Y-87793236D01*
X158671034Y-87549976D01*
X158687263Y-87422409D01*
X158702533Y-87302378D01*
X158702533Y-87302372D01*
X158702931Y-87299247D01*
X158705268Y-87210000D01*
X158686537Y-86957945D01*
X158630756Y-86711428D01*
X158539150Y-86475863D01*
X158413731Y-86256426D01*
X158257255Y-86057938D01*
X158073160Y-85884758D01*
X157865489Y-85740691D01*
X157861296Y-85738623D01*
X157642993Y-85630968D01*
X157642990Y-85630967D01*
X157638805Y-85628903D01*
X157594379Y-85614682D01*
X157542403Y-85598045D01*
X157398087Y-85551849D01*
X157393480Y-85551099D01*
X157393477Y-85551098D01*
X157153235Y-85511972D01*
X157153236Y-85511972D01*
X157148624Y-85511221D01*
X157026026Y-85509616D01*
X156900573Y-85507974D01*
X156900570Y-85507974D01*
X156895896Y-85507913D01*
X156645455Y-85541996D01*
X156640965Y-85543305D01*
X156640959Y-85543306D01*
X156537851Y-85573360D01*
X156402803Y-85612723D01*
X156398556Y-85614681D01*
X156398553Y-85614682D01*
X156363226Y-85630968D01*
X156173270Y-85718539D01*
X156169361Y-85721102D01*
X155965812Y-85854554D01*
X155965807Y-85854558D01*
X155961899Y-85857120D01*
X155773333Y-86025421D01*
X155611715Y-86219746D01*
X155480595Y-86435825D01*
X155478786Y-86440139D01*
X155478785Y-86440141D01*
X155463806Y-86475863D01*
X155382854Y-86668911D01*
X155320639Y-86913883D01*
X155295316Y-87165361D01*
X151200500Y-87165361D01*
X151200500Y-81519748D01*
X154009500Y-81519748D01*
X154021133Y-81578231D01*
X154065448Y-81644552D01*
X154131769Y-81688867D01*
X154143938Y-81691288D01*
X154143939Y-81691288D01*
X154184184Y-81699293D01*
X154190252Y-81700500D01*
X155208500Y-81700500D01*
X155276621Y-81720502D01*
X155323114Y-81774158D01*
X155334500Y-81826500D01*
X155334500Y-83016504D01*
X155332021Y-83039801D01*
X155331923Y-83041886D01*
X155329731Y-83052066D01*
X155333526Y-83084129D01*
X155333627Y-83084984D01*
X155333971Y-83090821D01*
X155334072Y-83090813D01*
X155334500Y-83095992D01*
X155334500Y-83101193D01*
X155335354Y-83106321D01*
X155335354Y-83106327D01*
X155337628Y-83119987D01*
X155338465Y-83125863D01*
X155344424Y-83176210D01*
X155348346Y-83184377D01*
X155349833Y-83193313D01*
X155354777Y-83202475D01*
X155354778Y-83202479D01*
X155373906Y-83237929D01*
X155376602Y-83243220D01*
X155386383Y-83263589D01*
X155398537Y-83288900D01*
X155402094Y-83293131D01*
X155404026Y-83295063D01*
X155405745Y-83296937D01*
X155405819Y-83297074D01*
X155405709Y-83297174D01*
X155406132Y-83297654D01*
X155409194Y-83303329D01*
X155416842Y-83310399D01*
X155448366Y-83339540D01*
X155451931Y-83342969D01*
X156430782Y-84321820D01*
X156445495Y-84340037D01*
X156446906Y-84341588D01*
X156452556Y-84350338D01*
X156460736Y-84356786D01*
X156460738Y-84356789D01*
X156478589Y-84370862D01*
X156482963Y-84374749D01*
X156483029Y-84374671D01*
X156486988Y-84378026D01*
X156490666Y-84381704D01*
X156494890Y-84384723D01*
X156494899Y-84384730D01*
X156506202Y-84392807D01*
X156510948Y-84396371D01*
X156550728Y-84427731D01*
X156559276Y-84430733D01*
X156566647Y-84436000D01*
X156576620Y-84438983D01*
X156576623Y-84438984D01*
X156615211Y-84450524D01*
X156620858Y-84452359D01*
X156661192Y-84466523D01*
X156661193Y-84466523D01*
X156668676Y-84469151D01*
X156674183Y-84469628D01*
X156676890Y-84469628D01*
X156679460Y-84469739D01*
X156679622Y-84469787D01*
X156679616Y-84469932D01*
X156680236Y-84469971D01*
X156686415Y-84471819D01*
X156739709Y-84469725D01*
X156744655Y-84469628D01*
X163663583Y-84469628D01*
X163731704Y-84489630D01*
X163752678Y-84506533D01*
X166627595Y-87381450D01*
X166661621Y-87443762D01*
X166664500Y-87470545D01*
X166664500Y-88209554D01*
X166644498Y-88277675D01*
X166596876Y-88321215D01*
X166462002Y-88391726D01*
X166457201Y-88395586D01*
X166457198Y-88395588D01*
X166306254Y-88516950D01*
X166301447Y-88520815D01*
X166169024Y-88678630D01*
X166166056Y-88684028D01*
X166166053Y-88684033D01*
X166072747Y-88853757D01*
X166069776Y-88859162D01*
X166007484Y-89055532D01*
X166006798Y-89061649D01*
X166006797Y-89061653D01*
X165985207Y-89254137D01*
X165984520Y-89260262D01*
X166001759Y-89465553D01*
X166058544Y-89663586D01*
X166061359Y-89669063D01*
X166061360Y-89669066D01*
X166082247Y-89709707D01*
X166152712Y-89846818D01*
X166280677Y-90008270D01*
X166437564Y-90141791D01*
X166617398Y-90242297D01*
X166701280Y-90269552D01*
X166807471Y-90304056D01*
X166807475Y-90304057D01*
X166813329Y-90305959D01*
X167017894Y-90330351D01*
X167024029Y-90329879D01*
X167024031Y-90329879D01*
X167096625Y-90324293D01*
X167223300Y-90314546D01*
X167229230Y-90312890D01*
X167229232Y-90312890D01*
X167415797Y-90260800D01*
X167415796Y-90260800D01*
X167421725Y-90259145D01*
X167427214Y-90256372D01*
X167427220Y-90256370D01*
X167600116Y-90169033D01*
X167605610Y-90166258D01*
X167767951Y-90039424D01*
X167902564Y-89883472D01*
X167923387Y-89846818D01*
X168001276Y-89709707D01*
X168004323Y-89704344D01*
X168069351Y-89508863D01*
X168095171Y-89304474D01*
X168095583Y-89275000D01*
X168075480Y-89069970D01*
X168015935Y-88872749D01*
X167919218Y-88690849D01*
X167834172Y-88586573D01*
X167792906Y-88535975D01*
X167792903Y-88535972D01*
X167789011Y-88531200D01*
X167771786Y-88516950D01*
X167635025Y-88403811D01*
X167635021Y-88403809D01*
X167630275Y-88399882D01*
X167554552Y-88358939D01*
X167481571Y-88319478D01*
X167431162Y-88269483D01*
X167415500Y-88208642D01*
X167415500Y-87695727D01*
X167435502Y-87627606D01*
X167489158Y-87581113D01*
X167559432Y-87571009D01*
X167624012Y-87600503D01*
X167630595Y-87606632D01*
X168639848Y-88615885D01*
X168673874Y-88678197D01*
X168668809Y-88749012D01*
X168661167Y-88765681D01*
X168612746Y-88853757D01*
X168612743Y-88853765D01*
X168609776Y-88859162D01*
X168547484Y-89055532D01*
X168546798Y-89061649D01*
X168546797Y-89061653D01*
X168525207Y-89254137D01*
X168524520Y-89260262D01*
X168541759Y-89465553D01*
X168598544Y-89663586D01*
X168601359Y-89669063D01*
X168601360Y-89669066D01*
X168622247Y-89709707D01*
X168692712Y-89846818D01*
X168820677Y-90008270D01*
X168977564Y-90141791D01*
X169157398Y-90242297D01*
X169241280Y-90269552D01*
X169347471Y-90304056D01*
X169347475Y-90304057D01*
X169353329Y-90305959D01*
X169557894Y-90330351D01*
X169564029Y-90329879D01*
X169564031Y-90329879D01*
X169636625Y-90324293D01*
X169763300Y-90314546D01*
X169769230Y-90312890D01*
X169769232Y-90312890D01*
X169955797Y-90260800D01*
X169955796Y-90260800D01*
X169961725Y-90259145D01*
X169967214Y-90256372D01*
X169967220Y-90256370D01*
X170140116Y-90169033D01*
X170145610Y-90166258D01*
X170307951Y-90039424D01*
X170442564Y-89883472D01*
X170463387Y-89846818D01*
X170541276Y-89709707D01*
X170544323Y-89704344D01*
X170609351Y-89508863D01*
X170635171Y-89304474D01*
X170635583Y-89275000D01*
X170615480Y-89069970D01*
X170555935Y-88872749D01*
X170459218Y-88690849D01*
X170374172Y-88586573D01*
X170332906Y-88535975D01*
X170332903Y-88535972D01*
X170329011Y-88531200D01*
X170311786Y-88516950D01*
X170175025Y-88403811D01*
X170175021Y-88403809D01*
X170170275Y-88399882D01*
X169989055Y-88301897D01*
X169792254Y-88240977D01*
X169786129Y-88240333D01*
X169786128Y-88240333D01*
X169593498Y-88220087D01*
X169593496Y-88220087D01*
X169587369Y-88219443D01*
X169476287Y-88229552D01*
X169387772Y-88237607D01*
X169318119Y-88223861D01*
X169287258Y-88201221D01*
X164402476Y-83316439D01*
X164387751Y-83298208D01*
X164386350Y-83296668D01*
X164380700Y-83287918D01*
X164354663Y-83267392D01*
X164350296Y-83263511D01*
X164350230Y-83263589D01*
X164346272Y-83260235D01*
X164342590Y-83256553D01*
X164338359Y-83253530D01*
X164338356Y-83253527D01*
X164333537Y-83250084D01*
X164327076Y-83245467D01*
X164322340Y-83241911D01*
X164317289Y-83237929D01*
X164282528Y-83210525D01*
X164273979Y-83207523D01*
X164266609Y-83202256D01*
X164233331Y-83192304D01*
X164218058Y-83187736D01*
X164212414Y-83185902D01*
X164172063Y-83171732D01*
X164172057Y-83171731D01*
X164164580Y-83169105D01*
X164159073Y-83168628D01*
X164156366Y-83168628D01*
X164153793Y-83168517D01*
X164153634Y-83168469D01*
X164153640Y-83168325D01*
X164153020Y-83168286D01*
X164146841Y-83166438D01*
X164093573Y-83168531D01*
X164088626Y-83168628D01*
X162001855Y-83168628D01*
X161933734Y-83148626D01*
X161912760Y-83131723D01*
X161202405Y-82421368D01*
X161168379Y-82359056D01*
X161165500Y-82332273D01*
X161165500Y-81756790D01*
X161185502Y-81688669D01*
X161239158Y-81642176D01*
X161259420Y-81634942D01*
X161340658Y-81613554D01*
X161340660Y-81613553D01*
X161345181Y-81612363D01*
X161560747Y-81519748D01*
X169509500Y-81519748D01*
X169521133Y-81578231D01*
X169565448Y-81644552D01*
X169631769Y-81688867D01*
X169643938Y-81691288D01*
X169643939Y-81691288D01*
X169684184Y-81699293D01*
X169690252Y-81700500D01*
X170708500Y-81700500D01*
X170776621Y-81720502D01*
X170823114Y-81774158D01*
X170834500Y-81826500D01*
X170834500Y-81946504D01*
X170832021Y-81969801D01*
X170831923Y-81971886D01*
X170829731Y-81982066D01*
X170833526Y-82014129D01*
X170833627Y-82014984D01*
X170833971Y-82020821D01*
X170834072Y-82020813D01*
X170834500Y-82025992D01*
X170834500Y-82031193D01*
X170835354Y-82036321D01*
X170835354Y-82036327D01*
X170837628Y-82049987D01*
X170838465Y-82055863D01*
X170844424Y-82106210D01*
X170848346Y-82114377D01*
X170849833Y-82123313D01*
X170854777Y-82132475D01*
X170854778Y-82132479D01*
X170873906Y-82167929D01*
X170876602Y-82173220D01*
X170885419Y-82191581D01*
X170898537Y-82218900D01*
X170902094Y-82223131D01*
X170904026Y-82225063D01*
X170905745Y-82226937D01*
X170905819Y-82227074D01*
X170905709Y-82227174D01*
X170906132Y-82227654D01*
X170909194Y-82233329D01*
X170916841Y-82240398D01*
X170916842Y-82240399D01*
X170948367Y-82269540D01*
X170951933Y-82272970D01*
X171707595Y-83028632D01*
X171741621Y-83090944D01*
X171744500Y-83117727D01*
X171744500Y-88209554D01*
X171724498Y-88277675D01*
X171676876Y-88321215D01*
X171542002Y-88391726D01*
X171537201Y-88395586D01*
X171537198Y-88395588D01*
X171386254Y-88516950D01*
X171381447Y-88520815D01*
X171249024Y-88678630D01*
X171246056Y-88684028D01*
X171246053Y-88684033D01*
X171152747Y-88853757D01*
X171149776Y-88859162D01*
X171087484Y-89055532D01*
X171086798Y-89061649D01*
X171086797Y-89061653D01*
X171065207Y-89254137D01*
X171064520Y-89260262D01*
X171081759Y-89465553D01*
X171138544Y-89663586D01*
X171141359Y-89669063D01*
X171141360Y-89669066D01*
X171162247Y-89709707D01*
X171232712Y-89846818D01*
X171360677Y-90008270D01*
X171517564Y-90141791D01*
X171697398Y-90242297D01*
X171781280Y-90269552D01*
X171887471Y-90304056D01*
X171887475Y-90304057D01*
X171893329Y-90305959D01*
X172097894Y-90330351D01*
X172104029Y-90329879D01*
X172104031Y-90329879D01*
X172176625Y-90324293D01*
X172303300Y-90314546D01*
X172309230Y-90312890D01*
X172309232Y-90312890D01*
X172495797Y-90260800D01*
X172495796Y-90260800D01*
X172501725Y-90259145D01*
X172507214Y-90256372D01*
X172507220Y-90256370D01*
X172680116Y-90169033D01*
X172685610Y-90166258D01*
X172847951Y-90039424D01*
X172982564Y-89883472D01*
X173003387Y-89846818D01*
X173081276Y-89709707D01*
X173084323Y-89704344D01*
X173149351Y-89508863D01*
X173175171Y-89304474D01*
X173175583Y-89275000D01*
X173174138Y-89260262D01*
X173604520Y-89260262D01*
X173621759Y-89465553D01*
X173678544Y-89663586D01*
X173681359Y-89669063D01*
X173681360Y-89669066D01*
X173702247Y-89709707D01*
X173772712Y-89846818D01*
X173900677Y-90008270D01*
X174057564Y-90141791D01*
X174237398Y-90242297D01*
X174321280Y-90269552D01*
X174427471Y-90304056D01*
X174427475Y-90304057D01*
X174433329Y-90305959D01*
X174637894Y-90330351D01*
X174644029Y-90329879D01*
X174644031Y-90329879D01*
X174716625Y-90324293D01*
X174843300Y-90314546D01*
X174849230Y-90312890D01*
X174849232Y-90312890D01*
X175035797Y-90260800D01*
X175035796Y-90260800D01*
X175041725Y-90259145D01*
X175047214Y-90256372D01*
X175047220Y-90256370D01*
X175220116Y-90169033D01*
X175225610Y-90166258D01*
X175253142Y-90144748D01*
X176149500Y-90144748D01*
X176150707Y-90150816D01*
X176154331Y-90169033D01*
X176161133Y-90203231D01*
X176205448Y-90269552D01*
X176271769Y-90313867D01*
X176283938Y-90316288D01*
X176283939Y-90316288D01*
X176324184Y-90324293D01*
X176330252Y-90325500D01*
X178069748Y-90325500D01*
X178075816Y-90324293D01*
X178116061Y-90316288D01*
X178116062Y-90316288D01*
X178128231Y-90313867D01*
X178194552Y-90269552D01*
X178238867Y-90203231D01*
X178245670Y-90169033D01*
X178249293Y-90150816D01*
X178250500Y-90144748D01*
X178250500Y-88405252D01*
X178238867Y-88346769D01*
X178194552Y-88280448D01*
X178128231Y-88236133D01*
X178116062Y-88233712D01*
X178116061Y-88233712D01*
X178075816Y-88225707D01*
X178069748Y-88224500D01*
X176330252Y-88224500D01*
X176324184Y-88225707D01*
X176283939Y-88233712D01*
X176283938Y-88233712D01*
X176271769Y-88236133D01*
X176205448Y-88280448D01*
X176161133Y-88346769D01*
X176149500Y-88405252D01*
X176149500Y-90144748D01*
X175253142Y-90144748D01*
X175387951Y-90039424D01*
X175522564Y-89883472D01*
X175543387Y-89846818D01*
X175621276Y-89709707D01*
X175624323Y-89704344D01*
X175689351Y-89508863D01*
X175715171Y-89304474D01*
X175715583Y-89275000D01*
X175695480Y-89069970D01*
X175635935Y-88872749D01*
X175539218Y-88690849D01*
X175454172Y-88586573D01*
X175412906Y-88535975D01*
X175412903Y-88535972D01*
X175409011Y-88531200D01*
X175391786Y-88516950D01*
X175255025Y-88403811D01*
X175255021Y-88403809D01*
X175250275Y-88399882D01*
X175174552Y-88358939D01*
X175101571Y-88319478D01*
X175051162Y-88269483D01*
X175035500Y-88208642D01*
X175035500Y-83837727D01*
X175055502Y-83769606D01*
X175072405Y-83748632D01*
X176517689Y-82303348D01*
X176535920Y-82288623D01*
X176537460Y-82287222D01*
X176546210Y-82281572D01*
X176566736Y-82255535D01*
X176570617Y-82251168D01*
X176570539Y-82251102D01*
X176573893Y-82247144D01*
X176577575Y-82243462D01*
X176583318Y-82235426D01*
X176584816Y-82233329D01*
X176588661Y-82227948D01*
X176592217Y-82223212D01*
X176592281Y-82223131D01*
X176623603Y-82183400D01*
X176626605Y-82174851D01*
X176631872Y-82167481D01*
X176646394Y-82118922D01*
X176648227Y-82113281D01*
X176662395Y-82072936D01*
X176662395Y-82072935D01*
X176665023Y-82065452D01*
X176665500Y-82059945D01*
X176665500Y-82057238D01*
X176665611Y-82054666D01*
X176665659Y-82054506D01*
X176665803Y-82054512D01*
X176665842Y-82053894D01*
X176667690Y-82047714D01*
X176665597Y-81994445D01*
X176665500Y-81989499D01*
X176665500Y-81756790D01*
X176685502Y-81688669D01*
X176739158Y-81642176D01*
X176759420Y-81634942D01*
X176840658Y-81613554D01*
X176840660Y-81613553D01*
X176845181Y-81612363D01*
X177077405Y-81512591D01*
X177184774Y-81446149D01*
X177288358Y-81382050D01*
X177288362Y-81382047D01*
X177292331Y-81379591D01*
X177386989Y-81299457D01*
X177481672Y-81219302D01*
X177481673Y-81219301D01*
X177485238Y-81216283D01*
X177567886Y-81122042D01*
X177648806Y-81029771D01*
X177648810Y-81029766D01*
X177651888Y-81026256D01*
X177722653Y-80916240D01*
X177786094Y-80817610D01*
X177786096Y-80817607D01*
X177788619Y-80813684D01*
X177892428Y-80583236D01*
X177961034Y-80339976D01*
X177977263Y-80212409D01*
X177992533Y-80092378D01*
X177992533Y-80092372D01*
X177992931Y-80089247D01*
X177995268Y-80000000D01*
X177976537Y-79747945D01*
X177920756Y-79501428D01*
X177829150Y-79265863D01*
X177703731Y-79046426D01*
X177547255Y-78847938D01*
X177363160Y-78674758D01*
X177155489Y-78530691D01*
X177151296Y-78528623D01*
X176932993Y-78420968D01*
X176932990Y-78420967D01*
X176928805Y-78418903D01*
X176884379Y-78404682D01*
X176762788Y-78365761D01*
X176688087Y-78341849D01*
X176683480Y-78341099D01*
X176683477Y-78341098D01*
X176443235Y-78301972D01*
X176443236Y-78301972D01*
X176438624Y-78301221D01*
X176316026Y-78299616D01*
X176190573Y-78297974D01*
X176190570Y-78297974D01*
X176185896Y-78297913D01*
X175935455Y-78331996D01*
X175930965Y-78333305D01*
X175930959Y-78333306D01*
X175854995Y-78355448D01*
X175692803Y-78402723D01*
X175688556Y-78404681D01*
X175688553Y-78404682D01*
X175653226Y-78420968D01*
X175463270Y-78508539D01*
X175459361Y-78511102D01*
X175255812Y-78644554D01*
X175255807Y-78644558D01*
X175251899Y-78647120D01*
X175063333Y-78815421D01*
X174901715Y-79009746D01*
X174770595Y-79225825D01*
X174768786Y-79230139D01*
X174768785Y-79230141D01*
X174753806Y-79265863D01*
X174672854Y-79458911D01*
X174610639Y-79703883D01*
X174585316Y-79955361D01*
X174597443Y-80207820D01*
X174646752Y-80455713D01*
X174648331Y-80460111D01*
X174648333Y-80460118D01*
X174730577Y-80689186D01*
X174732160Y-80693595D01*
X174851792Y-80916240D01*
X174854587Y-80919984D01*
X174854589Y-80919986D01*
X175000226Y-81115018D01*
X175000231Y-81115024D01*
X175003018Y-81118756D01*
X175006327Y-81122036D01*
X175006332Y-81122042D01*
X175179200Y-81293408D01*
X175182517Y-81296696D01*
X175186279Y-81299454D01*
X175186282Y-81299457D01*
X175382575Y-81443384D01*
X175386346Y-81446149D01*
X175390481Y-81448325D01*
X175390485Y-81448327D01*
X175507952Y-81510129D01*
X175610026Y-81563833D01*
X175731361Y-81606205D01*
X175830041Y-81640666D01*
X175887759Y-81682008D01*
X175913962Y-81747992D01*
X175914500Y-81759621D01*
X175914500Y-81792273D01*
X175894498Y-81860394D01*
X175877595Y-81881368D01*
X174432311Y-83326652D01*
X174414080Y-83341377D01*
X174412540Y-83342778D01*
X174403790Y-83348428D01*
X174397343Y-83356606D01*
X174383264Y-83374465D01*
X174379383Y-83378832D01*
X174379461Y-83378898D01*
X174376107Y-83382856D01*
X174372425Y-83386538D01*
X174361339Y-83402052D01*
X174357788Y-83406781D01*
X174326397Y-83446600D01*
X174323395Y-83455149D01*
X174318128Y-83462519D01*
X174315144Y-83472498D01*
X174303608Y-83511070D01*
X174301774Y-83516714D01*
X174287604Y-83557065D01*
X174287603Y-83557071D01*
X174284977Y-83564548D01*
X174284500Y-83570055D01*
X174284500Y-83572762D01*
X174284389Y-83575335D01*
X174284341Y-83575494D01*
X174284197Y-83575488D01*
X174284158Y-83576108D01*
X174282310Y-83582287D01*
X174282719Y-83592692D01*
X174284403Y-83635555D01*
X174284500Y-83640502D01*
X174284500Y-88209554D01*
X174264498Y-88277675D01*
X174216876Y-88321215D01*
X174082002Y-88391726D01*
X174077201Y-88395586D01*
X174077198Y-88395588D01*
X173926254Y-88516950D01*
X173921447Y-88520815D01*
X173789024Y-88678630D01*
X173786056Y-88684028D01*
X173786053Y-88684033D01*
X173692747Y-88853757D01*
X173689776Y-88859162D01*
X173627484Y-89055532D01*
X173626798Y-89061649D01*
X173626797Y-89061653D01*
X173605207Y-89254137D01*
X173604520Y-89260262D01*
X173174138Y-89260262D01*
X173155480Y-89069970D01*
X173095935Y-88872749D01*
X172999218Y-88690849D01*
X172914172Y-88586573D01*
X172872906Y-88535975D01*
X172872903Y-88535972D01*
X172869011Y-88531200D01*
X172851786Y-88516950D01*
X172715025Y-88403811D01*
X172715021Y-88403809D01*
X172710275Y-88399882D01*
X172634552Y-88358939D01*
X172561571Y-88319478D01*
X172511162Y-88269483D01*
X172495500Y-88208642D01*
X172495500Y-82963496D01*
X172497979Y-82940208D01*
X172498078Y-82938110D01*
X172500269Y-82927933D01*
X172496373Y-82895015D01*
X172496029Y-82889179D01*
X172495928Y-82889187D01*
X172495500Y-82884008D01*
X172495500Y-82878807D01*
X172492371Y-82860007D01*
X172491534Y-82854130D01*
X172486800Y-82814134D01*
X172485576Y-82803790D01*
X172481654Y-82795623D01*
X172480167Y-82786687D01*
X172475223Y-82777525D01*
X172475222Y-82777521D01*
X172456094Y-82742071D01*
X172453398Y-82736780D01*
X172434897Y-82698251D01*
X172434896Y-82698250D01*
X172431463Y-82691100D01*
X172427906Y-82686869D01*
X172425974Y-82684937D01*
X172424255Y-82683063D01*
X172424181Y-82682926D01*
X172424291Y-82682826D01*
X172423868Y-82682346D01*
X172420806Y-82676671D01*
X172406356Y-82663313D01*
X172381633Y-82640460D01*
X172378067Y-82637030D01*
X171656632Y-81915595D01*
X171622606Y-81853283D01*
X171627671Y-81782468D01*
X171670218Y-81725632D01*
X171736738Y-81700821D01*
X171745727Y-81700500D01*
X172729748Y-81700500D01*
X172735816Y-81699293D01*
X172776061Y-81691288D01*
X172776062Y-81691288D01*
X172788231Y-81688867D01*
X172854552Y-81644552D01*
X172898867Y-81578231D01*
X172910500Y-81519748D01*
X172910500Y-78480252D01*
X172898867Y-78421769D01*
X172854552Y-78355448D01*
X172788231Y-78311133D01*
X172776062Y-78308712D01*
X172776061Y-78308712D01*
X172735816Y-78300707D01*
X172729748Y-78299500D01*
X169690252Y-78299500D01*
X169684184Y-78300707D01*
X169643939Y-78308712D01*
X169643938Y-78308712D01*
X169631769Y-78311133D01*
X169565448Y-78355448D01*
X169521133Y-78421769D01*
X169509500Y-78480252D01*
X169509500Y-81519748D01*
X161560747Y-81519748D01*
X161577405Y-81512591D01*
X161684774Y-81446149D01*
X161788358Y-81382050D01*
X161788362Y-81382047D01*
X161792331Y-81379591D01*
X161886989Y-81299457D01*
X161981672Y-81219302D01*
X161981673Y-81219301D01*
X161985238Y-81216283D01*
X162067886Y-81122042D01*
X162148806Y-81029771D01*
X162148810Y-81029766D01*
X162151888Y-81026256D01*
X162222653Y-80916240D01*
X162286094Y-80817610D01*
X162286096Y-80817607D01*
X162288619Y-80813684D01*
X162392428Y-80583236D01*
X162461034Y-80339976D01*
X162477263Y-80212409D01*
X162492533Y-80092378D01*
X162492533Y-80092372D01*
X162492931Y-80089247D01*
X162495268Y-80000000D01*
X162476537Y-79747945D01*
X162420756Y-79501428D01*
X162329150Y-79265863D01*
X162203731Y-79046426D01*
X162047255Y-78847938D01*
X161863160Y-78674758D01*
X161655489Y-78530691D01*
X161651296Y-78528623D01*
X161432993Y-78420968D01*
X161432990Y-78420967D01*
X161428805Y-78418903D01*
X161384379Y-78404682D01*
X161262788Y-78365761D01*
X161188087Y-78341849D01*
X161183480Y-78341099D01*
X161183477Y-78341098D01*
X160943235Y-78301972D01*
X160943236Y-78301972D01*
X160938624Y-78301221D01*
X160816026Y-78299616D01*
X160690573Y-78297974D01*
X160690570Y-78297974D01*
X160685896Y-78297913D01*
X160435455Y-78331996D01*
X160430965Y-78333305D01*
X160430959Y-78333306D01*
X160354995Y-78355448D01*
X160192803Y-78402723D01*
X160188556Y-78404681D01*
X160188553Y-78404682D01*
X160153226Y-78420968D01*
X159963270Y-78508539D01*
X159959361Y-78511102D01*
X159755812Y-78644554D01*
X159755807Y-78644558D01*
X159751899Y-78647120D01*
X159563333Y-78815421D01*
X159401715Y-79009746D01*
X159270595Y-79225825D01*
X159268786Y-79230139D01*
X159268785Y-79230141D01*
X159253806Y-79265863D01*
X159172854Y-79458911D01*
X159110639Y-79703883D01*
X159085316Y-79955361D01*
X159097443Y-80207820D01*
X159146752Y-80455713D01*
X159148331Y-80460111D01*
X159148333Y-80460118D01*
X159230577Y-80689186D01*
X159232160Y-80693595D01*
X159351792Y-80916240D01*
X159354587Y-80919984D01*
X159354589Y-80919986D01*
X159500226Y-81115018D01*
X159500231Y-81115024D01*
X159503018Y-81118756D01*
X159506327Y-81122036D01*
X159506332Y-81122042D01*
X159679200Y-81293408D01*
X159682517Y-81296696D01*
X159686279Y-81299454D01*
X159686282Y-81299457D01*
X159882575Y-81443384D01*
X159886346Y-81446149D01*
X159890481Y-81448325D01*
X159890485Y-81448327D01*
X160007952Y-81510129D01*
X160110026Y-81563833D01*
X160231361Y-81606205D01*
X160330041Y-81640666D01*
X160387759Y-81682008D01*
X160413962Y-81747992D01*
X160414500Y-81759621D01*
X160414500Y-82486504D01*
X160412021Y-82509801D01*
X160411923Y-82511886D01*
X160409731Y-82522066D01*
X160410955Y-82532405D01*
X160413627Y-82554984D01*
X160413971Y-82560821D01*
X160414072Y-82560813D01*
X160414500Y-82565992D01*
X160414500Y-82571193D01*
X160415354Y-82576321D01*
X160415354Y-82576327D01*
X160417628Y-82589987D01*
X160418465Y-82595863D01*
X160424424Y-82646210D01*
X160428346Y-82654377D01*
X160429833Y-82663313D01*
X160434777Y-82672475D01*
X160434778Y-82672479D01*
X160453906Y-82707929D01*
X160456602Y-82713220D01*
X160470456Y-82742071D01*
X160478537Y-82758900D01*
X160482094Y-82763131D01*
X160484026Y-82765063D01*
X160485745Y-82766937D01*
X160485819Y-82767074D01*
X160485709Y-82767174D01*
X160486132Y-82767654D01*
X160489194Y-82773329D01*
X160496841Y-82780398D01*
X160496842Y-82780399D01*
X160528367Y-82809540D01*
X160531933Y-82812970D01*
X161222496Y-83503533D01*
X161256522Y-83565845D01*
X161251457Y-83636660D01*
X161208910Y-83693496D01*
X161142390Y-83718307D01*
X161133401Y-83718628D01*
X156941855Y-83718628D01*
X156873734Y-83698626D01*
X156852760Y-83681723D01*
X156122405Y-82951368D01*
X156088379Y-82889056D01*
X156085500Y-82862273D01*
X156085500Y-81826500D01*
X156105502Y-81758379D01*
X156159158Y-81711886D01*
X156211500Y-81700500D01*
X157229748Y-81700500D01*
X157235816Y-81699293D01*
X157276061Y-81691288D01*
X157276062Y-81691288D01*
X157288231Y-81688867D01*
X157354552Y-81644552D01*
X157398867Y-81578231D01*
X157410500Y-81519748D01*
X157410500Y-78480252D01*
X157398867Y-78421769D01*
X157354552Y-78355448D01*
X157288231Y-78311133D01*
X157276062Y-78308712D01*
X157276061Y-78308712D01*
X157235816Y-78300707D01*
X157229748Y-78299500D01*
X154190252Y-78299500D01*
X154184184Y-78300707D01*
X154143939Y-78308712D01*
X154143938Y-78308712D01*
X154131769Y-78311133D01*
X154065448Y-78355448D01*
X154021133Y-78421769D01*
X154009500Y-78480252D01*
X154009500Y-81519748D01*
X151200500Y-81519748D01*
X151200500Y-77037371D01*
X151203755Y-77008918D01*
X151204043Y-77007676D01*
X151204044Y-77007669D01*
X151205655Y-77000718D01*
X151205656Y-77000000D01*
X151204075Y-76993067D01*
X151203283Y-76985993D01*
X151204348Y-76985874D01*
X151202516Y-76964113D01*
X151217706Y-76693620D01*
X151219288Y-76679579D01*
X151221766Y-76664998D01*
X151269504Y-76384028D01*
X151272647Y-76370257D01*
X151355641Y-76082180D01*
X151360308Y-76068843D01*
X151475030Y-75791879D01*
X151481161Y-75779148D01*
X151626172Y-75516772D01*
X151633689Y-75504808D01*
X151807170Y-75260309D01*
X151815980Y-75249262D01*
X152015740Y-75025731D01*
X152025731Y-75015740D01*
X152249262Y-74815980D01*
X152260309Y-74807170D01*
X152504808Y-74633689D01*
X152516772Y-74626172D01*
X152667159Y-74543056D01*
X152779152Y-74481159D01*
X152791875Y-74475032D01*
X153068849Y-74360306D01*
X153082180Y-74355641D01*
X153370257Y-74272647D01*
X153384028Y-74269504D01*
X153679584Y-74219287D01*
X153693616Y-74217706D01*
X153963828Y-74202531D01*
X153971621Y-74203197D01*
X153971622Y-74202451D01*
X153985813Y-74202476D01*
X153999641Y-74205656D01*
X154013480Y-74202525D01*
X154018311Y-74202533D01*
X154036504Y-74200500D01*
X177962920Y-74200500D01*
X177980242Y-74202466D01*
G37*
%TD.AperFunction*%
%TD*%
M02*
