M48
; DRILL file {KiCad (6.0.6-0)} date Saturday, 25 March 2023 at 13:57:29
; FORMAT={-:-/ absolute / inch / decimal}
; #@! TF.CreationDate,2023-03-25T13:57:29+01:00
; #@! TF.GenerationSoftware,Kicad,Pcbnew,(6.0.6-0)
; #@! TF.FileFunction,MixedPlating,1,2
FMAT,2
INCH
; #@! TA.AperFunction,Plated,PTH,ViaDrill
T1C0.0157
; #@! TA.AperFunction,Plated,PTH,ComponentDrill
T2C0.0394
; #@! TA.AperFunction,Plated,PTH,ComponentDrill
T3C0.0598
; #@! TA.AperFunction,Plated,PTH,ComponentDrill
T4C0.1260
%
G90
G05
T1
X6.4075Y-4.6358
X6.624Y-4.4193
X6.6634Y-5.0689
T2
X6.0835Y-4.6063
X6.0835Y-4.7063
X6.0835Y-4.8063
X6.0835Y-4.9063
X6.0835Y-5.0063
X6.0835Y-5.1063
X6.0835Y-5.2063
X6.0835Y-5.3063
X6.4764Y-3.5148
X6.4764Y-4.1142
X6.5764Y-3.5148
X6.5764Y-4.1142
X6.6764Y-3.5148
X6.6764Y-4.1142
X6.7764Y-3.5148
X6.7764Y-4.1142
X6.8764Y-3.5148
X6.8764Y-4.1142
X6.9764Y-3.5148
X6.9764Y-4.1142
X6.9835Y-4.6063
X6.9835Y-4.7063
X6.9835Y-4.8063
X6.9835Y-4.9063
X6.9835Y-5.0063
X6.9835Y-5.1063
X6.9835Y-5.2063
X6.9835Y-5.3063
T3
X6.1303Y-3.1496
X6.1811Y-3.4335
X6.1811Y-3.6335
X6.1811Y-3.8764
X6.1811Y-4.0764
X6.3303Y-3.1496
X6.7406Y-3.1496
X6.9406Y-3.1496
T4
X6.2717Y-5.5
X6.7Y-3.8145
T0
M30
