%TF.GenerationSoftware,KiCad,Pcbnew,(6.0.6-0)*%
%TF.CreationDate,2023-03-25T13:57:32+01:00*%
%TF.ProjectId,bubblebutbot,62756262-6c65-4627-9574-626f742e6b69,rev?*%
%TF.SameCoordinates,Original*%
%TF.FileFunction,Legend,Top*%
%TF.FilePolarity,Positive*%
%FSLAX46Y46*%
G04 Gerber Fmt 4.6, Leading zero omitted, Abs format (unit mm)*
G04 Created by KiCad (PCBNEW (6.0.6-0)) date 2023-03-25 13:57:32*
%MOMM*%
%LPD*%
G01*
G04 APERTURE LIST*
%ADD10C,0.150000*%
%ADD11C,0.120000*%
G04 APERTURE END LIST*
D10*
X161988095Y-98785714D02*
X161750000Y-98785714D01*
X161750000Y-97357142D01*
X161988095Y-97357142D01*
X162273809Y-97452380D02*
X162892857Y-97452380D01*
X162559523Y-97833333D01*
X162702380Y-97833333D01*
X162797619Y-97880952D01*
X162845238Y-97928571D01*
X162892857Y-98023809D01*
X162892857Y-98261904D01*
X162845238Y-98357142D01*
X162797619Y-98404761D01*
X162702380Y-98452380D01*
X162416666Y-98452380D01*
X162321428Y-98404761D01*
X162273809Y-98357142D01*
X163321428Y-98357142D02*
X163369047Y-98404761D01*
X163321428Y-98452380D01*
X163273809Y-98404761D01*
X163321428Y-98357142D01*
X163321428Y-98452380D01*
X163702380Y-97452380D02*
X164369047Y-97452380D01*
X163940476Y-98452380D01*
X164607142Y-97452380D02*
X164940476Y-98452380D01*
X165273809Y-97452380D01*
X165511904Y-98785714D02*
X165750000Y-98785714D01*
X165750000Y-97357142D01*
X165511904Y-97357142D01*
D11*
X166254761Y-100117904D02*
X166711904Y-100117904D01*
X166483333Y-100917904D02*
X166483333Y-100117904D01*
X166978571Y-100917904D02*
X166978571Y-100117904D01*
X167321428Y-100917904D02*
X167321428Y-100498857D01*
X167283333Y-100422666D01*
X167207142Y-100384571D01*
X167092857Y-100384571D01*
X167016666Y-100422666D01*
X166978571Y-100460761D01*
X168007142Y-100879809D02*
X167930952Y-100917904D01*
X167778571Y-100917904D01*
X167702380Y-100879809D01*
X167664285Y-100803619D01*
X167664285Y-100498857D01*
X167702380Y-100422666D01*
X167778571Y-100384571D01*
X167930952Y-100384571D01*
X168007142Y-100422666D01*
X168045238Y-100498857D01*
X168045238Y-100575047D01*
X167664285Y-100651238D01*
X168997619Y-100917904D02*
X168997619Y-100117904D01*
X168997619Y-100422666D02*
X169073809Y-100384571D01*
X169226190Y-100384571D01*
X169302380Y-100422666D01*
X169340476Y-100460761D01*
X169378571Y-100536952D01*
X169378571Y-100765523D01*
X169340476Y-100841714D01*
X169302380Y-100879809D01*
X169226190Y-100917904D01*
X169073809Y-100917904D01*
X168997619Y-100879809D01*
X170064285Y-100917904D02*
X170064285Y-100498857D01*
X170026190Y-100422666D01*
X169950000Y-100384571D01*
X169797619Y-100384571D01*
X169721428Y-100422666D01*
X170064285Y-100879809D02*
X169988095Y-100917904D01*
X169797619Y-100917904D01*
X169721428Y-100879809D01*
X169683333Y-100803619D01*
X169683333Y-100727428D01*
X169721428Y-100651238D01*
X169797619Y-100613142D01*
X169988095Y-100613142D01*
X170064285Y-100575047D01*
X170330952Y-100384571D02*
X170635714Y-100384571D01*
X170445238Y-100117904D02*
X170445238Y-100803619D01*
X170483333Y-100879809D01*
X170559523Y-100917904D01*
X170635714Y-100917904D01*
X170788095Y-100384571D02*
X171092857Y-100384571D01*
X170902380Y-100117904D02*
X170902380Y-100803619D01*
X170940476Y-100879809D01*
X171016666Y-100917904D01*
X171092857Y-100917904D01*
X171664285Y-100879809D02*
X171588095Y-100917904D01*
X171435714Y-100917904D01*
X171359523Y-100879809D01*
X171321428Y-100803619D01*
X171321428Y-100498857D01*
X171359523Y-100422666D01*
X171435714Y-100384571D01*
X171588095Y-100384571D01*
X171664285Y-100422666D01*
X171702380Y-100498857D01*
X171702380Y-100575047D01*
X171321428Y-100651238D01*
X172045238Y-100917904D02*
X172045238Y-100384571D01*
X172045238Y-100536952D02*
X172083333Y-100460761D01*
X172121428Y-100422666D01*
X172197619Y-100384571D01*
X172273809Y-100384571D01*
X172464285Y-100384571D02*
X172654761Y-100917904D01*
X172845238Y-100384571D02*
X172654761Y-100917904D01*
X172578571Y-101108380D01*
X172540476Y-101146476D01*
X172464285Y-101184571D01*
X173759523Y-100917904D02*
X173759523Y-100117904D01*
X174102380Y-100917904D02*
X174102380Y-100498857D01*
X174064285Y-100422666D01*
X173988095Y-100384571D01*
X173873809Y-100384571D01*
X173797619Y-100422666D01*
X173759523Y-100460761D01*
X174826190Y-100917904D02*
X174826190Y-100498857D01*
X174788095Y-100422666D01*
X174711904Y-100384571D01*
X174559523Y-100384571D01*
X174483333Y-100422666D01*
X174826190Y-100879809D02*
X174750000Y-100917904D01*
X174559523Y-100917904D01*
X174483333Y-100879809D01*
X174445238Y-100803619D01*
X174445238Y-100727428D01*
X174483333Y-100651238D01*
X174559523Y-100613142D01*
X174750000Y-100613142D01*
X174826190Y-100575047D01*
X175169047Y-100879809D02*
X175245238Y-100917904D01*
X175397619Y-100917904D01*
X175473809Y-100879809D01*
X175511904Y-100803619D01*
X175511904Y-100765523D01*
X175473809Y-100689333D01*
X175397619Y-100651238D01*
X175283333Y-100651238D01*
X175207142Y-100613142D01*
X175169047Y-100536952D01*
X175169047Y-100498857D01*
X175207142Y-100422666D01*
X175283333Y-100384571D01*
X175397619Y-100384571D01*
X175473809Y-100422666D01*
X176464285Y-100384571D02*
X176464285Y-100917904D01*
X176464285Y-100460761D02*
X176502380Y-100422666D01*
X176578571Y-100384571D01*
X176692857Y-100384571D01*
X176769047Y-100422666D01*
X176807142Y-100498857D01*
X176807142Y-100917904D01*
X177302380Y-100917904D02*
X177226190Y-100879809D01*
X177188095Y-100841714D01*
X177150000Y-100765523D01*
X177150000Y-100536952D01*
X177188095Y-100460761D01*
X177226190Y-100422666D01*
X177302380Y-100384571D01*
X177416666Y-100384571D01*
X177492857Y-100422666D01*
X177530952Y-100460761D01*
X177569047Y-100536952D01*
X177569047Y-100765523D01*
X177530952Y-100841714D01*
X177492857Y-100879809D01*
X177416666Y-100917904D01*
X177302380Y-100917904D01*
X166311904Y-102205904D02*
X166311904Y-101672571D01*
X166311904Y-101405904D02*
X166273809Y-101444000D01*
X166311904Y-101482095D01*
X166350000Y-101444000D01*
X166311904Y-101405904D01*
X166311904Y-101482095D01*
X166692857Y-101672571D02*
X166692857Y-102205904D01*
X166692857Y-101748761D02*
X166730952Y-101710666D01*
X166807142Y-101672571D01*
X166921428Y-101672571D01*
X166997619Y-101710666D01*
X167035714Y-101786857D01*
X167035714Y-102205904D01*
X167302380Y-101672571D02*
X167607142Y-101672571D01*
X167416666Y-101405904D02*
X167416666Y-102091619D01*
X167454761Y-102167809D01*
X167530952Y-102205904D01*
X167607142Y-102205904D01*
X168178571Y-102167809D02*
X168102380Y-102205904D01*
X167950000Y-102205904D01*
X167873809Y-102167809D01*
X167835714Y-102091619D01*
X167835714Y-101786857D01*
X167873809Y-101710666D01*
X167950000Y-101672571D01*
X168102380Y-101672571D01*
X168178571Y-101710666D01*
X168216666Y-101786857D01*
X168216666Y-101863047D01*
X167835714Y-101939238D01*
X168559523Y-102205904D02*
X168559523Y-101672571D01*
X168559523Y-101824952D02*
X168597619Y-101748761D01*
X168635714Y-101710666D01*
X168711904Y-101672571D01*
X168788095Y-101672571D01*
X169054761Y-101672571D02*
X169054761Y-102205904D01*
X169054761Y-101748761D02*
X169092857Y-101710666D01*
X169169047Y-101672571D01*
X169283333Y-101672571D01*
X169359523Y-101710666D01*
X169397619Y-101786857D01*
X169397619Y-102205904D01*
X170121428Y-102205904D02*
X170121428Y-101786857D01*
X170083333Y-101710666D01*
X170007142Y-101672571D01*
X169854761Y-101672571D01*
X169778571Y-101710666D01*
X170121428Y-102167809D02*
X170045238Y-102205904D01*
X169854761Y-102205904D01*
X169778571Y-102167809D01*
X169740476Y-102091619D01*
X169740476Y-102015428D01*
X169778571Y-101939238D01*
X169854761Y-101901142D01*
X170045238Y-101901142D01*
X170121428Y-101863047D01*
X170616666Y-102205904D02*
X170540476Y-102167809D01*
X170502380Y-102091619D01*
X170502380Y-101405904D01*
X171530952Y-101672571D02*
X171530952Y-102472571D01*
X171530952Y-101710666D02*
X171607142Y-101672571D01*
X171759523Y-101672571D01*
X171835714Y-101710666D01*
X171873809Y-101748761D01*
X171911904Y-101824952D01*
X171911904Y-102053523D01*
X171873809Y-102129714D01*
X171835714Y-102167809D01*
X171759523Y-102205904D01*
X171607142Y-102205904D01*
X171530952Y-102167809D01*
X172254761Y-102205904D02*
X172254761Y-101672571D01*
X172254761Y-101824952D02*
X172292857Y-101748761D01*
X172330952Y-101710666D01*
X172407142Y-101672571D01*
X172483333Y-101672571D01*
X172864285Y-102205904D02*
X172788095Y-102167809D01*
X172750000Y-102129714D01*
X172711904Y-102053523D01*
X172711904Y-101824952D01*
X172750000Y-101748761D01*
X172788095Y-101710666D01*
X172864285Y-101672571D01*
X172978571Y-101672571D01*
X173054761Y-101710666D01*
X173092857Y-101748761D01*
X173130952Y-101824952D01*
X173130952Y-102053523D01*
X173092857Y-102129714D01*
X173054761Y-102167809D01*
X172978571Y-102205904D01*
X172864285Y-102205904D01*
X173359523Y-101672571D02*
X173664285Y-101672571D01*
X173473809Y-101405904D02*
X173473809Y-102091619D01*
X173511904Y-102167809D01*
X173588095Y-102205904D01*
X173664285Y-102205904D01*
X174235714Y-102167809D02*
X174159523Y-102205904D01*
X174007142Y-102205904D01*
X173930952Y-102167809D01*
X173892857Y-102091619D01*
X173892857Y-101786857D01*
X173930952Y-101710666D01*
X174007142Y-101672571D01*
X174159523Y-101672571D01*
X174235714Y-101710666D01*
X174273809Y-101786857D01*
X174273809Y-101863047D01*
X173892857Y-101939238D01*
X174959523Y-102167809D02*
X174883333Y-102205904D01*
X174730952Y-102205904D01*
X174654761Y-102167809D01*
X174616666Y-102129714D01*
X174578571Y-102053523D01*
X174578571Y-101824952D01*
X174616666Y-101748761D01*
X174654761Y-101710666D01*
X174730952Y-101672571D01*
X174883333Y-101672571D01*
X174959523Y-101710666D01*
X175188095Y-101672571D02*
X175492857Y-101672571D01*
X175302380Y-101405904D02*
X175302380Y-102091619D01*
X175340476Y-102167809D01*
X175416666Y-102205904D01*
X175492857Y-102205904D01*
X175759523Y-102205904D02*
X175759523Y-101672571D01*
X175759523Y-101405904D02*
X175721428Y-101444000D01*
X175759523Y-101482095D01*
X175797619Y-101444000D01*
X175759523Y-101405904D01*
X175759523Y-101482095D01*
X176254761Y-102205904D02*
X176178571Y-102167809D01*
X176140476Y-102129714D01*
X176102380Y-102053523D01*
X176102380Y-101824952D01*
X176140476Y-101748761D01*
X176178571Y-101710666D01*
X176254761Y-101672571D01*
X176369047Y-101672571D01*
X176445238Y-101710666D01*
X176483333Y-101748761D01*
X176521428Y-101824952D01*
X176521428Y-102053523D01*
X176483333Y-102129714D01*
X176445238Y-102167809D01*
X176369047Y-102205904D01*
X176254761Y-102205904D01*
X176864285Y-101672571D02*
X176864285Y-102205904D01*
X176864285Y-101748761D02*
X176902380Y-101710666D01*
X176978571Y-101672571D01*
X177092857Y-101672571D01*
X177169047Y-101710666D01*
X177207142Y-101786857D01*
X177207142Y-102205904D01*
X177588095Y-102129714D02*
X177626190Y-102167809D01*
X177588095Y-102205904D01*
X177550000Y-102167809D01*
X177588095Y-102129714D01*
X177588095Y-102205904D01*
D10*
X163820711Y-101750000D02*
G75*
G03*
X163820711Y-101750000I-70711J0D01*
G01*
X163750000Y-100150000D02*
X163750000Y-101350000D01*
X161900000Y-102200000D02*
X163750000Y-99400000D01*
X165650000Y-102200000D02*
X161900000Y-102200000D01*
X163750000Y-99400000D02*
X165650000Y-102200000D01*
%TO.C,R4*%
X158500833Y-117702380D02*
X158167500Y-117226190D01*
X157929404Y-117702380D02*
X157929404Y-116702380D01*
X158310357Y-116702380D01*
X158405595Y-116750000D01*
X158453214Y-116797619D01*
X158500833Y-116892857D01*
X158500833Y-117035714D01*
X158453214Y-117130952D01*
X158405595Y-117178571D01*
X158310357Y-117226190D01*
X157929404Y-117226190D01*
X159357976Y-117035714D02*
X159357976Y-117702380D01*
X159119880Y-116654761D02*
X158881785Y-117369047D01*
X159500833Y-117369047D01*
%TO.C,R3*%
X157670833Y-121382380D02*
X157337500Y-120906190D01*
X157099404Y-121382380D02*
X157099404Y-120382380D01*
X157480357Y-120382380D01*
X157575595Y-120430000D01*
X157623214Y-120477619D01*
X157670833Y-120572857D01*
X157670833Y-120715714D01*
X157623214Y-120810952D01*
X157575595Y-120858571D01*
X157480357Y-120906190D01*
X157099404Y-120906190D01*
X158004166Y-120382380D02*
X158623214Y-120382380D01*
X158289880Y-120763333D01*
X158432738Y-120763333D01*
X158527976Y-120810952D01*
X158575595Y-120858571D01*
X158623214Y-120953809D01*
X158623214Y-121191904D01*
X158575595Y-121287142D01*
X158527976Y-121334761D01*
X158432738Y-121382380D01*
X158147023Y-121382380D01*
X158051785Y-121334761D01*
X158004166Y-121287142D01*
%TO.C,H2*%
X158538095Y-136402380D02*
X158538095Y-135402380D01*
X158538095Y-135878571D02*
X159109523Y-135878571D01*
X159109523Y-136402380D02*
X159109523Y-135402380D01*
X159538095Y-135497619D02*
X159585714Y-135450000D01*
X159680952Y-135402380D01*
X159919047Y-135402380D01*
X160014285Y-135450000D01*
X160061904Y-135497619D01*
X160109523Y-135592857D01*
X160109523Y-135688095D01*
X160061904Y-135830952D01*
X159490476Y-136402380D01*
X160109523Y-136402380D01*
%TO.C,R1*%
X167452380Y-127166666D02*
X166976190Y-127500000D01*
X167452380Y-127738095D02*
X166452380Y-127738095D01*
X166452380Y-127357142D01*
X166500000Y-127261904D01*
X166547619Y-127214285D01*
X166642857Y-127166666D01*
X166785714Y-127166666D01*
X166880952Y-127214285D01*
X166928571Y-127261904D01*
X166976190Y-127357142D01*
X166976190Y-127738095D01*
X167452380Y-126214285D02*
X167452380Y-126785714D01*
X167452380Y-126500000D02*
X166452380Y-126500000D01*
X166595238Y-126595238D01*
X166690476Y-126690476D01*
X166738095Y-126785714D01*
%TO.C,U3*%
X159688095Y-131752380D02*
X159688095Y-132561904D01*
X159735714Y-132657142D01*
X159783333Y-132704761D01*
X159878571Y-132752380D01*
X160069047Y-132752380D01*
X160164285Y-132704761D01*
X160211904Y-132657142D01*
X160259523Y-132561904D01*
X160259523Y-131752380D01*
X160640476Y-131752380D02*
X161259523Y-131752380D01*
X160926190Y-132133333D01*
X161069047Y-132133333D01*
X161164285Y-132180952D01*
X161211904Y-132228571D01*
X161259523Y-132323809D01*
X161259523Y-132561904D01*
X161211904Y-132657142D01*
X161164285Y-132704761D01*
X161069047Y-132752380D01*
X160783333Y-132752380D01*
X160688095Y-132704761D01*
X160640476Y-132657142D01*
%TO.C,D1*%
X168752380Y-123638095D02*
X167752380Y-123638095D01*
X167752380Y-123400000D01*
X167800000Y-123257142D01*
X167895238Y-123161904D01*
X167990476Y-123114285D01*
X168180952Y-123066666D01*
X168323809Y-123066666D01*
X168514285Y-123114285D01*
X168609523Y-123161904D01*
X168704761Y-123257142D01*
X168752380Y-123400000D01*
X168752380Y-123638095D01*
X168752380Y-122114285D02*
X168752380Y-122685714D01*
X168752380Y-122400000D02*
X167752380Y-122400000D01*
X167895238Y-122495238D01*
X167990476Y-122590476D01*
X168038095Y-122685714D01*
%TO.C,Q1*%
X171604761Y-132847619D02*
X171509523Y-132800000D01*
X171414285Y-132704761D01*
X171271428Y-132561904D01*
X171176190Y-132514285D01*
X171080952Y-132514285D01*
X171128571Y-132752380D02*
X171033333Y-132704761D01*
X170938095Y-132609523D01*
X170890476Y-132419047D01*
X170890476Y-132085714D01*
X170938095Y-131895238D01*
X171033333Y-131800000D01*
X171128571Y-131752380D01*
X171319047Y-131752380D01*
X171414285Y-131800000D01*
X171509523Y-131895238D01*
X171557142Y-132085714D01*
X171557142Y-132419047D01*
X171509523Y-132609523D01*
X171414285Y-132704761D01*
X171319047Y-132752380D01*
X171128571Y-132752380D01*
X172509523Y-132752380D02*
X171938095Y-132752380D01*
X172223809Y-132752380D02*
X172223809Y-131752380D01*
X172128571Y-131895238D01*
X172033333Y-131990476D01*
X171938095Y-132038095D01*
%TO.C,C1*%
X168857142Y-127166666D02*
X168904761Y-127214285D01*
X168952380Y-127357142D01*
X168952380Y-127452380D01*
X168904761Y-127595238D01*
X168809523Y-127690476D01*
X168714285Y-127738095D01*
X168523809Y-127785714D01*
X168380952Y-127785714D01*
X168190476Y-127738095D01*
X168095238Y-127690476D01*
X168000000Y-127595238D01*
X167952380Y-127452380D01*
X167952380Y-127357142D01*
X168000000Y-127214285D01*
X168047619Y-127166666D01*
X168952380Y-126214285D02*
X168952380Y-126785714D01*
X168952380Y-126500000D02*
X167952380Y-126500000D01*
X168095238Y-126595238D01*
X168190476Y-126690476D01*
X168238095Y-126785714D01*
%TO.C,U1*%
X176738095Y-141452380D02*
X176738095Y-142261904D01*
X176785714Y-142357142D01*
X176833333Y-142404761D01*
X176928571Y-142452380D01*
X177119047Y-142452380D01*
X177214285Y-142404761D01*
X177261904Y-142357142D01*
X177309523Y-142261904D01*
X177309523Y-141452380D01*
X178309523Y-142452380D02*
X177738095Y-142452380D01*
X178023809Y-142452380D02*
X178023809Y-141452380D01*
X177928571Y-141595238D01*
X177833333Y-141690476D01*
X177738095Y-141738095D01*
%TO.C,C4*%
X168682142Y-134566666D02*
X168729761Y-134614285D01*
X168777380Y-134757142D01*
X168777380Y-134852380D01*
X168729761Y-134995238D01*
X168634523Y-135090476D01*
X168539285Y-135138095D01*
X168348809Y-135185714D01*
X168205952Y-135185714D01*
X168015476Y-135138095D01*
X167920238Y-135090476D01*
X167825000Y-134995238D01*
X167777380Y-134852380D01*
X167777380Y-134757142D01*
X167825000Y-134614285D01*
X167872619Y-134566666D01*
X168110714Y-133709523D02*
X168777380Y-133709523D01*
X167729761Y-133947619D02*
X168444047Y-134185714D01*
X168444047Y-133566666D01*
%TO.C,D2*%
X171952380Y-117938095D02*
X170952380Y-117938095D01*
X170952380Y-117700000D01*
X171000000Y-117557142D01*
X171095238Y-117461904D01*
X171190476Y-117414285D01*
X171380952Y-117366666D01*
X171523809Y-117366666D01*
X171714285Y-117414285D01*
X171809523Y-117461904D01*
X171904761Y-117557142D01*
X171952380Y-117700000D01*
X171952380Y-117938095D01*
X171047619Y-116985714D02*
X171000000Y-116938095D01*
X170952380Y-116842857D01*
X170952380Y-116604761D01*
X171000000Y-116509523D01*
X171047619Y-116461904D01*
X171142857Y-116414285D01*
X171238095Y-116414285D01*
X171380952Y-116461904D01*
X171952380Y-117033333D01*
X171952380Y-116414285D01*
%TO.C,C3*%
X166497142Y-134566666D02*
X166544761Y-134614285D01*
X166592380Y-134757142D01*
X166592380Y-134852380D01*
X166544761Y-134995238D01*
X166449523Y-135090476D01*
X166354285Y-135138095D01*
X166163809Y-135185714D01*
X166020952Y-135185714D01*
X165830476Y-135138095D01*
X165735238Y-135090476D01*
X165640000Y-134995238D01*
X165592380Y-134852380D01*
X165592380Y-134757142D01*
X165640000Y-134614285D01*
X165687619Y-134566666D01*
X165592380Y-134233333D02*
X165592380Y-133614285D01*
X165973333Y-133947619D01*
X165973333Y-133804761D01*
X166020952Y-133709523D01*
X166068571Y-133661904D01*
X166163809Y-133614285D01*
X166401904Y-133614285D01*
X166497142Y-133661904D01*
X166544761Y-133709523D01*
X166592380Y-133804761D01*
X166592380Y-134090476D01*
X166544761Y-134185714D01*
X166497142Y-134233333D01*
%TO.C,C2*%
X164312142Y-134566666D02*
X164359761Y-134614285D01*
X164407380Y-134757142D01*
X164407380Y-134852380D01*
X164359761Y-134995238D01*
X164264523Y-135090476D01*
X164169285Y-135138095D01*
X163978809Y-135185714D01*
X163835952Y-135185714D01*
X163645476Y-135138095D01*
X163550238Y-135090476D01*
X163455000Y-134995238D01*
X163407380Y-134852380D01*
X163407380Y-134757142D01*
X163455000Y-134614285D01*
X163502619Y-134566666D01*
X163502619Y-134185714D02*
X163455000Y-134138095D01*
X163407380Y-134042857D01*
X163407380Y-133804761D01*
X163455000Y-133709523D01*
X163502619Y-133661904D01*
X163597857Y-133614285D01*
X163693095Y-133614285D01*
X163835952Y-133661904D01*
X164407380Y-134233333D01*
X164407380Y-133614285D01*
%TO.C,kibuzzard-641EE74D*%
G36*
X164493905Y-80366171D02*
G01*
X164493905Y-79900081D01*
X164692342Y-79900081D01*
X164697462Y-79955922D01*
X164712821Y-80007238D01*
X164738062Y-80052958D01*
X164772829Y-80092010D01*
X164816763Y-80123800D01*
X164869507Y-80147731D01*
X164930706Y-80162733D01*
X165000000Y-80167734D01*
X165069592Y-80163626D01*
X165130731Y-80151303D01*
X165183416Y-80130765D01*
X165227647Y-80102011D01*
X165272097Y-80051635D01*
X165298767Y-79988135D01*
X165307658Y-79911511D01*
X165304443Y-79859481D01*
X165294799Y-79813880D01*
X165266700Y-79746729D01*
X165174307Y-79776256D01*
X165195262Y-79824358D01*
X165205740Y-79900081D01*
X165192286Y-79968066D01*
X165151924Y-80013905D01*
X165110807Y-80033220D01*
X165059214Y-80044808D01*
X164997142Y-80048671D01*
X164943802Y-80045457D01*
X164899987Y-80035813D01*
X164837599Y-80002475D01*
X164804261Y-79955803D01*
X164794260Y-79901986D01*
X164804261Y-79831025D01*
X164828550Y-79778161D01*
X164735205Y-79747681D01*
X164723775Y-79767208D01*
X164709487Y-79799116D01*
X164697581Y-79843408D01*
X164692342Y-79900081D01*
X164493905Y-79900081D01*
X164493905Y-79479076D01*
X164692342Y-79479076D01*
X164700968Y-79540883D01*
X164726844Y-79592953D01*
X164769971Y-79635286D01*
X164813459Y-79659873D01*
X164866293Y-79677434D01*
X164928473Y-79687971D01*
X165000000Y-79691484D01*
X165071527Y-79688061D01*
X165133707Y-79677792D01*
X165186541Y-79660676D01*
X165230029Y-79636715D01*
X165273156Y-79594752D01*
X165299032Y-79541888D01*
X165307658Y-79478124D01*
X165299032Y-79415894D01*
X165273156Y-79363824D01*
X165230029Y-79321914D01*
X165186541Y-79297744D01*
X165133707Y-79280480D01*
X165071527Y-79270122D01*
X165000000Y-79266669D01*
X164928473Y-79270062D01*
X164866293Y-79280242D01*
X164813459Y-79297208D01*
X164769971Y-79320961D01*
X164726844Y-79362660D01*
X164700968Y-79415365D01*
X164692342Y-79479076D01*
X164493905Y-79479076D01*
X164493905Y-79197136D01*
X164705677Y-79197136D01*
X165295275Y-79197136D01*
X165295275Y-79091409D01*
X164903797Y-79091409D01*
X164969150Y-79056008D01*
X165034396Y-79022194D01*
X165099536Y-78989968D01*
X165164677Y-78959329D01*
X165229923Y-78930278D01*
X165295275Y-78902814D01*
X165295275Y-78808516D01*
X164705677Y-78808516D01*
X164705677Y-78914244D01*
X165068580Y-78914244D01*
X165031432Y-78931032D01*
X164988570Y-78950915D01*
X164942136Y-78973299D01*
X164894272Y-78997588D01*
X164845576Y-79023186D01*
X164796641Y-79049499D01*
X164749373Y-79076169D01*
X164705677Y-79102839D01*
X164705677Y-79197136D01*
X164493905Y-79197136D01*
X164493905Y-78720886D01*
X164705677Y-78720886D01*
X165295275Y-78720886D01*
X165295275Y-78615159D01*
X164903797Y-78615159D01*
X164969150Y-78579757D01*
X165034396Y-78545944D01*
X165099536Y-78513718D01*
X165164677Y-78483079D01*
X165229923Y-78454028D01*
X165295275Y-78426564D01*
X165295275Y-78332266D01*
X164705677Y-78332266D01*
X164705677Y-78437994D01*
X165068580Y-78437994D01*
X165031432Y-78454782D01*
X164988570Y-78474665D01*
X164942136Y-78497049D01*
X164894272Y-78521338D01*
X164845576Y-78546936D01*
X164796641Y-78573249D01*
X164749373Y-78599919D01*
X164705677Y-78626589D01*
X164705677Y-78720886D01*
X164493905Y-78720886D01*
X164493905Y-78133829D01*
X165506095Y-78133829D01*
X165506095Y-80366171D01*
X164493905Y-80366171D01*
G37*
G36*
X165041434Y-79386565D02*
G01*
X165080010Y-79389065D01*
X165145256Y-79402400D01*
X165189547Y-79430975D01*
X165205740Y-79479076D01*
X165189547Y-79527654D01*
X165145732Y-79555753D01*
X165080486Y-79569088D01*
X165041553Y-79571588D01*
X165000000Y-79572421D01*
X164958566Y-79571588D01*
X164919990Y-79569088D01*
X164854744Y-79555753D01*
X164810452Y-79527654D01*
X164794260Y-79479076D01*
X164810452Y-79430499D01*
X164854267Y-79402400D01*
X164919514Y-79389065D01*
X164958447Y-79386565D01*
X165000000Y-79385731D01*
X165041434Y-79386565D01*
G37*
%TO.C,kibuzzard-641EE6C6*%
G36*
X177542745Y-74328456D02*
G01*
X177608249Y-74338173D01*
X177672485Y-74354263D01*
X177734836Y-74376572D01*
X177794699Y-74404885D01*
X177851498Y-74438930D01*
X177904688Y-74478378D01*
X177953754Y-74522849D01*
X177998226Y-74571916D01*
X178037673Y-74625105D01*
X178071718Y-74681905D01*
X178100031Y-74741768D01*
X178122340Y-74804118D01*
X178138431Y-74868354D01*
X178148147Y-74933859D01*
X178151397Y-75000000D01*
X178148147Y-75066141D01*
X178138431Y-75131646D01*
X178122340Y-75195882D01*
X178100031Y-75258232D01*
X178071718Y-75318095D01*
X178037673Y-75374895D01*
X177998226Y-75428084D01*
X177953754Y-75477151D01*
X177904688Y-75521622D01*
X177851498Y-75561070D01*
X177794699Y-75595115D01*
X177734836Y-75623428D01*
X177672485Y-75645737D01*
X177608249Y-75661827D01*
X177542745Y-75671544D01*
X177476603Y-75674793D01*
X170023397Y-75674793D01*
X169957255Y-75671544D01*
X169891751Y-75661827D01*
X169827515Y-75645737D01*
X169765164Y-75623428D01*
X169705301Y-75595115D01*
X169648502Y-75561070D01*
X169595312Y-75521622D01*
X169546246Y-75477151D01*
X169501774Y-75428084D01*
X169475332Y-75392430D01*
X170287980Y-75392430D01*
X170859480Y-75392430D01*
X170948380Y-75392430D01*
X171104590Y-75392430D01*
X171104590Y-75082550D01*
X171312870Y-75082550D01*
X171312870Y-75392430D01*
X171469080Y-75392430D01*
X171469080Y-75353060D01*
X171571950Y-75353060D01*
X171597985Y-75368300D01*
X171641800Y-75387350D01*
X171704665Y-75403225D01*
X171786580Y-75410210D01*
X171855478Y-75403701D01*
X171892682Y-75392430D01*
X172228540Y-75392430D01*
X172727650Y-75392430D01*
X172727650Y-75262890D01*
X172556200Y-75262890D01*
X172556200Y-74735840D01*
X172727650Y-74735840D01*
X172727650Y-74606300D01*
X172810200Y-74606300D01*
X172846395Y-74689485D01*
X172890210Y-74777115D01*
X172937200Y-74860935D01*
X172982920Y-74933960D01*
X172927358Y-74969837D01*
X172890210Y-75019050D01*
X172869255Y-75078105D01*
X172862270Y-75143510D01*
X172867509Y-75205264D01*
X172883225Y-75258445D01*
X172943550Y-75339090D01*
X172986730Y-75366713D01*
X173037530Y-75386080D01*
X173095315Y-75397510D01*
X173159450Y-75401320D01*
X173203900Y-75400050D01*
X173257240Y-75396875D01*
X173312485Y-75390525D01*
X173362650Y-75381000D01*
X173362650Y-74606300D01*
X174080200Y-74606300D01*
X174116395Y-74689485D01*
X174160210Y-74777115D01*
X174207200Y-74860935D01*
X174252920Y-74933960D01*
X174197358Y-74969837D01*
X174160210Y-75019050D01*
X174139255Y-75078105D01*
X174132270Y-75143510D01*
X174137509Y-75205264D01*
X174153225Y-75258445D01*
X174213550Y-75339090D01*
X174256730Y-75366713D01*
X174307530Y-75386080D01*
X174365315Y-75397510D01*
X174429450Y-75401320D01*
X174473900Y-75400050D01*
X174527240Y-75396875D01*
X174582485Y-75390525D01*
X174632650Y-75381000D01*
X174632650Y-75000000D01*
X174735520Y-75000000D01*
X174740044Y-75095369D01*
X174753618Y-75178276D01*
X174776239Y-75248722D01*
X174807910Y-75306705D01*
X174863508Y-75364208D01*
X174933781Y-75398709D01*
X175018730Y-75410210D01*
X175101139Y-75398709D01*
X175113774Y-75392430D01*
X175367980Y-75392430D01*
X175939480Y-75392430D01*
X175939480Y-75262890D01*
X175732470Y-75262890D01*
X175732470Y-75000000D01*
X176005520Y-75000000D01*
X176010044Y-75095369D01*
X176023618Y-75178276D01*
X176046239Y-75248722D01*
X176077910Y-75306705D01*
X176133508Y-75364208D01*
X176203781Y-75398709D01*
X176288730Y-75410210D01*
X176371139Y-75398709D01*
X176440566Y-75364208D01*
X176497010Y-75306705D01*
X176529792Y-75248722D01*
X176553208Y-75178276D01*
X176567257Y-75095369D01*
X176571940Y-75000000D01*
X176567376Y-74904631D01*
X176553684Y-74821724D01*
X176530863Y-74751278D01*
X176498915Y-74693295D01*
X176442964Y-74635792D01*
X176382712Y-74606300D01*
X176635440Y-74606300D01*
X176638298Y-74706789D01*
X176641790Y-74805055D01*
X176646076Y-74901893D01*
X176651315Y-74998095D01*
X176657665Y-75094456D01*
X176665285Y-75191770D01*
X176673699Y-75290830D01*
X176682430Y-75392430D01*
X176811970Y-75392430D01*
X176834830Y-75325120D01*
X176862770Y-75238125D01*
X176894520Y-75141605D01*
X176926270Y-75044450D01*
X176955480Y-75135890D01*
X176985960Y-75233680D01*
X177014535Y-75323850D01*
X177036760Y-75392430D01*
X177166300Y-75392430D01*
X177174714Y-75306388D01*
X177182175Y-75213360D01*
X177188684Y-75115253D01*
X177194240Y-75013970D01*
X177199161Y-74910782D01*
X177203765Y-74806960D01*
X177208051Y-74704725D01*
X177212020Y-74606300D01*
X177068510Y-74606300D01*
X177074860Y-75217170D01*
X176982150Y-74884430D01*
X176867850Y-74884430D01*
X176771330Y-75217170D01*
X176778950Y-74606300D01*
X176635440Y-74606300D01*
X176382712Y-74606300D01*
X176372479Y-74601291D01*
X176287460Y-74589790D01*
X176204487Y-74601291D01*
X176135060Y-74635792D01*
X176079180Y-74693295D01*
X176046954Y-74751278D01*
X176023935Y-74821724D01*
X176010124Y-74904631D01*
X176005520Y-75000000D01*
X175732470Y-75000000D01*
X175732470Y-74606300D01*
X175574990Y-74606300D01*
X175574990Y-75262890D01*
X175367980Y-75262890D01*
X175367980Y-75392430D01*
X175113774Y-75392430D01*
X175170566Y-75364208D01*
X175227010Y-75306705D01*
X175259792Y-75248722D01*
X175283208Y-75178276D01*
X175297257Y-75095369D01*
X175301940Y-75000000D01*
X175297376Y-74904631D01*
X175283684Y-74821724D01*
X175260863Y-74751278D01*
X175228915Y-74693295D01*
X175172964Y-74635792D01*
X175102479Y-74601291D01*
X175017460Y-74589790D01*
X174934487Y-74601291D01*
X174865060Y-74635792D01*
X174809180Y-74693295D01*
X174776954Y-74751278D01*
X174753935Y-74821724D01*
X174740124Y-74904631D01*
X174735520Y-75000000D01*
X174632650Y-75000000D01*
X174632650Y-74606300D01*
X174476440Y-74606300D01*
X174476440Y-74895860D01*
X174395160Y-74895860D01*
X174352139Y-74823946D01*
X174311975Y-74752985D01*
X174275621Y-74681071D01*
X174244030Y-74606300D01*
X174080200Y-74606300D01*
X173362650Y-74606300D01*
X173206440Y-74606300D01*
X173206440Y-74895860D01*
X173125160Y-74895860D01*
X173082139Y-74823946D01*
X173041975Y-74752985D01*
X173005621Y-74681071D01*
X172974030Y-74606300D01*
X172810200Y-74606300D01*
X172727650Y-74606300D01*
X172228540Y-74606300D01*
X172228540Y-74735840D01*
X172398720Y-74735840D01*
X172398720Y-75262890D01*
X172228540Y-75262890D01*
X172228540Y-75392430D01*
X171892682Y-75392430D01*
X171919930Y-75384175D01*
X171978033Y-75351631D01*
X172027880Y-75306070D01*
X172068838Y-75247809D01*
X172100270Y-75177165D01*
X172120273Y-75094456D01*
X172126940Y-75000000D01*
X172121225Y-74904591D01*
X172104080Y-74821565D01*
X172076458Y-74751080D01*
X172039310Y-74693295D01*
X171993114Y-74648210D01*
X171938345Y-74615825D01*
X171875639Y-74596299D01*
X171805630Y-74589790D01*
X171728001Y-74592965D01*
X171662755Y-74602490D01*
X171575760Y-74625350D01*
X171575760Y-75017780D01*
X171731970Y-75017780D01*
X171731970Y-74730760D01*
X171762450Y-74726950D01*
X171792930Y-74725680D01*
X171868813Y-74742349D01*
X171923740Y-74792355D01*
X171948434Y-74845060D01*
X171963251Y-74914275D01*
X171968190Y-75000000D01*
X171965491Y-75058261D01*
X171957395Y-75111125D01*
X171921835Y-75197485D01*
X171858970Y-75254000D01*
X171764990Y-75274320D01*
X171681170Y-75260350D01*
X171612590Y-75228600D01*
X171571950Y-75353060D01*
X171469080Y-75353060D01*
X171469080Y-74606300D01*
X171312870Y-74606300D01*
X171312870Y-74953010D01*
X171104590Y-74953010D01*
X171104590Y-74606300D01*
X170948380Y-74606300D01*
X170948380Y-75392430D01*
X170859480Y-75392430D01*
X170859480Y-75262890D01*
X170652470Y-75262890D01*
X170652470Y-74606300D01*
X170494990Y-74606300D01*
X170494990Y-75262890D01*
X170287980Y-75262890D01*
X170287980Y-75392430D01*
X169475332Y-75392430D01*
X169462327Y-75374895D01*
X169428282Y-75318095D01*
X169399969Y-75258232D01*
X169377660Y-75195882D01*
X169361569Y-75131646D01*
X169351853Y-75066141D01*
X169348603Y-75000000D01*
X169351853Y-74933859D01*
X169361569Y-74868354D01*
X169377660Y-74804118D01*
X169399969Y-74741768D01*
X169428282Y-74681905D01*
X169462327Y-74625105D01*
X169501774Y-74571916D01*
X169546246Y-74522849D01*
X169595312Y-74478378D01*
X169648502Y-74438930D01*
X169705301Y-74404885D01*
X169765164Y-74376572D01*
X169827515Y-74354263D01*
X169891751Y-74338173D01*
X169957255Y-74328456D01*
X170023397Y-74325207D01*
X177476603Y-74325207D01*
X177542745Y-74328456D01*
G37*
G36*
X176353500Y-74747270D02*
G01*
X176390965Y-74805690D01*
X176408745Y-74892685D01*
X176412079Y-74944596D01*
X176413190Y-75000000D01*
X176412079Y-75055245D01*
X176408745Y-75106680D01*
X176390965Y-75193675D01*
X176353500Y-75252730D01*
X176288730Y-75274320D01*
X176223960Y-75252730D01*
X176186495Y-75194310D01*
X176168715Y-75107315D01*
X176165381Y-75055404D01*
X176164270Y-75000000D01*
X176165381Y-74944755D01*
X176168715Y-74893320D01*
X176186495Y-74806325D01*
X176224595Y-74747270D01*
X176288730Y-74725680D01*
X176353500Y-74747270D01*
G37*
G36*
X175083500Y-74747270D02*
G01*
X175120965Y-74805690D01*
X175138745Y-74892685D01*
X175142079Y-74944596D01*
X175143190Y-75000000D01*
X175142079Y-75055245D01*
X175138745Y-75106680D01*
X175120965Y-75193675D01*
X175083500Y-75252730D01*
X175018730Y-75274320D01*
X174953960Y-75252730D01*
X174916495Y-75194310D01*
X174898715Y-75107315D01*
X174895381Y-75055404D01*
X174894270Y-75000000D01*
X174895381Y-74944755D01*
X174898715Y-74893320D01*
X174916495Y-74806325D01*
X174954595Y-74747270D01*
X175018730Y-74725680D01*
X175083500Y-74747270D01*
G37*
G36*
X174476440Y-75261620D02*
G01*
X174451040Y-75264795D01*
X174429450Y-75265430D01*
X174373253Y-75258128D01*
X174329120Y-75236220D01*
X174300545Y-75198755D01*
X174291020Y-75144780D01*
X174326580Y-75056515D01*
X174373253Y-75033179D01*
X174442150Y-75025400D01*
X174476440Y-75025400D01*
X174476440Y-75261620D01*
G37*
G36*
X173206440Y-75261620D02*
G01*
X173181040Y-75264795D01*
X173159450Y-75265430D01*
X173103253Y-75258128D01*
X173059120Y-75236220D01*
X173030545Y-75198755D01*
X173021020Y-75144780D01*
X173056580Y-75056515D01*
X173103253Y-75033179D01*
X173172150Y-75025400D01*
X173206440Y-75025400D01*
X173206440Y-75261620D01*
G37*
%TO.C,kibuzzard-641EE6B8*%
G36*
X161725245Y-74328456D02*
G01*
X161790749Y-74338173D01*
X161854985Y-74354263D01*
X161917336Y-74376572D01*
X161977199Y-74404885D01*
X162033998Y-74438930D01*
X162087188Y-74478378D01*
X162136254Y-74522849D01*
X162180726Y-74571916D01*
X162220173Y-74625105D01*
X162254218Y-74681905D01*
X162282531Y-74741768D01*
X162304840Y-74804118D01*
X162320931Y-74868354D01*
X162330647Y-74933859D01*
X162333897Y-75000000D01*
X162330647Y-75066141D01*
X162320931Y-75131646D01*
X162304840Y-75195882D01*
X162282531Y-75258232D01*
X162254218Y-75318095D01*
X162220173Y-75374895D01*
X162180726Y-75428084D01*
X162136254Y-75477151D01*
X162087188Y-75521622D01*
X162033998Y-75561070D01*
X161977199Y-75595115D01*
X161917336Y-75623428D01*
X161854985Y-75645737D01*
X161790749Y-75661827D01*
X161725245Y-75671544D01*
X161659103Y-75674793D01*
X154840897Y-75674793D01*
X154774755Y-75671544D01*
X154709251Y-75661827D01*
X154645014Y-75645737D01*
X154582664Y-75623428D01*
X154522801Y-75595115D01*
X154466002Y-75561070D01*
X154412812Y-75521622D01*
X154363746Y-75477151D01*
X154319274Y-75428084D01*
X154292832Y-75392430D01*
X155105480Y-75392430D01*
X155676980Y-75392430D01*
X155782390Y-75392430D01*
X156263720Y-75392430D01*
X156263720Y-74735840D01*
X156394530Y-74735840D01*
X156742510Y-74735840D01*
X156742510Y-74956820D01*
X156464380Y-74956820D01*
X156464380Y-75086360D01*
X156742510Y-75086360D01*
X156742510Y-75262890D01*
X156422470Y-75262890D01*
X156422470Y-75392430D01*
X156898720Y-75392430D01*
X156898720Y-74735840D01*
X157029530Y-74735840D01*
X157366080Y-74735840D01*
X157366080Y-75392430D01*
X157523560Y-75392430D01*
X157523560Y-74606300D01*
X158262700Y-74606300D01*
X158298895Y-74689485D01*
X158342710Y-74777115D01*
X158389700Y-74860935D01*
X158435420Y-74933960D01*
X158379857Y-74969837D01*
X158342710Y-75019050D01*
X158321755Y-75078105D01*
X158314770Y-75143510D01*
X158320009Y-75205264D01*
X158335725Y-75258445D01*
X158396050Y-75339090D01*
X158439230Y-75366713D01*
X158490030Y-75386080D01*
X158547815Y-75397510D01*
X158611950Y-75401320D01*
X158656400Y-75400050D01*
X158709740Y-75396875D01*
X158764985Y-75390525D01*
X158815150Y-75381000D01*
X158815150Y-75000000D01*
X158918020Y-75000000D01*
X158922544Y-75095369D01*
X158936117Y-75178276D01*
X158958739Y-75248722D01*
X158990410Y-75306705D01*
X159046008Y-75364208D01*
X159116281Y-75398709D01*
X159201230Y-75410210D01*
X159283639Y-75398709D01*
X159296274Y-75392430D01*
X159550480Y-75392430D01*
X160121980Y-75392430D01*
X160121980Y-75262890D01*
X159914970Y-75262890D01*
X159914970Y-75000000D01*
X160188020Y-75000000D01*
X160192544Y-75095369D01*
X160206117Y-75178276D01*
X160228739Y-75248722D01*
X160260410Y-75306705D01*
X160316008Y-75364208D01*
X160386281Y-75398709D01*
X160471230Y-75410210D01*
X160553639Y-75398709D01*
X160623066Y-75364208D01*
X160679510Y-75306705D01*
X160712292Y-75248722D01*
X160735707Y-75178276D01*
X160749757Y-75095369D01*
X160754440Y-75000000D01*
X160749876Y-74904631D01*
X160736184Y-74821724D01*
X160713363Y-74751278D01*
X160681415Y-74693295D01*
X160625464Y-74635792D01*
X160565212Y-74606300D01*
X160817940Y-74606300D01*
X160820797Y-74706789D01*
X160824290Y-74805055D01*
X160828576Y-74901893D01*
X160833815Y-74998095D01*
X160840165Y-75094456D01*
X160847785Y-75191770D01*
X160856199Y-75290830D01*
X160864930Y-75392430D01*
X160994470Y-75392430D01*
X161017330Y-75325120D01*
X161045270Y-75238125D01*
X161077020Y-75141605D01*
X161108770Y-75044450D01*
X161137980Y-75135890D01*
X161168460Y-75233680D01*
X161197035Y-75323850D01*
X161219260Y-75392430D01*
X161348800Y-75392430D01*
X161357214Y-75306388D01*
X161364675Y-75213360D01*
X161371184Y-75115253D01*
X161376740Y-75013970D01*
X161381661Y-74910782D01*
X161386265Y-74806960D01*
X161390551Y-74704725D01*
X161394520Y-74606300D01*
X161251010Y-74606300D01*
X161257360Y-75217170D01*
X161164650Y-74884430D01*
X161050350Y-74884430D01*
X160953830Y-75217170D01*
X160961450Y-74606300D01*
X160817940Y-74606300D01*
X160565212Y-74606300D01*
X160554979Y-74601291D01*
X160469960Y-74589790D01*
X160386987Y-74601291D01*
X160317560Y-74635792D01*
X160261680Y-74693295D01*
X160229454Y-74751278D01*
X160206435Y-74821724D01*
X160192624Y-74904631D01*
X160188020Y-75000000D01*
X159914970Y-75000000D01*
X159914970Y-74606300D01*
X159757490Y-74606300D01*
X159757490Y-75262890D01*
X159550480Y-75262890D01*
X159550480Y-75392430D01*
X159296274Y-75392430D01*
X159353066Y-75364208D01*
X159409510Y-75306705D01*
X159442292Y-75248722D01*
X159465707Y-75178276D01*
X159479757Y-75095369D01*
X159484440Y-75000000D01*
X159479876Y-74904631D01*
X159466184Y-74821724D01*
X159443363Y-74751278D01*
X159411415Y-74693295D01*
X159355464Y-74635792D01*
X159284979Y-74601291D01*
X159199960Y-74589790D01*
X159116987Y-74601291D01*
X159047560Y-74635792D01*
X158991680Y-74693295D01*
X158959454Y-74751278D01*
X158936435Y-74821724D01*
X158922624Y-74904631D01*
X158918020Y-75000000D01*
X158815150Y-75000000D01*
X158815150Y-74606300D01*
X158658940Y-74606300D01*
X158658940Y-74895860D01*
X158577660Y-74895860D01*
X158534639Y-74823946D01*
X158494475Y-74752985D01*
X158458121Y-74681071D01*
X158426530Y-74606300D01*
X158262700Y-74606300D01*
X157523560Y-74606300D01*
X157029530Y-74606300D01*
X157029530Y-74735840D01*
X156898720Y-74735840D01*
X156898720Y-74606300D01*
X156394530Y-74606300D01*
X156394530Y-74735840D01*
X156263720Y-74735840D01*
X156263720Y-74606300D01*
X156107510Y-74606300D01*
X156107510Y-74942850D01*
X155823030Y-74942850D01*
X155823030Y-75072390D01*
X156107510Y-75072390D01*
X156107510Y-75262890D01*
X155782390Y-75262890D01*
X155782390Y-75392430D01*
X155676980Y-75392430D01*
X155676980Y-75262890D01*
X155469970Y-75262890D01*
X155469970Y-74606300D01*
X155312490Y-74606300D01*
X155312490Y-75262890D01*
X155105480Y-75262890D01*
X155105480Y-75392430D01*
X154292832Y-75392430D01*
X154279827Y-75374895D01*
X154245782Y-75318095D01*
X154217469Y-75258232D01*
X154195160Y-75195882D01*
X154179069Y-75131646D01*
X154169353Y-75066141D01*
X154166103Y-75000000D01*
X154169353Y-74933859D01*
X154179069Y-74868354D01*
X154195160Y-74804118D01*
X154217469Y-74741768D01*
X154245782Y-74681905D01*
X154279827Y-74625105D01*
X154319274Y-74571916D01*
X154363746Y-74522849D01*
X154412812Y-74478378D01*
X154466002Y-74438930D01*
X154522801Y-74404885D01*
X154582664Y-74376572D01*
X154645014Y-74354263D01*
X154709251Y-74338173D01*
X154774755Y-74328456D01*
X154840897Y-74325207D01*
X161659103Y-74325207D01*
X161725245Y-74328456D01*
G37*
G36*
X160536000Y-74747270D02*
G01*
X160573465Y-74805690D01*
X160591245Y-74892685D01*
X160594579Y-74944596D01*
X160595690Y-75000000D01*
X160594579Y-75055245D01*
X160591245Y-75106680D01*
X160573465Y-75193675D01*
X160536000Y-75252730D01*
X160471230Y-75274320D01*
X160406460Y-75252730D01*
X160368995Y-75194310D01*
X160351215Y-75107315D01*
X160347881Y-75055404D01*
X160346770Y-75000000D01*
X160347881Y-74944755D01*
X160351215Y-74893320D01*
X160368995Y-74806325D01*
X160407095Y-74747270D01*
X160471230Y-74725680D01*
X160536000Y-74747270D01*
G37*
G36*
X159266000Y-74747270D02*
G01*
X159303465Y-74805690D01*
X159321245Y-74892685D01*
X159324579Y-74944596D01*
X159325690Y-75000000D01*
X159324579Y-75055245D01*
X159321245Y-75106680D01*
X159303465Y-75193675D01*
X159266000Y-75252730D01*
X159201230Y-75274320D01*
X159136460Y-75252730D01*
X159098995Y-75194310D01*
X159081215Y-75107315D01*
X159077881Y-75055404D01*
X159076770Y-75000000D01*
X159077881Y-74944755D01*
X159081215Y-74893320D01*
X159098995Y-74806325D01*
X159137095Y-74747270D01*
X159201230Y-74725680D01*
X159266000Y-74747270D01*
G37*
G36*
X158658940Y-75261620D02*
G01*
X158633540Y-75264795D01*
X158611950Y-75265430D01*
X158555752Y-75258128D01*
X158511620Y-75236220D01*
X158483045Y-75198755D01*
X158473520Y-75144780D01*
X158509080Y-75056515D01*
X158555752Y-75033179D01*
X158624650Y-75025400D01*
X158658940Y-75025400D01*
X158658940Y-75261620D01*
G37*
%TO.C,kibuzzard-641EE609*%
G36*
X169788084Y-85845518D02*
G01*
X169851924Y-85854988D01*
X169914529Y-85870670D01*
X169975294Y-85892412D01*
X170033637Y-85920006D01*
X170088993Y-85953185D01*
X170140831Y-85991631D01*
X170188651Y-86034972D01*
X170231992Y-86082792D01*
X170270438Y-86134630D01*
X170303617Y-86189987D01*
X170331211Y-86248329D01*
X170352954Y-86309095D01*
X170368635Y-86371699D01*
X170378105Y-86435539D01*
X170381272Y-86500000D01*
X170378105Y-86564461D01*
X170368635Y-86628301D01*
X170352954Y-86690905D01*
X170331211Y-86751671D01*
X170303617Y-86810013D01*
X170270438Y-86865370D01*
X170231992Y-86917208D01*
X170188651Y-86965028D01*
X170140831Y-87008369D01*
X170088993Y-87046815D01*
X170033637Y-87079994D01*
X169975294Y-87107588D01*
X169914529Y-87129330D01*
X169851924Y-87145012D01*
X169788084Y-87154482D01*
X169723623Y-87157648D01*
X166776377Y-87157648D01*
X166711916Y-87154482D01*
X166648076Y-87145012D01*
X166585471Y-87129330D01*
X166524706Y-87107588D01*
X166466363Y-87079994D01*
X166411007Y-87046815D01*
X166359169Y-87008369D01*
X166311349Y-86965028D01*
X166268008Y-86917208D01*
X166250102Y-86893065D01*
X167040960Y-86893065D01*
X167612460Y-86893065D01*
X167717870Y-86893065D01*
X168199200Y-86893065D01*
X168199200Y-86236475D01*
X168330010Y-86236475D01*
X168677990Y-86236475D01*
X168677990Y-86457455D01*
X168399860Y-86457455D01*
X168399860Y-86586995D01*
X168677990Y-86586995D01*
X168677990Y-86763525D01*
X168357950Y-86763525D01*
X168357950Y-86893065D01*
X168834200Y-86893065D01*
X168834200Y-86236475D01*
X168965010Y-86236475D01*
X169301560Y-86236475D01*
X169301560Y-86893065D01*
X169459040Y-86893065D01*
X169459040Y-86106935D01*
X168965010Y-86106935D01*
X168965010Y-86236475D01*
X168834200Y-86236475D01*
X168834200Y-86106935D01*
X168330010Y-86106935D01*
X168330010Y-86236475D01*
X168199200Y-86236475D01*
X168199200Y-86106935D01*
X168042990Y-86106935D01*
X168042990Y-86443485D01*
X167758510Y-86443485D01*
X167758510Y-86573025D01*
X168042990Y-86573025D01*
X168042990Y-86763525D01*
X167717870Y-86763525D01*
X167717870Y-86893065D01*
X167612460Y-86893065D01*
X167612460Y-86763525D01*
X167405450Y-86763525D01*
X167405450Y-86106935D01*
X167247970Y-86106935D01*
X167247970Y-86763525D01*
X167040960Y-86763525D01*
X167040960Y-86893065D01*
X166250102Y-86893065D01*
X166229562Y-86865370D01*
X166196383Y-86810013D01*
X166168789Y-86751671D01*
X166147046Y-86690905D01*
X166131365Y-86628301D01*
X166121895Y-86564461D01*
X166118728Y-86500000D01*
X166121895Y-86435539D01*
X166131365Y-86371699D01*
X166147046Y-86309095D01*
X166168789Y-86248329D01*
X166196383Y-86189987D01*
X166229562Y-86134630D01*
X166268008Y-86082792D01*
X166311349Y-86034972D01*
X166359169Y-85991631D01*
X166411007Y-85953185D01*
X166466363Y-85920006D01*
X166524706Y-85892412D01*
X166585471Y-85870670D01*
X166648076Y-85854988D01*
X166711916Y-85845518D01*
X166776377Y-85842352D01*
X169723623Y-85842352D01*
X169788084Y-85845518D01*
G37*
%TO.C,kibuzzard-641EE5F8*%
G36*
X175368060Y-85828456D02*
G01*
X175433564Y-85838173D01*
X175497800Y-85854263D01*
X175560151Y-85876572D01*
X175620014Y-85904885D01*
X175676813Y-85938930D01*
X175730003Y-85978378D01*
X175779069Y-86022849D01*
X175823541Y-86071916D01*
X175862988Y-86125105D01*
X175897033Y-86181905D01*
X175925346Y-86241768D01*
X175947655Y-86304118D01*
X175963746Y-86368354D01*
X175973462Y-86433859D01*
X175976712Y-86500000D01*
X175973462Y-86566141D01*
X175963746Y-86631646D01*
X175947655Y-86695882D01*
X175925346Y-86758232D01*
X175897033Y-86818095D01*
X175862988Y-86874895D01*
X175823541Y-86928084D01*
X175779069Y-86977151D01*
X175730003Y-87021622D01*
X175676813Y-87061070D01*
X175620014Y-87095115D01*
X175560151Y-87123428D01*
X175497800Y-87145737D01*
X175433564Y-87161827D01*
X175368060Y-87171544D01*
X175301918Y-87174793D01*
X171698082Y-87174793D01*
X171631940Y-87171544D01*
X171566436Y-87161827D01*
X171502200Y-87145737D01*
X171439849Y-87123428D01*
X171379986Y-87095115D01*
X171323187Y-87061070D01*
X171269997Y-87021622D01*
X171220931Y-86977151D01*
X171176459Y-86928084D01*
X171150017Y-86892430D01*
X171962665Y-86892430D01*
X172534165Y-86892430D01*
X172623065Y-86892430D01*
X172779275Y-86892430D01*
X172779275Y-86582550D01*
X172987555Y-86582550D01*
X172987555Y-86892430D01*
X173143765Y-86892430D01*
X173143765Y-86853060D01*
X173246635Y-86853060D01*
X173272670Y-86868300D01*
X173316485Y-86887350D01*
X173379350Y-86903225D01*
X173461265Y-86910210D01*
X173530162Y-86903701D01*
X173567366Y-86892430D01*
X173903225Y-86892430D01*
X174402335Y-86892430D01*
X174402335Y-86762890D01*
X174230885Y-86762890D01*
X174230885Y-86235840D01*
X174402335Y-86235840D01*
X174402335Y-86106300D01*
X174484885Y-86106300D01*
X174521080Y-86189485D01*
X174564895Y-86277115D01*
X174611885Y-86360935D01*
X174657605Y-86433960D01*
X174602043Y-86469837D01*
X174564895Y-86519050D01*
X174543940Y-86578105D01*
X174536955Y-86643510D01*
X174542194Y-86705264D01*
X174557910Y-86758445D01*
X174618235Y-86839090D01*
X174661415Y-86866713D01*
X174712215Y-86886080D01*
X174770000Y-86897510D01*
X174834135Y-86901320D01*
X174878585Y-86900050D01*
X174931925Y-86896875D01*
X174987170Y-86890525D01*
X175037335Y-86881000D01*
X175037335Y-86106300D01*
X174881125Y-86106300D01*
X174881125Y-86395860D01*
X174799845Y-86395860D01*
X174756824Y-86323946D01*
X174716660Y-86252985D01*
X174680306Y-86181071D01*
X174648715Y-86106300D01*
X174484885Y-86106300D01*
X174402335Y-86106300D01*
X173903225Y-86106300D01*
X173903225Y-86235840D01*
X174073405Y-86235840D01*
X174073405Y-86762890D01*
X173903225Y-86762890D01*
X173903225Y-86892430D01*
X173567366Y-86892430D01*
X173594615Y-86884175D01*
X173652717Y-86851631D01*
X173702565Y-86806070D01*
X173743522Y-86747809D01*
X173774955Y-86677165D01*
X173794957Y-86594456D01*
X173801625Y-86500000D01*
X173795910Y-86404591D01*
X173778765Y-86321565D01*
X173751142Y-86251080D01*
X173713995Y-86193295D01*
X173667799Y-86148210D01*
X173613030Y-86115825D01*
X173550324Y-86096299D01*
X173480315Y-86089790D01*
X173402686Y-86092965D01*
X173337440Y-86102490D01*
X173250445Y-86125350D01*
X173250445Y-86517780D01*
X173406655Y-86517780D01*
X173406655Y-86230760D01*
X173437135Y-86226950D01*
X173467615Y-86225680D01*
X173543497Y-86242349D01*
X173598425Y-86292355D01*
X173623119Y-86345060D01*
X173637936Y-86414275D01*
X173642875Y-86500000D01*
X173640176Y-86558261D01*
X173632080Y-86611125D01*
X173596520Y-86697485D01*
X173533655Y-86754000D01*
X173439675Y-86774320D01*
X173355855Y-86760350D01*
X173287275Y-86728600D01*
X173246635Y-86853060D01*
X173143765Y-86853060D01*
X173143765Y-86106300D01*
X172987555Y-86106300D01*
X172987555Y-86453010D01*
X172779275Y-86453010D01*
X172779275Y-86106300D01*
X172623065Y-86106300D01*
X172623065Y-86892430D01*
X172534165Y-86892430D01*
X172534165Y-86762890D01*
X172327155Y-86762890D01*
X172327155Y-86106300D01*
X172169675Y-86106300D01*
X172169675Y-86762890D01*
X171962665Y-86762890D01*
X171962665Y-86892430D01*
X171150017Y-86892430D01*
X171137012Y-86874895D01*
X171102967Y-86818095D01*
X171074654Y-86758232D01*
X171052345Y-86695882D01*
X171036254Y-86631646D01*
X171026538Y-86566141D01*
X171023288Y-86500000D01*
X171026538Y-86433859D01*
X171036254Y-86368354D01*
X171052345Y-86304118D01*
X171074654Y-86241768D01*
X171102967Y-86181905D01*
X171137012Y-86125105D01*
X171176459Y-86071916D01*
X171220931Y-86022849D01*
X171269997Y-85978378D01*
X171323187Y-85938930D01*
X171379986Y-85904885D01*
X171439849Y-85876572D01*
X171502200Y-85854263D01*
X171566436Y-85838173D01*
X171631940Y-85828456D01*
X171698082Y-85825207D01*
X175301918Y-85825207D01*
X175368060Y-85828456D01*
G37*
G36*
X174881125Y-86761620D02*
G01*
X174855725Y-86764795D01*
X174834135Y-86765430D01*
X174777938Y-86758128D01*
X174733805Y-86736220D01*
X174705230Y-86698755D01*
X174695705Y-86644780D01*
X174731265Y-86556515D01*
X174777938Y-86533179D01*
X174846835Y-86525400D01*
X174881125Y-86525400D01*
X174881125Y-86761620D01*
G37*
%TO.C,kibuzzard-641EE568*%
G36*
X163634440Y-107921544D02*
G01*
X163568936Y-107911827D01*
X163504700Y-107895737D01*
X163442350Y-107873428D01*
X163382486Y-107845115D01*
X163325687Y-107811070D01*
X163272497Y-107771622D01*
X163223431Y-107727151D01*
X163178959Y-107678084D01*
X163153459Y-107643700D01*
X163965165Y-107643700D01*
X164464275Y-107643700D01*
X164590005Y-107643700D01*
X164730975Y-107643700D01*
X164730975Y-107121730D01*
X164778177Y-107208866D01*
X164823262Y-107295861D01*
X164866230Y-107382715D01*
X164907082Y-107469569D01*
X164945817Y-107556564D01*
X164982435Y-107643700D01*
X165108165Y-107643700D01*
X165108165Y-107021400D01*
X165227545Y-107021400D01*
X165278345Y-107150940D01*
X165355815Y-107119825D01*
X165437095Y-107074740D01*
X165437095Y-107514160D01*
X165271995Y-107514160D01*
X165271995Y-107643700D01*
X165749515Y-107643700D01*
X166505165Y-107643700D01*
X167004275Y-107643700D01*
X167130005Y-107643700D01*
X167270975Y-107643700D01*
X167270975Y-107121730D01*
X167318177Y-107208866D01*
X167363262Y-107295861D01*
X167406230Y-107382715D01*
X167447082Y-107469569D01*
X167485817Y-107556564D01*
X167522435Y-107643700D01*
X167648165Y-107643700D01*
X167648165Y-106943930D01*
X167761195Y-106943930D01*
X167838665Y-107053150D01*
X167918675Y-106993460D01*
X167996145Y-106975680D01*
X168069805Y-107001715D01*
X168099015Y-107076010D01*
X168075520Y-107143320D01*
X168015830Y-107211900D01*
X167978365Y-107248254D01*
X167938360Y-107286195D01*
X167898355Y-107326517D01*
X167860890Y-107370015D01*
X167827870Y-107417164D01*
X167801200Y-107468440D01*
X167783579Y-107524320D01*
X167777705Y-107585280D01*
X167777070Y-107611950D01*
X167780245Y-107643700D01*
X168293325Y-107643700D01*
X168293325Y-107619570D01*
X169021035Y-107619570D01*
X169057230Y-107633540D01*
X169109935Y-107646875D01*
X169170895Y-107656400D01*
X169233125Y-107660210D01*
X169305833Y-107655447D01*
X169369015Y-107641160D01*
X169422673Y-107618300D01*
X169466805Y-107587820D01*
X169525225Y-107507175D01*
X169544275Y-107406210D01*
X169535667Y-107332550D01*
X169509844Y-107270743D01*
X169466805Y-107220790D01*
X169406268Y-107182972D01*
X169327952Y-107157572D01*
X169231855Y-107144590D01*
X169238205Y-107072200D01*
X169244555Y-106987110D01*
X169515065Y-106987110D01*
X169515065Y-106857570D01*
X169628095Y-106857570D01*
X169642700Y-106928690D01*
X169663655Y-107017590D01*
X169680447Y-107084124D01*
X169698651Y-107153339D01*
X169718265Y-107225235D01*
X169739008Y-107298542D01*
X169760598Y-107371991D01*
X169783035Y-107445580D01*
X169816373Y-107550355D01*
X169847805Y-107643700D01*
X170009095Y-107643700D01*
X170033366Y-107576037D01*
X170057073Y-107506822D01*
X170080215Y-107436055D01*
X170102440Y-107364935D01*
X170123395Y-107294662D01*
X170136058Y-107250000D01*
X170915875Y-107250000D01*
X170921590Y-107345409D01*
X170938735Y-107428435D01*
X170966358Y-107498920D01*
X171003505Y-107556705D01*
X171049701Y-107601790D01*
X171104470Y-107634175D01*
X171167176Y-107653701D01*
X171237185Y-107660210D01*
X171314814Y-107657035D01*
X171380060Y-107647510D01*
X171394559Y-107643700D01*
X171575005Y-107643700D01*
X171715975Y-107643700D01*
X171715975Y-107121730D01*
X171763177Y-107208866D01*
X171808262Y-107295861D01*
X171851230Y-107382715D01*
X171892082Y-107469569D01*
X171930817Y-107556564D01*
X171967435Y-107643700D01*
X172093165Y-107643700D01*
X172093165Y-107634810D01*
X172220165Y-107634810D01*
X172305890Y-107649415D01*
X172387805Y-107653860D01*
X172464481Y-107648304D01*
X172483818Y-107643700D01*
X173490165Y-107643700D01*
X173989275Y-107643700D01*
X174115005Y-107643700D01*
X174255975Y-107643700D01*
X174255975Y-107121730D01*
X174303177Y-107208866D01*
X174348262Y-107295861D01*
X174391230Y-107382715D01*
X174432082Y-107469569D01*
X174470817Y-107556564D01*
X174507435Y-107643700D01*
X174633165Y-107643700D01*
X174633165Y-107617030D01*
X174743655Y-107617030D01*
X174783025Y-107631000D01*
X174838270Y-107644970D01*
X174900500Y-107655765D01*
X174962095Y-107660210D01*
X175035438Y-107655606D01*
X175089358Y-107643700D01*
X176030165Y-107643700D01*
X176529275Y-107643700D01*
X176655005Y-107643700D01*
X176795975Y-107643700D01*
X176795975Y-107121730D01*
X176843177Y-107208866D01*
X176888262Y-107295861D01*
X176931230Y-107382715D01*
X176972082Y-107469569D01*
X177010817Y-107556564D01*
X177047435Y-107643700D01*
X177173165Y-107643700D01*
X177173165Y-107458280D01*
X177265875Y-107458280D01*
X177593535Y-107458280D01*
X177593535Y-107643700D01*
X177749745Y-107643700D01*
X177749745Y-107458280D01*
X177834835Y-107458280D01*
X177834835Y-107330010D01*
X177749745Y-107330010D01*
X177749745Y-106857570D01*
X177610045Y-106857570D01*
X177559245Y-106911704D01*
X177508445Y-106972505D01*
X177458915Y-107037116D01*
X177411925Y-107102680D01*
X177368110Y-107167926D01*
X177328105Y-107231585D01*
X177293498Y-107291116D01*
X177265875Y-107343980D01*
X177265875Y-107458280D01*
X177173165Y-107458280D01*
X177173165Y-106857570D01*
X177032195Y-106857570D01*
X177032195Y-107341440D01*
X177009811Y-107291910D01*
X176983300Y-107234760D01*
X176953455Y-107172847D01*
X176921070Y-107109030D01*
X176886939Y-107044101D01*
X176851855Y-106978855D01*
X176816295Y-106915831D01*
X176780735Y-106857570D01*
X176655005Y-106857570D01*
X176655005Y-107643700D01*
X176529275Y-107643700D01*
X176529275Y-107514160D01*
X176359095Y-107514160D01*
X176359095Y-106987110D01*
X176529275Y-106987110D01*
X176529275Y-106857570D01*
X176030165Y-106857570D01*
X176030165Y-106987110D01*
X176201615Y-106987110D01*
X176201615Y-107514160D01*
X176030165Y-107514160D01*
X176030165Y-107643700D01*
X175089358Y-107643700D01*
X175097985Y-107641795D01*
X175150055Y-107619570D01*
X175191965Y-107589725D01*
X175246575Y-107510350D01*
X175264355Y-107410020D01*
X175255941Y-107346202D01*
X175230700Y-107291910D01*
X175190219Y-107248412D01*
X175136085Y-107216980D01*
X175207205Y-107150940D01*
X175233875Y-107060770D01*
X175218635Y-106973140D01*
X175171645Y-106902655D01*
X175091000Y-106856300D01*
X175037819Y-106843917D01*
X174976065Y-106839790D01*
X174908596Y-106845664D01*
X174848430Y-106863285D01*
X174757625Y-106909640D01*
X174813505Y-107023940D01*
X174889070Y-106987745D01*
X174977335Y-106973140D01*
X175049090Y-106997905D01*
X175075125Y-107065850D01*
X175063060Y-107114110D01*
X175031945Y-107144590D01*
X174988765Y-107161100D01*
X174940505Y-107166180D01*
X174882085Y-107166180D01*
X174882085Y-107295720D01*
X174930345Y-107295720D01*
X174999878Y-107301911D01*
X175056075Y-107320485D01*
X175093223Y-107354616D01*
X175105605Y-107407480D01*
X175073220Y-107492570D01*
X175028929Y-107518288D01*
X174960825Y-107526860D01*
X174900659Y-107523367D01*
X174849700Y-107512890D01*
X174774135Y-107486220D01*
X174743655Y-107617030D01*
X174633165Y-107617030D01*
X174633165Y-106857570D01*
X174492195Y-106857570D01*
X174492195Y-107341440D01*
X174469811Y-107291910D01*
X174443300Y-107234760D01*
X174413455Y-107172847D01*
X174381070Y-107109030D01*
X174346939Y-107044101D01*
X174311855Y-106978855D01*
X174276295Y-106915831D01*
X174240735Y-106857570D01*
X174115005Y-106857570D01*
X174115005Y-107643700D01*
X173989275Y-107643700D01*
X173989275Y-107514160D01*
X173819095Y-107514160D01*
X173819095Y-106987110D01*
X173989275Y-106987110D01*
X173989275Y-106857570D01*
X173490165Y-106857570D01*
X173490165Y-106987110D01*
X173661615Y-106987110D01*
X173661615Y-107514160D01*
X173490165Y-107514160D01*
X173490165Y-107643700D01*
X172483818Y-107643700D01*
X172534490Y-107631635D01*
X172596561Y-107602901D01*
X172649425Y-107561150D01*
X172692446Y-107505746D01*
X172724990Y-107436055D01*
X172745469Y-107351124D01*
X172752295Y-107250000D01*
X172746104Y-107151099D01*
X172727530Y-107067755D01*
X172697844Y-106998857D01*
X172658315Y-106943295D01*
X172608944Y-106900909D01*
X172549730Y-106871540D01*
X172482261Y-106854395D01*
X172408125Y-106848680D01*
X172320495Y-106852490D01*
X172220165Y-106867730D01*
X172220165Y-107634810D01*
X172093165Y-107634810D01*
X172093165Y-106857570D01*
X171952195Y-106857570D01*
X171952195Y-107341440D01*
X171929811Y-107291910D01*
X171903300Y-107234760D01*
X171873455Y-107172847D01*
X171841070Y-107109030D01*
X171806939Y-107044101D01*
X171771855Y-106978855D01*
X171736295Y-106915831D01*
X171700735Y-106857570D01*
X171575005Y-106857570D01*
X171575005Y-107643700D01*
X171394559Y-107643700D01*
X171467055Y-107624650D01*
X171467055Y-107232220D01*
X171310845Y-107232220D01*
X171310845Y-107519240D01*
X171280365Y-107523050D01*
X171249885Y-107524320D01*
X171174003Y-107507651D01*
X171119075Y-107457645D01*
X171094381Y-107404940D01*
X171079564Y-107335725D01*
X171074625Y-107250000D01*
X171077324Y-107191739D01*
X171085420Y-107138875D01*
X171120980Y-107052515D01*
X171183845Y-106996000D01*
X171277825Y-106975680D01*
X171361645Y-106989650D01*
X171430225Y-107021400D01*
X171470865Y-106896940D01*
X171444830Y-106881700D01*
X171401015Y-106862650D01*
X171338150Y-106846775D01*
X171256235Y-106839790D01*
X171187338Y-106846299D01*
X171122885Y-106865825D01*
X171064783Y-106898369D01*
X171014935Y-106943930D01*
X170973978Y-107002191D01*
X170942545Y-107072835D01*
X170922543Y-107155544D01*
X170915875Y-107250000D01*
X170136058Y-107250000D01*
X170143080Y-107225235D01*
X170170068Y-107124111D01*
X170193880Y-107027750D01*
X170214359Y-106938215D01*
X170231345Y-106857570D01*
X170067515Y-106857570D01*
X170056085Y-106923610D01*
X170042115Y-106999810D01*
X170026240Y-107082201D01*
X170009095Y-107166815D01*
X169990680Y-107251905D01*
X169970995Y-107335725D01*
X169950675Y-107414306D01*
X169930355Y-107483680D01*
X169909876Y-107413354D01*
X169889080Y-107334455D01*
X169868760Y-107250635D01*
X169849710Y-107165545D01*
X169832089Y-107081090D01*
X169816055Y-106999175D01*
X169802720Y-106923451D01*
X169793195Y-106857570D01*
X169628095Y-106857570D01*
X169515065Y-106857570D01*
X169113745Y-106857570D01*
X169108983Y-106954566D01*
X169102315Y-107055055D01*
X169093425Y-107158401D01*
X169081995Y-107263970D01*
X169169308Y-107266669D01*
X169238205Y-107274765D01*
X169330280Y-107305245D01*
X169373460Y-107352235D01*
X169384255Y-107412560D01*
X169377905Y-107454470D01*
X169354410Y-107490665D01*
X169307420Y-107516700D01*
X169231855Y-107526860D01*
X169172483Y-107524002D01*
X169123905Y-107515430D01*
X169052785Y-107490030D01*
X169021035Y-107619570D01*
X168293325Y-107619570D01*
X168293325Y-107514160D01*
X167955505Y-107514160D01*
X167968840Y-107472250D01*
X168001225Y-107427165D01*
X168041865Y-107383985D01*
X168079965Y-107347790D01*
X168144735Y-107284290D01*
X168201885Y-107215710D01*
X168242525Y-107142685D01*
X168257765Y-107064580D01*
X168237445Y-106966155D01*
X168182835Y-106895670D01*
X168104095Y-106853760D01*
X168011385Y-106839790D01*
X167945186Y-106846140D01*
X167878670Y-106865190D01*
X167815964Y-106897575D01*
X167761195Y-106943930D01*
X167648165Y-106943930D01*
X167648165Y-106857570D01*
X167507195Y-106857570D01*
X167507195Y-107341440D01*
X167484811Y-107291910D01*
X167458300Y-107234760D01*
X167428455Y-107172847D01*
X167396070Y-107109030D01*
X167361939Y-107044101D01*
X167326855Y-106978855D01*
X167291295Y-106915831D01*
X167255735Y-106857570D01*
X167130005Y-106857570D01*
X167130005Y-107643700D01*
X167004275Y-107643700D01*
X167004275Y-107514160D01*
X166834095Y-107514160D01*
X166834095Y-106987110D01*
X167004275Y-106987110D01*
X167004275Y-106857570D01*
X166505165Y-106857570D01*
X166505165Y-106987110D01*
X166676615Y-106987110D01*
X166676615Y-107514160D01*
X166505165Y-107514160D01*
X166505165Y-107643700D01*
X165749515Y-107643700D01*
X165749515Y-107514160D01*
X165593305Y-107514160D01*
X165593305Y-106857570D01*
X165486625Y-106857570D01*
X165432015Y-106907100D01*
X165364705Y-106952820D01*
X165293585Y-106992190D01*
X165227545Y-107021400D01*
X165108165Y-107021400D01*
X165108165Y-106857570D01*
X164967195Y-106857570D01*
X164967195Y-107341440D01*
X164944811Y-107291910D01*
X164918300Y-107234760D01*
X164888455Y-107172847D01*
X164856070Y-107109030D01*
X164821939Y-107044101D01*
X164786855Y-106978855D01*
X164751295Y-106915831D01*
X164715735Y-106857570D01*
X164590005Y-106857570D01*
X164590005Y-107643700D01*
X164464275Y-107643700D01*
X164464275Y-107514160D01*
X164294095Y-107514160D01*
X164294095Y-106987110D01*
X164464275Y-106987110D01*
X164464275Y-106857570D01*
X163965165Y-106857570D01*
X163965165Y-106987110D01*
X164136615Y-106987110D01*
X164136615Y-107514160D01*
X163965165Y-107514160D01*
X163965165Y-107643700D01*
X163153459Y-107643700D01*
X163139512Y-107624895D01*
X163105467Y-107568095D01*
X163077154Y-107508232D01*
X163054845Y-107445882D01*
X163038754Y-107381646D01*
X163029038Y-107316141D01*
X163025788Y-107250000D01*
X163029038Y-107183859D01*
X163038754Y-107118354D01*
X163054845Y-107054118D01*
X163077154Y-106991768D01*
X163105467Y-106931905D01*
X163139512Y-106875105D01*
X163178959Y-106821916D01*
X163223431Y-106772849D01*
X163272497Y-106728378D01*
X163325687Y-106688930D01*
X163382486Y-106654885D01*
X163442350Y-106626572D01*
X163504700Y-106604263D01*
X163568936Y-106588173D01*
X163634440Y-106578456D01*
X163700582Y-106575207D01*
X178099418Y-106575207D01*
X178165560Y-106578456D01*
X178231064Y-106588173D01*
X178295301Y-106604263D01*
X178357651Y-106626572D01*
X178417514Y-106654885D01*
X178474313Y-106688930D01*
X178527503Y-106728378D01*
X178576569Y-106772849D01*
X178621041Y-106821916D01*
X178660488Y-106875105D01*
X178694533Y-106931905D01*
X178722846Y-106991768D01*
X178745155Y-107054118D01*
X178761246Y-107118354D01*
X178770962Y-107183859D01*
X178774212Y-107250000D01*
X178770962Y-107316141D01*
X178761246Y-107381646D01*
X178745155Y-107445882D01*
X178722846Y-107508232D01*
X178694533Y-107568095D01*
X178660488Y-107624895D01*
X178621041Y-107678084D01*
X178576569Y-107727151D01*
X178527503Y-107771622D01*
X178474313Y-107811070D01*
X178417514Y-107845115D01*
X178357651Y-107873428D01*
X178295301Y-107895737D01*
X178231064Y-107911827D01*
X178165560Y-107921544D01*
X178099418Y-107924793D01*
X163700582Y-107924793D01*
X163634440Y-107921544D01*
G37*
G36*
X172507185Y-107006795D02*
G01*
X172559255Y-107065850D01*
X172585925Y-107150940D01*
X172593545Y-107250000D01*
X172591164Y-107306039D01*
X172584020Y-107357315D01*
X172552270Y-107441770D01*
X172493850Y-107497650D01*
X172404315Y-107517970D01*
X172390345Y-107517970D01*
X172376375Y-107516700D01*
X172376375Y-106988380D01*
X172399235Y-106985205D01*
X172422095Y-106984570D01*
X172507185Y-107006795D01*
G37*
G36*
X177593535Y-107330010D02*
G01*
X177415735Y-107330010D01*
X177453835Y-107257620D01*
X177498920Y-107184595D01*
X177546545Y-107115380D01*
X177593535Y-107053150D01*
X177593535Y-107330010D01*
G37*
%TO.C,kibuzzard-641EE536*%
G36*
X151328456Y-87238685D02*
G01*
X151338173Y-87173181D01*
X151354263Y-87108945D01*
X151376572Y-87046594D01*
X151404885Y-86986731D01*
X151438930Y-86929932D01*
X151478378Y-86876742D01*
X151522849Y-86827676D01*
X151571916Y-86783204D01*
X151625105Y-86743757D01*
X151681905Y-86709712D01*
X151741768Y-86681399D01*
X151804118Y-86659090D01*
X151868354Y-86642999D01*
X151933859Y-86633283D01*
X152000000Y-86630033D01*
X152066141Y-86633283D01*
X152131646Y-86642999D01*
X152195882Y-86659090D01*
X152258232Y-86681399D01*
X152318095Y-86709712D01*
X152374895Y-86743757D01*
X152428084Y-86783204D01*
X152477151Y-86827676D01*
X152521622Y-86876742D01*
X152561070Y-86929932D01*
X152595115Y-86986731D01*
X152623428Y-87046594D01*
X152645737Y-87108945D01*
X152661827Y-87173181D01*
X152671544Y-87238685D01*
X152674793Y-87304827D01*
X152674793Y-92195173D01*
X152671544Y-92261315D01*
X152661827Y-92326819D01*
X152645737Y-92391055D01*
X152623428Y-92453406D01*
X152595115Y-92513269D01*
X152561070Y-92570068D01*
X152521622Y-92623258D01*
X152477151Y-92672324D01*
X152428084Y-92716796D01*
X152374895Y-92756243D01*
X152318095Y-92790288D01*
X152258232Y-92818601D01*
X152195882Y-92840910D01*
X152131646Y-92857001D01*
X152066141Y-92866717D01*
X152000000Y-92869967D01*
X151933859Y-92866717D01*
X151868354Y-92857001D01*
X151804118Y-92840910D01*
X151741768Y-92818601D01*
X151681905Y-92790288D01*
X151625105Y-92756243D01*
X151571916Y-92716796D01*
X151522849Y-92672324D01*
X151478378Y-92623258D01*
X151438930Y-92570068D01*
X151404885Y-92513269D01*
X151376572Y-92453406D01*
X151354263Y-92391055D01*
X151338173Y-92326819D01*
X151328456Y-92261315D01*
X151325207Y-92195173D01*
X151325207Y-91708340D01*
X151606300Y-91708340D01*
X151673963Y-91732611D01*
X151743178Y-91756318D01*
X151813945Y-91779460D01*
X151885065Y-91801685D01*
X151955338Y-91822640D01*
X152024765Y-91842325D01*
X152125889Y-91869313D01*
X152222250Y-91893125D01*
X152311785Y-91913604D01*
X152392430Y-91930590D01*
X152392430Y-91766760D01*
X152326390Y-91755330D01*
X152250190Y-91741360D01*
X152167799Y-91725485D01*
X152083185Y-91708340D01*
X151998095Y-91689925D01*
X151914275Y-91670240D01*
X151835694Y-91649920D01*
X151766320Y-91629600D01*
X151836646Y-91609121D01*
X151915545Y-91588325D01*
X151999365Y-91568005D01*
X152084455Y-91548955D01*
X152168910Y-91531334D01*
X152250825Y-91515300D01*
X152326549Y-91501965D01*
X152392430Y-91492440D01*
X152392430Y-91327340D01*
X152321310Y-91341945D01*
X152232410Y-91362900D01*
X152165876Y-91379692D01*
X152096661Y-91397896D01*
X152024765Y-91417510D01*
X151951458Y-91438253D01*
X151878009Y-91459843D01*
X151804420Y-91482280D01*
X151699645Y-91515618D01*
X151606300Y-91547050D01*
X151606300Y-91708340D01*
X151325207Y-91708340D01*
X151325207Y-91296860D01*
X151606300Y-91296860D01*
X151689485Y-91260665D01*
X151777115Y-91216850D01*
X151860935Y-91169860D01*
X151933960Y-91124140D01*
X151969837Y-91179703D01*
X152019050Y-91216850D01*
X152078105Y-91237805D01*
X152143510Y-91244790D01*
X152205264Y-91239551D01*
X152258445Y-91223835D01*
X152339090Y-91163510D01*
X152366713Y-91120330D01*
X152386080Y-91069530D01*
X152397510Y-91011745D01*
X152401320Y-90947610D01*
X152400050Y-90903160D01*
X152396875Y-90849820D01*
X152390525Y-90794575D01*
X152381000Y-90744410D01*
X151606300Y-90744410D01*
X151606300Y-90900620D01*
X151895860Y-90900620D01*
X151895860Y-90981900D01*
X151823946Y-91024921D01*
X151752985Y-91065085D01*
X151681071Y-91101439D01*
X151606300Y-91133030D01*
X151606300Y-91296860D01*
X151325207Y-91296860D01*
X151325207Y-90335470D01*
X151589790Y-90335470D01*
X151596493Y-90424582D01*
X151616601Y-90497183D01*
X151650115Y-90553275D01*
X151722981Y-90607091D01*
X151820930Y-90625030D01*
X151880144Y-90619633D01*
X151928245Y-90603440D01*
X151999365Y-90548195D01*
X152045085Y-90474535D01*
X152076200Y-90397700D01*
X152095250Y-90348805D01*
X152118745Y-90304355D01*
X152149225Y-90271970D01*
X152189230Y-90259270D01*
X152239324Y-90273099D01*
X152269381Y-90314586D01*
X152279400Y-90383730D01*
X152266700Y-90473265D01*
X152236220Y-90543750D01*
X152356870Y-90589470D01*
X152393700Y-90498665D01*
X152406083Y-90440086D01*
X152410210Y-90372300D01*
X152403296Y-90294477D01*
X152382552Y-90228649D01*
X152347980Y-90174815D01*
X152273685Y-90120999D01*
X152175260Y-90103060D01*
X152081915Y-90123380D01*
X152019050Y-90174815D01*
X151977140Y-90244030D01*
X151947930Y-90317690D01*
X151925705Y-90371030D01*
X151899035Y-90419290D01*
X151865380Y-90454850D01*
X151822200Y-90468820D01*
X151784735Y-90463105D01*
X151751715Y-90442150D01*
X151728855Y-90400875D01*
X151720600Y-90335470D01*
X151725045Y-90272129D01*
X151738380Y-90219265D01*
X151776480Y-90137350D01*
X151649480Y-90091630D01*
X151610745Y-90179260D01*
X151595029Y-90247523D01*
X151589790Y-90335470D01*
X151325207Y-90335470D01*
X151325207Y-89391860D01*
X151606300Y-89391860D01*
X151689485Y-89355665D01*
X151777115Y-89311850D01*
X151860935Y-89264860D01*
X151933960Y-89219140D01*
X151969837Y-89274703D01*
X152019050Y-89311850D01*
X152078105Y-89332805D01*
X152143510Y-89339790D01*
X152205264Y-89334551D01*
X152258445Y-89318835D01*
X152339090Y-89258510D01*
X152366713Y-89215330D01*
X152386080Y-89164530D01*
X152397510Y-89106745D01*
X152401320Y-89042610D01*
X152400050Y-88998160D01*
X152396875Y-88944820D01*
X152390525Y-88889575D01*
X152381000Y-88839410D01*
X151606300Y-88839410D01*
X151606300Y-88995620D01*
X151895860Y-88995620D01*
X151895860Y-89076900D01*
X151823946Y-89119921D01*
X151752985Y-89160085D01*
X151681071Y-89196439D01*
X151606300Y-89228030D01*
X151606300Y-89391860D01*
X151325207Y-89391860D01*
X151325207Y-88697170D01*
X151606300Y-88697170D01*
X151696470Y-88705584D01*
X151791720Y-88713045D01*
X151890304Y-88719554D01*
X151990475Y-88725110D01*
X152091758Y-88729873D01*
X152193675Y-88734000D01*
X152294481Y-88737810D01*
X152392430Y-88741620D01*
X152392430Y-88596840D01*
X152316071Y-88597157D01*
X152236855Y-88598110D01*
X152156686Y-88599380D01*
X152077470Y-88600650D01*
X151999524Y-88601920D01*
X151923165Y-88603190D01*
X151849981Y-88604143D01*
X151781560Y-88604460D01*
X151883160Y-88575885D01*
X151975870Y-88549215D01*
X152054610Y-88526990D01*
X152114300Y-88511750D01*
X152114300Y-88397450D01*
X152052070Y-88379670D01*
X151965710Y-88354905D01*
X151870460Y-88326965D01*
X151781560Y-88300930D01*
X151849981Y-88301247D01*
X151923165Y-88302200D01*
X151999682Y-88303470D01*
X152078105Y-88304740D01*
X152157639Y-88306010D01*
X152237490Y-88307280D01*
X152316230Y-88308550D01*
X152392430Y-88309820D01*
X152392430Y-88165040D01*
X152295434Y-88167898D01*
X152194945Y-88171390D01*
X152093028Y-88175676D01*
X151991745Y-88180915D01*
X151891415Y-88187106D01*
X151792355Y-88194250D01*
X151696629Y-88202505D01*
X151606300Y-88212030D01*
X151606300Y-88341570D01*
X151689803Y-88368240D01*
X151780290Y-88397450D01*
X151870778Y-88427295D01*
X151954280Y-88455870D01*
X151868396Y-88483810D01*
X151778385Y-88511750D01*
X151689326Y-88539690D01*
X151606300Y-88567630D01*
X151606300Y-88697170D01*
X151325207Y-88697170D01*
X151325207Y-87725620D01*
X151606300Y-87725620D01*
X151871730Y-87725620D01*
X151871730Y-87781500D01*
X151878715Y-87875409D01*
X151899670Y-87953938D01*
X151934595Y-88017085D01*
X151985183Y-88063299D01*
X152053128Y-88091027D01*
X152138430Y-88100270D01*
X152222885Y-88091098D01*
X152289983Y-88063581D01*
X152339725Y-88017720D01*
X152373944Y-87955208D01*
X152394476Y-87877738D01*
X152401320Y-87785310D01*
X152400050Y-87735780D01*
X152396875Y-87678630D01*
X152391160Y-87620845D01*
X152382270Y-87569410D01*
X151606300Y-87569410D01*
X151606300Y-87725620D01*
X151325207Y-87725620D01*
X151325207Y-87304827D01*
X151328456Y-87238685D01*
G37*
G36*
X152264795Y-87764355D02*
G01*
X152265430Y-87803090D01*
X152258286Y-87859129D01*
X152236855Y-87902785D01*
X152198279Y-87930884D01*
X152139700Y-87940250D01*
X152077946Y-87930725D01*
X152037465Y-87902150D01*
X152015081Y-87854842D01*
X152007620Y-87789120D01*
X152007620Y-87725620D01*
X152261620Y-87725620D01*
X152264795Y-87764355D01*
G37*
G36*
X152264795Y-89021020D02*
G01*
X152265430Y-89042610D01*
X152258128Y-89098808D01*
X152236220Y-89142940D01*
X152198755Y-89171515D01*
X152144780Y-89181040D01*
X152056515Y-89145480D01*
X152033179Y-89098808D01*
X152025400Y-89029910D01*
X152025400Y-88995620D01*
X152261620Y-88995620D01*
X152264795Y-89021020D01*
G37*
G36*
X152264795Y-90926020D02*
G01*
X152265430Y-90947610D01*
X152258128Y-91003807D01*
X152236220Y-91047940D01*
X152198755Y-91076515D01*
X152144780Y-91086040D01*
X152056515Y-91050480D01*
X152033179Y-91003808D01*
X152025400Y-90934910D01*
X152025400Y-90900620D01*
X152261620Y-90900620D01*
X152264795Y-90926020D01*
G37*
D11*
%TO.C,J6*%
X153190000Y-84670000D02*
X153190000Y-94830000D01*
X160810000Y-94830000D02*
X160810000Y-84670000D01*
X159540000Y-84670000D02*
X159540000Y-94830000D01*
X160810000Y-84670000D02*
X153190000Y-84670000D01*
X153190000Y-94830000D02*
X160810000Y-94830000D01*
%TO.C,kibuzzard-641EE4C6*%
G36*
X151343659Y-97918567D02*
G01*
X151353266Y-97853803D01*
X151369175Y-97790291D01*
X151391232Y-97728645D01*
X151419226Y-97669458D01*
X151452886Y-97613300D01*
X151491888Y-97560711D01*
X151535857Y-97512199D01*
X151584370Y-97468230D01*
X151636958Y-97429227D01*
X151693117Y-97395567D01*
X151752304Y-97367574D01*
X151813950Y-97345517D01*
X151877461Y-97329608D01*
X151942226Y-97320001D01*
X152007620Y-97316788D01*
X152073014Y-97320001D01*
X152137779Y-97329608D01*
X152201290Y-97345517D01*
X152262936Y-97367574D01*
X152322123Y-97395567D01*
X152378282Y-97429227D01*
X152430870Y-97468230D01*
X152479383Y-97512199D01*
X152523352Y-97560711D01*
X152562354Y-97613300D01*
X152596014Y-97669458D01*
X152624008Y-97728645D01*
X152646065Y-97790291D01*
X152661974Y-97853803D01*
X152671581Y-97918567D01*
X152674793Y-97983962D01*
X152674793Y-104016038D01*
X152671581Y-104081433D01*
X152661974Y-104146197D01*
X152646065Y-104209709D01*
X152624008Y-104271355D01*
X152596014Y-104330542D01*
X152562354Y-104386700D01*
X152523352Y-104439289D01*
X152479383Y-104487801D01*
X152430870Y-104531770D01*
X152378282Y-104570773D01*
X152322123Y-104604433D01*
X152262936Y-104632426D01*
X152201290Y-104654483D01*
X152137779Y-104670392D01*
X152073014Y-104679999D01*
X152007620Y-104683212D01*
X151942226Y-104679999D01*
X151877461Y-104670392D01*
X151813950Y-104654483D01*
X151752304Y-104632426D01*
X151693117Y-104604433D01*
X151636958Y-104570773D01*
X151584370Y-104531770D01*
X151535857Y-104487801D01*
X151491888Y-104439289D01*
X151452886Y-104386700D01*
X151419226Y-104330542D01*
X151391232Y-104271355D01*
X151369175Y-104209709D01*
X151353266Y-104146197D01*
X151343659Y-104081433D01*
X151340447Y-104016038D01*
X151340447Y-103751455D01*
X151864110Y-103751455D01*
X152017780Y-103751455D01*
X152017780Y-103403475D01*
X151864110Y-103403475D01*
X151864110Y-103751455D01*
X151340447Y-103751455D01*
X151340447Y-103021205D01*
X151615190Y-103021205D01*
X152271780Y-103021205D01*
X152271780Y-103228215D01*
X152401320Y-103228215D01*
X152401320Y-102656715D01*
X152271780Y-102656715D01*
X152271780Y-102863725D01*
X151615190Y-102863725D01*
X151615190Y-103021205D01*
X151340447Y-103021205D01*
X151340447Y-102613535D01*
X151615190Y-102613535D01*
X151704319Y-102592580D01*
X151790856Y-102571371D01*
X151874803Y-102549908D01*
X151956160Y-102528191D01*
X152034925Y-102506220D01*
X152130453Y-102478558D01*
X152223361Y-102450816D01*
X152313650Y-102422995D01*
X152401320Y-102395095D01*
X152401320Y-102224915D01*
X152314365Y-102198007D01*
X152224949Y-102170622D01*
X152133072Y-102142762D01*
X152038735Y-102114425D01*
X151960630Y-102091616D01*
X151879223Y-102068908D01*
X151794514Y-102046302D01*
X151706503Y-102023798D01*
X151615190Y-102001395D01*
X151615190Y-102163955D01*
X151796800Y-102199515D01*
X151796800Y-102409065D01*
X151615190Y-102445895D01*
X151615190Y-102613535D01*
X151340447Y-102613535D01*
X151340447Y-101641985D01*
X151605030Y-101641985D01*
X151608046Y-101704691D01*
X151617095Y-101763270D01*
X151633287Y-101815975D01*
X151657735Y-101861060D01*
X151733935Y-101926465D01*
X151787434Y-101944562D01*
X151852680Y-101950595D01*
X151906020Y-101943451D01*
X151956820Y-101922020D01*
X152001270Y-101880586D01*
X152035560Y-101813435D01*
X152104140Y-101886460D01*
X152150495Y-101906939D01*
X152203200Y-101913765D01*
X152276860Y-101902335D01*
X152343535Y-101859155D01*
X152391795Y-101771525D01*
X152405606Y-101707390D01*
X152410210Y-101626745D01*
X152404495Y-101521335D01*
X152391160Y-101423545D01*
X151627890Y-101423545D01*
X151617889Y-101478472D01*
X151610745Y-101534035D01*
X151606459Y-101588962D01*
X151605030Y-101641985D01*
X151340447Y-101641985D01*
X151340447Y-100469775D01*
X151663450Y-100469775D01*
X151884430Y-100469775D01*
X151884430Y-100669165D01*
X152012700Y-100669165D01*
X152012700Y-100469775D01*
X152233680Y-100469775D01*
X152233680Y-100335155D01*
X152012700Y-100335155D01*
X152012700Y-100135765D01*
X151884430Y-100135765D01*
X151884430Y-100335155D01*
X151663450Y-100335155D01*
X151663450Y-100469775D01*
X151340447Y-100469775D01*
X151340447Y-99846205D01*
X151615190Y-99846205D01*
X152271780Y-99846205D01*
X152271780Y-100053215D01*
X152401320Y-100053215D01*
X152401320Y-99481715D01*
X152271780Y-99481715D01*
X152271780Y-99688725D01*
X151615190Y-99688725D01*
X151615190Y-99846205D01*
X151340447Y-99846205D01*
X151340447Y-99438535D01*
X151615190Y-99438535D01*
X151704319Y-99417580D01*
X151790856Y-99396371D01*
X151874803Y-99374908D01*
X151956160Y-99353191D01*
X152034925Y-99331220D01*
X152130453Y-99303558D01*
X152223361Y-99275816D01*
X152313650Y-99247995D01*
X152401320Y-99220095D01*
X152401320Y-99049915D01*
X152314365Y-99023007D01*
X152224949Y-98995622D01*
X152133072Y-98967762D01*
X152038735Y-98939425D01*
X151960630Y-98916616D01*
X151879223Y-98893908D01*
X151794514Y-98871302D01*
X151706503Y-98848798D01*
X151615190Y-98826395D01*
X151615190Y-98988955D01*
X151796800Y-99024515D01*
X151796800Y-99234065D01*
X151615190Y-99270895D01*
X151615190Y-99438535D01*
X151340447Y-99438535D01*
X151340447Y-98466985D01*
X151605030Y-98466985D01*
X151608046Y-98529691D01*
X151617095Y-98588270D01*
X151633287Y-98640975D01*
X151657735Y-98686060D01*
X151733935Y-98751465D01*
X151787434Y-98769562D01*
X151852680Y-98775595D01*
X151906020Y-98768451D01*
X151956820Y-98747020D01*
X152001270Y-98705586D01*
X152035560Y-98638435D01*
X152104140Y-98711460D01*
X152150495Y-98731939D01*
X152203200Y-98738765D01*
X152276860Y-98727335D01*
X152343535Y-98684155D01*
X152391795Y-98596525D01*
X152405606Y-98532390D01*
X152410210Y-98451745D01*
X152404495Y-98346335D01*
X152391160Y-98248545D01*
X151627890Y-98248545D01*
X151617889Y-98303472D01*
X151610745Y-98359035D01*
X151606459Y-98413962D01*
X151605030Y-98466985D01*
X151340447Y-98466985D01*
X151340447Y-97983962D01*
X151343659Y-97918567D01*
G37*
G36*
X152007620Y-99069600D02*
G01*
X152085725Y-99087380D01*
X152164465Y-99107700D01*
X152248920Y-99131195D01*
X152164465Y-99154690D01*
X152085725Y-99175010D01*
X152007620Y-99192155D01*
X151926340Y-99207395D01*
X151926340Y-99053725D01*
X152007620Y-99069600D01*
G37*
G36*
X152007620Y-102244600D02*
G01*
X152085725Y-102262380D01*
X152164465Y-102282700D01*
X152248920Y-102306195D01*
X152164465Y-102329690D01*
X152085725Y-102350010D01*
X152007620Y-102367155D01*
X151926340Y-102382395D01*
X151926340Y-102228725D01*
X152007620Y-102244600D01*
G37*
G36*
X151959360Y-98488575D02*
G01*
X151934595Y-98585730D01*
X151852680Y-98621925D01*
X151796165Y-98609225D01*
X151761875Y-98576840D01*
X151745365Y-98531755D01*
X151740920Y-98479685D01*
X151742190Y-98440950D01*
X151746000Y-98404755D01*
X151959360Y-98404755D01*
X151959360Y-98488575D01*
G37*
G36*
X151959360Y-101663575D02*
G01*
X151934595Y-101760730D01*
X151852680Y-101796925D01*
X151796165Y-101784225D01*
X151761875Y-101751840D01*
X151745365Y-101706755D01*
X151740920Y-101654685D01*
X151742190Y-101615950D01*
X151746000Y-101579755D01*
X151959360Y-101579755D01*
X151959360Y-101663575D01*
G37*
G36*
X152273050Y-101614045D02*
G01*
X152274320Y-101650875D01*
X152271145Y-101692785D01*
X152258445Y-101728345D01*
X152231775Y-101752475D01*
X152186690Y-101761365D01*
X152114935Y-101730885D01*
X152088900Y-101640715D01*
X152088900Y-101579755D01*
X152269240Y-101579755D01*
X152273050Y-101614045D01*
G37*
G36*
X152273050Y-98439045D02*
G01*
X152274320Y-98475875D01*
X152271145Y-98517785D01*
X152258445Y-98553345D01*
X152231775Y-98577475D01*
X152186690Y-98586365D01*
X152114935Y-98555885D01*
X152088900Y-98465715D01*
X152088900Y-98404755D01*
X152269240Y-98404755D01*
X152273050Y-98439045D01*
G37*
%TO.C,kibuzzard-641EE492*%
G36*
X151328456Y-123488685D02*
G01*
X151338173Y-123423181D01*
X151354263Y-123358945D01*
X151376572Y-123296594D01*
X151404885Y-123236731D01*
X151438930Y-123179932D01*
X151478378Y-123126742D01*
X151522849Y-123077676D01*
X151571916Y-123033204D01*
X151625105Y-122993757D01*
X151681905Y-122959712D01*
X151741768Y-122931399D01*
X151804118Y-122909090D01*
X151868354Y-122892999D01*
X151933859Y-122883283D01*
X152000000Y-122880033D01*
X152066141Y-122883283D01*
X152131646Y-122892999D01*
X152195882Y-122909090D01*
X152258232Y-122931399D01*
X152318095Y-122959712D01*
X152374895Y-122993757D01*
X152428084Y-123033204D01*
X152477151Y-123077676D01*
X152521622Y-123126742D01*
X152561070Y-123179932D01*
X152595115Y-123236731D01*
X152623428Y-123296594D01*
X152645737Y-123358945D01*
X152661827Y-123423181D01*
X152671544Y-123488685D01*
X152674793Y-123554827D01*
X152674793Y-128445173D01*
X152671544Y-128511315D01*
X152661827Y-128576819D01*
X152645737Y-128641055D01*
X152623428Y-128703406D01*
X152595115Y-128763269D01*
X152561070Y-128820068D01*
X152521622Y-128873258D01*
X152477151Y-128922324D01*
X152428084Y-128966796D01*
X152374895Y-129006243D01*
X152318095Y-129040288D01*
X152258232Y-129068601D01*
X152195882Y-129090910D01*
X152131646Y-129107001D01*
X152066141Y-129116717D01*
X152000000Y-129119967D01*
X151933859Y-129116717D01*
X151868354Y-129107001D01*
X151804118Y-129090910D01*
X151741768Y-129068601D01*
X151681905Y-129040288D01*
X151625105Y-129006243D01*
X151571916Y-128966796D01*
X151522849Y-128922324D01*
X151478378Y-128873258D01*
X151438930Y-128820068D01*
X151404885Y-128763269D01*
X151376572Y-128703406D01*
X151354263Y-128641055D01*
X151338173Y-128576819D01*
X151328456Y-128511315D01*
X151325207Y-128445173D01*
X151325207Y-127958340D01*
X151606300Y-127958340D01*
X151673963Y-127982611D01*
X151743178Y-128006318D01*
X151813945Y-128029460D01*
X151885065Y-128051685D01*
X151955338Y-128072640D01*
X152024765Y-128092325D01*
X152125889Y-128119313D01*
X152222250Y-128143125D01*
X152311785Y-128163604D01*
X152392430Y-128180590D01*
X152392430Y-128016760D01*
X152326390Y-128005330D01*
X152250190Y-127991360D01*
X152167799Y-127975485D01*
X152083185Y-127958340D01*
X151998095Y-127939925D01*
X151914275Y-127920240D01*
X151835694Y-127899920D01*
X151766320Y-127879600D01*
X151836646Y-127859121D01*
X151915545Y-127838325D01*
X151999365Y-127818005D01*
X152084455Y-127798955D01*
X152168910Y-127781334D01*
X152250825Y-127765300D01*
X152326549Y-127751965D01*
X152392430Y-127742440D01*
X152392430Y-127577340D01*
X152321310Y-127591945D01*
X152232410Y-127612900D01*
X152165876Y-127629692D01*
X152096661Y-127647896D01*
X152024765Y-127667510D01*
X151951458Y-127688253D01*
X151878009Y-127709843D01*
X151804420Y-127732280D01*
X151699645Y-127765618D01*
X151606300Y-127797050D01*
X151606300Y-127958340D01*
X151325207Y-127958340D01*
X151325207Y-127546860D01*
X151606300Y-127546860D01*
X151689485Y-127510665D01*
X151777115Y-127466850D01*
X151860935Y-127419860D01*
X151933960Y-127374140D01*
X151969837Y-127429703D01*
X152019050Y-127466850D01*
X152078105Y-127487805D01*
X152143510Y-127494790D01*
X152205264Y-127489551D01*
X152258445Y-127473835D01*
X152339090Y-127413510D01*
X152366713Y-127370330D01*
X152386080Y-127319530D01*
X152397510Y-127261745D01*
X152401320Y-127197610D01*
X152400050Y-127153160D01*
X152396875Y-127099820D01*
X152390525Y-127044575D01*
X152381000Y-126994410D01*
X151606300Y-126994410D01*
X151606300Y-127150620D01*
X151895860Y-127150620D01*
X151895860Y-127231900D01*
X151823946Y-127274921D01*
X151752985Y-127315085D01*
X151681071Y-127351439D01*
X151606300Y-127383030D01*
X151606300Y-127546860D01*
X151325207Y-127546860D01*
X151325207Y-126585470D01*
X151589790Y-126585470D01*
X151596493Y-126674582D01*
X151616601Y-126747183D01*
X151650115Y-126803275D01*
X151722981Y-126857091D01*
X151820930Y-126875030D01*
X151880144Y-126869633D01*
X151928245Y-126853440D01*
X151999365Y-126798195D01*
X152045085Y-126724535D01*
X152076200Y-126647700D01*
X152095250Y-126598805D01*
X152118745Y-126554355D01*
X152149225Y-126521970D01*
X152189230Y-126509270D01*
X152239324Y-126523099D01*
X152269381Y-126564586D01*
X152279400Y-126633730D01*
X152266700Y-126723265D01*
X152236220Y-126793750D01*
X152356870Y-126839470D01*
X152393700Y-126748665D01*
X152406083Y-126690086D01*
X152410210Y-126622300D01*
X152403296Y-126544477D01*
X152382552Y-126478649D01*
X152347980Y-126424815D01*
X152273685Y-126370999D01*
X152175260Y-126353060D01*
X152081915Y-126373380D01*
X152019050Y-126424815D01*
X151977140Y-126494030D01*
X151947930Y-126567690D01*
X151925705Y-126621030D01*
X151899035Y-126669290D01*
X151865380Y-126704850D01*
X151822200Y-126718820D01*
X151784735Y-126713105D01*
X151751715Y-126692150D01*
X151728855Y-126650875D01*
X151720600Y-126585470D01*
X151725045Y-126522129D01*
X151738380Y-126469265D01*
X151776480Y-126387350D01*
X151649480Y-126341630D01*
X151610745Y-126429260D01*
X151595029Y-126497523D01*
X151589790Y-126585470D01*
X151325207Y-126585470D01*
X151325207Y-125291340D01*
X151589790Y-125291340D01*
X151594394Y-125364683D01*
X151608205Y-125427230D01*
X151630430Y-125479300D01*
X151660275Y-125521210D01*
X151739650Y-125575820D01*
X151839980Y-125593600D01*
X151903798Y-125585186D01*
X151958090Y-125559945D01*
X152001588Y-125519464D01*
X152033020Y-125465330D01*
X152099060Y-125536450D01*
X152189230Y-125563120D01*
X152276860Y-125547880D01*
X152347345Y-125500890D01*
X152393700Y-125420245D01*
X152406083Y-125367064D01*
X152410210Y-125305310D01*
X152404336Y-125237841D01*
X152386715Y-125177675D01*
X152340360Y-125086870D01*
X152226060Y-125142750D01*
X152262255Y-125218315D01*
X152276860Y-125306580D01*
X152252095Y-125378335D01*
X152184150Y-125404370D01*
X152135890Y-125392305D01*
X152105410Y-125361190D01*
X152088900Y-125318010D01*
X152083820Y-125269750D01*
X152083820Y-125211330D01*
X151954280Y-125211330D01*
X151954280Y-125259590D01*
X151948089Y-125329123D01*
X151929515Y-125385320D01*
X151895384Y-125422467D01*
X151842520Y-125434850D01*
X151757430Y-125402465D01*
X151731712Y-125358174D01*
X151723140Y-125290070D01*
X151726633Y-125229904D01*
X151737110Y-125178945D01*
X151763780Y-125103380D01*
X151632970Y-125072900D01*
X151619000Y-125112270D01*
X151605030Y-125167515D01*
X151594235Y-125229745D01*
X151589790Y-125291340D01*
X151325207Y-125291340D01*
X151325207Y-124962410D01*
X151606300Y-124962410D01*
X152392430Y-124962410D01*
X152392430Y-124821440D01*
X151908560Y-124821440D01*
X151958090Y-124799056D01*
X152015240Y-124772545D01*
X152077153Y-124742700D01*
X152140970Y-124710315D01*
X152205899Y-124676184D01*
X152271145Y-124641100D01*
X152334169Y-124605540D01*
X152392430Y-124569980D01*
X152392430Y-124444250D01*
X151606300Y-124444250D01*
X151606300Y-124585220D01*
X152128270Y-124585220D01*
X152041134Y-124632422D01*
X151954139Y-124677507D01*
X151867285Y-124720475D01*
X151780431Y-124761327D01*
X151693436Y-124800062D01*
X151606300Y-124836680D01*
X151606300Y-124962410D01*
X151325207Y-124962410D01*
X151325207Y-124318520D01*
X151606300Y-124318520D01*
X151735840Y-124318520D01*
X151735840Y-124148340D01*
X152262890Y-124148340D01*
X152262890Y-124318520D01*
X152392430Y-124318520D01*
X152392430Y-123819410D01*
X152262890Y-123819410D01*
X152262890Y-123990860D01*
X151735840Y-123990860D01*
X151735840Y-123819410D01*
X151606300Y-123819410D01*
X151606300Y-124318520D01*
X151325207Y-124318520D01*
X151325207Y-123554827D01*
X151328456Y-123488685D01*
G37*
G36*
X152264795Y-127176020D02*
G01*
X152265430Y-127197610D01*
X152258128Y-127253807D01*
X152236220Y-127297940D01*
X152198755Y-127326515D01*
X152144780Y-127336040D01*
X152056515Y-127300480D01*
X152033179Y-127253808D01*
X152025400Y-127184910D01*
X152025400Y-127150620D01*
X152261620Y-127150620D01*
X152264795Y-127176020D01*
G37*
%TO.C,kibuzzard-641EE46F*%
G36*
X180671544Y-133520205D02*
G01*
X180661827Y-133585709D01*
X180645737Y-133649945D01*
X180623428Y-133712296D01*
X180595115Y-133772159D01*
X180561070Y-133828958D01*
X180521622Y-133882148D01*
X180477151Y-133931214D01*
X180428084Y-133975686D01*
X180374895Y-134015133D01*
X180318095Y-134049178D01*
X180258232Y-134077491D01*
X180195882Y-134099800D01*
X180131646Y-134115891D01*
X180066141Y-134125607D01*
X180000000Y-134128857D01*
X179933859Y-134125607D01*
X179868354Y-134115891D01*
X179804118Y-134099800D01*
X179741768Y-134077491D01*
X179681905Y-134049178D01*
X179625105Y-134015133D01*
X179571916Y-133975686D01*
X179522849Y-133931214D01*
X179478378Y-133882148D01*
X179438930Y-133828958D01*
X179404885Y-133772159D01*
X179376572Y-133712296D01*
X179354263Y-133649945D01*
X179338173Y-133585709D01*
X179328456Y-133520205D01*
X179325207Y-133454063D01*
X179325207Y-132849120D01*
X179589790Y-132849120D01*
X179596299Y-132918017D01*
X179615825Y-132982470D01*
X179648369Y-133040572D01*
X179693930Y-133090420D01*
X179752191Y-133131377D01*
X179822835Y-133162810D01*
X179905544Y-133182813D01*
X180000000Y-133189480D01*
X180095409Y-133183765D01*
X180178435Y-133166620D01*
X180248920Y-133138998D01*
X180306705Y-133101850D01*
X180351790Y-133055654D01*
X180384175Y-133000885D01*
X180403701Y-132938179D01*
X180410210Y-132868170D01*
X180407035Y-132790541D01*
X180397510Y-132725295D01*
X180374650Y-132638300D01*
X179982220Y-132638300D01*
X179982220Y-132794510D01*
X180269240Y-132794510D01*
X180273050Y-132824990D01*
X180274320Y-132855470D01*
X180257651Y-132931352D01*
X180207645Y-132986280D01*
X180154940Y-133010974D01*
X180085725Y-133025791D01*
X180000000Y-133030730D01*
X179941739Y-133028031D01*
X179888875Y-133019935D01*
X179802515Y-132984375D01*
X179746000Y-132921510D01*
X179725680Y-132827530D01*
X179739650Y-132743710D01*
X179771400Y-132675130D01*
X179646940Y-132634490D01*
X179631700Y-132660525D01*
X179612650Y-132704340D01*
X179596775Y-132767205D01*
X179589790Y-132849120D01*
X179325207Y-132849120D01*
X179325207Y-132530350D01*
X179607570Y-132530350D01*
X180393700Y-132530350D01*
X180393700Y-132389380D01*
X179871730Y-132389380D01*
X179958866Y-132342178D01*
X180045861Y-132297093D01*
X180132715Y-132254125D01*
X180219569Y-132213273D01*
X180306564Y-132174538D01*
X180393700Y-132137920D01*
X180393700Y-132012190D01*
X179607570Y-132012190D01*
X179607570Y-132153160D01*
X180091440Y-132153160D01*
X180041910Y-132175544D01*
X179984760Y-132202055D01*
X179922847Y-132231900D01*
X179859030Y-132264285D01*
X179794101Y-132298416D01*
X179728855Y-132333500D01*
X179665831Y-132369060D01*
X179607570Y-132404620D01*
X179607570Y-132530350D01*
X179325207Y-132530350D01*
X179325207Y-131697230D01*
X179598680Y-131697230D01*
X179602490Y-131784860D01*
X179617730Y-131885190D01*
X180384810Y-131885190D01*
X180399415Y-131799465D01*
X180403860Y-131717550D01*
X180398304Y-131640874D01*
X180381635Y-131570865D01*
X180352901Y-131508794D01*
X180311150Y-131455930D01*
X180255746Y-131412909D01*
X180186055Y-131380365D01*
X180101124Y-131359886D01*
X180000000Y-131353060D01*
X179901099Y-131359251D01*
X179817755Y-131377825D01*
X179748857Y-131407511D01*
X179693295Y-131447040D01*
X179650909Y-131496411D01*
X179621540Y-131555625D01*
X179604395Y-131623094D01*
X179598680Y-131697230D01*
X179325207Y-131697230D01*
X179325207Y-130615190D01*
X179607570Y-130615190D01*
X179737110Y-130615190D01*
X179737110Y-130443740D01*
X180264160Y-130443740D01*
X180264160Y-130615190D01*
X180393700Y-130615190D01*
X180393700Y-130116080D01*
X180264160Y-130116080D01*
X180264160Y-130286260D01*
X179737110Y-130286260D01*
X179737110Y-130116080D01*
X179607570Y-130116080D01*
X179607570Y-130615190D01*
X179325207Y-130615190D01*
X179325207Y-129990350D01*
X179607570Y-129990350D01*
X180393700Y-129990350D01*
X180393700Y-129849380D01*
X179871730Y-129849380D01*
X179958866Y-129802178D01*
X180045861Y-129757093D01*
X180132715Y-129714125D01*
X180219569Y-129673273D01*
X180306564Y-129634538D01*
X180393700Y-129597920D01*
X180393700Y-129472190D01*
X179607570Y-129472190D01*
X179607570Y-129613160D01*
X180091440Y-129613160D01*
X180041910Y-129635544D01*
X179984760Y-129662055D01*
X179922847Y-129691900D01*
X179859030Y-129724285D01*
X179794101Y-129758416D01*
X179728855Y-129793500D01*
X179665831Y-129829060D01*
X179607570Y-129864620D01*
X179607570Y-129990350D01*
X179325207Y-129990350D01*
X179325207Y-129035310D01*
X179607570Y-129035310D01*
X179661704Y-129086110D01*
X179722505Y-129136910D01*
X179787116Y-129186440D01*
X179852680Y-129233430D01*
X179917926Y-129277245D01*
X179981585Y-129317250D01*
X180041116Y-129351857D01*
X180093980Y-129379480D01*
X180208280Y-129379480D01*
X180208280Y-129051820D01*
X180393700Y-129051820D01*
X180393700Y-128895610D01*
X180208280Y-128895610D01*
X180208280Y-128810520D01*
X180080010Y-128810520D01*
X180080010Y-128895610D01*
X179607570Y-128895610D01*
X179607570Y-129035310D01*
X179325207Y-129035310D01*
X179325207Y-128545937D01*
X179328456Y-128479795D01*
X179338173Y-128414291D01*
X179354263Y-128350055D01*
X179376572Y-128287704D01*
X179404885Y-128227841D01*
X179438930Y-128171042D01*
X179478378Y-128117852D01*
X179522849Y-128068786D01*
X179571916Y-128024314D01*
X179625105Y-127984867D01*
X179681905Y-127950822D01*
X179741768Y-127922509D01*
X179804118Y-127900200D01*
X179868354Y-127884109D01*
X179933859Y-127874393D01*
X180000000Y-127871143D01*
X180066141Y-127874393D01*
X180131646Y-127884109D01*
X180195882Y-127900200D01*
X180258232Y-127922509D01*
X180318095Y-127950822D01*
X180374895Y-127984867D01*
X180428084Y-128024314D01*
X180477151Y-128068786D01*
X180521622Y-128117852D01*
X180561070Y-128171042D01*
X180595115Y-128227841D01*
X180623428Y-128287704D01*
X180645737Y-128350055D01*
X180661827Y-128414291D01*
X180671544Y-128479795D01*
X180674793Y-128545937D01*
X180674793Y-133454063D01*
X180671544Y-133520205D01*
G37*
G36*
X180056039Y-131514191D02*
G01*
X180107315Y-131521335D01*
X180191770Y-131553085D01*
X180247650Y-131611505D01*
X180267970Y-131701040D01*
X180267970Y-131715010D01*
X180266700Y-131728980D01*
X179738380Y-131728980D01*
X179735205Y-131706120D01*
X179734570Y-131683260D01*
X179756795Y-131598170D01*
X179815850Y-131546100D01*
X179900940Y-131519430D01*
X180000000Y-131511810D01*
X180056039Y-131514191D01*
G37*
G36*
X180080010Y-129229620D02*
G01*
X180007620Y-129191520D01*
X179934595Y-129146435D01*
X179865380Y-129098810D01*
X179803150Y-129051820D01*
X180080010Y-129051820D01*
X180080010Y-129229620D01*
G37*
%TO.C,kibuzzard-641EE450*%
G36*
X180663329Y-125992091D02*
G01*
X180653731Y-126056794D01*
X180637837Y-126120244D01*
X180615801Y-126181832D01*
X180587834Y-126240962D01*
X180554206Y-126297067D01*
X180515241Y-126349606D01*
X180471314Y-126398072D01*
X180422847Y-126441999D01*
X180370309Y-126480965D01*
X180314204Y-126514593D01*
X180255073Y-126542559D01*
X180193486Y-126564596D01*
X180130035Y-126580489D01*
X180065332Y-126590087D01*
X180000000Y-126593297D01*
X179934668Y-126590087D01*
X179869965Y-126580489D01*
X179806514Y-126564596D01*
X179744927Y-126542559D01*
X179685796Y-126514593D01*
X179629691Y-126480965D01*
X179577153Y-126441999D01*
X179528686Y-126398072D01*
X179484759Y-126349606D01*
X179445794Y-126297067D01*
X179412166Y-126240962D01*
X179384199Y-126181832D01*
X179362163Y-126120244D01*
X179346269Y-126056794D01*
X179336671Y-125992091D01*
X179333462Y-125926758D01*
X179333462Y-125662175D01*
X179615825Y-125662175D01*
X179745365Y-125662175D01*
X179745365Y-125490725D01*
X180272415Y-125490725D01*
X180272415Y-125662175D01*
X180401955Y-125662175D01*
X180401955Y-125163065D01*
X180272415Y-125163065D01*
X180272415Y-125333245D01*
X179745365Y-125333245D01*
X179745365Y-125163065D01*
X179615825Y-125163065D01*
X179615825Y-125662175D01*
X179333462Y-125662175D01*
X179333462Y-125037335D01*
X179615825Y-125037335D01*
X180401955Y-125037335D01*
X180401955Y-124896365D01*
X179879985Y-124896365D01*
X179967121Y-124849163D01*
X180054116Y-124804078D01*
X180140970Y-124761110D01*
X180227824Y-124720258D01*
X180314819Y-124681523D01*
X180401955Y-124644905D01*
X180401955Y-124519175D01*
X179615825Y-124519175D01*
X179615825Y-124660145D01*
X180099695Y-124660145D01*
X180050165Y-124682529D01*
X179993015Y-124709040D01*
X179931102Y-124738885D01*
X179867285Y-124771270D01*
X179802356Y-124805401D01*
X179737110Y-124840485D01*
X179674086Y-124876045D01*
X179615825Y-124911605D01*
X179615825Y-125037335D01*
X179333462Y-125037335D01*
X179333462Y-124155955D01*
X179598045Y-124155955D01*
X179604395Y-124222154D01*
X179623445Y-124288670D01*
X179655830Y-124351376D01*
X179702185Y-124406145D01*
X179811405Y-124328675D01*
X179751715Y-124248665D01*
X179733935Y-124171195D01*
X179759970Y-124097535D01*
X179834265Y-124068325D01*
X179901575Y-124091820D01*
X179970155Y-124151510D01*
X180006509Y-124188975D01*
X180044450Y-124228980D01*
X180084773Y-124268985D01*
X180128270Y-124306450D01*
X180175419Y-124339470D01*
X180226695Y-124366140D01*
X180282575Y-124383761D01*
X180343535Y-124389635D01*
X180370205Y-124390270D01*
X180401955Y-124387095D01*
X180401955Y-123874015D01*
X180272415Y-123874015D01*
X180272415Y-124211835D01*
X180230505Y-124198500D01*
X180185420Y-124166115D01*
X180142240Y-124125475D01*
X180106045Y-124087375D01*
X180042545Y-124022605D01*
X179973965Y-123965455D01*
X179900940Y-123924815D01*
X179822835Y-123909575D01*
X179724410Y-123929895D01*
X179653925Y-123984505D01*
X179612015Y-124063245D01*
X179598045Y-124155955D01*
X179333462Y-124155955D01*
X179333462Y-123122175D01*
X179615825Y-123122175D01*
X179745365Y-123122175D01*
X179745365Y-122950725D01*
X180272415Y-122950725D01*
X180272415Y-123122175D01*
X180401955Y-123122175D01*
X180401955Y-122623065D01*
X180272415Y-122623065D01*
X180272415Y-122793245D01*
X179745365Y-122793245D01*
X179745365Y-122623065D01*
X179615825Y-122623065D01*
X179615825Y-123122175D01*
X179333462Y-123122175D01*
X179333462Y-122497335D01*
X179615825Y-122497335D01*
X180401955Y-122497335D01*
X180401955Y-122356365D01*
X179879985Y-122356365D01*
X179967121Y-122309163D01*
X180054116Y-122264078D01*
X180140970Y-122221110D01*
X180227824Y-122180258D01*
X180314819Y-122141523D01*
X180401955Y-122104905D01*
X180401955Y-121979175D01*
X179615825Y-121979175D01*
X179615825Y-122120145D01*
X180099695Y-122120145D01*
X180050165Y-122142529D01*
X179993015Y-122169040D01*
X179931102Y-122198885D01*
X179867285Y-122231270D01*
X179802356Y-122265401D01*
X179737110Y-122300485D01*
X179674086Y-122336045D01*
X179615825Y-122371605D01*
X179615825Y-122497335D01*
X179333462Y-122497335D01*
X179333462Y-121600715D01*
X179615825Y-121600715D01*
X179665355Y-121655325D01*
X179711075Y-121722635D01*
X179750445Y-121793755D01*
X179779655Y-121859795D01*
X179909195Y-121808995D01*
X179878080Y-121731525D01*
X179832995Y-121650245D01*
X180272415Y-121650245D01*
X180272415Y-121815345D01*
X180401955Y-121815345D01*
X180401955Y-121337825D01*
X180272415Y-121337825D01*
X180272415Y-121494035D01*
X179615825Y-121494035D01*
X179615825Y-121600715D01*
X179333462Y-121600715D01*
X179333462Y-121073242D01*
X179336671Y-121007909D01*
X179346269Y-120943206D01*
X179362163Y-120879756D01*
X179384199Y-120818168D01*
X179412166Y-120759038D01*
X179445794Y-120702933D01*
X179484759Y-120650394D01*
X179528686Y-120601928D01*
X179577153Y-120558001D01*
X179629691Y-120519035D01*
X179685796Y-120485407D01*
X179744927Y-120457441D01*
X179806514Y-120435404D01*
X179869965Y-120419511D01*
X179934668Y-120409913D01*
X180000000Y-120406703D01*
X180065332Y-120409913D01*
X180130035Y-120419511D01*
X180193486Y-120435404D01*
X180255073Y-120457441D01*
X180314204Y-120485407D01*
X180370309Y-120519035D01*
X180422847Y-120558001D01*
X180471314Y-120601928D01*
X180515241Y-120650394D01*
X180554206Y-120702933D01*
X180587834Y-120759038D01*
X180615801Y-120818168D01*
X180637837Y-120879756D01*
X180653731Y-120943206D01*
X180663329Y-121007909D01*
X180666538Y-121073242D01*
X180666538Y-125926758D01*
X180663329Y-125992091D01*
G37*
%TO.C,R4*%
X157440000Y-117004724D02*
X157440000Y-116495276D01*
X156395000Y-117004724D02*
X156395000Y-116495276D01*
%TO.C,R3*%
X158092224Y-120022500D02*
X157582776Y-120022500D01*
X158092224Y-118977500D02*
X157582776Y-118977500D01*
%TO.C,J4*%
X165770000Y-105830000D02*
X178530000Y-105830000D01*
X178530000Y-105830000D02*
X178530000Y-103170000D01*
X163170000Y-103170000D02*
X164500000Y-103170000D01*
X165770000Y-105830000D02*
X165770000Y-103170000D01*
X163170000Y-104500000D02*
X163170000Y-103170000D01*
X165770000Y-103170000D02*
X178530000Y-103170000D01*
%TO.C,R2*%
X167532500Y-82674724D02*
X167532500Y-82165276D01*
X166487500Y-82674724D02*
X166487500Y-82165276D01*
%TO.C,D3*%
X164275000Y-84035000D02*
X165745000Y-84035000D01*
X165745000Y-84035000D02*
X165745000Y-81575000D01*
X164275000Y-81575000D02*
X164275000Y-84035000D01*
%TO.C,J5*%
X153190000Y-106080000D02*
X160810000Y-106080000D01*
X160810000Y-95920000D02*
X153190000Y-95920000D01*
X159540000Y-95920000D02*
X159540000Y-106080000D01*
X160810000Y-106080000D02*
X160810000Y-95920000D01*
X153190000Y-95920000D02*
X153190000Y-106080000D01*
%TO.C,R1*%
X160022936Y-126045000D02*
X160477064Y-126045000D01*
X160022936Y-127515000D02*
X160477064Y-127515000D01*
%TO.C,U3*%
X160450000Y-128240000D02*
X161250000Y-128240000D01*
X160450000Y-128240000D02*
X158650000Y-128240000D01*
X160450000Y-131360000D02*
X159650000Y-131360000D01*
X160450000Y-131360000D02*
X161250000Y-131360000D01*
%TO.C,J1*%
X178830000Y-83810000D02*
X178830000Y-76190000D01*
X178830000Y-76190000D02*
X168670000Y-76190000D01*
X168670000Y-76190000D02*
X168670000Y-83810000D01*
X178830000Y-82540000D02*
X168670000Y-82540000D01*
X168670000Y-83810000D02*
X178830000Y-83810000D01*
%TO.C,J2*%
X163330000Y-82540000D02*
X153170000Y-82540000D01*
X153170000Y-76190000D02*
X153170000Y-83810000D01*
X153170000Y-83810000D02*
X163330000Y-83810000D01*
X163330000Y-76190000D02*
X153170000Y-76190000D01*
X163330000Y-83810000D02*
X163330000Y-76190000D01*
%TO.C,J3*%
X163170000Y-87945000D02*
X163170000Y-90605000D01*
X175930000Y-87945000D02*
X175930000Y-90605000D01*
X175930000Y-90605000D02*
X163170000Y-90605000D01*
X178530000Y-90605000D02*
X177200000Y-90605000D01*
X178530000Y-89275000D02*
X178530000Y-90605000D01*
X175930000Y-87945000D02*
X163170000Y-87945000D01*
%TO.C,D1*%
X167300000Y-124544420D02*
X160400000Y-124544420D01*
X167300000Y-121244420D02*
X160400000Y-121244420D01*
X167300000Y-124544420D02*
X167300000Y-121244420D01*
%TO.C,Q1*%
X171700000Y-128240000D02*
X170025000Y-128240000D01*
X171700000Y-128240000D02*
X172350000Y-128240000D01*
X171700000Y-131360000D02*
X172350000Y-131360000D01*
X171700000Y-131360000D02*
X171050000Y-131360000D01*
%TO.C,C1*%
X164053733Y-127510000D02*
X164346267Y-127510000D01*
X164053733Y-126490000D02*
X164346267Y-126490000D01*
%TO.C,U1*%
X178880000Y-143120000D02*
X178880000Y-110790000D01*
X155560000Y-136220000D02*
X155560000Y-143120000D01*
X155560000Y-143120000D02*
X178880000Y-143120000D01*
X176760000Y-108660000D02*
X155150000Y-108660000D01*
X153020000Y-136220000D02*
X153020000Y-110790000D01*
X153020000Y-136220000D02*
X155560000Y-136220000D01*
X178880000Y-110790000D02*
G75*
G03*
X176750000Y-108660000I-2130000J0D01*
G01*
X155150000Y-108660000D02*
G75*
G03*
X153020000Y-110790000I2J-2130002D01*
G01*
G36*
X152615000Y-117000000D02*
G01*
X151980000Y-117635000D01*
X151980000Y-116365000D01*
X152615000Y-117000000D01*
G37*
D10*
X152615000Y-117000000D02*
X151980000Y-117635000D01*
X151980000Y-116365000D01*
X152615000Y-117000000D01*
D11*
%TO.C,C4*%
X168835000Y-131503733D02*
X168835000Y-131796267D01*
X167815000Y-131503733D02*
X167815000Y-131796267D01*
%TO.C,D2*%
X173150000Y-118800000D02*
X169850000Y-118800000D01*
X169850000Y-118800000D02*
X169850000Y-125700000D01*
X173150000Y-118800000D02*
X173150000Y-125700000D01*
%TO.C,C3*%
X165630000Y-131503733D02*
X165630000Y-131796267D01*
X166650000Y-131503733D02*
X166650000Y-131796267D01*
%TO.C,C2*%
X164465000Y-131503733D02*
X164465000Y-131796267D01*
X163445000Y-131503733D02*
X163445000Y-131796267D01*
%TD*%
M02*
