%TF.GenerationSoftware,KiCad,Pcbnew,(6.0.6-0)*%
%TF.CreationDate,2023-03-25T13:57:32+01:00*%
%TF.ProjectId,bubblebutbot,62756262-6c65-4627-9574-626f742e6b69,rev?*%
%TF.SameCoordinates,Original*%
%TF.FileFunction,Copper,L1,Top*%
%TF.FilePolarity,Positive*%
%FSLAX46Y46*%
G04 Gerber Fmt 4.6, Leading zero omitted, Abs format (unit mm)*
G04 Created by KiCad (PCBNEW (6.0.6-0)) date 2023-03-25 13:57:32*
%MOMM*%
%LPD*%
G01*
G04 APERTURE LIST*
G04 Aperture macros list*
%AMRoundRect*
0 Rectangle with rounded corners*
0 $1 Rounding radius*
0 $2 $3 $4 $5 $6 $7 $8 $9 X,Y pos of 4 corners*
0 Add a 4 corners polygon primitive as box body*
4,1,4,$2,$3,$4,$5,$6,$7,$8,$9,$2,$3,0*
0 Add four circle primitives for the rounded corners*
1,1,$1+$1,$2,$3*
1,1,$1+$1,$4,$5*
1,1,$1+$1,$6,$7*
1,1,$1+$1,$8,$9*
0 Add four rect primitives between the rounded corners*
20,1,$1+$1,$2,$3,$4,$5,0*
20,1,$1+$1,$4,$5,$6,$7,0*
20,1,$1+$1,$6,$7,$8,$9,0*
20,1,$1+$1,$8,$9,$2,$3,0*%
G04 Aperture macros list end*
%TA.AperFunction,ComponentPad*%
%ADD10C,3.000000*%
%TD*%
%TA.AperFunction,ComponentPad*%
%ADD11R,3.000000X3.000000*%
%TD*%
%TA.AperFunction,SMDPad,CuDef*%
%ADD12RoundRect,0.237500X0.237500X-0.250000X0.237500X0.250000X-0.237500X0.250000X-0.237500X-0.250000X0*%
%TD*%
%TA.AperFunction,SMDPad,CuDef*%
%ADD13RoundRect,0.237500X0.250000X0.237500X-0.250000X0.237500X-0.250000X-0.237500X0.250000X-0.237500X0*%
%TD*%
%TA.AperFunction,ComponentPad*%
%ADD14O,1.700000X1.700000*%
%TD*%
%TA.AperFunction,ComponentPad*%
%ADD15R,1.700000X1.700000*%
%TD*%
%TA.AperFunction,SMDPad,CuDef*%
%ADD16RoundRect,0.237500X0.237500X-0.287500X0.237500X0.287500X-0.237500X0.287500X-0.237500X-0.287500X0*%
%TD*%
%TA.AperFunction,ComponentPad*%
%ADD17C,5.500000*%
%TD*%
%TA.AperFunction,SMDPad,CuDef*%
%ADD18RoundRect,0.250000X-0.350000X-0.450000X0.350000X-0.450000X0.350000X0.450000X-0.350000X0.450000X0*%
%TD*%
%TA.AperFunction,SMDPad,CuDef*%
%ADD19RoundRect,0.150000X-0.512500X-0.150000X0.512500X-0.150000X0.512500X0.150000X-0.512500X0.150000X0*%
%TD*%
%TA.AperFunction,SMDPad,CuDef*%
%ADD20R,3.500000X1.800000*%
%TD*%
%TA.AperFunction,SMDPad,CuDef*%
%ADD21RoundRect,0.150000X-0.587500X-0.150000X0.587500X-0.150000X0.587500X0.150000X-0.587500X0.150000X0*%
%TD*%
%TA.AperFunction,SMDPad,CuDef*%
%ADD22RoundRect,0.237500X-0.300000X-0.237500X0.300000X-0.237500X0.300000X0.237500X-0.300000X0.237500X0*%
%TD*%
%TA.AperFunction,ComponentPad*%
%ADD23R,2.000000X2.000000*%
%TD*%
%TA.AperFunction,ComponentPad*%
%ADD24O,2.000000X1.600000*%
%TD*%
%TA.AperFunction,SMDPad,CuDef*%
%ADD25RoundRect,0.237500X-0.237500X0.300000X-0.237500X-0.300000X0.237500X-0.300000X0.237500X0.300000X0*%
%TD*%
%TA.AperFunction,SMDPad,CuDef*%
%ADD26R,1.800000X3.500000*%
%TD*%
%TA.AperFunction,ViaPad*%
%ADD27C,0.800000*%
%TD*%
%TA.AperFunction,Conductor*%
%ADD28C,0.250000*%
%TD*%
%TA.AperFunction,Conductor*%
%ADD29C,0.350000*%
%TD*%
G04 APERTURE END LIST*
D10*
%TO.P,J6,2,Pin_2*%
%TO.N,SPLY*%
X157000000Y-87210000D03*
D11*
%TO.P,J6,1,Pin_1*%
%TO.N,SERVO_PWM*%
X157000000Y-92290000D03*
%TD*%
D12*
%TO.P,R4,2*%
%TO.N,GND*%
X156917500Y-115837500D03*
%TO.P,R4,1*%
%TO.N,BATTERY_LVL*%
X156917500Y-117662500D03*
%TD*%
D13*
%TO.P,R3,1*%
%TO.N,Net-(D1-Pad2)*%
X158750000Y-119500000D03*
%TO.P,R3,2*%
%TO.N,BATTERY_LVL*%
X156925000Y-119500000D03*
%TD*%
D14*
%TO.P,J4,6,Pin_6*%
%TO.N,IN4*%
X177200000Y-104500000D03*
%TO.P,J4,5,Pin_5*%
%TO.N,IN3*%
X174660000Y-104500000D03*
%TO.P,J4,4,Pin_4*%
%TO.N,GND*%
X172120000Y-104500000D03*
%TO.P,J4,3,Pin_3*%
%TO.N,SPLY*%
X169580000Y-104500000D03*
%TO.P,J4,2,Pin_2*%
%TO.N,IN2*%
X167040000Y-104500000D03*
D15*
%TO.P,J4,1,Pin_1*%
%TO.N,IN1*%
X164500000Y-104500000D03*
%TD*%
D12*
%TO.P,R2,2*%
%TO.N,Net-(D3-Pad2)*%
X167010000Y-81507500D03*
%TO.P,R2,1*%
%TO.N,Net-(U1-Pad6)*%
X167010000Y-83332500D03*
%TD*%
D16*
%TO.P,D3,2,A*%
%TO.N,Net-(D3-Pad2)*%
X165010000Y-81500000D03*
%TO.P,D3,1,K*%
%TO.N,GND*%
X165010000Y-83250000D03*
%TD*%
D17*
%TO.P,H2,1*%
%TO.N,N/C*%
X159300000Y-139700000D03*
%TD*%
%TO.P,H1,1*%
%TO.N,N/C*%
X170180800Y-96887500D03*
%TD*%
D11*
%TO.P,J5,1,Pin_1*%
%TO.N,GND*%
X157000000Y-103540000D03*
D10*
%TO.P,J5,2,Pin_2*%
%TO.N,Net-(D1-Pad2)*%
X157000000Y-98460000D03*
%TD*%
D18*
%TO.P,R1,2*%
%TO.N,Net-(C1-Pad1)*%
X161250000Y-126780000D03*
%TO.P,R1,1*%
%TO.N,Net-(D1-Pad2)*%
X159250000Y-126780000D03*
%TD*%
D19*
%TO.P,U3,1,SW*%
%TO.N,Net-(D1-Pad2)*%
X159312500Y-128850000D03*
%TO.P,U3,2,GND*%
%TO.N,GND*%
X159312500Y-129800000D03*
%TO.P,U3,3,NC*%
%TO.N,unconnected-(U3-Pad3)*%
X159312500Y-130750000D03*
%TO.P,U3,4,VOUT*%
%TO.N,Net-(C1-Pad2)*%
X161587500Y-130750000D03*
%TO.P,U3,5,NC*%
%TO.N,unconnected-(U3-Pad5)*%
X161587500Y-128850000D03*
%TD*%
D11*
%TO.P,J1,1,Pin_1*%
%TO.N,Net-(J1-Pad1)*%
X171210000Y-80000000D03*
D10*
%TO.P,J1,2,Pin_2*%
%TO.N,Net-(J1-Pad2)*%
X176290000Y-80000000D03*
%TD*%
D11*
%TO.P,J2,1,Pin_1*%
%TO.N,Net-(J2-Pad1)*%
X155710000Y-80000000D03*
D10*
%TO.P,J2,2,Pin_2*%
%TO.N,Net-(J2-Pad2)*%
X160790000Y-80000000D03*
%TD*%
D14*
%TO.P,J3,6,Pin_6*%
%TO.N,unconnected-(J3-Pad6)*%
X164500000Y-89275000D03*
%TO.P,J3,5,Pin_5*%
%TO.N,Net-(J2-Pad1)*%
X167040000Y-89275000D03*
%TO.P,J3,4,Pin_4*%
%TO.N,Net-(J2-Pad2)*%
X169580000Y-89275000D03*
%TO.P,J3,3,Pin_3*%
%TO.N,Net-(J1-Pad1)*%
X172120000Y-89275000D03*
%TO.P,J3,2,Pin_2*%
%TO.N,Net-(J1-Pad2)*%
X174660000Y-89275000D03*
D15*
%TO.P,J3,1,Pin_1*%
%TO.N,unconnected-(J3-Pad1)*%
X177200000Y-89275000D03*
%TD*%
D20*
%TO.P,D1,2,A*%
%TO.N,Net-(D1-Pad2)*%
X160400000Y-122894420D03*
%TO.P,D1,1,K*%
%TO.N,Net-(C1-Pad2)*%
X165400000Y-122894420D03*
%TD*%
D21*
%TO.P,Q1,1,G*%
%TO.N,WEMOS_USB_POWER*%
X170762500Y-128850000D03*
%TO.P,Q1,2,S*%
%TO.N,Net-(C1-Pad2)*%
X170762500Y-130750000D03*
%TO.P,Q1,3,D*%
%TO.N,SPLY*%
X172637500Y-129800000D03*
%TD*%
D22*
%TO.P,C1,1*%
%TO.N,Net-(C1-Pad1)*%
X163337500Y-127000000D03*
%TO.P,C1,2*%
%TO.N,Net-(C1-Pad2)*%
X165062500Y-127000000D03*
%TD*%
D23*
%TO.P,U1,1,~{RST}*%
%TO.N,unconnected-(U1-Pad1)*%
X154520000Y-117000000D03*
D24*
%TO.P,U1,2,A0*%
%TO.N,BATTERY_LVL*%
X154520000Y-119540000D03*
%TO.P,U1,3,D0*%
%TO.N,unconnected-(U1-Pad3)*%
X154520000Y-122080000D03*
%TO.P,U1,4,SCK/D5*%
%TO.N,IN3*%
X154520000Y-124620000D03*
%TO.P,U1,5,MISO/D6*%
%TO.N,SERVO_PWM*%
X154520000Y-127160000D03*
%TO.P,U1,6,MOSI/D7*%
%TO.N,Net-(U1-Pad6)*%
X154520000Y-129700000D03*
%TO.P,U1,7,CS/D8*%
%TO.N,unconnected-(U1-Pad7)*%
X154520000Y-132240000D03*
%TO.P,U1,8,3V3*%
%TO.N,unconnected-(U1-Pad8)*%
X154520000Y-134780000D03*
%TO.P,U1,9,5V*%
%TO.N,WEMOS_USB_POWER*%
X177380000Y-134780000D03*
%TO.P,U1,10,GND*%
%TO.N,GND*%
X177380000Y-132240000D03*
%TO.P,U1,11,D4*%
%TO.N,IN4*%
X177380000Y-129700000D03*
%TO.P,U1,12,D3*%
%TO.N,unconnected-(U1-Pad12)*%
X177380000Y-127160000D03*
%TO.P,U1,13,SDA/D2*%
%TO.N,IN2*%
X177380000Y-124620000D03*
%TO.P,U1,14,SCL/D1*%
%TO.N,IN1*%
X177380000Y-122080000D03*
%TO.P,U1,15,RX*%
%TO.N,unconnected-(U1-Pad15)*%
X177380000Y-119540000D03*
%TO.P,U1,16,TX*%
%TO.N,unconnected-(U1-Pad16)*%
X177380000Y-117000000D03*
%TD*%
D25*
%TO.P,C4,1*%
%TO.N,Net-(C1-Pad2)*%
X168325000Y-130787500D03*
%TO.P,C4,2*%
%TO.N,GND*%
X168325000Y-132512500D03*
%TD*%
D26*
%TO.P,D2,1,K*%
%TO.N,SPLY*%
X171500000Y-120700000D03*
%TO.P,D2,2,A*%
%TO.N,WEMOS_USB_POWER*%
X171500000Y-125700000D03*
%TD*%
D25*
%TO.P,C3,1*%
%TO.N,Net-(C1-Pad2)*%
X166140000Y-130787500D03*
%TO.P,C3,2*%
%TO.N,GND*%
X166140000Y-132512500D03*
%TD*%
%TO.P,C2,1*%
%TO.N,Net-(C1-Pad2)*%
X163955000Y-130787500D03*
%TO.P,C2,2*%
%TO.N,GND*%
X163955000Y-132512500D03*
%TD*%
D27*
%TO.N,IN3*%
X162750000Y-117750000D03*
X168250000Y-112250000D03*
%TO.N,WEMOS_USB_POWER*%
X169250000Y-128750000D03*
%TD*%
D28*
%TO.N,Net-(U1-Pad6)*%
X154520000Y-129700000D02*
X152433557Y-127613557D01*
X152433557Y-127613557D02*
X152433557Y-86566443D01*
X152433557Y-86566443D02*
X154900000Y-84100000D01*
X154900000Y-84100000D02*
X166500000Y-84100000D01*
X166500000Y-84100000D02*
X167267500Y-83332500D01*
%TO.N,SERVO_PWM*%
X152883557Y-95406443D02*
X156000000Y-92290000D01*
X156000000Y-92290000D02*
X157000000Y-92290000D01*
D29*
%TO.N,SPLY*%
X169580000Y-104500000D02*
X163000000Y-97920000D01*
X163000000Y-91000000D02*
X159210000Y-87210000D01*
X159210000Y-87210000D02*
X157000000Y-87210000D01*
X163000000Y-97920000D02*
X163000000Y-91000000D01*
%TO.N,Net-(D1-Pad2)*%
X160400000Y-122894420D02*
X160400000Y-101860000D01*
X160400000Y-101860000D02*
X157000000Y-98460000D01*
D28*
%TO.N,SERVO_PWM*%
X154520000Y-127160000D02*
X152883557Y-125523557D01*
X152883557Y-125523557D02*
X152883557Y-95406443D01*
%TO.N,Net-(D3-Pad2)*%
X165010000Y-81500000D02*
X167002500Y-81500000D01*
X167002500Y-81500000D02*
X167010000Y-81507500D01*
%TO.N,BATTERY_LVL*%
X156925000Y-119500000D02*
X156925000Y-117670000D01*
X156925000Y-117670000D02*
X156917500Y-117662500D01*
X156837500Y-119500000D02*
X154560000Y-119500000D01*
%TO.N,Net-(D1-Pad2)*%
X158662500Y-119500000D02*
X160400000Y-121237500D01*
X160400000Y-121237500D02*
X160400000Y-122894420D01*
%TO.N,IN3*%
X168250000Y-112250000D02*
X162750000Y-117750000D01*
D29*
%TO.N,SPLY*%
X171500000Y-120700000D02*
X171500000Y-106420000D01*
X171500000Y-106420000D02*
X169580000Y-104500000D01*
%TO.N,WEMOS_USB_POWER*%
X169350000Y-128850000D02*
X169250000Y-128750000D01*
X170762500Y-128850000D02*
X169350000Y-128850000D01*
%TO.N,SPLY*%
X171500000Y-120700000D02*
X172775000Y-121975000D01*
X172775000Y-121975000D02*
X172775000Y-129662500D01*
X172775000Y-129662500D02*
X172637500Y-129800000D01*
%TO.N,WEMOS_USB_POWER*%
X170762500Y-128850000D02*
X170762500Y-126437500D01*
X170762500Y-126437500D02*
X171500000Y-125700000D01*
D28*
%TO.N,Net-(C1-Pad1)*%
X161250000Y-126780000D02*
X163117500Y-126780000D01*
X163117500Y-126780000D02*
X163337500Y-127000000D01*
%TD*%
%TA.AperFunction,Conductor*%
%TO.N,GND*%
G36*
X177980242Y-74202466D02*
G01*
X177985811Y-74202476D01*
X177999641Y-74205656D01*
X178013481Y-74202524D01*
X178027670Y-74202549D01*
X178027669Y-74203161D01*
X178035608Y-74202500D01*
X178185047Y-74210892D01*
X178306384Y-74217706D01*
X178320416Y-74219287D01*
X178615972Y-74269504D01*
X178629743Y-74272647D01*
X178917820Y-74355641D01*
X178931151Y-74360306D01*
X179208125Y-74475032D01*
X179220848Y-74481159D01*
X179332841Y-74543056D01*
X179483228Y-74626172D01*
X179495192Y-74633689D01*
X179739691Y-74807170D01*
X179750738Y-74815980D01*
X179974269Y-75015740D01*
X179984260Y-75025731D01*
X180184020Y-75249262D01*
X180192830Y-75260309D01*
X180366311Y-75504808D01*
X180373828Y-75516772D01*
X180518839Y-75779148D01*
X180524970Y-75791879D01*
X180639692Y-76068843D01*
X180644359Y-76082180D01*
X180727353Y-76370257D01*
X180730496Y-76384028D01*
X180778235Y-76664998D01*
X180780712Y-76679579D01*
X180782294Y-76693620D01*
X180797469Y-76963825D01*
X180796803Y-76971621D01*
X180797549Y-76971622D01*
X180797524Y-76985813D01*
X180794344Y-76999641D01*
X180797475Y-77013480D01*
X180797467Y-77018311D01*
X180799500Y-77036504D01*
X180799500Y-140462920D01*
X180797534Y-140480242D01*
X180797524Y-140485811D01*
X180794344Y-140499641D01*
X180797476Y-140513481D01*
X180797451Y-140527670D01*
X180796839Y-140527669D01*
X180797500Y-140535608D01*
X180782294Y-140806380D01*
X180780713Y-140820416D01*
X180762040Y-140930318D01*
X180730497Y-141115968D01*
X180727353Y-141129743D01*
X180644359Y-141417820D01*
X180639694Y-141431151D01*
X180626857Y-141462143D01*
X180524970Y-141708121D01*
X180518839Y-141720852D01*
X180373828Y-141983228D01*
X180366311Y-141995192D01*
X180192830Y-142239691D01*
X180184020Y-142250738D01*
X179984260Y-142474269D01*
X179974269Y-142484260D01*
X179750738Y-142684020D01*
X179739691Y-142692830D01*
X179495192Y-142866311D01*
X179483228Y-142873828D01*
X179468987Y-142881699D01*
X179220848Y-143018841D01*
X179208125Y-143024968D01*
X178931151Y-143139694D01*
X178917820Y-143144359D01*
X178629743Y-143227353D01*
X178615972Y-143230496D01*
X178320416Y-143280713D01*
X178306384Y-143282294D01*
X178036172Y-143297469D01*
X178028379Y-143296803D01*
X178028378Y-143297549D01*
X178014187Y-143297524D01*
X178000359Y-143294344D01*
X177986520Y-143297475D01*
X177981689Y-143297467D01*
X177963496Y-143299500D01*
X154037080Y-143299500D01*
X154019758Y-143297534D01*
X154014189Y-143297524D01*
X154000359Y-143294344D01*
X153986519Y-143297476D01*
X153972330Y-143297451D01*
X153972331Y-143296839D01*
X153964392Y-143297500D01*
X153814953Y-143289108D01*
X153693616Y-143282294D01*
X153679584Y-143280713D01*
X153384028Y-143230496D01*
X153370257Y-143227353D01*
X153082180Y-143144359D01*
X153068849Y-143139694D01*
X152791875Y-143024968D01*
X152779152Y-143018841D01*
X152531013Y-142881699D01*
X152516772Y-142873828D01*
X152504808Y-142866311D01*
X152260309Y-142692830D01*
X152249262Y-142684020D01*
X152025731Y-142484260D01*
X152015740Y-142474269D01*
X151815980Y-142250738D01*
X151807170Y-142239691D01*
X151633689Y-141995192D01*
X151626172Y-141983228D01*
X151481161Y-141720852D01*
X151475030Y-141708121D01*
X151373143Y-141462143D01*
X151360306Y-141431151D01*
X151355641Y-141417820D01*
X151272647Y-141129743D01*
X151269503Y-141115968D01*
X151237960Y-140930318D01*
X151219287Y-140820416D01*
X151217706Y-140806380D01*
X151202548Y-140536456D01*
X151204382Y-140514897D01*
X151203227Y-140514764D01*
X151204043Y-140507674D01*
X151205655Y-140500718D01*
X151205656Y-140500000D01*
X151203654Y-140491225D01*
X151200500Y-140463210D01*
X151200500Y-139607166D01*
X156345958Y-139607166D01*
X156354865Y-139947310D01*
X156402809Y-140284176D01*
X156489152Y-140613300D01*
X156612753Y-140930318D01*
X156771971Y-141231029D01*
X156774021Y-141234012D01*
X156774023Y-141234015D01*
X156962640Y-141508455D01*
X156962646Y-141508462D01*
X156964697Y-141511447D01*
X157188376Y-141767855D01*
X157440044Y-141996855D01*
X157716364Y-142195411D01*
X158013674Y-142360892D01*
X158328035Y-142491104D01*
X158331529Y-142492099D01*
X158331531Y-142492100D01*
X158651777Y-142583325D01*
X158651782Y-142583326D01*
X158655278Y-142584322D01*
X158848204Y-142615915D01*
X158987485Y-142638723D01*
X158987492Y-142638724D01*
X158991066Y-142639309D01*
X159161008Y-142647324D01*
X159327322Y-142655167D01*
X159327323Y-142655167D01*
X159330949Y-142655338D01*
X159340272Y-142654702D01*
X159666791Y-142632443D01*
X159666799Y-142632442D01*
X159670422Y-142632195D01*
X159673998Y-142631532D01*
X159674000Y-142631532D01*
X160001421Y-142570848D01*
X160001425Y-142570847D01*
X160004986Y-142570187D01*
X160330205Y-142470137D01*
X160641769Y-142333370D01*
X160935549Y-142161699D01*
X160938458Y-142159515D01*
X161204743Y-141959582D01*
X161204747Y-141959579D01*
X161207650Y-141957399D01*
X161454467Y-141723179D01*
X161672727Y-141462143D01*
X161822579Y-141234015D01*
X161857551Y-141180776D01*
X161857556Y-141180767D01*
X161859538Y-141177750D01*
X161985685Y-140926936D01*
X162010797Y-140877007D01*
X162010800Y-140876999D01*
X162012424Y-140873771D01*
X162013669Y-140870369D01*
X162128110Y-140557645D01*
X162128113Y-140557635D01*
X162129358Y-140554233D01*
X162130203Y-140550711D01*
X162130206Y-140550703D01*
X162207943Y-140226903D01*
X162207944Y-140226899D01*
X162208790Y-140223374D01*
X162241763Y-139950901D01*
X162249332Y-139888356D01*
X162249333Y-139888349D01*
X162249668Y-139885577D01*
X162255500Y-139700000D01*
X162250147Y-139607166D01*
X162236122Y-139363923D01*
X162236121Y-139363918D01*
X162235913Y-139360303D01*
X162177412Y-139025109D01*
X162151793Y-138938618D01*
X162081805Y-138702345D01*
X162080773Y-138698860D01*
X162043728Y-138612008D01*
X161948699Y-138389218D01*
X161947276Y-138385881D01*
X161778691Y-138090319D01*
X161577252Y-137816093D01*
X161345629Y-137566838D01*
X161342875Y-137564486D01*
X161342871Y-137564482D01*
X161247831Y-137483310D01*
X161086893Y-137345856D01*
X161083890Y-137343838D01*
X161083882Y-137343832D01*
X160908072Y-137225694D01*
X160804472Y-137156077D01*
X160502110Y-137000016D01*
X160183815Y-136879743D01*
X159853805Y-136796850D01*
X159711627Y-136778132D01*
X159520059Y-136752911D01*
X159520051Y-136752910D01*
X159516455Y-136752437D01*
X159374428Y-136750206D01*
X159179879Y-136747149D01*
X159179875Y-136747149D01*
X159176237Y-136747092D01*
X159172623Y-136747453D01*
X159172617Y-136747453D01*
X158935277Y-136771143D01*
X158837658Y-136780887D01*
X158505207Y-136853373D01*
X158501780Y-136854546D01*
X158501774Y-136854548D01*
X158186718Y-136962416D01*
X158183292Y-136963589D01*
X157876177Y-137110076D01*
X157587934Y-137290890D01*
X157585098Y-137293162D01*
X157585091Y-137293167D01*
X157430760Y-137416809D01*
X157322384Y-137503635D01*
X157083047Y-137745493D01*
X157080811Y-137748345D01*
X157080809Y-137748347D01*
X156875331Y-138010403D01*
X156873094Y-138013256D01*
X156695308Y-138303376D01*
X156693783Y-138306661D01*
X156693781Y-138306665D01*
X156584394Y-138542320D01*
X156552046Y-138612008D01*
X156445206Y-138935060D01*
X156376206Y-139268252D01*
X156345958Y-139607166D01*
X151200500Y-139607166D01*
X151200500Y-134829126D01*
X153315541Y-134829126D01*
X153345935Y-135030097D01*
X153416119Y-135220852D01*
X153419479Y-135226272D01*
X153419480Y-135226273D01*
X153519863Y-135388176D01*
X153519866Y-135388180D01*
X153523226Y-135393599D01*
X153662881Y-135541280D01*
X153829379Y-135657863D01*
X154015919Y-135738586D01*
X154061947Y-135748202D01*
X154210144Y-135779162D01*
X154210149Y-135779163D01*
X154214880Y-135780151D01*
X154219762Y-135780407D01*
X154219871Y-135780413D01*
X154219887Y-135780413D01*
X154221539Y-135780500D01*
X154770800Y-135780500D01*
X154818793Y-135775625D01*
X154915868Y-135765765D01*
X154915870Y-135765765D01*
X154922216Y-135765120D01*
X155116172Y-135704338D01*
X155293944Y-135605797D01*
X155448271Y-135473523D01*
X155572848Y-135312919D01*
X155662587Y-135130545D01*
X155688752Y-135030097D01*
X155712212Y-134940034D01*
X155712212Y-134940031D01*
X155713822Y-134933852D01*
X155719310Y-134829126D01*
X176175541Y-134829126D01*
X176205935Y-135030097D01*
X176276119Y-135220852D01*
X176279479Y-135226272D01*
X176279480Y-135226273D01*
X176379863Y-135388176D01*
X176379866Y-135388180D01*
X176383226Y-135393599D01*
X176522881Y-135541280D01*
X176689379Y-135657863D01*
X176875919Y-135738586D01*
X176921947Y-135748202D01*
X177070144Y-135779162D01*
X177070149Y-135779163D01*
X177074880Y-135780151D01*
X177079762Y-135780407D01*
X177079871Y-135780413D01*
X177079887Y-135780413D01*
X177081539Y-135780500D01*
X177630800Y-135780500D01*
X177678793Y-135775625D01*
X177775868Y-135765765D01*
X177775870Y-135765765D01*
X177782216Y-135765120D01*
X177976172Y-135704338D01*
X178153944Y-135605797D01*
X178308271Y-135473523D01*
X178432848Y-135312919D01*
X178522587Y-135130545D01*
X178548752Y-135030097D01*
X178572212Y-134940034D01*
X178572212Y-134940031D01*
X178573822Y-134933852D01*
X178584459Y-134730874D01*
X178554065Y-134529903D01*
X178483881Y-134339148D01*
X178430345Y-134252802D01*
X178380137Y-134171824D01*
X178380134Y-134171820D01*
X178376774Y-134166401D01*
X178237119Y-134018720D01*
X178070621Y-133902137D01*
X177884081Y-133821414D01*
X177838053Y-133811798D01*
X177689856Y-133780838D01*
X177689851Y-133780837D01*
X177685120Y-133779849D01*
X177680238Y-133779593D01*
X177680129Y-133779587D01*
X177680113Y-133779587D01*
X177678461Y-133779500D01*
X177129200Y-133779500D01*
X177081207Y-133784375D01*
X176984132Y-133794235D01*
X176984130Y-133794235D01*
X176977784Y-133794880D01*
X176783828Y-133855662D01*
X176606056Y-133954203D01*
X176451729Y-134086477D01*
X176327152Y-134247081D01*
X176237413Y-134429455D01*
X176235804Y-134435633D01*
X176235803Y-134435635D01*
X176209603Y-134536220D01*
X176186178Y-134626148D01*
X176175541Y-134829126D01*
X155719310Y-134829126D01*
X155724459Y-134730874D01*
X155694065Y-134529903D01*
X155623881Y-134339148D01*
X155570345Y-134252802D01*
X155520137Y-134171824D01*
X155520134Y-134171820D01*
X155516774Y-134166401D01*
X155377119Y-134018720D01*
X155210621Y-133902137D01*
X155024081Y-133821414D01*
X154978053Y-133811798D01*
X154829856Y-133780838D01*
X154829851Y-133780837D01*
X154825120Y-133779849D01*
X154820238Y-133779593D01*
X154820129Y-133779587D01*
X154820113Y-133779587D01*
X154818461Y-133779500D01*
X154269200Y-133779500D01*
X154221207Y-133784375D01*
X154124132Y-133794235D01*
X154124130Y-133794235D01*
X154117784Y-133794880D01*
X153923828Y-133855662D01*
X153746056Y-133954203D01*
X153591729Y-134086477D01*
X153467152Y-134247081D01*
X153377413Y-134429455D01*
X153375804Y-134435633D01*
X153375803Y-134435635D01*
X153349603Y-134536220D01*
X153326178Y-134626148D01*
X153315541Y-134829126D01*
X151200500Y-134829126D01*
X151200500Y-132289126D01*
X153315541Y-132289126D01*
X153345935Y-132490097D01*
X153416119Y-132680852D01*
X153419479Y-132686272D01*
X153419480Y-132686273D01*
X153519863Y-132848176D01*
X153519866Y-132848180D01*
X153523226Y-132853599D01*
X153662881Y-133001280D01*
X153829379Y-133117863D01*
X154015919Y-133198586D01*
X154061947Y-133208202D01*
X154210144Y-133239162D01*
X154210149Y-133239163D01*
X154214880Y-133240151D01*
X154219762Y-133240407D01*
X154219871Y-133240413D01*
X154219887Y-133240413D01*
X154221539Y-133240500D01*
X154770800Y-133240500D01*
X154818793Y-133235625D01*
X154915868Y-133225765D01*
X154915870Y-133225765D01*
X154922216Y-133225120D01*
X155116172Y-133164338D01*
X155293944Y-133065797D01*
X155448271Y-132933523D01*
X155572848Y-132772919D01*
X155662587Y-132590545D01*
X155688752Y-132490097D01*
X155712212Y-132400034D01*
X155712212Y-132400031D01*
X155713822Y-132393852D01*
X155724459Y-132190874D01*
X155694065Y-131989903D01*
X155623881Y-131799148D01*
X155570345Y-131712802D01*
X155520137Y-131631824D01*
X155520134Y-131631820D01*
X155516774Y-131626401D01*
X155461630Y-131568088D01*
X155381508Y-131483361D01*
X155381507Y-131483360D01*
X155377119Y-131478720D01*
X155210621Y-131362137D01*
X155024081Y-131281414D01*
X154978053Y-131271798D01*
X154829856Y-131240838D01*
X154829851Y-131240837D01*
X154825120Y-131239849D01*
X154820238Y-131239593D01*
X154820129Y-131239587D01*
X154820113Y-131239587D01*
X154818461Y-131239500D01*
X154269200Y-131239500D01*
X154221207Y-131244375D01*
X154124132Y-131254235D01*
X154124130Y-131254235D01*
X154117784Y-131254880D01*
X153923828Y-131315662D01*
X153746056Y-131414203D01*
X153591729Y-131546477D01*
X153467152Y-131707081D01*
X153377413Y-131889455D01*
X153375804Y-131895633D01*
X153375803Y-131895635D01*
X153349603Y-131996220D01*
X153326178Y-132086148D01*
X153315541Y-132289126D01*
X151200500Y-132289126D01*
X151200500Y-127642364D01*
X152104293Y-127642364D01*
X152111833Y-127670502D01*
X152114048Y-127678767D01*
X152116427Y-127689499D01*
X152122969Y-127726602D01*
X152128480Y-127736147D01*
X152129672Y-127739423D01*
X152131149Y-127742591D01*
X152134003Y-127753241D01*
X152140327Y-127762272D01*
X152155612Y-127784101D01*
X152161518Y-127793372D01*
X152174850Y-127816463D01*
X152180363Y-127826012D01*
X152188808Y-127833098D01*
X152209239Y-127850242D01*
X152217342Y-127857668D01*
X153423022Y-129063348D01*
X153457048Y-129125660D01*
X153451983Y-129196475D01*
X153446981Y-129208073D01*
X153380234Y-129343720D01*
X153380231Y-129343728D01*
X153377413Y-129349455D01*
X153375804Y-129355633D01*
X153375803Y-129355635D01*
X153349603Y-129456220D01*
X153326178Y-129546148D01*
X153315541Y-129749126D01*
X153345935Y-129950097D01*
X153416119Y-130140852D01*
X153419479Y-130146272D01*
X153419480Y-130146273D01*
X153519863Y-130308176D01*
X153519866Y-130308180D01*
X153523226Y-130313599D01*
X153662881Y-130461280D01*
X153829379Y-130577863D01*
X154015919Y-130658586D01*
X154061947Y-130668202D01*
X154210144Y-130699162D01*
X154210149Y-130699163D01*
X154214880Y-130700151D01*
X154219762Y-130700407D01*
X154219871Y-130700413D01*
X154219887Y-130700413D01*
X154221539Y-130700500D01*
X154770800Y-130700500D01*
X154818793Y-130695625D01*
X154915868Y-130685765D01*
X154915870Y-130685765D01*
X154922216Y-130685120D01*
X155116172Y-130624338D01*
X155293944Y-130525797D01*
X155448271Y-130393523D01*
X155475532Y-130358379D01*
X155515790Y-130306478D01*
X155572848Y-130232919D01*
X155662587Y-130050545D01*
X155668760Y-130026847D01*
X155712212Y-129860034D01*
X155712212Y-129860031D01*
X155713822Y-129853852D01*
X155719645Y-129742744D01*
X155724125Y-129657256D01*
X155724125Y-129657252D01*
X155724459Y-129650874D01*
X155694065Y-129449903D01*
X155623881Y-129259148D01*
X155603338Y-129226015D01*
X155520137Y-129091824D01*
X155520134Y-129091820D01*
X155516774Y-129086401D01*
X155377119Y-128938720D01*
X155210621Y-128822137D01*
X155024081Y-128741414D01*
X154978053Y-128731798D01*
X154829856Y-128700838D01*
X154829851Y-128700837D01*
X154825120Y-128699849D01*
X154820238Y-128699593D01*
X154820129Y-128699587D01*
X154820113Y-128699587D01*
X154818461Y-128699500D01*
X154269200Y-128699500D01*
X154221207Y-128704375D01*
X154124132Y-128714235D01*
X154124130Y-128714235D01*
X154117784Y-128714880D01*
X154097269Y-128721309D01*
X154026287Y-128722594D01*
X153970496Y-128690170D01*
X152795962Y-127515636D01*
X152761936Y-127453324D01*
X152759057Y-127426541D01*
X152759057Y-126163573D01*
X152779059Y-126095452D01*
X152832715Y-126048959D01*
X152902989Y-126038855D01*
X152967569Y-126068349D01*
X152974152Y-126074478D01*
X153423022Y-126523348D01*
X153457048Y-126585660D01*
X153451983Y-126656475D01*
X153446981Y-126668073D01*
X153380234Y-126803720D01*
X153380231Y-126803728D01*
X153377413Y-126809455D01*
X153375804Y-126815633D01*
X153375803Y-126815635D01*
X153349603Y-126916220D01*
X153326178Y-127006148D01*
X153315541Y-127209126D01*
X153345935Y-127410097D01*
X153416119Y-127600852D01*
X153419479Y-127606272D01*
X153419480Y-127606273D01*
X153519863Y-127768176D01*
X153519866Y-127768180D01*
X153523226Y-127773599D01*
X153527612Y-127778237D01*
X153572791Y-127826012D01*
X153662881Y-127921280D01*
X153829379Y-128037863D01*
X154015919Y-128118586D01*
X154061947Y-128128202D01*
X154210144Y-128159162D01*
X154210149Y-128159163D01*
X154214880Y-128160151D01*
X154219762Y-128160407D01*
X154219871Y-128160413D01*
X154219887Y-128160413D01*
X154221539Y-128160500D01*
X154770800Y-128160500D01*
X154846794Y-128152781D01*
X154915868Y-128145765D01*
X154915870Y-128145765D01*
X154922216Y-128145120D01*
X155116172Y-128084338D01*
X155293944Y-127985797D01*
X155448271Y-127853523D01*
X155464115Y-127833098D01*
X155519052Y-127762272D01*
X155572848Y-127692919D01*
X155662587Y-127510545D01*
X155688752Y-127410097D01*
X155712212Y-127320034D01*
X155712212Y-127320031D01*
X155713822Y-127313852D01*
X155724459Y-127110874D01*
X155694065Y-126909903D01*
X155623881Y-126719148D01*
X155620520Y-126713727D01*
X155520137Y-126551824D01*
X155520134Y-126551820D01*
X155516774Y-126546401D01*
X155377119Y-126398720D01*
X155210621Y-126282137D01*
X155024081Y-126201414D01*
X154978053Y-126191798D01*
X154829856Y-126160838D01*
X154829851Y-126160837D01*
X154825120Y-126159849D01*
X154820238Y-126159593D01*
X154820129Y-126159587D01*
X154820113Y-126159587D01*
X154818461Y-126159500D01*
X154269200Y-126159500D01*
X154221207Y-126164375D01*
X154124132Y-126174235D01*
X154124130Y-126174235D01*
X154117784Y-126174880D01*
X154097269Y-126181309D01*
X154026287Y-126182594D01*
X153970496Y-126150170D01*
X153245962Y-125425636D01*
X153211936Y-125363324D01*
X153209057Y-125336541D01*
X153209057Y-125169222D01*
X153229059Y-125101101D01*
X153282715Y-125054608D01*
X153352989Y-125044504D01*
X153417569Y-125073998D01*
X153442143Y-125102825D01*
X153523226Y-125233599D01*
X153662881Y-125381280D01*
X153829379Y-125497863D01*
X154015919Y-125578586D01*
X154061947Y-125588202D01*
X154210144Y-125619162D01*
X154210149Y-125619163D01*
X154214880Y-125620151D01*
X154219762Y-125620407D01*
X154219871Y-125620413D01*
X154219887Y-125620413D01*
X154221539Y-125620500D01*
X154770800Y-125620500D01*
X154818793Y-125615625D01*
X154915868Y-125605765D01*
X154915870Y-125605765D01*
X154922216Y-125605120D01*
X155116172Y-125544338D01*
X155293944Y-125445797D01*
X155448271Y-125313523D01*
X155572848Y-125152919D01*
X155662587Y-124970545D01*
X155688752Y-124870097D01*
X155712212Y-124780034D01*
X155712212Y-124780031D01*
X155713822Y-124773852D01*
X155724459Y-124570874D01*
X155694065Y-124369903D01*
X155623881Y-124179148D01*
X155570345Y-124092802D01*
X155520137Y-124011824D01*
X155520134Y-124011820D01*
X155516774Y-124006401D01*
X155445959Y-123931516D01*
X155381508Y-123863361D01*
X155381507Y-123863360D01*
X155377119Y-123858720D01*
X155222860Y-123750707D01*
X155215851Y-123745799D01*
X155215850Y-123745799D01*
X155210621Y-123742137D01*
X155024081Y-123661414D01*
X154978053Y-123651798D01*
X154829856Y-123620838D01*
X154829851Y-123620837D01*
X154825120Y-123619849D01*
X154820238Y-123619593D01*
X154820129Y-123619587D01*
X154820113Y-123619587D01*
X154818461Y-123619500D01*
X154269200Y-123619500D01*
X154229820Y-123623500D01*
X154124132Y-123634235D01*
X154124130Y-123634235D01*
X154117784Y-123634880D01*
X153923828Y-123695662D01*
X153746056Y-123794203D01*
X153591729Y-123926477D01*
X153587822Y-123931514D01*
X153587820Y-123931516D01*
X153533331Y-124001763D01*
X153467152Y-124087081D01*
X153464339Y-124092798D01*
X153464332Y-124092809D01*
X153448111Y-124125775D01*
X153400088Y-124178066D01*
X153331418Y-124196092D01*
X153263904Y-124174132D01*
X153218980Y-124119156D01*
X153209057Y-124070145D01*
X153209057Y-122629222D01*
X153229059Y-122561101D01*
X153282715Y-122514608D01*
X153352989Y-122504504D01*
X153417569Y-122533998D01*
X153442143Y-122562825D01*
X153523226Y-122693599D01*
X153527612Y-122698237D01*
X153601622Y-122776500D01*
X153662881Y-122841280D01*
X153829379Y-122957863D01*
X154015919Y-123038586D01*
X154061947Y-123048202D01*
X154210144Y-123079162D01*
X154210149Y-123079163D01*
X154214880Y-123080151D01*
X154219762Y-123080407D01*
X154219871Y-123080413D01*
X154219887Y-123080413D01*
X154221539Y-123080500D01*
X154770800Y-123080500D01*
X154818793Y-123075625D01*
X154915868Y-123065765D01*
X154915870Y-123065765D01*
X154922216Y-123065120D01*
X155116172Y-123004338D01*
X155293944Y-122905797D01*
X155448271Y-122773523D01*
X155572848Y-122612919D01*
X155662587Y-122430545D01*
X155688752Y-122330097D01*
X155712212Y-122240034D01*
X155712212Y-122240031D01*
X155713822Y-122233852D01*
X155720261Y-122110990D01*
X155724125Y-122037256D01*
X155724125Y-122037252D01*
X155724459Y-122030874D01*
X155694065Y-121829903D01*
X155691032Y-121821658D01*
X155663913Y-121747952D01*
X155623881Y-121639148D01*
X155570345Y-121552802D01*
X155520137Y-121471824D01*
X155520134Y-121471820D01*
X155516774Y-121466401D01*
X155377119Y-121318720D01*
X155210621Y-121202137D01*
X155024081Y-121121414D01*
X154978053Y-121111798D01*
X154829856Y-121080838D01*
X154829851Y-121080837D01*
X154825120Y-121079849D01*
X154820238Y-121079593D01*
X154820129Y-121079587D01*
X154820113Y-121079587D01*
X154818461Y-121079500D01*
X154269200Y-121079500D01*
X154221207Y-121084375D01*
X154124132Y-121094235D01*
X154124130Y-121094235D01*
X154117784Y-121094880D01*
X153923828Y-121155662D01*
X153746056Y-121254203D01*
X153591729Y-121386477D01*
X153467152Y-121547081D01*
X153464339Y-121552798D01*
X153464332Y-121552809D01*
X153448111Y-121585775D01*
X153400088Y-121638066D01*
X153331418Y-121656092D01*
X153263904Y-121634132D01*
X153218980Y-121579156D01*
X153209057Y-121530145D01*
X153209057Y-120089222D01*
X153229059Y-120021101D01*
X153282715Y-119974608D01*
X153352989Y-119964504D01*
X153417569Y-119993998D01*
X153442143Y-120022825D01*
X153523226Y-120153599D01*
X153662881Y-120301280D01*
X153829379Y-120417863D01*
X154015919Y-120498586D01*
X154061947Y-120508202D01*
X154210144Y-120539162D01*
X154210149Y-120539163D01*
X154214880Y-120540151D01*
X154219762Y-120540407D01*
X154219871Y-120540413D01*
X154219887Y-120540413D01*
X154221539Y-120540500D01*
X154770800Y-120540500D01*
X154818793Y-120535625D01*
X154915868Y-120525765D01*
X154915870Y-120525765D01*
X154922216Y-120525120D01*
X155116172Y-120464338D01*
X155293944Y-120365797D01*
X155448271Y-120233523D01*
X155457053Y-120222202D01*
X155568939Y-120077958D01*
X155572848Y-120072919D01*
X155618151Y-119980852D01*
X155659967Y-119895870D01*
X155707990Y-119843579D01*
X155773022Y-119825500D01*
X156152359Y-119825500D01*
X156220480Y-119845502D01*
X156266973Y-119899158D01*
X156271242Y-119909752D01*
X156283539Y-119944768D01*
X156289133Y-119952341D01*
X156289133Y-119952342D01*
X156339919Y-120021101D01*
X156361789Y-120050711D01*
X156369360Y-120056303D01*
X156460155Y-120123365D01*
X156460157Y-120123366D01*
X156467732Y-120128961D01*
X156476619Y-120132082D01*
X156476621Y-120132083D01*
X156584752Y-120170056D01*
X156584754Y-120170057D01*
X156592000Y-120172601D01*
X156599644Y-120173324D01*
X156599646Y-120173324D01*
X156607621Y-120174078D01*
X156622667Y-120175500D01*
X156924847Y-120175500D01*
X157227332Y-120175499D01*
X157230282Y-120175220D01*
X157230287Y-120175220D01*
X157250350Y-120173324D01*
X157250351Y-120173324D01*
X157258000Y-120172601D01*
X157265248Y-120170056D01*
X157265251Y-120170055D01*
X157373379Y-120132083D01*
X157373381Y-120132082D01*
X157382268Y-120128961D01*
X157389843Y-120123366D01*
X157389845Y-120123365D01*
X157480640Y-120056303D01*
X157488211Y-120050711D01*
X157510081Y-120021101D01*
X157560865Y-119952345D01*
X157560867Y-119952342D01*
X157566461Y-119944768D01*
X157582479Y-119899158D01*
X157607556Y-119827748D01*
X157607557Y-119827746D01*
X157610101Y-119820500D01*
X157613000Y-119789833D01*
X157612999Y-119210168D01*
X157610101Y-119179500D01*
X157587834Y-119116092D01*
X157569583Y-119064121D01*
X157569581Y-119064117D01*
X157566461Y-119055232D01*
X157554588Y-119039156D01*
X157493803Y-118956860D01*
X157488211Y-118949289D01*
X157454221Y-118924184D01*
X157389845Y-118876635D01*
X157389843Y-118876634D01*
X157382268Y-118871039D01*
X157334751Y-118854352D01*
X157277106Y-118812909D01*
X157251018Y-118746879D01*
X157250500Y-118735470D01*
X157250500Y-118432507D01*
X157270502Y-118364386D01*
X157324158Y-118317893D01*
X157334751Y-118313625D01*
X157353379Y-118307083D01*
X157353381Y-118307082D01*
X157362268Y-118303961D01*
X157369845Y-118298365D01*
X157460640Y-118231303D01*
X157468211Y-118225711D01*
X157486832Y-118200500D01*
X157540865Y-118127345D01*
X157540866Y-118127343D01*
X157546461Y-118119768D01*
X157569965Y-118052841D01*
X157587556Y-118002748D01*
X157587557Y-118002746D01*
X157590101Y-117995500D01*
X157593000Y-117964833D01*
X157592999Y-117360168D01*
X157590101Y-117329500D01*
X157587555Y-117322249D01*
X157549583Y-117214121D01*
X157549582Y-117214119D01*
X157546461Y-117205232D01*
X157513960Y-117161228D01*
X157473803Y-117106860D01*
X157468211Y-117099289D01*
X157400295Y-117049126D01*
X157369845Y-117026635D01*
X157369843Y-117026634D01*
X157362268Y-117021039D01*
X157353381Y-117017918D01*
X157353379Y-117017917D01*
X157245248Y-116979944D01*
X157245246Y-116979943D01*
X157238000Y-116977399D01*
X157230356Y-116976676D01*
X157230354Y-116976676D01*
X157222379Y-116975922D01*
X157207333Y-116974500D01*
X156917647Y-116974500D01*
X156627668Y-116974501D01*
X156624718Y-116974780D01*
X156624713Y-116974780D01*
X156604650Y-116976676D01*
X156604649Y-116976676D01*
X156597000Y-116977399D01*
X156589752Y-116979944D01*
X156589749Y-116979945D01*
X156481621Y-117017917D01*
X156481619Y-117017918D01*
X156472732Y-117021039D01*
X156465157Y-117026634D01*
X156465155Y-117026635D01*
X156434705Y-117049126D01*
X156366789Y-117099289D01*
X156361197Y-117106860D01*
X156321041Y-117161228D01*
X156288539Y-117205232D01*
X156285418Y-117214119D01*
X156285417Y-117214121D01*
X156247632Y-117321718D01*
X156244899Y-117329500D01*
X156242000Y-117360167D01*
X156242001Y-117964832D01*
X156244899Y-117995500D01*
X156247444Y-118002748D01*
X156247445Y-118002751D01*
X156265036Y-118052841D01*
X156288539Y-118119768D01*
X156294134Y-118127343D01*
X156294135Y-118127345D01*
X156348168Y-118200500D01*
X156366789Y-118225711D01*
X156374360Y-118231303D01*
X156465155Y-118298365D01*
X156465157Y-118298366D01*
X156472732Y-118303961D01*
X156481619Y-118307082D01*
X156481621Y-118307083D01*
X156515249Y-118318892D01*
X156572894Y-118360335D01*
X156598982Y-118426364D01*
X156599500Y-118437774D01*
X156599500Y-118735470D01*
X156579498Y-118803591D01*
X156525842Y-118850084D01*
X156515249Y-118854352D01*
X156467732Y-118871039D01*
X156460157Y-118876634D01*
X156460155Y-118876635D01*
X156395779Y-118924184D01*
X156361789Y-118949289D01*
X156356197Y-118956860D01*
X156319104Y-119007081D01*
X156283539Y-119055232D01*
X156276299Y-119075848D01*
X156271242Y-119090248D01*
X156229799Y-119147894D01*
X156163769Y-119173982D01*
X156152359Y-119174500D01*
X155738648Y-119174500D01*
X155670527Y-119154498D01*
X155625686Y-119104054D01*
X155623881Y-119099148D01*
X155570345Y-119012802D01*
X155520137Y-118931824D01*
X155520134Y-118931820D01*
X155516774Y-118926401D01*
X155425559Y-118829944D01*
X155381508Y-118783361D01*
X155381507Y-118783360D01*
X155377119Y-118778720D01*
X155210621Y-118662137D01*
X155024081Y-118581414D01*
X154978053Y-118571798D01*
X154829856Y-118540838D01*
X154829851Y-118540837D01*
X154825120Y-118539849D01*
X154820238Y-118539593D01*
X154820129Y-118539587D01*
X154820113Y-118539587D01*
X154818461Y-118539500D01*
X154269200Y-118539500D01*
X154221207Y-118544375D01*
X154124132Y-118554235D01*
X154124130Y-118554235D01*
X154117784Y-118554880D01*
X153923828Y-118615662D01*
X153746056Y-118714203D01*
X153591729Y-118846477D01*
X153587822Y-118851514D01*
X153587820Y-118851516D01*
X153533331Y-118921763D01*
X153467152Y-119007081D01*
X153464339Y-119012798D01*
X153464332Y-119012809D01*
X153448111Y-119045775D01*
X153400088Y-119098066D01*
X153331418Y-119116092D01*
X153263904Y-119094132D01*
X153218980Y-119039156D01*
X153209057Y-118990145D01*
X153209057Y-118269103D01*
X153229059Y-118200982D01*
X153282715Y-118154489D01*
X153352989Y-118144385D01*
X153405060Y-118164339D01*
X153431449Y-118181972D01*
X153431452Y-118181973D01*
X153441769Y-118188867D01*
X153453938Y-118191288D01*
X153453939Y-118191288D01*
X153494184Y-118199293D01*
X153500252Y-118200500D01*
X155539748Y-118200500D01*
X155545816Y-118199293D01*
X155586061Y-118191288D01*
X155586062Y-118191288D01*
X155598231Y-118188867D01*
X155664552Y-118144552D01*
X155708867Y-118078231D01*
X155712615Y-118059392D01*
X155719293Y-118025816D01*
X155720500Y-118019748D01*
X155720500Y-115980252D01*
X155708867Y-115921769D01*
X155664552Y-115855448D01*
X155598231Y-115811133D01*
X155586062Y-115808712D01*
X155586061Y-115808712D01*
X155545816Y-115800707D01*
X155539748Y-115799500D01*
X153500252Y-115799500D01*
X153494184Y-115800707D01*
X153453939Y-115808712D01*
X153453938Y-115808712D01*
X153441769Y-115811133D01*
X153431452Y-115818027D01*
X153431449Y-115818028D01*
X153405060Y-115835661D01*
X153337308Y-115856877D01*
X153268841Y-115838095D01*
X153221397Y-115785278D01*
X153209057Y-115730897D01*
X153209057Y-98415361D01*
X155295316Y-98415361D01*
X155295540Y-98420027D01*
X155295540Y-98420033D01*
X155297309Y-98456851D01*
X155307443Y-98667820D01*
X155313635Y-98698947D01*
X155355751Y-98910679D01*
X155356752Y-98915713D01*
X155358331Y-98920111D01*
X155358333Y-98920118D01*
X155438140Y-99142398D01*
X155442160Y-99153595D01*
X155561792Y-99376240D01*
X155564587Y-99379984D01*
X155564589Y-99379986D01*
X155710226Y-99575018D01*
X155710231Y-99575024D01*
X155713018Y-99578756D01*
X155716327Y-99582036D01*
X155716332Y-99582042D01*
X155889200Y-99753408D01*
X155892517Y-99756696D01*
X155896279Y-99759454D01*
X155896282Y-99759457D01*
X156009663Y-99842591D01*
X156096346Y-99906149D01*
X156100481Y-99908325D01*
X156100485Y-99908327D01*
X156222631Y-99972591D01*
X156320026Y-100023833D01*
X156558644Y-100107162D01*
X156563237Y-100108034D01*
X156802369Y-100153435D01*
X156802372Y-100153435D01*
X156806958Y-100154306D01*
X156927081Y-100159026D01*
X157054845Y-100164046D01*
X157054850Y-100164046D01*
X157059513Y-100164229D01*
X157137657Y-100155671D01*
X157306107Y-100137223D01*
X157306112Y-100137222D01*
X157310760Y-100136713D01*
X157428861Y-100105620D01*
X157550658Y-100073554D01*
X157550661Y-100073553D01*
X157555181Y-100072363D01*
X157632587Y-100039106D01*
X157783119Y-99974433D01*
X157783125Y-99974430D01*
X157787405Y-99972591D01*
X157791377Y-99970133D01*
X157791381Y-99970131D01*
X157822495Y-99950878D01*
X157890947Y-99932041D01*
X157958716Y-99953203D01*
X157977891Y-99968928D01*
X159987595Y-101978632D01*
X160021621Y-102040944D01*
X160024500Y-102067727D01*
X160024500Y-120097484D01*
X160004498Y-120165605D01*
X159950842Y-120212098D01*
X159880568Y-120222202D01*
X159815988Y-120192708D01*
X159809405Y-120186579D01*
X159474905Y-119852079D01*
X159440879Y-119789767D01*
X159438000Y-119762984D01*
X159437999Y-119213134D01*
X159437999Y-119210168D01*
X159435101Y-119179500D01*
X159412834Y-119116092D01*
X159394583Y-119064121D01*
X159394581Y-119064117D01*
X159391461Y-119055232D01*
X159379588Y-119039156D01*
X159318803Y-118956860D01*
X159313211Y-118949289D01*
X159279221Y-118924184D01*
X159214845Y-118876635D01*
X159214843Y-118876634D01*
X159207268Y-118871039D01*
X159198381Y-118867918D01*
X159198379Y-118867917D01*
X159090248Y-118829944D01*
X159090246Y-118829943D01*
X159083000Y-118827399D01*
X159075356Y-118826676D01*
X159075354Y-118826676D01*
X159067379Y-118825922D01*
X159052333Y-118824500D01*
X158750153Y-118824500D01*
X158447668Y-118824501D01*
X158444718Y-118824780D01*
X158444713Y-118824780D01*
X158424650Y-118826676D01*
X158424649Y-118826676D01*
X158417000Y-118827399D01*
X158409752Y-118829944D01*
X158409749Y-118829945D01*
X158301621Y-118867917D01*
X158301619Y-118867918D01*
X158292732Y-118871039D01*
X158285157Y-118876634D01*
X158285155Y-118876635D01*
X158220779Y-118924184D01*
X158186789Y-118949289D01*
X158181197Y-118956860D01*
X158120413Y-119039156D01*
X158108539Y-119055232D01*
X158105419Y-119064117D01*
X158105417Y-119064121D01*
X158087166Y-119116092D01*
X158064899Y-119179500D01*
X158062000Y-119210167D01*
X158062001Y-119789832D01*
X158062280Y-119792781D01*
X158062280Y-119792787D01*
X158064176Y-119812850D01*
X158064899Y-119820500D01*
X158067444Y-119827748D01*
X158067445Y-119827751D01*
X158092522Y-119899158D01*
X158108539Y-119944768D01*
X158114133Y-119952342D01*
X158114135Y-119952345D01*
X158164919Y-120021101D01*
X158186789Y-120050711D01*
X158194360Y-120056303D01*
X158285155Y-120123365D01*
X158285157Y-120123366D01*
X158292732Y-120128961D01*
X158301619Y-120132082D01*
X158301621Y-120132083D01*
X158409752Y-120170056D01*
X158409754Y-120170057D01*
X158417000Y-120172601D01*
X158424644Y-120173324D01*
X158424646Y-120173324D01*
X158432621Y-120174078D01*
X158447667Y-120175500D01*
X158470768Y-120175500D01*
X158825483Y-120175499D01*
X158893603Y-120195501D01*
X158914578Y-120212404D01*
X159987595Y-121285421D01*
X160021621Y-121347733D01*
X160024500Y-121374516D01*
X160024500Y-121667920D01*
X160004498Y-121736041D01*
X159950842Y-121782534D01*
X159898500Y-121793920D01*
X158630252Y-121793920D01*
X158624184Y-121795127D01*
X158583939Y-121803132D01*
X158583938Y-121803132D01*
X158571769Y-121805553D01*
X158561452Y-121812447D01*
X158561449Y-121812448D01*
X158515594Y-121843088D01*
X158504991Y-121849444D01*
X158500794Y-121851687D01*
X158491189Y-121856820D01*
X158491178Y-121856827D01*
X158488457Y-121858281D01*
X158465249Y-121873788D01*
X158462854Y-121875754D01*
X158462848Y-121875758D01*
X158436503Y-121897379D01*
X158436498Y-121897384D01*
X158434108Y-121899345D01*
X158399345Y-121934108D01*
X158397384Y-121936498D01*
X158397379Y-121936503D01*
X158384137Y-121952639D01*
X158373788Y-121965249D01*
X158358281Y-121988457D01*
X158356827Y-121991178D01*
X158356820Y-121991189D01*
X158340752Y-122021251D01*
X158339291Y-122023985D01*
X158320477Y-122069406D01*
X158308782Y-122107957D01*
X158308179Y-122110990D01*
X158303315Y-122135444D01*
X158300869Y-122147739D01*
X158297911Y-122167687D01*
X158295490Y-122192268D01*
X158294500Y-122212410D01*
X158294500Y-129037590D01*
X158295490Y-129057732D01*
X158297911Y-129082313D01*
X158300869Y-129102261D01*
X158308782Y-129142043D01*
X158309679Y-129144999D01*
X158309679Y-129145000D01*
X158318730Y-129174834D01*
X158320477Y-129180594D01*
X158339291Y-129226015D01*
X158340749Y-129228743D01*
X158340752Y-129228749D01*
X158356820Y-129258811D01*
X158356827Y-129258822D01*
X158358281Y-129261543D01*
X158373788Y-129284751D01*
X158375754Y-129287146D01*
X158375758Y-129287152D01*
X158397379Y-129313497D01*
X158399345Y-129315892D01*
X158434108Y-129350655D01*
X158436498Y-129352616D01*
X158436503Y-129352621D01*
X158462848Y-129374242D01*
X158462854Y-129374246D01*
X158465249Y-129376212D01*
X158488457Y-129391719D01*
X158491178Y-129393173D01*
X158491189Y-129393180D01*
X158521251Y-129409248D01*
X158521257Y-129409251D01*
X158523985Y-129410709D01*
X158569406Y-129429523D01*
X158572349Y-129430416D01*
X158572358Y-129430419D01*
X158605000Y-129440321D01*
X158607957Y-129441218D01*
X158621476Y-129443907D01*
X158646214Y-129448828D01*
X158646227Y-129448830D01*
X158647739Y-129449131D01*
X158667687Y-129452089D01*
X158669224Y-129452240D01*
X158669229Y-129452241D01*
X158690724Y-129454358D01*
X158690727Y-129454358D01*
X158692268Y-129454510D01*
X158693808Y-129454586D01*
X158693812Y-129454586D01*
X158710862Y-129455424D01*
X158710865Y-129455424D01*
X158712410Y-129455500D01*
X160611084Y-129455500D01*
X160612316Y-129455451D01*
X160612324Y-129455451D01*
X160626126Y-129454904D01*
X160626144Y-129454903D01*
X160627353Y-129454855D01*
X160628558Y-129454759D01*
X160628563Y-129454759D01*
X160641510Y-129453731D01*
X160641514Y-129453730D01*
X160647235Y-129453276D01*
X160695612Y-129440321D01*
X160713694Y-129435479D01*
X160713698Y-129435478D01*
X160719249Y-129433991D01*
X160751006Y-129418883D01*
X160781629Y-129404315D01*
X160781642Y-129404308D01*
X160783360Y-129403491D01*
X160785013Y-129402577D01*
X160785030Y-129402568D01*
X160797472Y-129395686D01*
X160797473Y-129395685D01*
X160805358Y-129391324D01*
X160830636Y-129365768D01*
X160892761Y-129331403D01*
X160957423Y-129333994D01*
X160964699Y-129336243D01*
X160973482Y-129340536D01*
X161011146Y-129346031D01*
X161037256Y-129349840D01*
X161037260Y-129349840D01*
X161041782Y-129350500D01*
X162133218Y-129350500D01*
X162137773Y-129349829D01*
X162137779Y-129349829D01*
X162150152Y-129348008D01*
X162220460Y-129357877D01*
X162274270Y-129404191D01*
X162294500Y-129472665D01*
X162294500Y-129668500D01*
X162274498Y-129736621D01*
X162220842Y-129783114D01*
X162168500Y-129794500D01*
X160712410Y-129794500D01*
X160710865Y-129794576D01*
X160710862Y-129794576D01*
X160693812Y-129795414D01*
X160693808Y-129795414D01*
X160692268Y-129795490D01*
X160690727Y-129795642D01*
X160690724Y-129795642D01*
X160669229Y-129797759D01*
X160669224Y-129797760D01*
X160667687Y-129797911D01*
X160647739Y-129800869D01*
X160646227Y-129801170D01*
X160646214Y-129801172D01*
X160627335Y-129804928D01*
X160607957Y-129808782D01*
X160605001Y-129809679D01*
X160605000Y-129809679D01*
X160572358Y-129819581D01*
X160572349Y-129819584D01*
X160569406Y-129820477D01*
X160523985Y-129839291D01*
X160521257Y-129840749D01*
X160521251Y-129840752D01*
X160491189Y-129856820D01*
X160491178Y-129856827D01*
X160488457Y-129858281D01*
X160465249Y-129873788D01*
X160462854Y-129875754D01*
X160462848Y-129875758D01*
X160436503Y-129897379D01*
X160436498Y-129897384D01*
X160434108Y-129899345D01*
X160399345Y-129934108D01*
X160373788Y-129965249D01*
X160358281Y-129988457D01*
X160356827Y-129991178D01*
X160356820Y-129991189D01*
X160340752Y-130021251D01*
X160339291Y-130023985D01*
X160320477Y-130069406D01*
X160308782Y-130107957D01*
X160300869Y-130147739D01*
X160297911Y-130167687D01*
X160295490Y-130192268D01*
X160294500Y-130212410D01*
X160294500Y-130269582D01*
X160274498Y-130337703D01*
X160220842Y-130384196D01*
X160150568Y-130394300D01*
X160085988Y-130364806D01*
X160079482Y-130358755D01*
X160038721Y-130318065D01*
X160038720Y-130318065D01*
X160031350Y-130310707D01*
X159926518Y-130259464D01*
X159896027Y-130255016D01*
X159862744Y-130250160D01*
X159862740Y-130250160D01*
X159858218Y-130249500D01*
X158766782Y-130249500D01*
X158762232Y-130250170D01*
X158762229Y-130250170D01*
X158707574Y-130258216D01*
X158707573Y-130258216D01*
X158697888Y-130259642D01*
X158647992Y-130284140D01*
X158602493Y-130306478D01*
X158602491Y-130306479D01*
X158593145Y-130311068D01*
X158551727Y-130352558D01*
X158520145Y-130384196D01*
X158510707Y-130393650D01*
X158459464Y-130498482D01*
X158449500Y-130566782D01*
X158449500Y-130933218D01*
X158459642Y-131002112D01*
X158511068Y-131106855D01*
X158593650Y-131189293D01*
X158698482Y-131240536D01*
X158728973Y-131244984D01*
X158762256Y-131249840D01*
X158762260Y-131249840D01*
X158766782Y-131250500D01*
X159858218Y-131250500D01*
X159862768Y-131249830D01*
X159862771Y-131249830D01*
X159917426Y-131241784D01*
X159917427Y-131241784D01*
X159927112Y-131240358D01*
X160021804Y-131193867D01*
X160022507Y-131193522D01*
X160022509Y-131193521D01*
X160031855Y-131188932D01*
X160079327Y-131141377D01*
X160141609Y-131107298D01*
X160212429Y-131112301D01*
X160269302Y-131154798D01*
X160294171Y-131221296D01*
X160294500Y-131230395D01*
X160294500Y-131287590D01*
X160295490Y-131307732D01*
X160297911Y-131332313D01*
X160300869Y-131352261D01*
X160308782Y-131392043D01*
X160309679Y-131394999D01*
X160309679Y-131395000D01*
X160315505Y-131414203D01*
X160320477Y-131430594D01*
X160339291Y-131476015D01*
X160340749Y-131478743D01*
X160340752Y-131478749D01*
X160356820Y-131508811D01*
X160356827Y-131508822D01*
X160358281Y-131511543D01*
X160373788Y-131534751D01*
X160375754Y-131537146D01*
X160375758Y-131537152D01*
X160397379Y-131563497D01*
X160399345Y-131565892D01*
X160434108Y-131600655D01*
X160436498Y-131602616D01*
X160436503Y-131602621D01*
X160462848Y-131624242D01*
X160462854Y-131624246D01*
X160465249Y-131626212D01*
X160488457Y-131641719D01*
X160491178Y-131643173D01*
X160491189Y-131643180D01*
X160521251Y-131659248D01*
X160521257Y-131659251D01*
X160523985Y-131660709D01*
X160569406Y-131679523D01*
X160572349Y-131680416D01*
X160572358Y-131680419D01*
X160605000Y-131690321D01*
X160607957Y-131691218D01*
X160627335Y-131695072D01*
X160646214Y-131698828D01*
X160646227Y-131698830D01*
X160647739Y-131699131D01*
X160667687Y-131702089D01*
X160669224Y-131702240D01*
X160669229Y-131702241D01*
X160690724Y-131704358D01*
X160690727Y-131704358D01*
X160692268Y-131704510D01*
X160693808Y-131704586D01*
X160693812Y-131704586D01*
X160710862Y-131705424D01*
X160710865Y-131705424D01*
X160712410Y-131705500D01*
X171487590Y-131705500D01*
X171489135Y-131705424D01*
X171489138Y-131705424D01*
X171506188Y-131704586D01*
X171506192Y-131704586D01*
X171507732Y-131704510D01*
X171509273Y-131704358D01*
X171509276Y-131704358D01*
X171530771Y-131702241D01*
X171530776Y-131702240D01*
X171532313Y-131702089D01*
X171552261Y-131699131D01*
X171553773Y-131698830D01*
X171553786Y-131698828D01*
X171572665Y-131695072D01*
X171592043Y-131691218D01*
X171595000Y-131690321D01*
X171627642Y-131680419D01*
X171627651Y-131680416D01*
X171630594Y-131679523D01*
X171676015Y-131660709D01*
X171678743Y-131659251D01*
X171678749Y-131659248D01*
X171708811Y-131643180D01*
X171708822Y-131643173D01*
X171711543Y-131641719D01*
X171734751Y-131626212D01*
X171737146Y-131624246D01*
X171737152Y-131624242D01*
X171763497Y-131602621D01*
X171763502Y-131602616D01*
X171765892Y-131600655D01*
X171800655Y-131565892D01*
X171802621Y-131563497D01*
X171824242Y-131537152D01*
X171824246Y-131537146D01*
X171826212Y-131534751D01*
X171841719Y-131511543D01*
X171843173Y-131508822D01*
X171843180Y-131508811D01*
X171859248Y-131478749D01*
X171859251Y-131478743D01*
X171860709Y-131476015D01*
X171879523Y-131430594D01*
X171884496Y-131414203D01*
X171890321Y-131395000D01*
X171890321Y-131394999D01*
X171891218Y-131392043D01*
X171899131Y-131352261D01*
X171902089Y-131332313D01*
X171904510Y-131307732D01*
X171905500Y-131287590D01*
X171905500Y-130426500D01*
X171925502Y-130358379D01*
X171979158Y-130311886D01*
X172031500Y-130300500D01*
X173258218Y-130300500D01*
X173262768Y-130299830D01*
X173262771Y-130299830D01*
X173317426Y-130291784D01*
X173317427Y-130291784D01*
X173327112Y-130290358D01*
X173381286Y-130263760D01*
X173422507Y-130243522D01*
X173422509Y-130243521D01*
X173431855Y-130238932D01*
X173479979Y-130190724D01*
X173506935Y-130163721D01*
X173506935Y-130163720D01*
X173514293Y-130156350D01*
X173565536Y-130051518D01*
X173575500Y-129983218D01*
X173575500Y-129749126D01*
X176175541Y-129749126D01*
X176205935Y-129950097D01*
X176276119Y-130140852D01*
X176279479Y-130146272D01*
X176279480Y-130146273D01*
X176379863Y-130308176D01*
X176379866Y-130308180D01*
X176383226Y-130313599D01*
X176522881Y-130461280D01*
X176689379Y-130577863D01*
X176875919Y-130658586D01*
X176921947Y-130668202D01*
X177070144Y-130699162D01*
X177070149Y-130699163D01*
X177074880Y-130700151D01*
X177079762Y-130700407D01*
X177079871Y-130700413D01*
X177079887Y-130700413D01*
X177081539Y-130700500D01*
X177630800Y-130700500D01*
X177678793Y-130695625D01*
X177775868Y-130685765D01*
X177775870Y-130685765D01*
X177782216Y-130685120D01*
X177976172Y-130624338D01*
X178153944Y-130525797D01*
X178308271Y-130393523D01*
X178335532Y-130358379D01*
X178375790Y-130306478D01*
X178432848Y-130232919D01*
X178522587Y-130050545D01*
X178528760Y-130026847D01*
X178572212Y-129860034D01*
X178572212Y-129860031D01*
X178573822Y-129853852D01*
X178579645Y-129742744D01*
X178584125Y-129657256D01*
X178584125Y-129657252D01*
X178584459Y-129650874D01*
X178554065Y-129449903D01*
X178483881Y-129259148D01*
X178463338Y-129226015D01*
X178380137Y-129091824D01*
X178380134Y-129091820D01*
X178376774Y-129086401D01*
X178237119Y-128938720D01*
X178070621Y-128822137D01*
X177884081Y-128741414D01*
X177838053Y-128731798D01*
X177689856Y-128700838D01*
X177689851Y-128700837D01*
X177685120Y-128699849D01*
X177680238Y-128699593D01*
X177680129Y-128699587D01*
X177680113Y-128699587D01*
X177678461Y-128699500D01*
X177129200Y-128699500D01*
X177081207Y-128704375D01*
X176984132Y-128714235D01*
X176984130Y-128714235D01*
X176977784Y-128714880D01*
X176783828Y-128775662D01*
X176606056Y-128874203D01*
X176451729Y-129006477D01*
X176447822Y-129011514D01*
X176447820Y-129011516D01*
X176410774Y-129059276D01*
X176327152Y-129167081D01*
X176280671Y-129261543D01*
X176255107Y-129313497D01*
X176237413Y-129349455D01*
X176235804Y-129355633D01*
X176235803Y-129355635D01*
X176209603Y-129456220D01*
X176186178Y-129546148D01*
X176175541Y-129749126D01*
X173575500Y-129749126D01*
X173575500Y-129616782D01*
X173565358Y-129547888D01*
X173528426Y-129472665D01*
X173518522Y-129452493D01*
X173518521Y-129452491D01*
X173513932Y-129443145D01*
X173472442Y-129401727D01*
X173438721Y-129368065D01*
X173438720Y-129368065D01*
X173431350Y-129360707D01*
X173409119Y-129349840D01*
X173349048Y-129320477D01*
X173326518Y-129309464D01*
X173258311Y-129299514D01*
X173193792Y-129269888D01*
X173155531Y-129210083D01*
X173150500Y-129174834D01*
X173150500Y-127209126D01*
X176175541Y-127209126D01*
X176205935Y-127410097D01*
X176276119Y-127600852D01*
X176279479Y-127606272D01*
X176279480Y-127606273D01*
X176379863Y-127768176D01*
X176379866Y-127768180D01*
X176383226Y-127773599D01*
X176387612Y-127778237D01*
X176432791Y-127826012D01*
X176522881Y-127921280D01*
X176689379Y-128037863D01*
X176875919Y-128118586D01*
X176921947Y-128128202D01*
X177070144Y-128159162D01*
X177070149Y-128159163D01*
X177074880Y-128160151D01*
X177079762Y-128160407D01*
X177079871Y-128160413D01*
X177079887Y-128160413D01*
X177081539Y-128160500D01*
X177630800Y-128160500D01*
X177706794Y-128152781D01*
X177775868Y-128145765D01*
X177775870Y-128145765D01*
X177782216Y-128145120D01*
X177976172Y-128084338D01*
X178153944Y-127985797D01*
X178308271Y-127853523D01*
X178324115Y-127833098D01*
X178379052Y-127762272D01*
X178432848Y-127692919D01*
X178522587Y-127510545D01*
X178548752Y-127410097D01*
X178572212Y-127320034D01*
X178572212Y-127320031D01*
X178573822Y-127313852D01*
X178584459Y-127110874D01*
X178554065Y-126909903D01*
X178483881Y-126719148D01*
X178480520Y-126713727D01*
X178380137Y-126551824D01*
X178380134Y-126551820D01*
X178376774Y-126546401D01*
X178237119Y-126398720D01*
X178070621Y-126282137D01*
X177884081Y-126201414D01*
X177838053Y-126191798D01*
X177689856Y-126160838D01*
X177689851Y-126160837D01*
X177685120Y-126159849D01*
X177680238Y-126159593D01*
X177680129Y-126159587D01*
X177680113Y-126159587D01*
X177678461Y-126159500D01*
X177129200Y-126159500D01*
X177081207Y-126164375D01*
X176984132Y-126174235D01*
X176984130Y-126174235D01*
X176977784Y-126174880D01*
X176783828Y-126235662D01*
X176606056Y-126334203D01*
X176451729Y-126466477D01*
X176327152Y-126627081D01*
X176237413Y-126809455D01*
X176235804Y-126815633D01*
X176235803Y-126815635D01*
X176209603Y-126916220D01*
X176186178Y-127006148D01*
X176175541Y-127209126D01*
X173150500Y-127209126D01*
X173150500Y-124669126D01*
X176175541Y-124669126D01*
X176205935Y-124870097D01*
X176276119Y-125060852D01*
X176279479Y-125066272D01*
X176279480Y-125066273D01*
X176379863Y-125228176D01*
X176379866Y-125228180D01*
X176383226Y-125233599D01*
X176522881Y-125381280D01*
X176689379Y-125497863D01*
X176875919Y-125578586D01*
X176921947Y-125588202D01*
X177070144Y-125619162D01*
X177070149Y-125619163D01*
X177074880Y-125620151D01*
X177079762Y-125620407D01*
X177079871Y-125620413D01*
X177079887Y-125620413D01*
X177081539Y-125620500D01*
X177630800Y-125620500D01*
X177678793Y-125615625D01*
X177775868Y-125605765D01*
X177775870Y-125605765D01*
X177782216Y-125605120D01*
X177976172Y-125544338D01*
X178153944Y-125445797D01*
X178308271Y-125313523D01*
X178432848Y-125152919D01*
X178522587Y-124970545D01*
X178548752Y-124870097D01*
X178572212Y-124780034D01*
X178572212Y-124780031D01*
X178573822Y-124773852D01*
X178584459Y-124570874D01*
X178554065Y-124369903D01*
X178483881Y-124179148D01*
X178430345Y-124092802D01*
X178380137Y-124011824D01*
X178380134Y-124011820D01*
X178376774Y-124006401D01*
X178305959Y-123931516D01*
X178241508Y-123863361D01*
X178241507Y-123863360D01*
X178237119Y-123858720D01*
X178082860Y-123750707D01*
X178075851Y-123745799D01*
X178075850Y-123745799D01*
X178070621Y-123742137D01*
X177884081Y-123661414D01*
X177838053Y-123651798D01*
X177689856Y-123620838D01*
X177689851Y-123620837D01*
X177685120Y-123619849D01*
X177680238Y-123619593D01*
X177680129Y-123619587D01*
X177680113Y-123619587D01*
X177678461Y-123619500D01*
X177129200Y-123619500D01*
X177089820Y-123623500D01*
X176984132Y-123634235D01*
X176984130Y-123634235D01*
X176977784Y-123634880D01*
X176783828Y-123695662D01*
X176606056Y-123794203D01*
X176451729Y-123926477D01*
X176447822Y-123931514D01*
X176447820Y-123931516D01*
X176393331Y-124001763D01*
X176327152Y-124087081D01*
X176237413Y-124269455D01*
X176235804Y-124275633D01*
X176235803Y-124275635D01*
X176209603Y-124376220D01*
X176186178Y-124466148D01*
X176175541Y-124669126D01*
X173150500Y-124669126D01*
X173150500Y-122129126D01*
X176175541Y-122129126D01*
X176205935Y-122330097D01*
X176276119Y-122520852D01*
X176279479Y-122526272D01*
X176279480Y-122526273D01*
X176379863Y-122688176D01*
X176379866Y-122688180D01*
X176383226Y-122693599D01*
X176387612Y-122698237D01*
X176461622Y-122776500D01*
X176522881Y-122841280D01*
X176689379Y-122957863D01*
X176875919Y-123038586D01*
X176921947Y-123048202D01*
X177070144Y-123079162D01*
X177070149Y-123079163D01*
X177074880Y-123080151D01*
X177079762Y-123080407D01*
X177079871Y-123080413D01*
X177079887Y-123080413D01*
X177081539Y-123080500D01*
X177630800Y-123080500D01*
X177678793Y-123075625D01*
X177775868Y-123065765D01*
X177775870Y-123065765D01*
X177782216Y-123065120D01*
X177976172Y-123004338D01*
X178153944Y-122905797D01*
X178308271Y-122773523D01*
X178432848Y-122612919D01*
X178522587Y-122430545D01*
X178548752Y-122330097D01*
X178572212Y-122240034D01*
X178572212Y-122240031D01*
X178573822Y-122233852D01*
X178580261Y-122110990D01*
X178584125Y-122037256D01*
X178584125Y-122037252D01*
X178584459Y-122030874D01*
X178554065Y-121829903D01*
X178551032Y-121821658D01*
X178523913Y-121747952D01*
X178483881Y-121639148D01*
X178430345Y-121552802D01*
X178380137Y-121471824D01*
X178380134Y-121471820D01*
X178376774Y-121466401D01*
X178237119Y-121318720D01*
X178070621Y-121202137D01*
X177884081Y-121121414D01*
X177838053Y-121111798D01*
X177689856Y-121080838D01*
X177689851Y-121080837D01*
X177685120Y-121079849D01*
X177680238Y-121079593D01*
X177680129Y-121079587D01*
X177680113Y-121079587D01*
X177678461Y-121079500D01*
X177129200Y-121079500D01*
X177081207Y-121084375D01*
X176984132Y-121094235D01*
X176984130Y-121094235D01*
X176977784Y-121094880D01*
X176783828Y-121155662D01*
X176606056Y-121254203D01*
X176451729Y-121386477D01*
X176327152Y-121547081D01*
X176278903Y-121645137D01*
X176241937Y-121720262D01*
X176237413Y-121729455D01*
X176235804Y-121735633D01*
X176235803Y-121735635D01*
X176192588Y-121901541D01*
X176186178Y-121926148D01*
X176185522Y-121938675D01*
X176178671Y-122069406D01*
X176175541Y-122129126D01*
X173150500Y-122129126D01*
X173150500Y-122028496D01*
X173152979Y-122005208D01*
X173153078Y-122003110D01*
X173155269Y-121992933D01*
X173151373Y-121960015D01*
X173151029Y-121954179D01*
X173150928Y-121954187D01*
X173150500Y-121949008D01*
X173150500Y-121943807D01*
X173147371Y-121925007D01*
X173146534Y-121919130D01*
X173141800Y-121879134D01*
X173140576Y-121868790D01*
X173136654Y-121860623D01*
X173135167Y-121851687D01*
X173130223Y-121842525D01*
X173130222Y-121842521D01*
X173111094Y-121807071D01*
X173108398Y-121801780D01*
X173089897Y-121763251D01*
X173089896Y-121763250D01*
X173086463Y-121756100D01*
X173082906Y-121751869D01*
X173080974Y-121749937D01*
X173079255Y-121748063D01*
X173079181Y-121747926D01*
X173079291Y-121747826D01*
X173078868Y-121747346D01*
X173075806Y-121741671D01*
X173036632Y-121705459D01*
X173033067Y-121702030D01*
X172637405Y-121306368D01*
X172603379Y-121244056D01*
X172600500Y-121217273D01*
X172600500Y-119589126D01*
X176175541Y-119589126D01*
X176205935Y-119790097D01*
X176276119Y-119980852D01*
X176279479Y-119986272D01*
X176279480Y-119986273D01*
X176379863Y-120148176D01*
X176379866Y-120148180D01*
X176383226Y-120153599D01*
X176522881Y-120301280D01*
X176689379Y-120417863D01*
X176875919Y-120498586D01*
X176921947Y-120508202D01*
X177070144Y-120539162D01*
X177070149Y-120539163D01*
X177074880Y-120540151D01*
X177079762Y-120540407D01*
X177079871Y-120540413D01*
X177079887Y-120540413D01*
X177081539Y-120540500D01*
X177630800Y-120540500D01*
X177678793Y-120535625D01*
X177775868Y-120525765D01*
X177775870Y-120525765D01*
X177782216Y-120525120D01*
X177976172Y-120464338D01*
X178153944Y-120365797D01*
X178308271Y-120233523D01*
X178317053Y-120222202D01*
X178428939Y-120077958D01*
X178432848Y-120072919D01*
X178522587Y-119890545D01*
X178538944Y-119827751D01*
X178572212Y-119700034D01*
X178572212Y-119700031D01*
X178573822Y-119693852D01*
X178584459Y-119490874D01*
X178554065Y-119289903D01*
X178483881Y-119099148D01*
X178478363Y-119090248D01*
X178380137Y-118931824D01*
X178380134Y-118931820D01*
X178376774Y-118926401D01*
X178285559Y-118829944D01*
X178241508Y-118783361D01*
X178241507Y-118783360D01*
X178237119Y-118778720D01*
X178070621Y-118662137D01*
X177884081Y-118581414D01*
X177838053Y-118571798D01*
X177689856Y-118540838D01*
X177689851Y-118540837D01*
X177685120Y-118539849D01*
X177680238Y-118539593D01*
X177680129Y-118539587D01*
X177680113Y-118539587D01*
X177678461Y-118539500D01*
X177129200Y-118539500D01*
X177081207Y-118544375D01*
X176984132Y-118554235D01*
X176984130Y-118554235D01*
X176977784Y-118554880D01*
X176783828Y-118615662D01*
X176606056Y-118714203D01*
X176451729Y-118846477D01*
X176447822Y-118851514D01*
X176447820Y-118851516D01*
X176393331Y-118921763D01*
X176327152Y-119007081D01*
X176237413Y-119189455D01*
X176235804Y-119195633D01*
X176235803Y-119195635D01*
X176209603Y-119296220D01*
X176186178Y-119386148D01*
X176175541Y-119589126D01*
X172600500Y-119589126D01*
X172600500Y-118930252D01*
X172588867Y-118871769D01*
X172544552Y-118805448D01*
X172478231Y-118761133D01*
X172466062Y-118758712D01*
X172466061Y-118758712D01*
X172425816Y-118750707D01*
X172419748Y-118749500D01*
X172001500Y-118749500D01*
X171933379Y-118729498D01*
X171886886Y-118675842D01*
X171875500Y-118623500D01*
X171875500Y-117049126D01*
X176175541Y-117049126D01*
X176205935Y-117250097D01*
X176276119Y-117440852D01*
X176279479Y-117446272D01*
X176279480Y-117446273D01*
X176379863Y-117608176D01*
X176379866Y-117608180D01*
X176383226Y-117613599D01*
X176522881Y-117761280D01*
X176689379Y-117877863D01*
X176875919Y-117958586D01*
X176891620Y-117961866D01*
X177070144Y-117999162D01*
X177070149Y-117999163D01*
X177074880Y-118000151D01*
X177079762Y-118000407D01*
X177079871Y-118000413D01*
X177079887Y-118000413D01*
X177081539Y-118000500D01*
X177630800Y-118000500D01*
X177680025Y-117995500D01*
X177775868Y-117985765D01*
X177775870Y-117985765D01*
X177782216Y-117985120D01*
X177976172Y-117924338D01*
X178153944Y-117825797D01*
X178308271Y-117693523D01*
X178432848Y-117532919D01*
X178522587Y-117350545D01*
X178530096Y-117321718D01*
X178572212Y-117160034D01*
X178572212Y-117160031D01*
X178573822Y-117153852D01*
X178583107Y-116976676D01*
X178584125Y-116957256D01*
X178584125Y-116957252D01*
X178584459Y-116950874D01*
X178554065Y-116749903D01*
X178483881Y-116559148D01*
X178430345Y-116472802D01*
X178380137Y-116391824D01*
X178380134Y-116391820D01*
X178376774Y-116386401D01*
X178237119Y-116238720D01*
X178070621Y-116122137D01*
X177884081Y-116041414D01*
X177838053Y-116031798D01*
X177689856Y-116000838D01*
X177689851Y-116000837D01*
X177685120Y-115999849D01*
X177680238Y-115999593D01*
X177680129Y-115999587D01*
X177680113Y-115999587D01*
X177678461Y-115999500D01*
X177129200Y-115999500D01*
X177081207Y-116004375D01*
X176984132Y-116014235D01*
X176984130Y-116014235D01*
X176977784Y-116014880D01*
X176783828Y-116075662D01*
X176606056Y-116174203D01*
X176451729Y-116306477D01*
X176327152Y-116467081D01*
X176237413Y-116649455D01*
X176235804Y-116655633D01*
X176235803Y-116655635D01*
X176209603Y-116756220D01*
X176186178Y-116846148D01*
X176185844Y-116852527D01*
X176176720Y-117026635D01*
X176175541Y-117049126D01*
X171875500Y-117049126D01*
X171875500Y-106473496D01*
X171877979Y-106450199D01*
X171878077Y-106448114D01*
X171880269Y-106437934D01*
X171876373Y-106405016D01*
X171876029Y-106399179D01*
X171875928Y-106399187D01*
X171875500Y-106394008D01*
X171875500Y-106388807D01*
X171872372Y-106370013D01*
X171871535Y-106364137D01*
X171866800Y-106324133D01*
X171865576Y-106313790D01*
X171861654Y-106305623D01*
X171860167Y-106296687D01*
X171855223Y-106287525D01*
X171855222Y-106287521D01*
X171836094Y-106252071D01*
X171833398Y-106246780D01*
X171814897Y-106208251D01*
X171814896Y-106208250D01*
X171811463Y-106201100D01*
X171807906Y-106196869D01*
X171805974Y-106194937D01*
X171804255Y-106193063D01*
X171804181Y-106192926D01*
X171804291Y-106192826D01*
X171803868Y-106192346D01*
X171800806Y-106186671D01*
X171761632Y-106150459D01*
X171758067Y-106147030D01*
X170598366Y-104987329D01*
X170564340Y-104925017D01*
X170567902Y-104858463D01*
X170607406Y-104739709D01*
X170609351Y-104733863D01*
X170635171Y-104529474D01*
X170635583Y-104500000D01*
X170634138Y-104485262D01*
X173604520Y-104485262D01*
X173621759Y-104690553D01*
X173678544Y-104888586D01*
X173681359Y-104894063D01*
X173681360Y-104894066D01*
X173769897Y-105066341D01*
X173772712Y-105071818D01*
X173900677Y-105233270D01*
X174057564Y-105366791D01*
X174237398Y-105467297D01*
X174305150Y-105489311D01*
X174427471Y-105529056D01*
X174427475Y-105529057D01*
X174433329Y-105530959D01*
X174637894Y-105555351D01*
X174644029Y-105554879D01*
X174644031Y-105554879D01*
X174716625Y-105549293D01*
X174843300Y-105539546D01*
X174849230Y-105537890D01*
X174849232Y-105537890D01*
X175023222Y-105489311D01*
X175041725Y-105484145D01*
X175047214Y-105481372D01*
X175047220Y-105481370D01*
X175220116Y-105394033D01*
X175225610Y-105391258D01*
X175387951Y-105264424D01*
X175522564Y-105108472D01*
X175543387Y-105071818D01*
X175621276Y-104934707D01*
X175624323Y-104929344D01*
X175689351Y-104733863D01*
X175715171Y-104529474D01*
X175715583Y-104500000D01*
X175714138Y-104485262D01*
X176144520Y-104485262D01*
X176161759Y-104690553D01*
X176218544Y-104888586D01*
X176221359Y-104894063D01*
X176221360Y-104894066D01*
X176309897Y-105066341D01*
X176312712Y-105071818D01*
X176440677Y-105233270D01*
X176597564Y-105366791D01*
X176777398Y-105467297D01*
X176845150Y-105489311D01*
X176967471Y-105529056D01*
X176967475Y-105529057D01*
X176973329Y-105530959D01*
X177177894Y-105555351D01*
X177184029Y-105554879D01*
X177184031Y-105554879D01*
X177256625Y-105549293D01*
X177383300Y-105539546D01*
X177389230Y-105537890D01*
X177389232Y-105537890D01*
X177563222Y-105489311D01*
X177581725Y-105484145D01*
X177587214Y-105481372D01*
X177587220Y-105481370D01*
X177760116Y-105394033D01*
X177765610Y-105391258D01*
X177927951Y-105264424D01*
X178062564Y-105108472D01*
X178083387Y-105071818D01*
X178161276Y-104934707D01*
X178164323Y-104929344D01*
X178229351Y-104733863D01*
X178255171Y-104529474D01*
X178255583Y-104500000D01*
X178235480Y-104294970D01*
X178175935Y-104097749D01*
X178079218Y-103915849D01*
X178005859Y-103825902D01*
X177952906Y-103760975D01*
X177952903Y-103760972D01*
X177949011Y-103756200D01*
X177931786Y-103741950D01*
X177795025Y-103628811D01*
X177795021Y-103628809D01*
X177790275Y-103624882D01*
X177609055Y-103526897D01*
X177412254Y-103465977D01*
X177406129Y-103465333D01*
X177406128Y-103465333D01*
X177213498Y-103445087D01*
X177213496Y-103445087D01*
X177207369Y-103444443D01*
X177120529Y-103452346D01*
X177008342Y-103462555D01*
X177008339Y-103462556D01*
X177002203Y-103463114D01*
X176804572Y-103521280D01*
X176622002Y-103616726D01*
X176617201Y-103620586D01*
X176617198Y-103620588D01*
X176466254Y-103741950D01*
X176461447Y-103745815D01*
X176329024Y-103903630D01*
X176326056Y-103909028D01*
X176326053Y-103909033D01*
X176238059Y-104069096D01*
X176229776Y-104084162D01*
X176167484Y-104280532D01*
X176166798Y-104286649D01*
X176166797Y-104286653D01*
X176145207Y-104479137D01*
X176144520Y-104485262D01*
X175714138Y-104485262D01*
X175695480Y-104294970D01*
X175635935Y-104097749D01*
X175539218Y-103915849D01*
X175465859Y-103825902D01*
X175412906Y-103760975D01*
X175412903Y-103760972D01*
X175409011Y-103756200D01*
X175391786Y-103741950D01*
X175255025Y-103628811D01*
X175255021Y-103628809D01*
X175250275Y-103624882D01*
X175069055Y-103526897D01*
X174872254Y-103465977D01*
X174866129Y-103465333D01*
X174866128Y-103465333D01*
X174673498Y-103445087D01*
X174673496Y-103445087D01*
X174667369Y-103444443D01*
X174580529Y-103452346D01*
X174468342Y-103462555D01*
X174468339Y-103462556D01*
X174462203Y-103463114D01*
X174264572Y-103521280D01*
X174082002Y-103616726D01*
X174077201Y-103620586D01*
X174077198Y-103620588D01*
X173926254Y-103741950D01*
X173921447Y-103745815D01*
X173789024Y-103903630D01*
X173786056Y-103909028D01*
X173786053Y-103909033D01*
X173698059Y-104069096D01*
X173689776Y-104084162D01*
X173627484Y-104280532D01*
X173626798Y-104286649D01*
X173626797Y-104286653D01*
X173605207Y-104479137D01*
X173604520Y-104485262D01*
X170634138Y-104485262D01*
X170615480Y-104294970D01*
X170555935Y-104097749D01*
X170459218Y-103915849D01*
X170385859Y-103825902D01*
X170332906Y-103760975D01*
X170332903Y-103760972D01*
X170329011Y-103756200D01*
X170311786Y-103741950D01*
X170175025Y-103628811D01*
X170175021Y-103628809D01*
X170170275Y-103624882D01*
X169989055Y-103526897D01*
X169792254Y-103465977D01*
X169786129Y-103465333D01*
X169786128Y-103465333D01*
X169593498Y-103445087D01*
X169593496Y-103445087D01*
X169587369Y-103444443D01*
X169500529Y-103452346D01*
X169388342Y-103462555D01*
X169388339Y-103462556D01*
X169382203Y-103463114D01*
X169376292Y-103464854D01*
X169376285Y-103464855D01*
X169215968Y-103512039D01*
X169144972Y-103512085D01*
X169091298Y-103480261D01*
X163412405Y-97801368D01*
X163378379Y-97739056D01*
X163375500Y-97712273D01*
X163375500Y-96794666D01*
X167226758Y-96794666D01*
X167226853Y-96798296D01*
X167226853Y-96798297D01*
X167235570Y-97131185D01*
X167235665Y-97134810D01*
X167283609Y-97471676D01*
X167369952Y-97800800D01*
X167493553Y-98117818D01*
X167652771Y-98418529D01*
X167654821Y-98421512D01*
X167654823Y-98421515D01*
X167843440Y-98695955D01*
X167843446Y-98695962D01*
X167845497Y-98698947D01*
X168069176Y-98955355D01*
X168320844Y-99184355D01*
X168597164Y-99382911D01*
X168894474Y-99548392D01*
X169208835Y-99678604D01*
X169212329Y-99679599D01*
X169212331Y-99679600D01*
X169532577Y-99770825D01*
X169532582Y-99770826D01*
X169536078Y-99771822D01*
X169729004Y-99803415D01*
X169868285Y-99826223D01*
X169868292Y-99826224D01*
X169871866Y-99826809D01*
X170041808Y-99834824D01*
X170208122Y-99842667D01*
X170208123Y-99842667D01*
X170211749Y-99842838D01*
X170221072Y-99842202D01*
X170547591Y-99819943D01*
X170547599Y-99819942D01*
X170551222Y-99819695D01*
X170554798Y-99819032D01*
X170554800Y-99819032D01*
X170882221Y-99758348D01*
X170882225Y-99758347D01*
X170885786Y-99757687D01*
X171211005Y-99657637D01*
X171522569Y-99520870D01*
X171763663Y-99379986D01*
X171813209Y-99351034D01*
X171813211Y-99351033D01*
X171816349Y-99349199D01*
X171916925Y-99273684D01*
X172085543Y-99147082D01*
X172085547Y-99147079D01*
X172088450Y-99144899D01*
X172335267Y-98910679D01*
X172553527Y-98649643D01*
X172621549Y-98546090D01*
X172738351Y-98368276D01*
X172738356Y-98368267D01*
X172740338Y-98365250D01*
X172839273Y-98168541D01*
X172891597Y-98064507D01*
X172891600Y-98064499D01*
X172893224Y-98061271D01*
X172899867Y-98043119D01*
X173008910Y-97745145D01*
X173008913Y-97745135D01*
X173010158Y-97741733D01*
X173011003Y-97738211D01*
X173011006Y-97738203D01*
X173088743Y-97414403D01*
X173088744Y-97414399D01*
X173089590Y-97410874D01*
X173122616Y-97137964D01*
X173130132Y-97075856D01*
X173130133Y-97075849D01*
X173130468Y-97073077D01*
X173136300Y-96887500D01*
X173136139Y-96884704D01*
X173116922Y-96551423D01*
X173116921Y-96551418D01*
X173116713Y-96547803D01*
X173058212Y-96212609D01*
X173032593Y-96126118D01*
X172962605Y-95889845D01*
X172961573Y-95886360D01*
X172924528Y-95799508D01*
X172829499Y-95576718D01*
X172828076Y-95573381D01*
X172659491Y-95277819D01*
X172458052Y-95003593D01*
X172352075Y-94889548D01*
X172228901Y-94756998D01*
X172228899Y-94756997D01*
X172226429Y-94754338D01*
X172223675Y-94751986D01*
X172223671Y-94751982D01*
X172128631Y-94670810D01*
X171967693Y-94533356D01*
X171964690Y-94531338D01*
X171964682Y-94531332D01*
X171788872Y-94413194D01*
X171685272Y-94343577D01*
X171382910Y-94187516D01*
X171064615Y-94067243D01*
X170734605Y-93984350D01*
X170592427Y-93965632D01*
X170400859Y-93940411D01*
X170400851Y-93940410D01*
X170397255Y-93939937D01*
X170255228Y-93937706D01*
X170060679Y-93934649D01*
X170060675Y-93934649D01*
X170057037Y-93934592D01*
X170053423Y-93934953D01*
X170053417Y-93934953D01*
X169816077Y-93958643D01*
X169718458Y-93968387D01*
X169386007Y-94040873D01*
X169382580Y-94042046D01*
X169382574Y-94042048D01*
X169067518Y-94149916D01*
X169064092Y-94151089D01*
X168756977Y-94297576D01*
X168468734Y-94478390D01*
X168465898Y-94480662D01*
X168465891Y-94480667D01*
X168311560Y-94604309D01*
X168203184Y-94691135D01*
X167963847Y-94932993D01*
X167961611Y-94935845D01*
X167961609Y-94935847D01*
X167855936Y-95070617D01*
X167753894Y-95200756D01*
X167576108Y-95490876D01*
X167574583Y-95494161D01*
X167574581Y-95494165D01*
X167465194Y-95729820D01*
X167432846Y-95799508D01*
X167326006Y-96122560D01*
X167257006Y-96455752D01*
X167226758Y-96794666D01*
X163375500Y-96794666D01*
X163375500Y-91053496D01*
X163377979Y-91030208D01*
X163378078Y-91028110D01*
X163380269Y-91017933D01*
X163376373Y-90985015D01*
X163376029Y-90979179D01*
X163375928Y-90979187D01*
X163375500Y-90974008D01*
X163375500Y-90968807D01*
X163372371Y-90950007D01*
X163371534Y-90944130D01*
X163366800Y-90904134D01*
X163365576Y-90893790D01*
X163361654Y-90885623D01*
X163360167Y-90876687D01*
X163355223Y-90867525D01*
X163355222Y-90867521D01*
X163336094Y-90832071D01*
X163333398Y-90826780D01*
X163314897Y-90788251D01*
X163314896Y-90788250D01*
X163311463Y-90781100D01*
X163307906Y-90776869D01*
X163305974Y-90774937D01*
X163304255Y-90773063D01*
X163304181Y-90772926D01*
X163304291Y-90772826D01*
X163303868Y-90772346D01*
X163300806Y-90766671D01*
X163261632Y-90730459D01*
X163258067Y-90727030D01*
X161791299Y-89260262D01*
X163444520Y-89260262D01*
X163461759Y-89465553D01*
X163518544Y-89663586D01*
X163521359Y-89669063D01*
X163521360Y-89669066D01*
X163542247Y-89709707D01*
X163612712Y-89846818D01*
X163740677Y-90008270D01*
X163897564Y-90141791D01*
X164077398Y-90242297D01*
X164161280Y-90269552D01*
X164267471Y-90304056D01*
X164267475Y-90304057D01*
X164273329Y-90305959D01*
X164477894Y-90330351D01*
X164484029Y-90329879D01*
X164484031Y-90329879D01*
X164556625Y-90324293D01*
X164683300Y-90314546D01*
X164689230Y-90312890D01*
X164689232Y-90312890D01*
X164875797Y-90260800D01*
X164875796Y-90260800D01*
X164881725Y-90259145D01*
X164887214Y-90256372D01*
X164887220Y-90256370D01*
X165060116Y-90169033D01*
X165065610Y-90166258D01*
X165227951Y-90039424D01*
X165362564Y-89883472D01*
X165383387Y-89846818D01*
X165461276Y-89709707D01*
X165464323Y-89704344D01*
X165529351Y-89508863D01*
X165555171Y-89304474D01*
X165555583Y-89275000D01*
X165554138Y-89260262D01*
X165984520Y-89260262D01*
X166001759Y-89465553D01*
X166058544Y-89663586D01*
X166061359Y-89669063D01*
X166061360Y-89669066D01*
X166082247Y-89709707D01*
X166152712Y-89846818D01*
X166280677Y-90008270D01*
X166437564Y-90141791D01*
X166617398Y-90242297D01*
X166701280Y-90269552D01*
X166807471Y-90304056D01*
X166807475Y-90304057D01*
X166813329Y-90305959D01*
X167017894Y-90330351D01*
X167024029Y-90329879D01*
X167024031Y-90329879D01*
X167096625Y-90324293D01*
X167223300Y-90314546D01*
X167229230Y-90312890D01*
X167229232Y-90312890D01*
X167415797Y-90260800D01*
X167415796Y-90260800D01*
X167421725Y-90259145D01*
X167427214Y-90256372D01*
X167427220Y-90256370D01*
X167600116Y-90169033D01*
X167605610Y-90166258D01*
X167767951Y-90039424D01*
X167902564Y-89883472D01*
X167923387Y-89846818D01*
X168001276Y-89709707D01*
X168004323Y-89704344D01*
X168069351Y-89508863D01*
X168095171Y-89304474D01*
X168095583Y-89275000D01*
X168094138Y-89260262D01*
X168524520Y-89260262D01*
X168541759Y-89465553D01*
X168598544Y-89663586D01*
X168601359Y-89669063D01*
X168601360Y-89669066D01*
X168622247Y-89709707D01*
X168692712Y-89846818D01*
X168820677Y-90008270D01*
X168977564Y-90141791D01*
X169157398Y-90242297D01*
X169241280Y-90269552D01*
X169347471Y-90304056D01*
X169347475Y-90304057D01*
X169353329Y-90305959D01*
X169557894Y-90330351D01*
X169564029Y-90329879D01*
X169564031Y-90329879D01*
X169636625Y-90324293D01*
X169763300Y-90314546D01*
X169769230Y-90312890D01*
X169769232Y-90312890D01*
X169955797Y-90260800D01*
X169955796Y-90260800D01*
X169961725Y-90259145D01*
X169967214Y-90256372D01*
X169967220Y-90256370D01*
X170140116Y-90169033D01*
X170145610Y-90166258D01*
X170307951Y-90039424D01*
X170442564Y-89883472D01*
X170463387Y-89846818D01*
X170541276Y-89709707D01*
X170544323Y-89704344D01*
X170609351Y-89508863D01*
X170635171Y-89304474D01*
X170635583Y-89275000D01*
X170634138Y-89260262D01*
X171064520Y-89260262D01*
X171081759Y-89465553D01*
X171138544Y-89663586D01*
X171141359Y-89669063D01*
X171141360Y-89669066D01*
X171162247Y-89709707D01*
X171232712Y-89846818D01*
X171360677Y-90008270D01*
X171517564Y-90141791D01*
X171697398Y-90242297D01*
X171781280Y-90269552D01*
X171887471Y-90304056D01*
X171887475Y-90304057D01*
X171893329Y-90305959D01*
X172097894Y-90330351D01*
X172104029Y-90329879D01*
X172104031Y-90329879D01*
X172176625Y-90324293D01*
X172303300Y-90314546D01*
X172309230Y-90312890D01*
X172309232Y-90312890D01*
X172495797Y-90260800D01*
X172495796Y-90260800D01*
X172501725Y-90259145D01*
X172507214Y-90256372D01*
X172507220Y-90256370D01*
X172680116Y-90169033D01*
X172685610Y-90166258D01*
X172847951Y-90039424D01*
X172982564Y-89883472D01*
X173003387Y-89846818D01*
X173081276Y-89709707D01*
X173084323Y-89704344D01*
X173149351Y-89508863D01*
X173175171Y-89304474D01*
X173175583Y-89275000D01*
X173174138Y-89260262D01*
X173604520Y-89260262D01*
X173621759Y-89465553D01*
X173678544Y-89663586D01*
X173681359Y-89669063D01*
X173681360Y-89669066D01*
X173702247Y-89709707D01*
X173772712Y-89846818D01*
X173900677Y-90008270D01*
X174057564Y-90141791D01*
X174237398Y-90242297D01*
X174321280Y-90269552D01*
X174427471Y-90304056D01*
X174427475Y-90304057D01*
X174433329Y-90305959D01*
X174637894Y-90330351D01*
X174644029Y-90329879D01*
X174644031Y-90329879D01*
X174716625Y-90324293D01*
X174843300Y-90314546D01*
X174849230Y-90312890D01*
X174849232Y-90312890D01*
X175035797Y-90260800D01*
X175035796Y-90260800D01*
X175041725Y-90259145D01*
X175047214Y-90256372D01*
X175047220Y-90256370D01*
X175220116Y-90169033D01*
X175225610Y-90166258D01*
X175253142Y-90144748D01*
X176149500Y-90144748D01*
X176150707Y-90150816D01*
X176154331Y-90169033D01*
X176161133Y-90203231D01*
X176205448Y-90269552D01*
X176271769Y-90313867D01*
X176283938Y-90316288D01*
X176283939Y-90316288D01*
X176324184Y-90324293D01*
X176330252Y-90325500D01*
X178069748Y-90325500D01*
X178075816Y-90324293D01*
X178116061Y-90316288D01*
X178116062Y-90316288D01*
X178128231Y-90313867D01*
X178194552Y-90269552D01*
X178238867Y-90203231D01*
X178245670Y-90169033D01*
X178249293Y-90150816D01*
X178250500Y-90144748D01*
X178250500Y-88405252D01*
X178238867Y-88346769D01*
X178194552Y-88280448D01*
X178128231Y-88236133D01*
X178116062Y-88233712D01*
X178116061Y-88233712D01*
X178075816Y-88225707D01*
X178069748Y-88224500D01*
X176330252Y-88224500D01*
X176324184Y-88225707D01*
X176283939Y-88233712D01*
X176283938Y-88233712D01*
X176271769Y-88236133D01*
X176205448Y-88280448D01*
X176161133Y-88346769D01*
X176149500Y-88405252D01*
X176149500Y-90144748D01*
X175253142Y-90144748D01*
X175387951Y-90039424D01*
X175522564Y-89883472D01*
X175543387Y-89846818D01*
X175621276Y-89709707D01*
X175624323Y-89704344D01*
X175689351Y-89508863D01*
X175715171Y-89304474D01*
X175715583Y-89275000D01*
X175695480Y-89069970D01*
X175635935Y-88872749D01*
X175539218Y-88690849D01*
X175454172Y-88586573D01*
X175412906Y-88535975D01*
X175412903Y-88535972D01*
X175409011Y-88531200D01*
X175391786Y-88516950D01*
X175255025Y-88403811D01*
X175255021Y-88403809D01*
X175250275Y-88399882D01*
X175069055Y-88301897D01*
X174872254Y-88240977D01*
X174866129Y-88240333D01*
X174866128Y-88240333D01*
X174673498Y-88220087D01*
X174673496Y-88220087D01*
X174667369Y-88219443D01*
X174580529Y-88227346D01*
X174468342Y-88237555D01*
X174468339Y-88237556D01*
X174462203Y-88238114D01*
X174264572Y-88296280D01*
X174082002Y-88391726D01*
X174077201Y-88395586D01*
X174077198Y-88395588D01*
X173926254Y-88516950D01*
X173921447Y-88520815D01*
X173789024Y-88678630D01*
X173786056Y-88684028D01*
X173786053Y-88684033D01*
X173692743Y-88853765D01*
X173689776Y-88859162D01*
X173627484Y-89055532D01*
X173626798Y-89061649D01*
X173626797Y-89061653D01*
X173605207Y-89254137D01*
X173604520Y-89260262D01*
X173174138Y-89260262D01*
X173155480Y-89069970D01*
X173095935Y-88872749D01*
X172999218Y-88690849D01*
X172914172Y-88586573D01*
X172872906Y-88535975D01*
X172872903Y-88535972D01*
X172869011Y-88531200D01*
X172851786Y-88516950D01*
X172715025Y-88403811D01*
X172715021Y-88403809D01*
X172710275Y-88399882D01*
X172529055Y-88301897D01*
X172332254Y-88240977D01*
X172326129Y-88240333D01*
X172326128Y-88240333D01*
X172133498Y-88220087D01*
X172133496Y-88220087D01*
X172127369Y-88219443D01*
X172040529Y-88227346D01*
X171928342Y-88237555D01*
X171928339Y-88237556D01*
X171922203Y-88238114D01*
X171724572Y-88296280D01*
X171542002Y-88391726D01*
X171537201Y-88395586D01*
X171537198Y-88395588D01*
X171386254Y-88516950D01*
X171381447Y-88520815D01*
X171249024Y-88678630D01*
X171246056Y-88684028D01*
X171246053Y-88684033D01*
X171152743Y-88853765D01*
X171149776Y-88859162D01*
X171087484Y-89055532D01*
X171086798Y-89061649D01*
X171086797Y-89061653D01*
X171065207Y-89254137D01*
X171064520Y-89260262D01*
X170634138Y-89260262D01*
X170615480Y-89069970D01*
X170555935Y-88872749D01*
X170459218Y-88690849D01*
X170374172Y-88586573D01*
X170332906Y-88535975D01*
X170332903Y-88535972D01*
X170329011Y-88531200D01*
X170311786Y-88516950D01*
X170175025Y-88403811D01*
X170175021Y-88403809D01*
X170170275Y-88399882D01*
X169989055Y-88301897D01*
X169792254Y-88240977D01*
X169786129Y-88240333D01*
X169786128Y-88240333D01*
X169593498Y-88220087D01*
X169593496Y-88220087D01*
X169587369Y-88219443D01*
X169500529Y-88227346D01*
X169388342Y-88237555D01*
X169388339Y-88237556D01*
X169382203Y-88238114D01*
X169184572Y-88296280D01*
X169002002Y-88391726D01*
X168997201Y-88395586D01*
X168997198Y-88395588D01*
X168846254Y-88516950D01*
X168841447Y-88520815D01*
X168709024Y-88678630D01*
X168706056Y-88684028D01*
X168706053Y-88684033D01*
X168612743Y-88853765D01*
X168609776Y-88859162D01*
X168547484Y-89055532D01*
X168546798Y-89061649D01*
X168546797Y-89061653D01*
X168525207Y-89254137D01*
X168524520Y-89260262D01*
X168094138Y-89260262D01*
X168075480Y-89069970D01*
X168015935Y-88872749D01*
X167919218Y-88690849D01*
X167834172Y-88586573D01*
X167792906Y-88535975D01*
X167792903Y-88535972D01*
X167789011Y-88531200D01*
X167771786Y-88516950D01*
X167635025Y-88403811D01*
X167635021Y-88403809D01*
X167630275Y-88399882D01*
X167449055Y-88301897D01*
X167252254Y-88240977D01*
X167246129Y-88240333D01*
X167246128Y-88240333D01*
X167053498Y-88220087D01*
X167053496Y-88220087D01*
X167047369Y-88219443D01*
X166960529Y-88227346D01*
X166848342Y-88237555D01*
X166848339Y-88237556D01*
X166842203Y-88238114D01*
X166644572Y-88296280D01*
X166462002Y-88391726D01*
X166457201Y-88395586D01*
X166457198Y-88395588D01*
X166306254Y-88516950D01*
X166301447Y-88520815D01*
X166169024Y-88678630D01*
X166166056Y-88684028D01*
X166166053Y-88684033D01*
X166072743Y-88853765D01*
X166069776Y-88859162D01*
X166007484Y-89055532D01*
X166006798Y-89061649D01*
X166006797Y-89061653D01*
X165985207Y-89254137D01*
X165984520Y-89260262D01*
X165554138Y-89260262D01*
X165535480Y-89069970D01*
X165475935Y-88872749D01*
X165379218Y-88690849D01*
X165294172Y-88586573D01*
X165252906Y-88535975D01*
X165252903Y-88535972D01*
X165249011Y-88531200D01*
X165231786Y-88516950D01*
X165095025Y-88403811D01*
X165095021Y-88403809D01*
X165090275Y-88399882D01*
X164909055Y-88301897D01*
X164712254Y-88240977D01*
X164706129Y-88240333D01*
X164706128Y-88240333D01*
X164513498Y-88220087D01*
X164513496Y-88220087D01*
X164507369Y-88219443D01*
X164420529Y-88227346D01*
X164308342Y-88237555D01*
X164308339Y-88237556D01*
X164302203Y-88238114D01*
X164104572Y-88296280D01*
X163922002Y-88391726D01*
X163917201Y-88395586D01*
X163917198Y-88395588D01*
X163766254Y-88516950D01*
X163761447Y-88520815D01*
X163629024Y-88678630D01*
X163626056Y-88684028D01*
X163626053Y-88684033D01*
X163532743Y-88853765D01*
X163529776Y-88859162D01*
X163467484Y-89055532D01*
X163466798Y-89061649D01*
X163466797Y-89061653D01*
X163445207Y-89254137D01*
X163444520Y-89260262D01*
X161791299Y-89260262D01*
X159513348Y-86982311D01*
X159498623Y-86964080D01*
X159497222Y-86962540D01*
X159491572Y-86953790D01*
X159465535Y-86933264D01*
X159461168Y-86929383D01*
X159461102Y-86929461D01*
X159457144Y-86926107D01*
X159453462Y-86922425D01*
X159449231Y-86919402D01*
X159449228Y-86919399D01*
X159441508Y-86913883D01*
X159437948Y-86911339D01*
X159433212Y-86907783D01*
X159393400Y-86876397D01*
X159384851Y-86873395D01*
X159377481Y-86868128D01*
X159344203Y-86858176D01*
X159328930Y-86853608D01*
X159323286Y-86851774D01*
X159282935Y-86837604D01*
X159282929Y-86837603D01*
X159275452Y-86834977D01*
X159269945Y-86834500D01*
X159267238Y-86834500D01*
X159264665Y-86834389D01*
X159264506Y-86834341D01*
X159264512Y-86834197D01*
X159263892Y-86834158D01*
X159257713Y-86832310D01*
X159204445Y-86834403D01*
X159199498Y-86834500D01*
X158759279Y-86834500D01*
X158691158Y-86814498D01*
X158644665Y-86760842D01*
X158636386Y-86736309D01*
X158631786Y-86715982D01*
X158630756Y-86711428D01*
X158629063Y-86707074D01*
X158540843Y-86480216D01*
X158540842Y-86480214D01*
X158539150Y-86475863D01*
X158413731Y-86256426D01*
X158257255Y-86057938D01*
X158073160Y-85884758D01*
X157865489Y-85740691D01*
X157861296Y-85738623D01*
X157642993Y-85630968D01*
X157642990Y-85630967D01*
X157638805Y-85628903D01*
X157594379Y-85614682D01*
X157542403Y-85598045D01*
X157398087Y-85551849D01*
X157393480Y-85551099D01*
X157393477Y-85551098D01*
X157153235Y-85511972D01*
X157153236Y-85511972D01*
X157148624Y-85511221D01*
X157026026Y-85509616D01*
X156900573Y-85507974D01*
X156900570Y-85507974D01*
X156895896Y-85507913D01*
X156645455Y-85541996D01*
X156640965Y-85543305D01*
X156640959Y-85543306D01*
X156537851Y-85573360D01*
X156402803Y-85612723D01*
X156398556Y-85614681D01*
X156398553Y-85614682D01*
X156363226Y-85630968D01*
X156173270Y-85718539D01*
X156169361Y-85721102D01*
X155965812Y-85854554D01*
X155965807Y-85854558D01*
X155961899Y-85857120D01*
X155773333Y-86025421D01*
X155611715Y-86219746D01*
X155480595Y-86435825D01*
X155478786Y-86440139D01*
X155478785Y-86440141D01*
X155384761Y-86664364D01*
X155382854Y-86668911D01*
X155381703Y-86673443D01*
X155381702Y-86673446D01*
X155359506Y-86760842D01*
X155320639Y-86913883D01*
X155295316Y-87165361D01*
X155307443Y-87417820D01*
X155308356Y-87422409D01*
X155348138Y-87622405D01*
X155356752Y-87665713D01*
X155358331Y-87670111D01*
X155358333Y-87670118D01*
X155440577Y-87899186D01*
X155442160Y-87903595D01*
X155561792Y-88126240D01*
X155564587Y-88129984D01*
X155564589Y-88129986D01*
X155710226Y-88325018D01*
X155710231Y-88325024D01*
X155713018Y-88328756D01*
X155716327Y-88332036D01*
X155716332Y-88332042D01*
X155889200Y-88503408D01*
X155892517Y-88506696D01*
X155896279Y-88509454D01*
X155896282Y-88509457D01*
X156092575Y-88653384D01*
X156096346Y-88656149D01*
X156100481Y-88658325D01*
X156100485Y-88658327D01*
X156172641Y-88696290D01*
X156320026Y-88773833D01*
X156558644Y-88857162D01*
X156563237Y-88858034D01*
X156802369Y-88903435D01*
X156802372Y-88903435D01*
X156806958Y-88904306D01*
X156927081Y-88909026D01*
X157054845Y-88914046D01*
X157054850Y-88914046D01*
X157059513Y-88914229D01*
X157137657Y-88905671D01*
X157306107Y-88887223D01*
X157306112Y-88887222D01*
X157310760Y-88886713D01*
X157393100Y-88865035D01*
X157550658Y-88823554D01*
X157550661Y-88823553D01*
X157555181Y-88822363D01*
X157787405Y-88722591D01*
X157894774Y-88656149D01*
X157998358Y-88592050D01*
X157998362Y-88592047D01*
X158002331Y-88589591D01*
X158075946Y-88527271D01*
X158191672Y-88429302D01*
X158191673Y-88429301D01*
X158195238Y-88426283D01*
X158228049Y-88388869D01*
X158358806Y-88239771D01*
X158358810Y-88239766D01*
X158361888Y-88236256D01*
X158364418Y-88232323D01*
X158496094Y-88027610D01*
X158496096Y-88027607D01*
X158498619Y-88023684D01*
X158602428Y-87793236D01*
X158635126Y-87677295D01*
X158672866Y-87617165D01*
X158737127Y-87586982D01*
X158756394Y-87585500D01*
X159002273Y-87585500D01*
X159070394Y-87605502D01*
X159091368Y-87622405D01*
X162587595Y-91118632D01*
X162621621Y-91180944D01*
X162624500Y-91207727D01*
X162624500Y-97866504D01*
X162622021Y-97889801D01*
X162621923Y-97891886D01*
X162619731Y-97902066D01*
X162623526Y-97934129D01*
X162623627Y-97934984D01*
X162623971Y-97940821D01*
X162624072Y-97940813D01*
X162624500Y-97945992D01*
X162624500Y-97951193D01*
X162625354Y-97956321D01*
X162625354Y-97956327D01*
X162627628Y-97969987D01*
X162628465Y-97975863D01*
X162634424Y-98026210D01*
X162638346Y-98034377D01*
X162639833Y-98043313D01*
X162644777Y-98052475D01*
X162644778Y-98052479D01*
X162663906Y-98087929D01*
X162666602Y-98093220D01*
X162688537Y-98138900D01*
X162692094Y-98143131D01*
X162694026Y-98145063D01*
X162695745Y-98146937D01*
X162695819Y-98147074D01*
X162695709Y-98147174D01*
X162696132Y-98147654D01*
X162699194Y-98153329D01*
X162706841Y-98160398D01*
X162706842Y-98160399D01*
X162738367Y-98189540D01*
X162741933Y-98192970D01*
X168561228Y-104012265D01*
X168595254Y-104074577D01*
X168592235Y-104139458D01*
X168547484Y-104280532D01*
X168546798Y-104286649D01*
X168546797Y-104286653D01*
X168525207Y-104479137D01*
X168524520Y-104485262D01*
X168541759Y-104690553D01*
X168598544Y-104888586D01*
X168601359Y-104894063D01*
X168601360Y-104894066D01*
X168689897Y-105066341D01*
X168692712Y-105071818D01*
X168820677Y-105233270D01*
X168977564Y-105366791D01*
X169157398Y-105467297D01*
X169225150Y-105489311D01*
X169347471Y-105529056D01*
X169347475Y-105529057D01*
X169353329Y-105530959D01*
X169557894Y-105555351D01*
X169564029Y-105554879D01*
X169564031Y-105554879D01*
X169636625Y-105549293D01*
X169763300Y-105539546D01*
X169769234Y-105537889D01*
X169769241Y-105537888D01*
X169946612Y-105488365D01*
X170017602Y-105489311D01*
X170069591Y-105520628D01*
X171087595Y-106538632D01*
X171121621Y-106600944D01*
X171124500Y-106627727D01*
X171124500Y-118623500D01*
X171104498Y-118691621D01*
X171050842Y-118738114D01*
X170998500Y-118749500D01*
X170580252Y-118749500D01*
X170574184Y-118750707D01*
X170533939Y-118758712D01*
X170533938Y-118758712D01*
X170521769Y-118761133D01*
X170455448Y-118805448D01*
X170411133Y-118871769D01*
X170399500Y-118930252D01*
X170399500Y-122469748D01*
X170411133Y-122528231D01*
X170455448Y-122594552D01*
X170521769Y-122638867D01*
X170533938Y-122641288D01*
X170533939Y-122641288D01*
X170574184Y-122649293D01*
X170580252Y-122650500D01*
X172273500Y-122650500D01*
X172341621Y-122670502D01*
X172388114Y-122724158D01*
X172399500Y-122776500D01*
X172399500Y-123623500D01*
X172379498Y-123691621D01*
X172325842Y-123738114D01*
X172273500Y-123749500D01*
X170580252Y-123749500D01*
X170574184Y-123750707D01*
X170533939Y-123758712D01*
X170533938Y-123758712D01*
X170521769Y-123761133D01*
X170455448Y-123805448D01*
X170411133Y-123871769D01*
X170399500Y-123930252D01*
X170399500Y-126316330D01*
X170392382Y-126358079D01*
X170387477Y-126372048D01*
X170387000Y-126377555D01*
X170387000Y-126380262D01*
X170386889Y-126382835D01*
X170386841Y-126382994D01*
X170386697Y-126382988D01*
X170386658Y-126383608D01*
X170384810Y-126389787D01*
X170386903Y-126443055D01*
X170387000Y-126448002D01*
X170387000Y-128223500D01*
X170366998Y-128291621D01*
X170313342Y-128338114D01*
X170261000Y-128349500D01*
X170141782Y-128349500D01*
X170137232Y-128350170D01*
X170137229Y-128350170D01*
X170082574Y-128358216D01*
X170082573Y-128358216D01*
X170072888Y-128359642D01*
X169968145Y-128411068D01*
X169944614Y-128434640D01*
X169882333Y-128468718D01*
X169811513Y-128463715D01*
X169755480Y-128422325D01*
X169743320Y-128406477D01*
X169678282Y-128321718D01*
X169680251Y-128320207D01*
X169652244Y-128268917D01*
X169657309Y-128198102D01*
X169665399Y-128180624D01*
X169673719Y-128165750D01*
X169673720Y-128165749D01*
X169677174Y-128159573D01*
X169689209Y-128118586D01*
X169695907Y-128095775D01*
X169695908Y-128095771D01*
X169697176Y-128091452D01*
X169697817Y-128086997D01*
X169704861Y-128038004D01*
X169704862Y-128037997D01*
X169705500Y-128033556D01*
X169705500Y-122212410D01*
X169704510Y-122192268D01*
X169702089Y-122167687D01*
X169699131Y-122147739D01*
X169696686Y-122135444D01*
X169691821Y-122110990D01*
X169691218Y-122107957D01*
X169679523Y-122069406D01*
X169660709Y-122023985D01*
X169659248Y-122021251D01*
X169643180Y-121991189D01*
X169643173Y-121991178D01*
X169641719Y-121988457D01*
X169626212Y-121965249D01*
X169615864Y-121952639D01*
X169602621Y-121936503D01*
X169602616Y-121936498D01*
X169600655Y-121934108D01*
X169565892Y-121899345D01*
X169563502Y-121897384D01*
X169563497Y-121897379D01*
X169537152Y-121875758D01*
X169537146Y-121875754D01*
X169534751Y-121873788D01*
X169511543Y-121858281D01*
X169508822Y-121856827D01*
X169508811Y-121856820D01*
X169478749Y-121840752D01*
X169478743Y-121840749D01*
X169476015Y-121839291D01*
X169430594Y-121820477D01*
X169427651Y-121819584D01*
X169427642Y-121819581D01*
X169395000Y-121809679D01*
X169394999Y-121809679D01*
X169392043Y-121808782D01*
X169370340Y-121804465D01*
X169353786Y-121801172D01*
X169353773Y-121801170D01*
X169352261Y-121800869D01*
X169332313Y-121797911D01*
X169330776Y-121797760D01*
X169330771Y-121797759D01*
X169309276Y-121795642D01*
X169309273Y-121795642D01*
X169307732Y-121795490D01*
X169306192Y-121795414D01*
X169306188Y-121795414D01*
X169289138Y-121794576D01*
X169289135Y-121794576D01*
X169287590Y-121794500D01*
X167175637Y-121794500D01*
X167171688Y-121794306D01*
X167169748Y-121793920D01*
X163630252Y-121793920D01*
X163628312Y-121794306D01*
X163624363Y-121794500D01*
X162823203Y-121794500D01*
X162784240Y-121800390D01*
X162767140Y-121802975D01*
X162767137Y-121802976D01*
X162762458Y-121803683D01*
X162691296Y-121825702D01*
X162665074Y-121835828D01*
X162657787Y-121841500D01*
X162657781Y-121841503D01*
X162649976Y-121847578D01*
X162583933Y-121873634D01*
X162514288Y-121859848D01*
X162511818Y-121858465D01*
X162511543Y-121858281D01*
X162510377Y-121857658D01*
X162510356Y-121857646D01*
X162478749Y-121840752D01*
X162478743Y-121840749D01*
X162476015Y-121839291D01*
X162430594Y-121820477D01*
X162427651Y-121819584D01*
X162427642Y-121819581D01*
X162395000Y-121809679D01*
X162394999Y-121809679D01*
X162392043Y-121808782D01*
X162370340Y-121804465D01*
X162353786Y-121801172D01*
X162353773Y-121801170D01*
X162352261Y-121800869D01*
X162332313Y-121797911D01*
X162330776Y-121797760D01*
X162330771Y-121797759D01*
X162309276Y-121795642D01*
X162309273Y-121795642D01*
X162307732Y-121795490D01*
X162306192Y-121795414D01*
X162306188Y-121795414D01*
X162289138Y-121794576D01*
X162289135Y-121794576D01*
X162287590Y-121794500D01*
X162175637Y-121794500D01*
X162171688Y-121794306D01*
X162169748Y-121793920D01*
X160901500Y-121793920D01*
X160833379Y-121773918D01*
X160786886Y-121720262D01*
X160775500Y-121667920D01*
X160775500Y-117750000D01*
X162144318Y-117750000D01*
X162164956Y-117906762D01*
X162225464Y-118052841D01*
X162321718Y-118178282D01*
X162447159Y-118274536D01*
X162593238Y-118335044D01*
X162750000Y-118355682D01*
X162758188Y-118354604D01*
X162898574Y-118336122D01*
X162906762Y-118335044D01*
X163052841Y-118274536D01*
X163178282Y-118178282D01*
X163274536Y-118052841D01*
X163335044Y-117906762D01*
X163355682Y-117750000D01*
X163346882Y-117683157D01*
X163357821Y-117613010D01*
X163382709Y-117577617D01*
X168077617Y-112882709D01*
X168139929Y-112848683D01*
X168183157Y-112846882D01*
X168250000Y-112855682D01*
X168258188Y-112854604D01*
X168398574Y-112836122D01*
X168406762Y-112835044D01*
X168552841Y-112774536D01*
X168678282Y-112678282D01*
X168774536Y-112552841D01*
X168835044Y-112406762D01*
X168855682Y-112250000D01*
X168835044Y-112093238D01*
X168774536Y-111947159D01*
X168678282Y-111821718D01*
X168552841Y-111725464D01*
X168406762Y-111664956D01*
X168250000Y-111644318D01*
X168093238Y-111664956D01*
X167947159Y-111725464D01*
X167821718Y-111821718D01*
X167725464Y-111947159D01*
X167664956Y-112093238D01*
X167644318Y-112250000D01*
X167645396Y-112258188D01*
X167653118Y-112316842D01*
X167642179Y-112386990D01*
X167617291Y-112422383D01*
X162922383Y-117117291D01*
X162860071Y-117151317D01*
X162816843Y-117153118D01*
X162750000Y-117144318D01*
X162593238Y-117164956D01*
X162447159Y-117225464D01*
X162321718Y-117321718D01*
X162225464Y-117447159D01*
X162164956Y-117593238D01*
X162144318Y-117750000D01*
X160775500Y-117750000D01*
X160775500Y-105369748D01*
X163449500Y-105369748D01*
X163450707Y-105375816D01*
X163454331Y-105394033D01*
X163461133Y-105428231D01*
X163505448Y-105494552D01*
X163571769Y-105538867D01*
X163583938Y-105541288D01*
X163583939Y-105541288D01*
X163624184Y-105549293D01*
X163630252Y-105550500D01*
X165369748Y-105550500D01*
X165375816Y-105549293D01*
X165416061Y-105541288D01*
X165416062Y-105541288D01*
X165428231Y-105538867D01*
X165494552Y-105494552D01*
X165538867Y-105428231D01*
X165545670Y-105394033D01*
X165549293Y-105375816D01*
X165550500Y-105369748D01*
X165550500Y-104485262D01*
X165984520Y-104485262D01*
X166001759Y-104690553D01*
X166058544Y-104888586D01*
X166061359Y-104894063D01*
X166061360Y-104894066D01*
X166149897Y-105066341D01*
X166152712Y-105071818D01*
X166280677Y-105233270D01*
X166437564Y-105366791D01*
X166617398Y-105467297D01*
X166685150Y-105489311D01*
X166807471Y-105529056D01*
X166807475Y-105529057D01*
X166813329Y-105530959D01*
X167017894Y-105555351D01*
X167024029Y-105554879D01*
X167024031Y-105554879D01*
X167096625Y-105549293D01*
X167223300Y-105539546D01*
X167229230Y-105537890D01*
X167229232Y-105537890D01*
X167403222Y-105489311D01*
X167421725Y-105484145D01*
X167427214Y-105481372D01*
X167427220Y-105481370D01*
X167600116Y-105394033D01*
X167605610Y-105391258D01*
X167767951Y-105264424D01*
X167902564Y-105108472D01*
X167923387Y-105071818D01*
X168001276Y-104934707D01*
X168004323Y-104929344D01*
X168069351Y-104733863D01*
X168095171Y-104529474D01*
X168095583Y-104500000D01*
X168075480Y-104294970D01*
X168015935Y-104097749D01*
X167919218Y-103915849D01*
X167845859Y-103825902D01*
X167792906Y-103760975D01*
X167792903Y-103760972D01*
X167789011Y-103756200D01*
X167771786Y-103741950D01*
X167635025Y-103628811D01*
X167635021Y-103628809D01*
X167630275Y-103624882D01*
X167449055Y-103526897D01*
X167252254Y-103465977D01*
X167246129Y-103465333D01*
X167246128Y-103465333D01*
X167053498Y-103445087D01*
X167053496Y-103445087D01*
X167047369Y-103444443D01*
X166960529Y-103452346D01*
X166848342Y-103462555D01*
X166848339Y-103462556D01*
X166842203Y-103463114D01*
X166644572Y-103521280D01*
X166462002Y-103616726D01*
X166457201Y-103620586D01*
X166457198Y-103620588D01*
X166306254Y-103741950D01*
X166301447Y-103745815D01*
X166169024Y-103903630D01*
X166166056Y-103909028D01*
X166166053Y-103909033D01*
X166078059Y-104069096D01*
X166069776Y-104084162D01*
X166007484Y-104280532D01*
X166006798Y-104286649D01*
X166006797Y-104286653D01*
X165985207Y-104479137D01*
X165984520Y-104485262D01*
X165550500Y-104485262D01*
X165550500Y-103630252D01*
X165538867Y-103571769D01*
X165494552Y-103505448D01*
X165428231Y-103461133D01*
X165416062Y-103458712D01*
X165416061Y-103458712D01*
X165375816Y-103450707D01*
X165369748Y-103449500D01*
X163630252Y-103449500D01*
X163624184Y-103450707D01*
X163583939Y-103458712D01*
X163583938Y-103458712D01*
X163571769Y-103461133D01*
X163505448Y-103505448D01*
X163461133Y-103571769D01*
X163449500Y-103630252D01*
X163449500Y-105369748D01*
X160775500Y-105369748D01*
X160775500Y-101913497D01*
X160777979Y-101890209D01*
X160778078Y-101888111D01*
X160780269Y-101877934D01*
X160776373Y-101845016D01*
X160776029Y-101839179D01*
X160775928Y-101839187D01*
X160775500Y-101834008D01*
X160775500Y-101828807D01*
X160772372Y-101810013D01*
X160771535Y-101804137D01*
X160766800Y-101764133D01*
X160765576Y-101753790D01*
X160761654Y-101745623D01*
X160760167Y-101736687D01*
X160755223Y-101727525D01*
X160755222Y-101727521D01*
X160736094Y-101692071D01*
X160733398Y-101686780D01*
X160714897Y-101648251D01*
X160714896Y-101648250D01*
X160711463Y-101641100D01*
X160707906Y-101636869D01*
X160705974Y-101634937D01*
X160704255Y-101633063D01*
X160704181Y-101632926D01*
X160704291Y-101632826D01*
X160703868Y-101632346D01*
X160700806Y-101626671D01*
X160661632Y-101590459D01*
X160658067Y-101587030D01*
X158510204Y-99439167D01*
X158476178Y-99376855D01*
X158481243Y-99306040D01*
X158493331Y-99281905D01*
X158496093Y-99277611D01*
X158498619Y-99273684D01*
X158602428Y-99043236D01*
X158671034Y-98799976D01*
X158687263Y-98672409D01*
X158702533Y-98552378D01*
X158702533Y-98552372D01*
X158702931Y-98549247D01*
X158705268Y-98460000D01*
X158686537Y-98207945D01*
X158630756Y-97961428D01*
X158629063Y-97957074D01*
X158540843Y-97730216D01*
X158540842Y-97730214D01*
X158539150Y-97725863D01*
X158413731Y-97506426D01*
X158257255Y-97307938D01*
X158073160Y-97134758D01*
X157865489Y-96990691D01*
X157861296Y-96988623D01*
X157642993Y-96880968D01*
X157642990Y-96880967D01*
X157638805Y-96878903D01*
X157594379Y-96864682D01*
X157542403Y-96848045D01*
X157398087Y-96801849D01*
X157393480Y-96801099D01*
X157393477Y-96801098D01*
X157153235Y-96761972D01*
X157153236Y-96761972D01*
X157148624Y-96761221D01*
X157026026Y-96759616D01*
X156900573Y-96757974D01*
X156900570Y-96757974D01*
X156895896Y-96757913D01*
X156645455Y-96791996D01*
X156640965Y-96793305D01*
X156640959Y-96793306D01*
X156537851Y-96823360D01*
X156402803Y-96862723D01*
X156398556Y-96864681D01*
X156398553Y-96864682D01*
X156363226Y-96880968D01*
X156173270Y-96968539D01*
X156169361Y-96971102D01*
X155965812Y-97104554D01*
X155965807Y-97104558D01*
X155961899Y-97107120D01*
X155773333Y-97275421D01*
X155611715Y-97469746D01*
X155480595Y-97685825D01*
X155478786Y-97690139D01*
X155478785Y-97690141D01*
X155389918Y-97902066D01*
X155382854Y-97918911D01*
X155381703Y-97923443D01*
X155381702Y-97923446D01*
X155354791Y-98029409D01*
X155320639Y-98163883D01*
X155295316Y-98415361D01*
X153209057Y-98415361D01*
X153209057Y-95593459D01*
X153229059Y-95525338D01*
X153245962Y-95504364D01*
X155084405Y-93665921D01*
X155146717Y-93631895D01*
X155217532Y-93636960D01*
X155274368Y-93679507D01*
X155299179Y-93746027D01*
X155299500Y-93755016D01*
X155299500Y-93809748D01*
X155311133Y-93868231D01*
X155355448Y-93934552D01*
X155421769Y-93978867D01*
X155433938Y-93981288D01*
X155433939Y-93981288D01*
X155474184Y-93989293D01*
X155480252Y-93990500D01*
X158519748Y-93990500D01*
X158525816Y-93989293D01*
X158566061Y-93981288D01*
X158566062Y-93981288D01*
X158578231Y-93978867D01*
X158644552Y-93934552D01*
X158688867Y-93868231D01*
X158700500Y-93809748D01*
X158700500Y-90770252D01*
X158688867Y-90711769D01*
X158644552Y-90645448D01*
X158578231Y-90601133D01*
X158566062Y-90598712D01*
X158566061Y-90598712D01*
X158525816Y-90590707D01*
X158519748Y-90589500D01*
X155480252Y-90589500D01*
X155474184Y-90590707D01*
X155433939Y-90598712D01*
X155433938Y-90598712D01*
X155421769Y-90601133D01*
X155355448Y-90645448D01*
X155311133Y-90711769D01*
X155299500Y-90770252D01*
X155299500Y-92477984D01*
X155279498Y-92546105D01*
X155262595Y-92567079D01*
X152974152Y-94855522D01*
X152911840Y-94889548D01*
X152841025Y-94884483D01*
X152784189Y-94841936D01*
X152759378Y-94775416D01*
X152759057Y-94766427D01*
X152759057Y-86753459D01*
X152779059Y-86685338D01*
X152795962Y-86664364D01*
X154997921Y-84462405D01*
X155060233Y-84428379D01*
X155087016Y-84425500D01*
X166480290Y-84425500D01*
X166491272Y-84425980D01*
X166517820Y-84428303D01*
X166517822Y-84428303D01*
X166528807Y-84429264D01*
X166565215Y-84419508D01*
X166575942Y-84417130D01*
X166579301Y-84416538D01*
X166613045Y-84410588D01*
X166622590Y-84405077D01*
X166625866Y-84403885D01*
X166629034Y-84402408D01*
X166639684Y-84399554D01*
X166670544Y-84377945D01*
X166679815Y-84372039D01*
X166702906Y-84358707D01*
X166712455Y-84353194D01*
X166736685Y-84324317D01*
X166744111Y-84316215D01*
X167002922Y-84057404D01*
X167065234Y-84023378D01*
X167092017Y-84020499D01*
X167299832Y-84020499D01*
X167302782Y-84020220D01*
X167302787Y-84020220D01*
X167322850Y-84018324D01*
X167322851Y-84018324D01*
X167330500Y-84017601D01*
X167337748Y-84015056D01*
X167337751Y-84015055D01*
X167445879Y-83977083D01*
X167445881Y-83977082D01*
X167454768Y-83973961D01*
X167462343Y-83968366D01*
X167462345Y-83968365D01*
X167553140Y-83901303D01*
X167560711Y-83895711D01*
X167569520Y-83883785D01*
X167633365Y-83797345D01*
X167633366Y-83797343D01*
X167638961Y-83789768D01*
X167645645Y-83770737D01*
X167680056Y-83672748D01*
X167680057Y-83672746D01*
X167682601Y-83665500D01*
X167685500Y-83634833D01*
X167685499Y-83030168D01*
X167682601Y-82999500D01*
X167638961Y-82875232D01*
X167560711Y-82769289D01*
X167553140Y-82763697D01*
X167462345Y-82696635D01*
X167462343Y-82696634D01*
X167454768Y-82691039D01*
X167445881Y-82687918D01*
X167445879Y-82687917D01*
X167337748Y-82649944D01*
X167337746Y-82649943D01*
X167330500Y-82647399D01*
X167322856Y-82646676D01*
X167322854Y-82646676D01*
X167314879Y-82645922D01*
X167299833Y-82644500D01*
X167010147Y-82644500D01*
X166720168Y-82644501D01*
X166717218Y-82644780D01*
X166717213Y-82644780D01*
X166697150Y-82646676D01*
X166697149Y-82646676D01*
X166689500Y-82647399D01*
X166682252Y-82649944D01*
X166682249Y-82649945D01*
X166574121Y-82687917D01*
X166574119Y-82687918D01*
X166565232Y-82691039D01*
X166557657Y-82696634D01*
X166557655Y-82696635D01*
X166466860Y-82763697D01*
X166459289Y-82769289D01*
X166381039Y-82875232D01*
X166337399Y-82999500D01*
X166334500Y-83030167D01*
X166334501Y-83634832D01*
X166334780Y-83637781D01*
X166334920Y-83640751D01*
X166333875Y-83640800D01*
X166321154Y-83706372D01*
X166272099Y-83757695D01*
X166209231Y-83774500D01*
X154919713Y-83774500D01*
X154908732Y-83774021D01*
X154882170Y-83771697D01*
X154882168Y-83771697D01*
X154871193Y-83770737D01*
X154834783Y-83780492D01*
X154824076Y-83782866D01*
X154786955Y-83789412D01*
X154777412Y-83794921D01*
X154774140Y-83796112D01*
X154770967Y-83797592D01*
X154760316Y-83800446D01*
X154729456Y-83822055D01*
X154720185Y-83827961D01*
X154697094Y-83841293D01*
X154687545Y-83846806D01*
X154680459Y-83855251D01*
X154663315Y-83875682D01*
X154655889Y-83883785D01*
X152217342Y-86322332D01*
X152209238Y-86329759D01*
X152180363Y-86353988D01*
X152174850Y-86363537D01*
X152161518Y-86386628D01*
X152155612Y-86395899D01*
X152134003Y-86426759D01*
X152131149Y-86437409D01*
X152129672Y-86440577D01*
X152128480Y-86443853D01*
X152122969Y-86453398D01*
X152119008Y-86475863D01*
X152116427Y-86490501D01*
X152114049Y-86501228D01*
X152104293Y-86537636D01*
X152105254Y-86548621D01*
X152105254Y-86548623D01*
X152107577Y-86575171D01*
X152108057Y-86586153D01*
X152108057Y-127593847D01*
X152107577Y-127604829D01*
X152104293Y-127642364D01*
X151200500Y-127642364D01*
X151200500Y-81519748D01*
X154009500Y-81519748D01*
X154021133Y-81578231D01*
X154065448Y-81644552D01*
X154131769Y-81688867D01*
X154143938Y-81691288D01*
X154143939Y-81691288D01*
X154184184Y-81699293D01*
X154190252Y-81700500D01*
X157229748Y-81700500D01*
X157235816Y-81699293D01*
X157276061Y-81691288D01*
X157276062Y-81691288D01*
X157288231Y-81688867D01*
X157354552Y-81644552D01*
X157398867Y-81578231D01*
X157410500Y-81519748D01*
X157410500Y-79955361D01*
X159085316Y-79955361D01*
X159097443Y-80207820D01*
X159146752Y-80455713D01*
X159148331Y-80460111D01*
X159148333Y-80460118D01*
X159230577Y-80689186D01*
X159232160Y-80693595D01*
X159351792Y-80916240D01*
X159354587Y-80919984D01*
X159354589Y-80919986D01*
X159500226Y-81115018D01*
X159500231Y-81115024D01*
X159503018Y-81118756D01*
X159506327Y-81122036D01*
X159506332Y-81122042D01*
X159679200Y-81293408D01*
X159682517Y-81296696D01*
X159686279Y-81299454D01*
X159686282Y-81299457D01*
X159882575Y-81443384D01*
X159886346Y-81446149D01*
X159890481Y-81448325D01*
X159890485Y-81448327D01*
X160007952Y-81510129D01*
X160110026Y-81563833D01*
X160348644Y-81647162D01*
X160353237Y-81648034D01*
X160592369Y-81693435D01*
X160592372Y-81693435D01*
X160596958Y-81694306D01*
X160717081Y-81699026D01*
X160844845Y-81704046D01*
X160844850Y-81704046D01*
X160849513Y-81704229D01*
X160927657Y-81695671D01*
X161096107Y-81677223D01*
X161096112Y-81677222D01*
X161100760Y-81676713D01*
X161105284Y-81675522D01*
X161340658Y-81613554D01*
X161340661Y-81613553D01*
X161345181Y-81612363D01*
X161577405Y-81512591D01*
X161684774Y-81446149D01*
X161788358Y-81382050D01*
X161788362Y-81382047D01*
X161792331Y-81379591D01*
X161886989Y-81299457D01*
X161981672Y-81219302D01*
X161981673Y-81219301D01*
X161985238Y-81216283D01*
X162034451Y-81160167D01*
X164334500Y-81160167D01*
X164334501Y-81839832D01*
X164337399Y-81870500D01*
X164339944Y-81877748D01*
X164339945Y-81877751D01*
X164373165Y-81972345D01*
X164381039Y-81994768D01*
X164459289Y-82100711D01*
X164466860Y-82106303D01*
X164557655Y-82173365D01*
X164557657Y-82173366D01*
X164565232Y-82178961D01*
X164574119Y-82182082D01*
X164574121Y-82182083D01*
X164682252Y-82220056D01*
X164682254Y-82220057D01*
X164689500Y-82222601D01*
X164697144Y-82223324D01*
X164697146Y-82223324D01*
X164705121Y-82224078D01*
X164720167Y-82225500D01*
X165009853Y-82225500D01*
X165299832Y-82225499D01*
X165302782Y-82225220D01*
X165302787Y-82225220D01*
X165322850Y-82223324D01*
X165322851Y-82223324D01*
X165330500Y-82222601D01*
X165337748Y-82220056D01*
X165337751Y-82220055D01*
X165445879Y-82182083D01*
X165445881Y-82182082D01*
X165454768Y-82178961D01*
X165462343Y-82173366D01*
X165462345Y-82173365D01*
X165553140Y-82106303D01*
X165560711Y-82100711D01*
X165638961Y-81994768D01*
X165646836Y-81972345D01*
X165668817Y-81909751D01*
X165710260Y-81852106D01*
X165776289Y-81826018D01*
X165787699Y-81825500D01*
X166242836Y-81825500D01*
X166310957Y-81845502D01*
X166357450Y-81899158D01*
X166361718Y-81909751D01*
X166381039Y-81964768D01*
X166386634Y-81972343D01*
X166386635Y-81972345D01*
X166453697Y-82063140D01*
X166459289Y-82070711D01*
X166466860Y-82076303D01*
X166557655Y-82143365D01*
X166557657Y-82143366D01*
X166565232Y-82148961D01*
X166574119Y-82152082D01*
X166574121Y-82152083D01*
X166682252Y-82190056D01*
X166682254Y-82190057D01*
X166689500Y-82192601D01*
X166697144Y-82193324D01*
X166697146Y-82193324D01*
X166705121Y-82194078D01*
X166720167Y-82195500D01*
X167009853Y-82195500D01*
X167299832Y-82195499D01*
X167302782Y-82195220D01*
X167302787Y-82195220D01*
X167322850Y-82193324D01*
X167322851Y-82193324D01*
X167330500Y-82192601D01*
X167337748Y-82190056D01*
X167337751Y-82190055D01*
X167445879Y-82152083D01*
X167445881Y-82152082D01*
X167454768Y-82148961D01*
X167462343Y-82143366D01*
X167462345Y-82143365D01*
X167553140Y-82076303D01*
X167560711Y-82070711D01*
X167566303Y-82063140D01*
X167633365Y-81972345D01*
X167633366Y-81972343D01*
X167638961Y-81964768D01*
X167669520Y-81877751D01*
X167680056Y-81847748D01*
X167680057Y-81847746D01*
X167682601Y-81840500D01*
X167685500Y-81809833D01*
X167685500Y-81519748D01*
X169509500Y-81519748D01*
X169521133Y-81578231D01*
X169565448Y-81644552D01*
X169631769Y-81688867D01*
X169643938Y-81691288D01*
X169643939Y-81691288D01*
X169684184Y-81699293D01*
X169690252Y-81700500D01*
X172729748Y-81700500D01*
X172735816Y-81699293D01*
X172776061Y-81691288D01*
X172776062Y-81691288D01*
X172788231Y-81688867D01*
X172854552Y-81644552D01*
X172898867Y-81578231D01*
X172910500Y-81519748D01*
X172910500Y-79955361D01*
X174585316Y-79955361D01*
X174597443Y-80207820D01*
X174646752Y-80455713D01*
X174648331Y-80460111D01*
X174648333Y-80460118D01*
X174730577Y-80689186D01*
X174732160Y-80693595D01*
X174851792Y-80916240D01*
X174854587Y-80919984D01*
X174854589Y-80919986D01*
X175000226Y-81115018D01*
X175000231Y-81115024D01*
X175003018Y-81118756D01*
X175006327Y-81122036D01*
X175006332Y-81122042D01*
X175179200Y-81293408D01*
X175182517Y-81296696D01*
X175186279Y-81299454D01*
X175186282Y-81299457D01*
X175382575Y-81443384D01*
X175386346Y-81446149D01*
X175390481Y-81448325D01*
X175390485Y-81448327D01*
X175507952Y-81510129D01*
X175610026Y-81563833D01*
X175848644Y-81647162D01*
X175853237Y-81648034D01*
X176092369Y-81693435D01*
X176092372Y-81693435D01*
X176096958Y-81694306D01*
X176217081Y-81699026D01*
X176344845Y-81704046D01*
X176344850Y-81704046D01*
X176349513Y-81704229D01*
X176427657Y-81695671D01*
X176596107Y-81677223D01*
X176596112Y-81677222D01*
X176600760Y-81676713D01*
X176605284Y-81675522D01*
X176840658Y-81613554D01*
X176840661Y-81613553D01*
X176845181Y-81612363D01*
X177077405Y-81512591D01*
X177184774Y-81446149D01*
X177288358Y-81382050D01*
X177288362Y-81382047D01*
X177292331Y-81379591D01*
X177386989Y-81299457D01*
X177481672Y-81219302D01*
X177481673Y-81219301D01*
X177485238Y-81216283D01*
X177561345Y-81129500D01*
X177648806Y-81029771D01*
X177648810Y-81029766D01*
X177651888Y-81026256D01*
X177654418Y-81022323D01*
X177786094Y-80817610D01*
X177786096Y-80817607D01*
X177788619Y-80813684D01*
X177892428Y-80583236D01*
X177961034Y-80339976D01*
X177977263Y-80212409D01*
X177992533Y-80092378D01*
X177992533Y-80092372D01*
X177992931Y-80089247D01*
X177995268Y-80000000D01*
X177976537Y-79747945D01*
X177920756Y-79501428D01*
X177829150Y-79265863D01*
X177703731Y-79046426D01*
X177547255Y-78847938D01*
X177363160Y-78674758D01*
X177155489Y-78530691D01*
X177151296Y-78528623D01*
X176932993Y-78420968D01*
X176932990Y-78420967D01*
X176928805Y-78418903D01*
X176884379Y-78404682D01*
X176762788Y-78365761D01*
X176688087Y-78341849D01*
X176683480Y-78341099D01*
X176683477Y-78341098D01*
X176443235Y-78301972D01*
X176443236Y-78301972D01*
X176438624Y-78301221D01*
X176316026Y-78299616D01*
X176190573Y-78297974D01*
X176190570Y-78297974D01*
X176185896Y-78297913D01*
X175935455Y-78331996D01*
X175930965Y-78333305D01*
X175930959Y-78333306D01*
X175854995Y-78355448D01*
X175692803Y-78402723D01*
X175688556Y-78404681D01*
X175688553Y-78404682D01*
X175653226Y-78420968D01*
X175463270Y-78508539D01*
X175459361Y-78511102D01*
X175255812Y-78644554D01*
X175255807Y-78644558D01*
X175251899Y-78647120D01*
X175063333Y-78815421D01*
X174901715Y-79009746D01*
X174770595Y-79225825D01*
X174768786Y-79230139D01*
X174768785Y-79230141D01*
X174753806Y-79265863D01*
X174672854Y-79458911D01*
X174610639Y-79703883D01*
X174585316Y-79955361D01*
X172910500Y-79955361D01*
X172910500Y-78480252D01*
X172898867Y-78421769D01*
X172854552Y-78355448D01*
X172788231Y-78311133D01*
X172776062Y-78308712D01*
X172776061Y-78308712D01*
X172735816Y-78300707D01*
X172729748Y-78299500D01*
X169690252Y-78299500D01*
X169684184Y-78300707D01*
X169643939Y-78308712D01*
X169643938Y-78308712D01*
X169631769Y-78311133D01*
X169565448Y-78355448D01*
X169521133Y-78421769D01*
X169509500Y-78480252D01*
X169509500Y-81519748D01*
X167685500Y-81519748D01*
X167685499Y-81205168D01*
X167682601Y-81174500D01*
X167680055Y-81167249D01*
X167642083Y-81059121D01*
X167642082Y-81059119D01*
X167638961Y-81050232D01*
X167623849Y-81029771D01*
X167566303Y-80951860D01*
X167560711Y-80944289D01*
X167527807Y-80919986D01*
X167462345Y-80871635D01*
X167462343Y-80871634D01*
X167454768Y-80866039D01*
X167445881Y-80862918D01*
X167445879Y-80862917D01*
X167337748Y-80824944D01*
X167337746Y-80824943D01*
X167330500Y-80822399D01*
X167322856Y-80821676D01*
X167322854Y-80821676D01*
X167314879Y-80820922D01*
X167299833Y-80819500D01*
X167010147Y-80819500D01*
X166720168Y-80819501D01*
X166717218Y-80819780D01*
X166717213Y-80819780D01*
X166697150Y-80821676D01*
X166697149Y-80821676D01*
X166689500Y-80822399D01*
X166682252Y-80824944D01*
X166682249Y-80824945D01*
X166574121Y-80862917D01*
X166574119Y-80862918D01*
X166565232Y-80866039D01*
X166557657Y-80871634D01*
X166557655Y-80871635D01*
X166492193Y-80919986D01*
X166459289Y-80944289D01*
X166453697Y-80951860D01*
X166396152Y-81029771D01*
X166381039Y-81050232D01*
X166366985Y-81090252D01*
X166325543Y-81147894D01*
X166259514Y-81173982D01*
X166248104Y-81174500D01*
X165787699Y-81174500D01*
X165719578Y-81154498D01*
X165673085Y-81100842D01*
X165668817Y-81090249D01*
X165642083Y-81014121D01*
X165642082Y-81014119D01*
X165638961Y-81005232D01*
X165560711Y-80899289D01*
X165511467Y-80862917D01*
X165462345Y-80826635D01*
X165462343Y-80826634D01*
X165454768Y-80821039D01*
X165445881Y-80817918D01*
X165445879Y-80817917D01*
X165337748Y-80779944D01*
X165337746Y-80779943D01*
X165330500Y-80777399D01*
X165322856Y-80776676D01*
X165322854Y-80776676D01*
X165314879Y-80775922D01*
X165299833Y-80774500D01*
X165010147Y-80774500D01*
X164720168Y-80774501D01*
X164717218Y-80774780D01*
X164717213Y-80774780D01*
X164697150Y-80776676D01*
X164697149Y-80776676D01*
X164689500Y-80777399D01*
X164682252Y-80779944D01*
X164682249Y-80779945D01*
X164574121Y-80817917D01*
X164574119Y-80817918D01*
X164565232Y-80821039D01*
X164557657Y-80826634D01*
X164557655Y-80826635D01*
X164508533Y-80862917D01*
X164459289Y-80899289D01*
X164381039Y-81005232D01*
X164377918Y-81014119D01*
X164377917Y-81014121D01*
X164341172Y-81118756D01*
X164337399Y-81129500D01*
X164334500Y-81160167D01*
X162034451Y-81160167D01*
X162061345Y-81129500D01*
X162148806Y-81029771D01*
X162148810Y-81029766D01*
X162151888Y-81026256D01*
X162154418Y-81022323D01*
X162286094Y-80817610D01*
X162286096Y-80817607D01*
X162288619Y-80813684D01*
X162392428Y-80583236D01*
X162461034Y-80339976D01*
X162477263Y-80212409D01*
X162492533Y-80092378D01*
X162492533Y-80092372D01*
X162492931Y-80089247D01*
X162495268Y-80000000D01*
X162476537Y-79747945D01*
X162420756Y-79501428D01*
X162329150Y-79265863D01*
X162203731Y-79046426D01*
X162047255Y-78847938D01*
X161863160Y-78674758D01*
X161655489Y-78530691D01*
X161651296Y-78528623D01*
X161432993Y-78420968D01*
X161432990Y-78420967D01*
X161428805Y-78418903D01*
X161384379Y-78404682D01*
X161262788Y-78365761D01*
X161188087Y-78341849D01*
X161183480Y-78341099D01*
X161183477Y-78341098D01*
X160943235Y-78301972D01*
X160943236Y-78301972D01*
X160938624Y-78301221D01*
X160816026Y-78299616D01*
X160690573Y-78297974D01*
X160690570Y-78297974D01*
X160685896Y-78297913D01*
X160435455Y-78331996D01*
X160430965Y-78333305D01*
X160430959Y-78333306D01*
X160354995Y-78355448D01*
X160192803Y-78402723D01*
X160188556Y-78404681D01*
X160188553Y-78404682D01*
X160153226Y-78420968D01*
X159963270Y-78508539D01*
X159959361Y-78511102D01*
X159755812Y-78644554D01*
X159755807Y-78644558D01*
X159751899Y-78647120D01*
X159563333Y-78815421D01*
X159401715Y-79009746D01*
X159270595Y-79225825D01*
X159268786Y-79230139D01*
X159268785Y-79230141D01*
X159253806Y-79265863D01*
X159172854Y-79458911D01*
X159110639Y-79703883D01*
X159085316Y-79955361D01*
X157410500Y-79955361D01*
X157410500Y-78480252D01*
X157398867Y-78421769D01*
X157354552Y-78355448D01*
X157288231Y-78311133D01*
X157276062Y-78308712D01*
X157276061Y-78308712D01*
X157235816Y-78300707D01*
X157229748Y-78299500D01*
X154190252Y-78299500D01*
X154184184Y-78300707D01*
X154143939Y-78308712D01*
X154143938Y-78308712D01*
X154131769Y-78311133D01*
X154065448Y-78355448D01*
X154021133Y-78421769D01*
X154009500Y-78480252D01*
X154009500Y-81519748D01*
X151200500Y-81519748D01*
X151200500Y-77037371D01*
X151203755Y-77008918D01*
X151204043Y-77007676D01*
X151204044Y-77007669D01*
X151205655Y-77000718D01*
X151205656Y-77000000D01*
X151204075Y-76993067D01*
X151203283Y-76985993D01*
X151204348Y-76985874D01*
X151202516Y-76964113D01*
X151217706Y-76693620D01*
X151219288Y-76679579D01*
X151221766Y-76664998D01*
X151269504Y-76384028D01*
X151272647Y-76370257D01*
X151355641Y-76082180D01*
X151360308Y-76068843D01*
X151475030Y-75791879D01*
X151481161Y-75779148D01*
X151626172Y-75516772D01*
X151633689Y-75504808D01*
X151807170Y-75260309D01*
X151815980Y-75249262D01*
X152015740Y-75025731D01*
X152025731Y-75015740D01*
X152249262Y-74815980D01*
X152260309Y-74807170D01*
X152504808Y-74633689D01*
X152516772Y-74626172D01*
X152667159Y-74543056D01*
X152779152Y-74481159D01*
X152791875Y-74475032D01*
X153068849Y-74360306D01*
X153082180Y-74355641D01*
X153370257Y-74272647D01*
X153384028Y-74269504D01*
X153679584Y-74219287D01*
X153693616Y-74217706D01*
X153963828Y-74202531D01*
X153971621Y-74203197D01*
X153971622Y-74202451D01*
X153985813Y-74202476D01*
X153999641Y-74205656D01*
X154013480Y-74202525D01*
X154018311Y-74202533D01*
X154036504Y-74200500D01*
X177962920Y-74200500D01*
X177980242Y-74202466D01*
G37*
%TD.AperFunction*%
%TD*%
%TA.AperFunction,Conductor*%
%TO.N,Net-(C1-Pad2)*%
G36*
X169312171Y-122002421D02*
G01*
X169351953Y-122010334D01*
X169397374Y-122029148D01*
X169420582Y-122044655D01*
X169455345Y-122079418D01*
X169470852Y-122102626D01*
X169489666Y-122148047D01*
X169497579Y-122187829D01*
X169500000Y-122212410D01*
X169500000Y-128033556D01*
X169479998Y-128101677D01*
X169426342Y-128148170D01*
X169357555Y-128158478D01*
X169250000Y-128144318D01*
X169241812Y-128145396D01*
X169142444Y-128158478D01*
X169093238Y-128164956D01*
X168947159Y-128225464D01*
X168940608Y-128230491D01*
X168836024Y-128310741D01*
X168821718Y-128321718D01*
X168725464Y-128447159D01*
X168664956Y-128593238D01*
X168644318Y-128750000D01*
X168664956Y-128906762D01*
X168725464Y-129052841D01*
X168821718Y-129178282D01*
X168947159Y-129274536D01*
X169093238Y-129335044D01*
X169250000Y-129355682D01*
X169403290Y-129335501D01*
X169473438Y-129346440D01*
X169500000Y-129369318D01*
X169500000Y-131500000D01*
X162500000Y-131500000D01*
X162500000Y-128683408D01*
X162520002Y-128615287D01*
X162554669Y-128579543D01*
X162554670Y-128579542D01*
X162560916Y-128576214D01*
X162614572Y-128529721D01*
X162632527Y-128512128D01*
X162677174Y-128432310D01*
X162697176Y-128364189D01*
X162697817Y-128359734D01*
X162704861Y-128310741D01*
X162704862Y-128310734D01*
X162705500Y-128306293D01*
X162705500Y-127762950D01*
X162725502Y-127694829D01*
X162779158Y-127648336D01*
X162849432Y-127638232D01*
X162873246Y-127644067D01*
X162954500Y-127672601D01*
X162962144Y-127673324D01*
X162962146Y-127673324D01*
X162970121Y-127674078D01*
X162985167Y-127675500D01*
X163337321Y-127675500D01*
X163689832Y-127675499D01*
X163692782Y-127675220D01*
X163692787Y-127675220D01*
X163712850Y-127673324D01*
X163712851Y-127673324D01*
X163720500Y-127672601D01*
X163727748Y-127670056D01*
X163727751Y-127670055D01*
X163835879Y-127632083D01*
X163835881Y-127632082D01*
X163844768Y-127628961D01*
X163852343Y-127623366D01*
X163852345Y-127623365D01*
X163943140Y-127556303D01*
X163950711Y-127550711D01*
X164028961Y-127444768D01*
X164072601Y-127320500D01*
X164075500Y-127289833D01*
X164075499Y-126710168D01*
X164072601Y-126679500D01*
X164070055Y-126672249D01*
X164032083Y-126564121D01*
X164032082Y-126564119D01*
X164028961Y-126555232D01*
X164007966Y-126526806D01*
X163956303Y-126456860D01*
X163950711Y-126449289D01*
X163865560Y-126386396D01*
X163852345Y-126376635D01*
X163852343Y-126376634D01*
X163844768Y-126371039D01*
X163835881Y-126367918D01*
X163835879Y-126367917D01*
X163727748Y-126329944D01*
X163727746Y-126329943D01*
X163720500Y-126327399D01*
X163712856Y-126326676D01*
X163712854Y-126326676D01*
X163704879Y-126325922D01*
X163689833Y-126324500D01*
X163337679Y-126324500D01*
X162985168Y-126324501D01*
X162982218Y-126324780D01*
X162982213Y-126324780D01*
X162962150Y-126326676D01*
X162962149Y-126326676D01*
X162954500Y-126327399D01*
X162873247Y-126355933D01*
X162802348Y-126359631D01*
X162740703Y-126324411D01*
X162707886Y-126261454D01*
X162705500Y-126237050D01*
X162705500Y-122212410D01*
X162704510Y-122192268D01*
X162702089Y-122167687D01*
X162699131Y-122147739D01*
X162699069Y-122147429D01*
X162707122Y-122076999D01*
X162752041Y-122022019D01*
X162823203Y-122000000D01*
X169287590Y-122000000D01*
X169312171Y-122002421D01*
G37*
%TD.AperFunction*%
%TD*%
%TA.AperFunction,Conductor*%
%TO.N,Net-(C1-Pad2)*%
G36*
X171512171Y-129502421D02*
G01*
X171551953Y-129510334D01*
X171597374Y-129529148D01*
X171620582Y-129544655D01*
X171655345Y-129579418D01*
X171670852Y-129602626D01*
X171689666Y-129648047D01*
X171697079Y-129685315D01*
X171699500Y-129709896D01*
X171699500Y-129983218D01*
X171699833Y-129985483D01*
X171700000Y-129990046D01*
X171700000Y-131287590D01*
X171697579Y-131312171D01*
X171689666Y-131351953D01*
X171670852Y-131397374D01*
X171655345Y-131420582D01*
X171620582Y-131455345D01*
X171597374Y-131470852D01*
X171551953Y-131489666D01*
X171512171Y-131497579D01*
X171487590Y-131500000D01*
X169000000Y-131500000D01*
X169000000Y-129500000D01*
X171487590Y-129500000D01*
X171512171Y-129502421D01*
G37*
%TD.AperFunction*%
%TD*%
%TA.AperFunction,Conductor*%
%TO.N,Net-(C1-Pad2)*%
G36*
X162500000Y-131500000D02*
G01*
X160712410Y-131500000D01*
X160687829Y-131497579D01*
X160648047Y-131489666D01*
X160602626Y-131470852D01*
X160579418Y-131455345D01*
X160544655Y-131420582D01*
X160529148Y-131397374D01*
X160510334Y-131351953D01*
X160502421Y-131312171D01*
X160500000Y-131287590D01*
X160500000Y-130212410D01*
X160502421Y-130187829D01*
X160510334Y-130148047D01*
X160529148Y-130102626D01*
X160544655Y-130079418D01*
X160579418Y-130044655D01*
X160602626Y-130029148D01*
X160648047Y-130010334D01*
X160687829Y-130002421D01*
X160712410Y-130000000D01*
X162500000Y-130000000D01*
X162500000Y-131500000D01*
G37*
%TD.AperFunction*%
%TD*%
%TA.AperFunction,Conductor*%
%TO.N,Net-(D1-Pad2)*%
G36*
X162312171Y-122002421D02*
G01*
X162351953Y-122010334D01*
X162397374Y-122029148D01*
X162420582Y-122044655D01*
X162455345Y-122079418D01*
X162470852Y-122102626D01*
X162489666Y-122148047D01*
X162497579Y-122187829D01*
X162500000Y-122212410D01*
X162500000Y-126328500D01*
X162479998Y-126396621D01*
X162426342Y-126443114D01*
X162374000Y-126454500D01*
X162176500Y-126454500D01*
X162108379Y-126434498D01*
X162061886Y-126380842D01*
X162050500Y-126328500D01*
X162050500Y-126276166D01*
X162047519Y-126244631D01*
X162002634Y-126116816D01*
X161997042Y-126109246D01*
X161997041Y-126109243D01*
X161927742Y-126015421D01*
X161922150Y-126007850D01*
X161905206Y-125995335D01*
X161820757Y-125932959D01*
X161820754Y-125932958D01*
X161813184Y-125927366D01*
X161685369Y-125882481D01*
X161677723Y-125881758D01*
X161677722Y-125881758D01*
X161671752Y-125881194D01*
X161653834Y-125879500D01*
X160846166Y-125879500D01*
X160828248Y-125881194D01*
X160822278Y-125881758D01*
X160822277Y-125881758D01*
X160814631Y-125882481D01*
X160686816Y-125927366D01*
X160679246Y-125932958D01*
X160679243Y-125932959D01*
X160594794Y-125995335D01*
X160577850Y-126007850D01*
X160572258Y-126015421D01*
X160502959Y-126109243D01*
X160502958Y-126109246D01*
X160497366Y-126116816D01*
X160452481Y-126244631D01*
X160449500Y-126276166D01*
X160449500Y-127283834D01*
X160452481Y-127315369D01*
X160497366Y-127443184D01*
X160502958Y-127450754D01*
X160502959Y-127450757D01*
X160565335Y-127535206D01*
X160577850Y-127552150D01*
X160585421Y-127557742D01*
X160679243Y-127627041D01*
X160679246Y-127627042D01*
X160686816Y-127632634D01*
X160814631Y-127677519D01*
X160822277Y-127678242D01*
X160822278Y-127678242D01*
X160828248Y-127678806D01*
X160846166Y-127680500D01*
X161653834Y-127680500D01*
X161671752Y-127678806D01*
X161677722Y-127678242D01*
X161677723Y-127678242D01*
X161685369Y-127677519D01*
X161813184Y-127632634D01*
X161820754Y-127627042D01*
X161820757Y-127627041D01*
X161914579Y-127557742D01*
X161922150Y-127552150D01*
X161934665Y-127535206D01*
X161997041Y-127450757D01*
X161997042Y-127450754D01*
X162002634Y-127443184D01*
X162047519Y-127315369D01*
X162050500Y-127283834D01*
X162050500Y-127231500D01*
X162070502Y-127163379D01*
X162124158Y-127116886D01*
X162176500Y-127105500D01*
X162374000Y-127105500D01*
X162442121Y-127125502D01*
X162488614Y-127179158D01*
X162500000Y-127231500D01*
X162500000Y-128306293D01*
X162479998Y-128374414D01*
X162426342Y-128420907D01*
X162356068Y-128431011D01*
X162306979Y-128411335D01*
X162306350Y-128410707D01*
X162201518Y-128359464D01*
X162171027Y-128355016D01*
X162137744Y-128350160D01*
X162137740Y-128350160D01*
X162133218Y-128349500D01*
X161041782Y-128349500D01*
X161037232Y-128350170D01*
X161037229Y-128350170D01*
X160982574Y-128358216D01*
X160982573Y-128358216D01*
X160972888Y-128359642D01*
X160942801Y-128374414D01*
X160877493Y-128406478D01*
X160877491Y-128406479D01*
X160868145Y-128411068D01*
X160785707Y-128493650D01*
X160734464Y-128598482D01*
X160724500Y-128666782D01*
X160724500Y-129033218D01*
X160725170Y-129037768D01*
X160725170Y-129037771D01*
X160734642Y-129102112D01*
X160731659Y-129102551D01*
X160732521Y-129157601D01*
X160695077Y-129217921D01*
X160630966Y-129248421D01*
X160611084Y-129250000D01*
X158712410Y-129250000D01*
X158687829Y-129247579D01*
X158648047Y-129239666D01*
X158602626Y-129220852D01*
X158579418Y-129205345D01*
X158544655Y-129170582D01*
X158529148Y-129147374D01*
X158510334Y-129101953D01*
X158502421Y-129062171D01*
X158500000Y-129037590D01*
X158500000Y-122212410D01*
X158502421Y-122187829D01*
X158510334Y-122148047D01*
X158529148Y-122102626D01*
X158544655Y-122079418D01*
X158579418Y-122044655D01*
X158602626Y-122029148D01*
X158648047Y-122010334D01*
X158687829Y-122002421D01*
X158712410Y-122000000D01*
X162287590Y-122000000D01*
X162312171Y-122002421D01*
G37*
%TD.AperFunction*%
%TD*%
M02*
